<svg xmlns="http://www.w3.org/2000/svg" width="478" height="530.98" viewBox="0 0 478 530.98"><defs><style>.cls-1{fill:#800983;}.cls-2{fill:#ff3600;}.cls-3{opacity:0.62;}.cls-4{fill:#1adeff;}.cls-5{opacity:0.2;}.cls-6{fill:#500754;}.cls-7{fill:#e7e21a;}.cls-8{opacity:0.75;}.cls-9{fill:#20ee6a;}.cls-10{fill:#1be800;}.cls-11{opacity:0.35;}.cls-12{fill:#9a0aa2;}.cls-13{fill:#fff;}.cls-14{fill:#e9003e;}</style></defs><title>dyr</title><g id="level_up"><path class="cls-1" d="M219.48,420.5l.86-4.82a6.5,6.5,0,1,0-12.8-2.28l-.88,4.92A6.5,6.5,0,0,0,217.75,424a5,5,0,0,1,1.3-2.4A4.62,4.62,0,0,1,219.48,420.5Z"/><path class="cls-1" d="M214.76,383h0A34,34,0,0,1,170,365.58l-.72-7.1a83.47,83.47,0,0,0-3.64-17.41l-1.7-5.25a21.28,21.28,0,0,0-6.62-9.8l-7.46-6.21A34,34,0,0,1,167.24,275h0a34,34,0,0,1,44.81,17.42l20.14,45.77A34,34,0,0,1,214.76,383Z"/><path class="cls-1" d="M40.51,250.63s-.88,36.18,60.82,47.83h.21a5,5,0,0,1,2.12.43l.2,0-.07,0a5.2,5.2,0,0,1,.61.37,4.71,4.71,0,0,1,2.81,1h0a4.65,4.65,0,0,1,3.09,1.06,4.5,4.5,0,0,1,3.4,1.68,3,3,0,0,1,.36.15c13,3.89,26.06,9.27,36.34,17.08l72.44-41.42S87.3,188.39,40.51,250.63Z"/><path class="cls-2" d="M54.2,256.65c.45,2.52-2,5.84-11.34,1.13-9.14-4.57-19.41-13.61-17.66-13.39,1.58.07,13,6.9,20,8.67C52.43,255,53.68,253.91,54.2,256.65Z"/><path class="cls-2" d="M68.49,240c4,.45,9.41-2.55,2.62-13.42-6.61-10.63-20.23-22.43-20-20.38,0,1.87,10,15.09,12.32,23.34C66,238,64.16,239.52,68.49,240Z"/><path class="cls-2" d="M59.45,240.65c-.39,3.48-5,7.44-15.58-.76-10.41-8-20.55-22.2-18.31-21.56,2.08.42,14.61,11.89,23.32,15.68C57.74,238.05,59.84,236.85,59.45,240.65Z"/><g class="cls-3"><ellipse class="cls-4" cx="83.11" cy="260.6" rx="18.36" ry="23.38" transform="translate(-190.09 274.06) rotate(-75.13)"/></g><path class="cls-1" d="M217.34,433a166.8,166.8,0,0,0,.31-6,4.93,4.93,0,0,1,.11-.67,5.51,5.51,0,0,1,.65-4,7.17,7.17,0,0,0-2.91-5.25l-18-150.31c-10.08,22.14-5.81,47.63-13.67,70.52-3.23,9.43-8.24,17.82-13.64,26-.08,26.12-1.51,89.2-13.13,112.22,0,0,47.92,47.68,52.28-21.09a125,125,0,0,0,7.21-18.25A5.48,5.48,0,0,1,217.34,433Z"/><path class="cls-2" d="M185.47,483.18c1.62-.4,3.82.87,1,6.63S178,502,178.14,501s4.2-8,5.19-12.28S183.71,483.63,185.47,483.18Z"/><path class="cls-2" d="M174.42,475.62c.2-2.37-1.85-5.42-8.75-.84-6.74,4.46-14.09,13.13-12.77,12.89s9.56-6.72,14.85-8.51C173.16,477.22,174.18,478.2,174.42,475.62Z"/><path class="cls-2" d="M175,480.93c2.25,0,4.91,2.53-.17,9.23s-14,13.31-13.58,11.95,7.4-9.26,9.67-14.6C173.36,482.07,172.54,480.9,175,480.93Z"/><path class="cls-1" d="M323.22,263.63s123.61,64,88.76,123.63c0,0-30.49,15.58-62.73-27.51,0,0-2.54,90.78,13.07,123.79,0,0-43.49,36.67-52.27-21.09,0,0-18.21-36-18.23-36.68"/><g id="skygge_mave" class="cls-5"><path class="cls-6" d="M202.32,261.41c2.09,2.87-32.35,163.27,55.52,171.22C369.36,442.71,326.18,259,326.18,259Z"/></g><g id="mave"><path class="cls-7" d="M207.2,261.32s-35.39,173.1,50.33,171.43c96.69-1.9,61.13-173.62,61.13-173.62Z"/></g><g class="cls-8"><path class="cls-9" d="M259.86,305.07c-24.71,0-38.44-3.25-39.29-3.46l1-3.88c.31.07,31.42,7.41,84.22,0l.56,4A332.69,332.69,0,0,1,259.86,305.07Z"/></g><g class="cls-8"><path class="cls-9" d="M257.28,314.58c-23.15,0-36.07-.66-36.26-.67l0-1c.29,0,29.34,1.49,78.61,0l0,1C283.2,314.41,268.94,314.58,257.28,314.58Z"/></g><g class="cls-8"><path class="cls-9" d="M260.43,327.92c-23.51,0-36.58-2.11-37.39-2.25l.82-4.93c.29.05,30,4.82,80.31,0l.48,5C287.33,327.36,272.5,327.92,260.43,327.92Z"/></g><g class="cls-8"><path class="cls-9" d="M261.69,359.28c-22.95,0-35.77-3.32-36-3.37l.26-1c.28.08,28.93,7.49,77.54,0l.16,1A276.24,276.24,0,0,1,261.69,359.28Z"/></g><g class="cls-8"><path class="cls-9" d="M257.17,371.16c-24.18,0-37.7-2.16-37.9-2.2l.33-2c.3.05,30.46,4.86,81.61,0l.19,2C284.19,370.61,269.33,371.16,257.17,371.16Z"/></g><g class="cls-8"><path class="cls-9" d="M258.62,385.62c-25.22,0-39.33-3.35-39.54-3.4l.71-2.91c.31.07,31.5,7.44,84.41,0l.42,3A330.69,330.69,0,0,1,258.62,385.62Z"/></g><g class="cls-8"><path class="cls-10" d="M254.75,398.86a293.76,293.76,0,0,1-30-1.21l.67-6c.23,0,24.06,2.59,64.49,0l.38,6C276.35,398.56,264.44,398.86,254.75,398.86Z"/></g><g class="cls-8"><path class="cls-9" d="M260.3,408c-16.32,0-25.4-3.26-26-3.47l.69-1.88c.21.08,20.72,7.41,55.53,0l.42,2A146.86,146.86,0,0,1,260.3,408Z"/></g><g class="cls-8"><path class="cls-9" d="M253.78,338.21c-22.54,0-35.13-2.16-35.32-2.19l.35-2c.28.05,28.35,4.86,76,0l.21,2A405.89,405.89,0,0,1,253.78,338.21Z"/></g><g class="cls-8"><path class="cls-9" d="M258.62,348.45c-25.22,0-39.33-3.35-39.54-3.4l.71-2.91c.31.07,31.5,7.44,84.41,0l.42,3A329.15,329.15,0,0,1,258.62,348.45Z"/></g><g id="striber" class="cls-8"><path class="cls-9" d="M261.16,293.81c-27.35,0-42.66-3.63-42.88-3.69l.71-2.91c.34.08,34.21,8.08,91.67,0l.42,3A358.15,358.15,0,0,1,261.16,293.81Z"/></g><path class="cls-1" d="M129.38,118.85C144.93,101.1,240.85,2.55,374.58,103c0,0,27.88,45.27,14.81,97,0,0,12.2,50.82-122,81.31,0,0-83.64-11.09-120.23-44.35,0,0-45.3-39.73-21.73-115.73C125.94,119.7,128.33,120.05,129.38,118.85Z"/><g class="cls-11"><path class="cls-1" d="M205.46,261.32s29.8,25.83,113.4,0c0,0-6.13,47.52-45.34,47.52C273.52,308.84,205.57,315.26,205.46,261.32Z"/></g><path class="cls-1" d="M119.37,177.4c-36.54-15.91-44.49-54.7-44.49-54.7s-7-80.69,20-85.28,61.89,57.73,61.89,57.73l-13.65,21.49Z"/><g class="cls-5"><path class="cls-6" d="M142.84,116.28l-8.93,24s-59-17.55-39-102.83C94.92,37.42,128.9,62.18,142.84,116.28Z"/></g><path class="cls-12" d="M156.78,95.19l-13.94,21.09S104.5,31,94.92,37.42C94.92,37.42,141.09,38.34,156.78,95.19Z"/><path class="cls-1" d="M341.49,85.27s48.57,14,48.57,71.36c0,0,44-14.36,39.4-76.87,0,0,2.74-18.39-19.25-48.73L403.8,20s-8.25,20.23-14.66,20.23C380,40.23,340.58,59.53,341.49,85.27Z"/><g class="cls-5"><path class="cls-6" d="M398.11,33.75s19.16,55-29.62,67.86Z"/></g><path class="cls-12" d="M341.48,81.44s0-32.1,55.77-47.91c0,0,8,43.09-28.76,68.08C368.49,101.61,356.29,85.1,341.48,81.44Z"/><ellipse class="cls-13" cx="194.68" cy="140.58" rx="61.42" ry="64.64"/><ellipse cx="214.28" cy="114.45" rx="19.17" ry="20.17"/><ellipse class="cls-13" cx="320.13" cy="140.58" rx="61.42" ry="64.64"/><ellipse cx="339.74" cy="114.45" rx="19.17" ry="20.17"/><path class="cls-2" d="M400.94,375.88c-2.25.67-4.13,3.81,3.12,8.84,7.07,4.93,18.24,8.91,17.44,7.7-.63-1.14-10.38-6.84-14.37-11.35C403,376.52,403.4,375.16,400.94,375.88Z"/><path class="cls-2" d="M409.6,358.63c-1.79-2.76-1.25-8,10.19-7.32,11.18.62,25.84,6,24.06,6.63-1.54.74-16.1-1.37-23.76.24C412.19,359.69,411.58,361.63,409.6,358.63Z"/><path class="cls-2" d="M412.33,365.57c-2.75,1.68-4.4,6.65,6.21,11.23,10.35,4.49,25.77,6.3,24.43,4.89-1.09-1.37-15.09-6-21.35-11C415.09,365.79,415.34,363.76,412.33,365.57Z"/><path class="cls-2" d="M336.15,486.36c-1.52-.72-3.9.09-2.16,6.32s6,13.65,6.13,12.6-2.66-8.72-2.87-13.1S337.8,487.16,336.15,486.36Z"/><path class="cls-2" d="M348.38,481.17c.23-2.37,2.8-4.95,8.73.94,5.81,5.73,11.45,15.72,10.19,15.22-1.16-.34-8.15-8.52-13-11.34C349.32,483,348.14,483.75,348.38,481.17Z"/><path class="cls-2" d="M346.83,486.26c-2.22-.41-5.28,1.5-1.51,9.1,3.67,7.44,11.26,15.87,11.15,14.46s-5.57-10.57-6.83-16.27S349.26,486.73,346.83,486.26Z"/><g class="cls-3"><ellipse class="cls-4" cx="385.04" cy="355.14" rx="16.69" ry="19.48" transform="translate(-132.48 436.1) rotate(-51.58)"/></g><path d="M337.5,219.5a30.89,30.89,0,0,0-.94-7.5h-9.32c.89.23,1.94,1.33,2.84,4.12,1.61,5,1.94,12.17,1.38,11.49s-2.13-7.24-4-10.35-2.78-3.22-1.93-4.52a1.8,1.8,0,0,1,1-.74h-132a1.8,1.8,0,0,1,1,.74c.85,1.3,0,1.29-1.92,4.52s-3.5,9.79-4,10.35-.23-6.51,1.39-11.49c.89-2.79,1.94-3.89,2.84-4.12h-9.25a30.89,30.89,0,0,0-.94,7.5c0,19.28,18.24,35.89,44.54,43.53,0-.24,0-.47,0-.71a21.3,21.3,0,0,1,31.81-18.55A22.5,22.5,0,0,1,293.12,263C319.33,255.33,337.5,238.74,337.5,219.5Zm-136.95,1.4c-3.15,5.13-5.76,16.12-6.67,17-.91,1.12-.37-10.73,2.29-18.93,2.69-8.39,6.24-7.52,7.54-5.56C205.12,215.6,203.69,215.57,200.55,220.9Zm12,2.81c-2.68,7.5-2.67,22.26-3.63,23.73-.9,1.71-4.09-13.48-3.1-24.73,1-11.5,6.2-11.52,8.67-9.45C217.12,215.54,215.12,216,212.51,223.71ZM312,247.44c-1-1.47-.94-16.23-3.63-23.73-2.61-7.75-4.61-8.17-1.94-10.45,2.47-2.07,7.71-2,8.68,9.45C316.13,234,313,249.15,312,247.44Zm5.17-34c1.3-2,4.85-2.83,7.55,5.56,2.66,8.2,3.2,20,2.28,18.93-.91-.93-3.52-11.92-6.66-17C317.23,215.57,315.8,215.6,317.21,213.46Z"/><path class="cls-13" d="M196.17,219c-2.66,8.2-3.2,20-2.29,18.93.91-.93,3.52-11.92,6.67-17,3.14-5.33,4.57-5.3,3.16-7.44C202.41,211.5,198.86,210.63,196.17,219Z"/><path class="cls-13" d="M240.74,216.49c-1.1,5.1-.72,12.27-.23,11.54s1.4-7.39,3-10.67,2.43-3.47,1.46-4.68S241.87,211.27,240.74,216.49Z"/><path class="cls-13" d="M246.6,215.6c-.89,4.12-.58,9.91-.19,9.32s1.13-6,2.42-8.62,2-2.8,1.18-3.78S247.51,211.38,246.6,215.6Z"/><path class="cls-13" d="M279.62,216.49c1.11,5.1.72,12.27.24,11.54s-1.4-7.39-3-10.67-2.44-3.47-1.46-4.68S278.5,211.27,279.62,216.49Z"/><path class="cls-13" d="M273.77,215.6c.89,4.12.58,9.91.19,9.32s-1.14-6-2.42-8.62-2-2.8-1.18-3.78S272.86,211.38,273.77,215.6Z"/><path class="cls-13" d="M214.45,213.26c-2.47-2.07-7.7-2-8.67,9.45-1,11.25,2.2,26.44,3.1,24.73,1-1.47,1-16.23,3.63-23.73C215.12,216,217.12,215.54,214.45,213.26Z"/><path class="cls-13" d="M193.69,212h.75A1.46,1.46,0,0,0,193.69,212Z"/><path class="cls-13" d="M190.85,216.12c-1.62,5-1.95,12.17-1.39,11.49s2.14-7.24,4-10.35,2.77-3.22,1.92-4.52a1.8,1.8,0,0,0-1-.74h-.75C192.79,212.23,191.74,213.33,190.85,216.12Z"/><path class="cls-13" d="M324.76,219c-2.7-8.39-6.25-7.52-7.55-5.56-1.41,2.14,0,2.11,3.17,7.44,3.14,5.13,5.75,16.12,6.66,17C328,239.07,327.42,227.22,324.76,219Z"/><path class="cls-13" d="M306.47,213.26c-2.67,2.28-.67,2.7,1.94,10.45,2.69,7.5,2.67,22.26,3.63,23.73.91,1.71,4.09-13.48,3.11-24.73C314.18,211.21,308.94,211.19,306.47,213.26Z"/><path class="cls-13" d="M326.48,212h.76A1.5,1.5,0,0,0,326.48,212Z"/><path class="cls-13" d="M325.49,212.74c-.85,1.3,0,1.29,1.93,4.52s3.49,9.79,4,10.35.23-6.51-1.38-11.49c-.9-2.79-1.95-3.89-2.84-4.12h-.76A1.8,1.8,0,0,0,325.49,212.74Z"/><path class="cls-14" d="M270.63,241a22.45,22.45,0,0,0-10.82,2.77A21.3,21.3,0,0,0,228,262.32c0,.24,0,.47,0,.71a120,120,0,0,0,65.08,0A22.5,22.5,0,0,0,270.63,241Z"/><path class="cls-13" d="M298.16,257.67c.12-5.22-1.62-12.18-2-11.37s0,7.52-.91,11-1.74,3.87-.55,4.87S298.05,263,298.16,257.67Z"/><path class="cls-13" d="M292.57,259.66c.1-4.22-1.3-9.85-1.58-9.19s0,6.08-.73,8.92-1.41,3.12-.45,3.93S292.48,264,292.57,259.66Z"/><path class="cls-13" d="M223.35,257.67c-.13-5.22,1.61-12.18,2-11.37s0,7.52.91,11,1.74,3.87.55,4.87S223.46,263,223.35,257.67Z"/><path class="cls-13" d="M228.93,259.66c-.1-4.22,1.3-9.85,1.58-9.19s0,6.08.73,8.92,1.41,3.12.45,3.93S229,264,228.93,259.66Z"/></g></svg>
