<svg xmlns="http://www.w3.org/2000/svg" width="861.61" height="302.11" viewBox="0 0 861.61 302.11"><defs><style>.cls-1{opacity:0.51;}.cls-2{fill:#020202;}.cls-3{fill:#333;}.cls-4{fill:#d6d6d9;}.cls-5{fill:#2aeeff;}.cls-6{fill:#3fbcff;}.cls-7{fill:#2ac0ff;}.cls-8{fill:#6ab2ff;}.cls-9{fill:#b600e7;}.cls-10{fill:#ff6adc;}.cls-11{fill:#ff2aa0;}.cls-12{fill:#ff3f9a;}.cls-13{fill:#3b5972;}.cls-14{fill:#52b2e2;}.cls-15,.cls-28{fill:#fff;}.cls-15{opacity:0.76;}.cls-16{fill:#ff3600;}.cls-17,.cls-26{fill:#800983;}.cls-18,.cls-31{fill:#500754;}.cls-18{opacity:0.2;}.cls-19{fill:#e7e21a;}.cls-20,.cls-21,.cls-22,.cls-23,.cls-24,.cls-25,.cls-29{fill:none;stroke-miterlimit:10;}.cls-20,.cls-21,.cls-22,.cls-23,.cls-24{stroke:#20ee6a;}.cls-20{stroke-width:4px;}.cls-20,.cls-21,.cls-22,.cls-23,.cls-24,.cls-25{opacity:0.75;}.cls-22{stroke-width:5px;}.cls-23{stroke-width:2px;}.cls-24{stroke-width:3px;}.cls-25{stroke:#1be800;stroke-width:6px;}.cls-26{opacity:0.35;}.cls-27{fill:#9a0aa2;}.cls-29{stroke:#edbaf1;}.cls-30{opacity:0.47;}.cls-32{opacity:0.58;}.cls-33{fill:#83adc4;}.cls-34{fill:#48aacc;}.cls-35{fill:#255e77;}</style></defs><title>grafiske_elementer</title><g id="setting"><g class="cls-1"><circle class="cls-2" cx="561.89" cy="215.82" r="71.42"/><polygon class="cls-2" points="459.08 178.7 516.01 115.27 538.02 163.66 560.02 212.04 509.55 195.37 459.08 178.7"/><path class="cls-2" d="M494.73,149.05l-5.24.39c-.28-3.71-2.17-13.92-7.42-16.6-2.53-1.3-5.86-.7-9.88,1.76-4.65,2.85-8.47,3.38-11.38,1.59-6-3.7-4.95-15.51-4.13-25a43.15,43.15,0,0,0,.33-6.56,1.74,1.74,0,0,0,.33.59l4.07-3.31c1.17,1.43,1,3.48.51,9.73-.51,5.87-1.58,18.08,1.66,20.08,1,.64,3.17.06,5.87-1.6,5.69-3.48,10.74-4.14,15-2C493.41,132.74,494.68,148.39,494.73,149.05Z"/><polygon class="cls-2" points="482.44 116.72 469.6 111.71 470.96 125.42 462.87 114.27 456.6 126.54 455.83 112.78 443.92 119.72 450.7 107.73 436.94 107.12 449.13 100.7 437.88 92.75 451.6 93.94 446.44 81.17 457.34 89.59 459.9 76.05 464.52 89.03 473.99 79.02 470.86 92.44 484.23 89.14 474.35 98.74 487.38 103.19 473.88 105.92 482.44 116.72"/></g><circle class="cls-3" cx="593.66" cy="216.5" r="68.93"/><polygon class="cls-3" points="493.54 183.2 546.92 120.61 569.34 166.75 591.76 212.9 542.65 198.05 493.54 183.2"/><path class="cls-3" d="M527.21,153.72l-5,.51c-.37-3.57-2.44-13.38-7.57-15.84-2.48-1.19-5.67-.54-9.49,1.94-4.41,2.86-8.09,3.47-10.94,1.81-5.86-3.42-5.16-14.84-4.6-24a42,42,0,0,0,.16-6.34,1.49,1.49,0,0,0,.33.57l3.84-3.3c1.17,1.36,1.1,3.34.73,9.38-.35,5.68-1.07,17.48,2.1,19.34,1,.59,3.06,0,5.63-1.69,5.4-3.51,10.26-4.27,14.44-2.26C525.54,138,527.15,153.08,527.21,153.72Z"/><polygon class="cls-3" points="514.56 122.83 502.05 118.31 503.7 131.5 495.62 120.95 489.87 132.94 488.78 119.68 477.47 126.67 483.72 114.93 470.42 114.68 482.02 108.19 470.97 100.79 484.25 101.6 478.95 89.41 489.67 97.26 491.81 84.14 496.59 96.55 505.48 86.66 502.79 99.68 515.61 96.17 506.31 105.67 519 109.66 506.04 112.62 514.56 122.83"/><path class="cls-4" d="M141.36,235.83c10,19.38.4,35.23-21.43,35.21h-4.58L36,271H31.38C9.55,271-.07,255.11,10,235.74l5.41-10.42L52,154.89l5.42-10.42C67.52,125.1,84,125.12,94,144.5l5.4,10.42L136,225.4Z"/><rect class="cls-4" x="51.4" y="101.36" width="49.03" height="72.38" rx="12"/><path class="cls-5" d="M124.23,222.75l-10.48-20.22H38L27.56,222.68,23.22,231c-8.08,15.53-.37,28.25,17.14,28.26H44l63.66,0h3.68c17.5,0,25.24-12.7,17.18-28.24Z"/><circle class="cls-5" cx="53.35" cy="188.91" r="5.84"/><circle class="cls-5" cx="65.02" cy="185.02" r="3.5"/><circle class="cls-6" cx="61.91" cy="220.04" r="5.84"/><circle class="cls-7" cx="73.97" cy="202.53" r="4.67"/><circle class="cls-5" cx="93.82" cy="204.48" r="5.84"/><circle class="cls-5" cx="89.93" cy="187.36" r="4.28"/><circle class="cls-8" cx="86.04" cy="178.8" r="2.72"/><circle class="cls-5" cx="77.47" cy="164.79" r="5.84"/><circle class="cls-5" cx="85.26" cy="144.55" r="2.72"/><rect class="cls-4" x="204.76" y="114.47" width="40.47" height="76.22" rx="12"/><ellipse class="cls-4" cx="225.34" cy="222.06" rx="57" ry="52.95"/><path class="cls-9" d="M178.46,219.7V220a46.88,46.88,0,0,0,93.76,0c0-.11,0-.23,0-.34Z"/><circle class="cls-10" cx="225" cy="237.91" r="8.09"/><circle class="cls-9" cx="253.33" cy="206.21" r="8.09"/><circle class="cls-11" cx="245.24" cy="200.14" r="8.09"/><circle class="cls-9" cx="229.05" cy="206.21" r="4.05"/><circle class="cls-12" cx="216.91" cy="231.84" r="4.05"/><circle class="cls-9" cx="215.89" cy="186.99" r="5.06"/><circle class="cls-11" cx="232.76" cy="164.05" r="5.06"/><circle class="cls-13" cx="369.85" cy="216.71" r="71.94"/><g class="cls-1"><path class="cls-3" d="M430.59,203.84l-1.59-.09a54.18,54.18,0,1,0-53.5,67.06,9.35,9.35,0,1,0,.3-18.69,35.48,35.48,0,1,1,33.14-49.53l-1-.06a8.32,8.32,0,0,0-8,11.88l5.3,11.1,4.85,10.14a8.31,8.31,0,0,0,14.54.84l6-9.52,6.54-10.42A8.31,8.31,0,0,0,430.59,203.84Z"/></g><path class="cls-14" d="M427.68,204.4l-1.69-.09a57.18,57.18,0,1,0-56.45,70.78,9.87,9.87,0,0,0,.32-19.73,37.44,37.44,0,1,1,35-52.27l-1.05-.06a8.77,8.77,0,0,0-8.42,12.54l5.59,11.7L406.06,238a8.77,8.77,0,0,0,15.35.88l6.3-10.05,6.9-11A8.78,8.78,0,0,0,427.68,204.4Z"/><path class="cls-15" d="M418.33,209.24c.3.44.68.39,1.2.53,3.27.88,5.15,3.45,5.51,7a8.17,8.17,0,0,1-.06,2.1,2.12,2.12,0,0,0,.33,1.53h0a2.24,2.24,0,0,0,4.07-.89,12.72,12.72,0,0,0,.08-3.21,11.48,11.48,0,0,0-6.44-9.75,3.67,3.67,0,0,0-4.67.9c-.18.24,1,.51.58,1.05Z"/><path class="cls-16" d="M715.6,281.85c1.36-.32,3.21.7.82,5.3s-7.07,9.72-7,8.89,3.53-6.41,4.36-9.81S714.12,282.21,715.6,281.85Z"/><path class="cls-16" d="M706.31,275.82c.18-1.89-1.55-4.33-7.34-.67s-11.85,10.47-10.73,10.28,8-5.36,12.47-6.79S706.11,277.88,706.31,275.82Z"/><path class="cls-16" d="M706.81,280.05c1.9,0,4.13,2-.14,7.38S695,298.05,695.26,297s6.21-7.38,8.12-11.65S704.74,280,706.81,280.05Z"/><path class="cls-16" d="M806.56,278.86c-1.22-.55-3.15.06-1.74,4.84s4.87,10.45,4.94,9.65-2.14-6.68-2.31-10S807.9,279.47,806.56,278.86Z"/><path class="cls-16" d="M816.42,274.88c.18-1.81,2.26-3.79,7,.72s9.23,12,8.22,11.66-6.58-6.52-10.5-8.69S816.23,276.86,816.42,274.88Z"/><path class="cls-16" d="M815.18,278.78c-1.8-.31-4.27,1.15-1.23,7s9.09,12.16,9,11.08-4.49-8.1-5.5-12.47S817.13,279.14,815.18,278.78Z"/><path class="cls-17" d="M811.75,193.52a57.71,57.71,0,0,0,14.1,13.25c-.05-3.12-.12-6.24-.28-9.35-.29-5.95-1.11-11.84-1.28-17.79-.3-9.86.88-22.25-5.57-30.54a3.36,3.36,0,0,1-.7-1.71,218.75,218.75,0,0,0-23.37-13.85L774,234.73c0,.42,12,22.89,12,22.89,5.77,36.05,39.89,29.83,39.89,29.83C815.62,266.84,811.75,193.52,811.75,193.52Z"/><path class="cls-17" d="M736.06,235.8,723.2,133.53s-10.79,8.46-26.53,20.28c.65,17.95-8.27,35.52-3.33,52.82a60.9,60.9,0,0,0,12.51-12.22s-2.47,70-12.34,88.6c0,0,35.57,20,38.47-23.55C732,259.46,742.43,239.71,736.06,235.8Z"/><path id="skygge_mave" class="cls-18" d="M722.39,132.32c1.21,1.57-18.66,89.49,32,93.84,64.33,5.53,39.42-95.17,39.42-95.17Z"/><path id="mave" class="cls-19" d="M725.21,132.27s-20.42,94.88,29,94c55.78-1,35.26-95.16,35.26-95.16Z"/><path class="cls-20" d="M733.19,153.29s17.94,4.16,49,0"/><path class="cls-21" d="M733.19,160.82s16.61.83,45.38,0"/><path class="cls-22" d="M734.58,166.19s17.09,2.71,46.7,0"/><path class="cls-21" d="M736,183.85s16.41,4.16,44.85,0"/><path class="cls-23" d="M732.27,190.73s17.28,2.71,47.22,0"/><path class="cls-24" d="M732.27,197.74s17.93,4.16,49,0"/><path class="cls-25" d="M735.51,205.36s13.72,1.46,37.5,0"/><path class="cls-23" d="M741.06,210.24s11.84,4.16,32.35,0"/><path class="cls-23" d="M731.8,172.67s16.1,2.71,44,0"/><path class="cls-24" d="M732.27,177.36s17.93,4.17,49,0"/><path id="striber" class="cls-24" d="M731.8,147.26s19.47,4.52,53.21,0"/><path class="cls-17" d="M680.31,54.18c9-9.73,64.31-63.75,141.45-8.68,0,0,16.09,24.81,8.55,53.17,0,0,7,27.85-70.36,44.57,0,0-48.25-6.08-69.36-24.31,0,0-26.13-21.78-12.54-63.43C678.33,54.64,679.71,54.84,680.31,54.18Z"/><path class="cls-26" d="M724.2,132.27s17.19,14.16,65.42,0c0,0-3.54,26-26.16,26C763.46,158.31,724.26,161.83,724.2,132.27Z"/><path class="cls-17" d="M674.54,86.27c-21.08-8.72-25.66-30-25.66-30s-4-44.23,11.56-46.74,35.7,31.64,35.7,31.64L688.26,53Z"/><path class="cls-18" d="M688.08,52.77l-5.15,13.14s-34-9.62-22.49-56.36C660.44,9.55,680,23.12,688.08,52.77Z"/><path class="cls-27" d="M696.12,41.21l-8,11.56S666,6,660.44,9.55C660.44,9.55,687.07,10.05,696.12,41.21Z"/><path class="cls-17" d="M802.68,35.78s28,7.67,28,39.1c0,0,25.37-7.86,22.73-42.13,0,0,1.58-10.07-11.1-26.7l-3.7-6s-4.76,11.09-8.46,11.09C824.88,11.09,802.15,21.67,802.68,35.78Z"/><path class="cls-18" d="M835.33,7.54s11.06,30.15-17.08,37.19Z"/><path class="cls-27" d="M802.67,33.67s0-17.59,32.17-26.25c0,0,4.61,23.61-16.59,37.31C818.25,44.73,811.21,35.68,802.67,33.67Z"/><circle class="cls-28" cx="717.98" cy="66.09" r="35.43"/><circle cx="729.29" cy="51.77" r="11.06"/><circle class="cls-28" cx="790.35" cy="66.09" r="35.43"/><circle cx="801.66" cy="51.77" r="11.06"/><path class="cls-29" d="M693.61,107.05s60.81,47.75,125.14,2"/><g class="cls-30"><path class="cls-31" d="M818.93,187l-17.77-6.83h0a52.89,52.89,0,0,0-.88-5.69c-.24-1.16-.52-2.29-.84-3.4l13.06-16c4.36-5.33,4.1-13.56-.57-18.29l-9.19-9.29c-4.67-4.72-12.06-4.23-16.42,1.1l-11,13.43a38.7,38.7,0,0,0-8.08-2.61l-3.92-18.55c-1.46-6.89-7.74-11.06-14-9.26l-12.23,3.54c-6.22,1.8-10.12,8.91-8.66,15.8l3.86,18.28a47.64,47.64,0,0,0-7,7.72l-13.79-7.34c-5.71-3-12.73-.26-15.6,6.19l-5.65,12.66c-2.87,6.45-.55,14.2,5.16,17.24l17.63,9.39a10.13,10.13,0,0,0,3.06,1.06c.13.84.28,1.67.46,2.5a49.83,49.83,0,0,0,2.65,8.66,12.92,12.92,0,0,0-.82,1.09L708,224c-3.88,5.77-2.89,13.91,2.2,18.08l10,8.21c5.08,4.17,12.41,2.86,16.28-2.92l9.71-14.48a37,37,0,0,0,5,1.16,13,13,0,0,0,.25,1.62l2.86,13.55c1.46,6.89,7.74,11.06,14,9.26l12.23-3.54c6.22-1.8,10.12-8.91,8.66-15.8l-2.86-13.55a13.58,13.58,0,0,0-.8-2.53,48.91,48.91,0,0,0,4.34-4.64l16.65,6.39c6,2.31,12.71-1.33,14.92-8.07l4.36-13.25C828,196.73,824.92,189.33,818.93,187Z"/><path class="cls-31" d="M740.44,155.72c-.08-.39-.16-.78-.23-1.16-11.39,8.71-17.47,24.57-14.17,40.16,4.23,20,22.29,32,40.35,26.76,16.1-4.66,26.76-21.44,25.87-39.2a35.83,35.83,0,0,1-7.25,3C765.07,191.05,745.11,177.81,740.44,155.72Z"/><path class="cls-31" d="M751.07,149a32.9,32.9,0,0,0-10.86,5.52c.07.38.15.77.23,1.16,4.67,22.09,24.63,35.33,44.57,29.56a35.83,35.83,0,0,0,7.25-3,41.22,41.22,0,0,0-.84-6.48C787.19,155.8,769.12,143.82,751.07,149Z"/><ellipse class="cls-31" cx="759.41" cy="185.54" rx="28.17" ry="25.19" transform="translate(488.42 918.81) rotate(-83.45)"/><path class="cls-31" d="M776.05,183.39a24.11,24.11,0,0,0-.37-2.51c-2.11-10-11.1-15.92-20.09-13.32S741,180.34,743.13,190.3a18.82,18.82,0,0,0,3.09,7.12,30.94,30.94,0,0,1,17.61-13.11A28.94,28.94,0,0,1,776.05,183.39Z"/><path class="cls-31" d="M763.21,203.62c8.24-2.38,13.61-11.13,12.84-20.23a28.94,28.94,0,0,0-12.22.92,30.94,30.94,0,0,0-17.61,13.11A15.42,15.42,0,0,0,763.21,203.62Z"/><g class="cls-32"><path class="cls-31" d="M733.91,135.9a1.21,1.21,0,0,1-1.5-1c-1.48-7,2.45-14.15,8.75-16l6-1.75a1.21,1.21,0,0,1,1.5,1,1.44,1.44,0,0,1-.93,1.7l-6,1.75c-5,1.44-8.05,7.08-6.89,12.58A1.45,1.45,0,0,1,733.91,135.9Z"/></g><g class="cls-32"><path class="cls-31" d="M714.53,238.86a.73.73,0,0,1-1.06.27c-3.32-2.33-4.25-7.3-2.07-11.06l2.09-3.61a.72.72,0,0,1,1.06-.28.92.92,0,0,1,.22,1.18L712.68,229a6.69,6.69,0,0,0,1.63,8.71A.9.9,0,0,1,714.53,238.86Z"/></g></g><path class="cls-13" d="M826.74,186.87l-21.66-3.19h0a45.54,45.54,0,0,0-2-5.43c-.48-1.08-1-2.14-1.54-3.17l12.32-18.34a12.53,12.53,0,0,0-3.78-17.9l-12.17-7.32a14.15,14.15,0,0,0-18.74,4.36L768.81,151.3a51.82,51.82,0,0,0-9.75-1l-7.69-17.5c-2.85-6.5-10.81-9.35-17.67-6.33l-13.5,5.93c-6.86,3-10.14,10.8-7.28,17.3L720.49,167a51.36,51.36,0,0,0-6.76,9l-17.15-4.48a14.21,14.21,0,0,0-16.92,9.21l-4.35,13.61a12.49,12.49,0,0,0,8.89,16L706.12,216a13.77,13.77,0,0,0,3.7.44c.3.79.62,1.58,1,2.36a45.35,45.35,0,0,0,4.52,8,12.59,12.59,0,0,0-.75,1.23l-9.35,17.36a12.49,12.49,0,0,0,5.63,17.38l12.91,6.09A14.2,14.2,0,0,0,742,262.76l8.73-16.21a49.27,49.27,0,0,0,6,.15,11.53,11.53,0,0,0,.56,1.55L762.88,261c2.86,6.51,10.81,9.36,17.67,6.34l13.5-5.93c6.86-3,10.14-10.8,7.28-17.3l-5.61-12.78a12.43,12.43,0,0,0-1.35-2.33,51.92,51.92,0,0,0,4.2-5.44l20.29,3a14.15,14.15,0,0,0,15.83-10.93l2.76-13.93A12.52,12.52,0,0,0,826.74,186.87Z"/><path class="cls-33" d="M730.92,171.68c-.16-.36-.32-.73-.47-1.1C718.81,181.44,714.51,198.29,721,213c8.29,18.86,31.16,27.06,51.08,18.31,17.76-7.81,27.19-26.46,23.13-43.79a45.24,45.24,0,0,1-7.84,4.4C765.33,201.58,740.07,192.52,730.92,171.68Z"/><path class="cls-34" d="M742,163a41.51,41.51,0,0,0-11.58,7.6c.15.37.31.74.47,1.1,9.15,20.84,34.41,29.9,56.42,20.23a45.24,45.24,0,0,0,7.84-4.4,36,36,0,0,0-2.07-6.22C784.82,162.43,762,154.23,742,163Z"/><ellipse class="cls-35" cx="757.88" cy="197.28" rx="29.61" ry="28.04" transform="translate(-15.34 321.53) rotate(-23.72)"/><path class="cls-34" d="M776.68,191.84a17.44,17.44,0,0,0-.85-2.39c-4.13-9.4-15.51-13.48-25.43-9.12s-14.61,15.5-10.48,24.89a17.5,17.5,0,0,0,4.77,6.4c3.29-6.66,9.65-12.73,18.07-16.43A39.53,39.53,0,0,1,776.68,191.84Z"/><path class="cls-33" d="M765.34,214.34c9.09-4,13.79-13.68,11.34-22.5a39.53,39.53,0,0,0-13.92,3.35c-8.42,3.7-14.78,9.77-18.07,16.43A19.69,19.69,0,0,0,765.34,214.34Z"/><g class="cls-32"><path class="cls-28" d="M720,153.46a1.43,1.43,0,0,1-1.9-.68c-2.9-6.59.41-14.44,7.36-17.49l6.67-2.93a1.39,1.39,0,1,1,1.11,2.54l-6.66,2.93c-5.48,2.41-8.08,8.58-5.8,13.77A1.43,1.43,0,0,1,720,153.46Z"/></g><g class="cls-32"><path class="cls-28" d="M715.24,258.78a.94.94,0,0,1-1.18.48,7.73,7.73,0,0,1-4.28-10.49l1.8-4a.93.93,0,0,1,1.17-.48.82.82,0,0,1,.46,1.12l-1.79,4a6.07,6.07,0,0,0,3.36,8.26A.82.82,0,0,1,715.24,258.78Z"/></g><path class="cls-17" d="M815.1,143.39s-17.73,47-38.56,41.25c0,0-14.62,22.4,2,28.07,0,0,34.6-2.94,45.37-26.64S815.1,143.39,815.1,143.39Z"/><path class="cls-17" d="M709.34,148.74c7.79,12.69,22.73,39.85,39.2,38a6.54,6.54,0,0,1,6.18,2.85c4.29,6.48,11.12,20-1.37,26a6.21,6.21,0,0,1-3,.59c-7.6-.32-34.45-5.3-47.34-26.91-9-15-11-26.78-6-35.43C699.44,149.58,706.76,144.54,709.34,148.74Z"/><path class="cls-16" d="M742.59,209.62c-1.29.37-2.37,2.09,1.81,4.85s10.52,4.88,10.05,4.22-6-3.75-8.28-6.22S744,209.23,742.59,209.62Z"/><path class="cls-16" d="M747.59,200.17c-1-1.51-.72-4.38,5.88-4,6.45.34,14.91,3.27,13.88,3.63s-9.28-.75-13.7.14S748.73,201.82,747.59,200.17Z"/><path class="cls-16" d="M749.17,204c-1.59.92-2.54,3.64,3.58,6.15s14.86,3.45,14.09,2.68-8.71-3.31-12.32-6S750.9,203,749.17,204Z"/><path class="cls-16" d="M787.39,203.4c1.3.37,2.38,2.09-1.8,4.85s-10.53,4.88-10.06,4.22,6-3.75,8.28-6.22S786,203,787.39,203.4Z"/><path class="cls-16" d="M782.39,194c1-1.51.72-4.38-5.88-4s-14.91,3.28-13.88,3.64,9.29-.75,13.71.13S781.25,195.59,782.39,194Z"/><path class="cls-16" d="M780.82,197.75c1.58.93,2.53,3.65-3.59,6.16s-14.86,3.45-14.09,2.68,8.71-3.31,12.32-6S779.08,196.76,780.82,197.75Z"/></g></svg>
