<svg id="Lag_2" data-name="Lag 2" xmlns="http://www.w3.org/2000/svg" width="584.96" height="958.16" viewBox="0 0 584.96 958.16"><defs><style>.cls-1{fill:none;}.cls-1,.cls-2,.cls-3{stroke:#000;stroke-miterlimit:10;stroke-width:3px;}.cls-3{fill:#fff;}</style></defs><title>karakter_skitse</title><path class="cls-1" d="M214.82,205.18c-16.42-9.34-36.9-9.65-54.93-4S126,217.84,111.78,230.27c-7.32,6.39-14.38,13.32-19.12,21.8s-6.92,18.78-4,28.05c4.47,14.3,19.7,22.68,34.48,25.11a76,76,0,0,0,59.39-15.82"/><path class="cls-1" d="M125.19,308c-6,3.85-12.13,7.79-16.6,13.35s-7.08,13.11-5,19.93c3.09,10.15,14.74,14.81,25.19,16.58a111,111,0,0,0,65.63-9.13c10.82-5.15,21-12.31,27.64-22.3s9.17-23.15,4.62-34.24-17.07-19-28.76-16.32"/><path class="cls-1" d="M213.75,290.45a1.74,1.74,0,0,0-3.05.87c13.84,10,33.32,13.08,48.39,5,11.53-6.18,19.58-19,18.74-32.08s-11.39-25.24-24.4-26.68l4.3-2.2"/><path class="cls-1" d="M242.88,264.16a109.51,109.51,0,0,0,24.59,14.72c6.89,3,15.09,5.15,21.63,1.48s9-12.07,7.84-19.42-5.16-13.87-9.09-20.18l-.18,4.35"/><path class="cls-1" d="M293.44,247.28c-1.64,5.07,1.69,10.67,6.26,13.39s10.08,3.24,15.39,3.68c10,.84,20.29,1.57,30-1.1s18.86-9.46,21.6-19.14-3.21-21.74-13.17-23.18l-1,2.47"/><path class="cls-1" d="M382.43,185.43l-4.65-2.08"/><path class="cls-1" d="M374.26,178.89c-7.32-.74-14.6,2.48-20.23,7.21s-9.85,10.89-13.9,17c-5.71,8.68-11.42,19.3-7.57,29,4.3,10.79,17.83,13.95,29.38,15.21,25.09,2.74,52.61,2.9,72.89-12.12l-11.59,5.37"/><path class="cls-1" d="M417.51,225.92c-12.54,10.51-15,31.11-5.21,44.25s30.17,16.76,43.86,7.79"/><path class="cls-1" d="M439.16,271.89c-9.72,2.91-16,13.49-15.44,23.62s7,19.35,15.49,24.9,18.79,7.78,28.92,8.15a89.19,89.19,0,0,0,50-13.28c12.38-7.7,23.57-20.47,22.39-35-.78-9.73-7.12-18.34-15-24.11s-17.23-9.11-26.47-12.24c-6.42-2.18-13-4.32-19.75-4.51s-13.92,1.84-18.47,6.86"/><path class="cls-1" d="M471.1,249.63c7.38,1.39,15,2.15,22.38.74s14.54-5.22,18.73-11.45c7.8-11.59,2.84-28.42-7.78-37.5s-25.21-11.93-39.17-12.64c-4.57-.23-9.31-.23-13.52,1.57s-7.76,5.88-7.6,10.46,5.21,8.7,9.42,6.89"/><path class="cls-1" d="M446,186.72c9.68-.47,20.76-1.69,26.29-9.64,6.28-9,1.46-22.07-6.79-29.33a39.22,39.22,0,0,0-65.09,28.59"/><path class="cls-1" d="M403.34,147.92c6.1-2.7,12.85-6.09,14.83-12.46,1.71-5.47-.84-11.51-4.79-15.66C404.09,110,388,109.08,375.89,115s-20.73,17.32-26.59,29.46c-1,2.06-1.94,4.36-1.32,6.56s3.62,3.72,5.28,2.15"/><path class="cls-1" d="M173.65,196.15c-4.89-18.12,5.7-37.55,20.78-48.72s33.85-15.86,52.09-20.3l-6.69.64"/><path class="cls-1" d="M227.85,123.05c2.67-15.15,19.39-25,34.71-23.67s28.65,11.69,37.69,24.14c1.82,2.51,3.58,5.47,3,8.52s-4.9,5.16-6.91,2.8"/><path class="cls-1" d="M294.12,116.21c7.05-14.31,24.3-22.79,39.94-19.62s28.22,17.69,29.14,33.61l-15.15,2.13"/><path class="cls-1" d="M273.08,250.35a71.07,71.07,0,0,0-96.79,35.08c-10.89,24.88-5.9,55.87,12.09,76.21s48,29.11,74.15,21.86c14-3.87,27-12.26,34.65-24.6,8.28-13.41,9.49-30.15,7.29-45.76-4.09-28.95-20-56.68-44.87-72.12"/><path class="cls-1" d="M266,298.75c-19.12.61-37.72,14-42.55,32.48s6.14,40.31,24.47,45.77a29.69,29.69,0,0,0,21-1.23c8.36-4,14.06-12.37,16.31-21.34s1.35-18.48-.82-27.47c-2.1-8.68-5.52-17.28-11.55-23.87s-15-10.91-23.87-9.69"/><path class="cls-2" d="M262.22,326.7c-11.15-6.24-26.92-2.05-33.5,8.91s-2.87,26.83,7.87,33.75,26.73,3.71,34-6.81,4.54-26.61-5.75-34.18"/><path class="cls-1" d="M248.52,321.53c-7.44,3-10.9,13.17-6.83,20.09s14.63,8.83,20.87,3.78,6.57-15.78.65-21.2"/><path class="cls-1" d="M243.38,278.71a43.92,43.92,0,0,1,43.59,15"/><path class="cls-1" d="M415.47,276.62a55.28,55.28,0,0,0-54.87,2.68"/><path class="cls-1" d="M437.51,249.19c-17.69-7-37.09-11.17-55.83-7.85S345,256.45,337.87,274.1c-5.53,13.69-4.16,29.3,0,43.46,6.17,20.76,19,40.32,38,50.67,27.11,14.74,64.21,6.69,83.45-17.44s19.14-61.41.47-86S406,230.07,376.76,240.06"/><path class="cls-1" d="M303.63,316.9a84.73,84.73,0,0,1,31.89-4.58"/><path class="cls-1" d="M420.93,288.32c-10.12-.75-20.54-.28-30,3.39s-17.9,10.9-21.21,20.49c-3.9,11.3.07,24.5,8.56,32.92S399.14,357.4,411.09,357c10-.38,20.4-4,26.4-12,4.23-5.64,5.85-12.92,5.62-20a43,43,0,0,0-52.52-40.54"/><path class="cls-2" d="M414.26,306.29c-12.25-4.91-28,1.77-32.66,14.1s2.8,28,15.45,31.73,27.64-5.5,29.67-18.54-9.75-26.52-23-26a9.81,9.81,0,0,0,16.74,8.89"/><path class="cls-1" d="M312.82,368a25.14,25.14,0,0,0,29.72-.79"/><path class="cls-2" d="M293.75,388.64c17.69,12,43.67,9.77,59.06-5.06,3.44,8.22-1.32,18.29-9.07,22.67s-17.52,3.85-25.86.72-15.56-8.58-22.65-14"/><path class="cls-1" d="M203.48,376.3c-10.22.74-16.93,13.1-13.86,22.88s13.45,16,23.68,16.58,20.22-3.52,28.92-8.93"/><path class="cls-1" d="M451.39,359.56c6.53,2.93,8.91,11.79,6.16,18.4s-9.43,10.94-16.37,12.71S427,392,419.81,391.6"/><path class="cls-1" d="M222.12,406c19.7,18.15,45.7,28.32,72.06,33.12s53.34,4.6,80.13,4.38"/><path class="cls-1" d="M438.17,394.46A362.54,362.54,0,0,1,373,446.6"/><path class="cls-1" d="M316.27,444.44a70.93,70.93,0,0,1,2,35.33"/><path class="cls-1" d="M354.89,446.76v30.76"/><path class="cls-1" d="M347.21,481.75c21-4.5,43-9,63.51-3,29.11,8.53,48.27,35.71,73.48,52.58"/><path class="cls-1" d="M185.2,524.6a579,579,0,0,1,58.33-29.7c13.9-6.11,28.82-11.79,43.89-9.89,5.44.69,10.82,2.36,16.3,2.09s11.39-3.17,12.88-8.45"/><path class="cls-1" d="M308.09,485.63l26.12,18.25A206.52,206.52,0,0,0,365.37,480"/><path class="cls-1" d="M184.58,521.3A137.06,137.06,0,0,1,224.14,585l41.11-28.15c5.31-3.64,10.72-7.36,14.66-12.46s6.24-11.88,4.46-18.07-8.5-11-14.71-9.32"/><path class="cls-1" d="M401.41,521.72c-5.37,5.56-3,15.32,2.49,20.71s13.23,7.75,20.32,10.81,14.35,7.6,16.81,14.92l36.76-22.41c2.46-1.51,5.07-3.16,6.23-5.8,2.1-4.77-2.94-10.92-8-9.8"/><path class="cls-1" d="M337.44,507.19l3.5,27.08A127.58,127.58,0,0,0,292.3,508"/><path class="cls-1" d="M346.33,524.91c-1.45-3.47,0-7.61,2.52-10.38s6-4.45,9.44-6q20.4-9.51,41.33-17.79"/><path class="cls-1" d="M288.28,511.06l29.38,30.41,2.8-17.28"/><path class="cls-1" d="M393.75,497.08a134.12,134.12,0,0,0-37.91,36.81l-12.34-9.67"/><path class="cls-1" d="M367.39,524,385.74,522l-1.11,46.74c-6.71-5.07-18.43,2.54-24-3.72a10.77,10.77,0,0,1-2.3-5.73c-1.09-7.46,1.19-15.12,0-22.57"/><path class="cls-1" d="M343.79,532.27a395.89,395.89,0,0,0-10.13,105.91"/><path class="cls-1" d="M263,558.66l24.08,170.18,132.32-5.51a648.77,648.77,0,0,1-26.2-106.77"/><path class="cls-1" d="M408.43,547a324,324,0,0,1,3.25,68,1274.05,1274.05,0,0,0-142.23,4.89"/><path class="cls-1" d="M302.1,637.81A438.12,438.12,0,0,0,264.74,688l3.32-3.37"/><path class="cls-1" d="M382.4,627.77A94,94,0,0,0,415,655.68"/><path class="cls-1" d="M348.07,682.63A969.27,969.27,0,0,0,361,891.39"/><path class="cls-1" d="M397.81,724.36a326.21,326.21,0,0,0-5.92,125.56l-58.13,2.71c-6.69.31-14.27.29-18.94-4.51-5.22-5.36-4.3-14-3.35-21.37a262.81,262.81,0,0,0-6.15-98.93"/><path class="cls-1" d="M310.64,855.6a70.59,70.59,0,0,0-49,36.13,53,53,0,0,1,40.78,9.1A36.1,36.1,0,0,1,323.25,885c3.8-1.07,8-1.46,11.58.3s5.91,6.25,4.25,9.84A73.88,73.88,0,0,1,362,893a98.62,98.62,0,0,1-4-39.59"/><path class="cls-1" d="M394.76,846.63l32.82,14.61c3.54,1.57,7.53,3.71,8.19,7.52s-2.54,7.28-6.16,8.48-7.53.7-11.32.4a103.19,103.19,0,0,0-37.23,3.89l-8.21-8.32a14.62,14.62,0,0,0-7.32,17.7"/><path class="cls-1" d="M310.41,770.61a385.34,385.34,0,0,0,79.77,4.87"/><path class="cls-1" d="M313.88,788.53h77.47"/><path class="cls-1" d="M313.88,806.76h72.91"/><path class="cls-1" d="M312.74,818,380,819.34"/><path class="cls-1" d="M310.46,837.65l75.19-1.32"/><path class="cls-1" d="M219.11,567.71c-12.07,5.73-17.4,21.43-13.51,34.21s15.33,22.32,28,26.51,26.5,3.64,39.66,1.34"/><path class="cls-1" d="M205.68,551.47c-15.9,3.68-25.22,20.43-28.74,36.36-2.58,11.64-3.06,24.18,1.59,35.16,7.12,16.83,25.22,27,43.31,29.56s36.43-1,54.35-4.61"/><path class="cls-1" d="M444.72,567.5c4.45,13.66-1.18,29-10.68,39.77s-22.37,17.91-35,24.83"/><path class="cls-1" d="M476,550.59c2.52,13.29,5.05,27,2.13,40.22-3.32,15-13.43,27.75-25.52,37.2s-26.15,16-40.08,22.41"/><path class="cls-1" d="M86.88,722.11a130,130,0,0,0,95.71-3.69"/><path class="cls-1" d="M84.87,719a157,157,0,0,1,101.39-3.28"/><path class="cls-1" d="M185.16,723.59l-.42,118.48"/><path class="cls-1" d="M89.54,720.17l-.86,107.09"/><path class="cls-1" d="M89.05,829.78c4.83,6.88,14,8.78,22.4,9.74a265.9,265.9,0,0,0,75-2.06"/><path class="cls-1" d="M92.5,825.49c26.37-15.31,60.64-16,87.6-1.75"/><path class="cls-1" d="M86,748.65A52.6,52.6,0,0,1,110,750.93"/><path class="cls-1" d="M88.28,759.34l34.18,2.21"/><path class="cls-1" d="M95.15,772.46l18.23,1.15"/><path class="cls-1" d="M87.21,800.25l38.72-4.63"/><path class="cls-1" d="M80,700.89a21.42,21.42,0,0,1,37.71-18.4"/><path class="cls-1" d="M119,679.14a23.65,23.65,0,0,1,45.86,1.11"/><path class="cls-1" d="M176.1,676.54c6.13-2.21,12.81-3.4,19.18-2.06S207.66,680,210,686s.32,13.89-5.34,17.1"/><path class="cls-1" d="M131.77,717.73c-3.43-7.45.55-16.76,7.27-21.46s15.4-5.64,23.59-5.15c4.28.26,8.72.93,12.28,3.33s6,6.95,4.71,11.06"/><path class="cls-1" d="M179.36,704.82c4.17-2.71,9-4.73,14-4.61s10.07,2.72,12.19,7.21.36,10.74-4.22,12.67"/><path class="cls-1" d="M219.94,725c3.46-7.18,10.12-12.93,17.92-14.58s16.56,1.18,21.39,7.53,5,16-.09,22.16c-6.52,7.83-18.41,8-28.44,6.24"/><path class="cls-1" d="M209.51,735.47a15.61,15.61,0,0,1-11.67,28.26"/><path class="cls-1" d="M251,757.41c8-7.16,22.09-4.44,28.17,4.43s4.41,21.7-2.51,29.93-18.12,12.09-28.87,11.77"/><path class="cls-1" d="M270,799.15c7-2.3,15.19,2.27,17.79,9.15s0,15.12-5.39,20.11-13.21,6.91-20.53,6.15-14.21-4-20.24-8.22"/><path class="cls-1" d="M244.31,773.89A18.35,18.35,0,0,0,218.59,792"/><path class="cls-1" d="M219.67,800.85c-10-4.92-22.58-5.83-31.88.28s-13.23,20.25-6.35,29"/><path class="cls-1" d="M239.68,831.23c3.5,9.1-.15,20.18-7.88,26.11s-18.8,6.75-27.72,2.83S188.45,848,185.52,838.73"/><path class="cls-1" d="M91.71,657.38c-15.07-2.11-31,6.85-37,20.82-1.62,3.76-2.58,8-1.4,11.94s5,7.22,9,6.74"/><path class="cls-1" d="M92.31,649.24c-2.08-5.17,2.36-11.11,7.7-12.72s11.08-.16,16.47,1.29c4.45,1.2,9,2.48,12.67,5.33s6.07,7.74,4.7,12.14"/><path class="cls-1" d="M144.13,641.66c3.91-2.13,8-4.19,12.44-4.63s9.32,1,11.81,4.72,1.47,9.65-2.63,11.4"/><path class="cls-1" d="M160.47,648.88a23.52,23.52,0,0,1,38,22.46"/><path class="cls-1" d="M204,675a18.87,18.87,0,0,1,25.49,21.45"/><path class="cls-1" d="M118.17,590.05c-5.29,1.28-8.55,7.47-7.33,12.78S117,612.12,122.41,613a14.81,14.81,0,0,0,13.94-5.15c3.18-4.12,3.43-10.42.16-14.47s-9.94-5-13.91-1.65"/><path class="cls-1" d="M138,515.78c-3.23-2.68-8.86-.32-9.85,3.76s2.12,8.44,6.15,9.59,8.51-.46,11.56-3.34A15.75,15.75,0,0,0,149,507.34c-3.22-5.88-10.95-8.95-17.24-6.61"/><path class="cls-1" d="M78.93,535.87c-1.18,3.78,3.53,7.7,7.2,6.21s4.63-7,2-10-7.72-3-10.7-.36l-1.65,5"/><path class="cls-1" d="M76.89,592.53C72,595,71,602.65,75,606.29S86.63,608,88.49,602.9s-2.7-11.41-8.15-11.24"/><path class="cls-3" d="M249,323.07c-3.49.42-5.49,4.71-4.56,8.1s3.9,5.84,7,7.49c4.49,2.38,10.89,3.14,13.94-.92,2.9-3.87.57-9.83-3.51-12.43s-9.19-2.78-14-2.85"/><path class="cls-3" d="M407.08,305.8c-5.32-3.73-13.88,1.47-13.5,8s8.71,10.78,14.48,7.77,7.29-11.63,3.35-16.79l-7.53-.39"/></svg>
