<svg xmlns="http://www.w3.org/2000/svg" width="523" height="902" viewBox="0 0 523 902"><defs><style>.cls-1{fill:#140c02;}.cls-2{fill:#ffe0bd;}.cls-3{fill:#ffcd94;}.cls-4{fill:#fff;}.cls-5{fill:#8f8f8f;}.cls-6{fill:#bfbfbf;}.cls-7{fill:#ea2828;}.cls-8{fill:#807870;}.cls-9{fill:#f7f6f5;}.cls-10{opacity:0.35;}.cls-11{fill:#bfb5a8;}.cls-12{fill:#fff6f5;}.cls-13{opacity:0.31;}.cls-14{fill:#e9c185;}.cls-15{fill:#d2ad84;}.cls-16{fill:#663d0c;}.cls-17{fill:#5e3908;}.cls-18{fill:#0029ae;}.cls-19{fill:#352006;}.cls-20{opacity:0.7;}.cls-21{fill:#eee9e5;}.cls-22{opacity:0.54;}.cls-23{fill:#724617;}.cls-24{fill:#e9003e;}</style></defs><title>karakter</title><g id="intro_skærm"><path class="cls-1" d="M155.36,548.68H329.48a0,0,0,0,1,0,0V587A26.48,26.48,0,0,1,303,613.48H186.56a31.21,31.21,0,0,1-31.21-31.21v-33.6A0,0,0,0,1,155.36,548.68Z"/><path class="cls-2" d="M207,789.77a23.87,23.87,0,0,1-6.78-1V846.1c0,8.45,6.1,15.36,13.55,15.36s13.56-6.91,13.56-15.36V788a24,24,0,0,1-9,1.8Z"/><path class="cls-3" d="M213.76,751.37c-7.45,0-13.55,6.91-13.55,15.36v22a23.87,23.87,0,0,0,6.78,1h11.29a24,24,0,0,0,9-1.8V766.73C227.32,758.28,221.22,751.37,213.76,751.37Z"/><path class="cls-2" d="M266.12,789.77a23.87,23.87,0,0,1-6.78-1V846.1c0,8.45,6.1,15.36,13.55,15.36s13.56-6.91,13.56-15.36V788a24,24,0,0,1-9,1.8Z"/><path class="cls-3" d="M272.89,751.37c-7.45,0-13.55,6.91-13.55,15.36v22a23.87,23.87,0,0,0,6.78,1h11.29a24,24,0,0,0,9-1.8V766.73C286.45,758.28,280.35,751.37,272.89,751.37Z"/><rect class="cls-4" x="195.69" y="843.44" width="33.88" height="47.29"/><rect class="cls-4" x="254.82" y="843.44" width="33.88" height="47.29"/><rect class="cls-5" x="189.95" y="854.71" width="24.21" height="41.84" rx="4"/><path class="cls-5" d="M235.5,898.36a28.23,28.23,0,0,0-27.16-19.86,28.63,28.63,0,0,0-14.56,3.93,36,36,0,0,1,9.05,15.93Z"/><path class="cls-6" d="M181.18,898.36h21.65a36,36,0,0,0-9.05-15.93A27.84,27.84,0,0,0,181.18,898.36Z"/><path class="cls-1" d="M192.43,902a27.54,27.54,0,0,1,.86-3.64H142.78A33.6,33.6,0,0,0,142,902Z"/><path class="cls-6" d="M205.88,882.43a37.52,37.52,0,0,0-27-11.35,37.1,37.1,0,0,0-36.08,27.28h50.51A27.78,27.78,0,0,1,205.88,882.43Z"/><path class="cls-1" d="M215.43,902h20.92c-.12-1.25-.31-2.45-.54-3.64H214.94C215.14,899.55,215.31,900.76,215.43,902Z"/><path class="cls-1" d="M193.29,898.36a27.54,27.54,0,0,0-.86,3.64h23.28a36.14,36.14,0,0,0-.77-3.64Z"/><rect class="cls-5" x="250.6" y="854.71" width="24.21" height="41.84" rx="4"/><path class="cls-5" d="M296.15,898.36A28.22,28.22,0,0,0,269,878.5a28.63,28.63,0,0,0-14.56,3.93,36,36,0,0,1,9.05,15.93Z"/><path class="cls-6" d="M241.83,898.36h21.65a36,36,0,0,0-9.05-15.93A27.84,27.84,0,0,0,241.83,898.36Z"/><path class="cls-1" d="M253.09,902a26,26,0,0,1,.85-3.64H203.43a33.6,33.6,0,0,0-.78,3.64Z"/><path class="cls-6" d="M266.54,882.43a37.56,37.56,0,0,0-27-11.35,37.1,37.1,0,0,0-36.08,27.28h50.51A27.76,27.76,0,0,1,266.54,882.43Z"/><path class="cls-1" d="M276.08,902H297c-.12-1.25-.31-2.45-.54-3.64H275.59C275.79,899.55,276,900.76,276.08,902Z"/><path class="cls-1" d="M253.94,898.36a26,26,0,0,0-.85,3.64h23.28c-.2-1.24-.47-2.45-.78-3.64Z"/><rect class="cls-7" x="144.69" y="359.89" width="194.96" height="224.74" rx="19.92"/><rect class="cls-1" x="194.96" y="599.81" width="41.12" height="182.37" rx="12"/><rect class="cls-1" x="249.79" y="599.81" width="41.12" height="179.19" rx="12"/><rect class="cls-8" x="190.39" y="765.73" width="50.26" height="16.45"/><rect class="cls-8" x="248.26" y="765.73" width="50.26" height="16.45"/><path class="cls-9" d="M110.35,458.2l27.8,10.09a5.69,5.69,0,0,1,3.41,7.29L101.25,586a5.73,5.73,0,0,1-7.32,3.41l-27.8-10.1A5.69,5.69,0,0,1,62.72,572L103,461.6A5.72,5.72,0,0,1,110.35,458.2Z"/><path class="cls-9" d="M156.68,354.93l12.57,4.56a15.1,15.1,0,0,1,9,19.3L138.92,486.54a15.15,15.15,0,0,1-19.36,9L107,491a15.09,15.09,0,0,1-9-19.3l39.35-107.74A15.16,15.16,0,0,1,156.68,354.93Z"/><path class="cls-2" d="M79.7,608.48,66.93,603.6a2.64,2.64,0,0,1-1.52-3.4l13.06-33.91a2.65,2.65,0,0,1,3.41-1.51l12.77,4.89a2.64,2.64,0,0,1,1.52,3.4L83.11,607A2.65,2.65,0,0,1,79.7,608.48Z"/><path class="cls-2" d="M72.58,642.2l-23-8.8a4.74,4.74,0,0,1-2.73-6.12l15.62-40.56A4.77,4.77,0,0,1,68.62,584l23,8.8a4.74,4.74,0,0,1,2.74,6.11L78.72,639.48A4.78,4.78,0,0,1,72.58,642.2Z"/><rect class="cls-3" x="75.4" y="602.72" width="15.16" height="30.24" rx="2" transform="matrix(0.99, -0.16, 0.16, 0.99, -95.32, 20.5)"/><path class="cls-9" d="M312.46,355.68l-10.06,5.13a16.12,16.12,0,0,0-7,21.65l51.43,100.25a16.21,16.21,0,0,0,21.72,7l10.06-5.13c7.9-4,11.06-13.77,7.36-21L334.52,363.35C330.14,354.8,320.37,351.65,312.46,355.68Z"/><path class="cls-9" d="M351.84,486.5l9.9,16.89a10.74,10.74,0,0,0,14.63,3.83L469.5,453a10.67,10.67,0,0,0,3.84-14.58l-9.9-16.89a10.75,10.75,0,0,0-14.63-3.83l-93.13,54.24A10.68,10.68,0,0,0,351.84,486.5Z"/><path class="cls-2" d="M489.59,421.07l-1.93-3.16a7.66,7.66,0,0,0-10.47-2.55l-22.61,13.7A7.6,7.6,0,0,0,452,439.5l1.93,3.16a7.65,7.65,0,0,0,10.47,2.55L487,431.51A7.6,7.6,0,0,0,489.59,421.07Z"/><path class="cls-2" d="M521.59,408.06,514,395.58a9.78,9.78,0,0,0-13.37-3.26l-28.73,17.41a9.72,9.72,0,0,0-3.26,13.33l7.61,12.49a9.79,9.79,0,0,0,13.38,3.25l28.72-17.4A9.73,9.73,0,0,0,521.59,408.06Z"/><path class="cls-3" d="M491.15,390.07l-.93-.28a7.13,7.13,0,0,0-8.88,4.66l-4.76,15.38a7.09,7.09,0,0,0,4.68,8.85l.93.28a7.13,7.13,0,0,0,8.88-4.67l4.76-15.37A7.08,7.08,0,0,0,491.15,390.07Z"/><path class="cls-9" d="M141.65,384.19c-.32-3.9-.19-12.81,0-12.15,0,0,3-4.53,3-4.56,8.89-7.38,18.56-15.62,53.84-11.31a11.81,11.81,0,0,1,10.13,10.17c3.19,22.22,9.24,84.48-7.72,162.45-16.45,75.58,5.14,197.77,15.9,249.79,2,9.56-7.5,17.35-16.3,13.42-19.31-8.62-46.65-17.06-61.09-4.39-22.95,20.13.59-221.23,2.4-239.44a12.21,12.21,0,0,0,0-2.18Z"/><path class="cls-9" d="M289.83,361.32s-13.13-3.24-23.14,61.24,17.69,116.3,17.69,116.3,17.07,67.8,19.92,97.42c0,0-8.64,142-28.21,154.23s57-10.73,57-10.73S353,764.83,352.44,731.3c0,0-.11-169.63-3.79-190.79-.46-2.63-.65-5.19-1.76-7.64-12.39-27.31,2.95-153.56-18.39-168.42C310.77,352.1,292.68,360.66,289.83,361.32Z"/><g class="cls-10"><path class="cls-11" d="M295.44,366.24s0,24.34,24.41,34.92c0,0-60.51,36-53.08,55,0,0-9.55-63.5,15.93-90"/></g><path class="cls-12" d="M295.44,359.89s0,24.34,24.41,34.92c0,0-60.51,36-53.08,55,0,0-9.55-63.5,15.93-90"/><g class="cls-10"><path class="cls-11" d="M191.07,362.07s-2.08,21.35-24.4,28.56c0,0,50,36.7,41.85,52.78,0,0,13.81-54.89-6.28-80.26"/></g><path class="cls-12" d="M191.61,356.5s-2.08,21.35-24.4,28.56c0,0,50,36.7,41.85,52.78,0,0,13.81-54.89-6.28-80.26"/><rect class="cls-3" x="225.42" y="279.41" width="30.46" height="110.85" rx="10"/><ellipse class="cls-2" cx="102.54" cy="251.75" rx="23.44" ry="31.12" transform="translate(-158.03 174.33) rotate(-51.29)"/><ellipse class="cls-3" cx="102.58" cy="251.78" rx="14.27" ry="18.94" transform="translate(-158.04 174.37) rotate(-51.29)"/><g id="øre" class="cls-13"><ellipse class="cls-14" cx="366.67" cy="214.99" rx="31.69" ry="25.19" transform="translate(-22.7 385.46) rotate(-54.03)"/><ellipse class="cls-15" cx="366.69" cy="214.95" rx="19.29" ry="15.33" transform="translate(-22.65 385.47) rotate(-54.03)"/></g><g id="hovede"><path class="cls-2" d="M97.94,240s20.4,66.11,54.07,82.39,33.66,25.43,125.48,20.34c0,0,69.37-22.38,90.8-85.44s-7.14-113.92-7.14-113.92-18.37-80.35-130.59-61C230.56,82.39,51,102.73,97.94,240Z"/></g><ellipse class="cls-16" cx="240.76" cy="44.75" rx="44.89" ry="44.75"/><ellipse class="cls-17" cx="294.32" cy="48.82" rx="30.52" ry="28.05" transform="matrix(0.26, -0.96, 0.96, 0.26, 169.87, 319.97)"/><ellipse class="cls-17" cx="346.86" cy="79.34" rx="44.89" ry="44.75"/><ellipse class="cls-17" cx="368.08" cy="132.37" rx="47.67" ry="39.96" transform="translate(-22.22 158.24) rotate(-23.57)"/><ellipse class="cls-16" cx="390.22" cy="182.57" rx="42.34" ry="42.21"/><ellipse class="cls-17" cx="178.53" cy="44.75" rx="44.89" ry="44.75"/><ellipse class="cls-17" cx="115.28" cy="64.59" rx="52.03" ry="54.42"/><ellipse class="cls-16" cx="81.62" cy="145.45" rx="44.89" ry="44.75"/><ellipse class="cls-17" cx="44.89" cy="164.77" rx="44.89" ry="44.75"/><ellipse class="cls-17" cx="70.39" cy="209.53" rx="44.89" ry="44.75"/><ellipse class="cls-17" cx="294.83" cy="104.76" rx="44.89" ry="44.75"/><ellipse class="cls-17" cx="360.13" cy="145.45" rx="44.89" ry="44.75"/><ellipse class="cls-16" cx="85.7" cy="200.37" rx="44.89" ry="44.75"/><ellipse class="cls-17" cx="130.58" cy="152.57" rx="44.89" ry="44.75"/><ellipse class="cls-17" cx="192.82" cy="152.06" rx="25.49" ry="26.97" transform="translate(-46.27 96.05) rotate(-25.08)"/><ellipse class="cls-17" cx="233.62" cy="115.95" rx="44.89" ry="44.75"/><ellipse class="cls-17" cx="181.59" cy="100.69" rx="44.89" ry="44.75"/><g id="øje"><ellipse class="cls-4" cx="314.73" cy="224.28" rx="37.24" ry="37.12"/><ellipse class="cls-18" cx="318.81" cy="231.9" rx="24.99" ry="29.5"/><ellipse cx="325.95" cy="238.51" rx="17.85" ry="21.87"/><ellipse class="cls-4" cx="326.46" cy="225.8" rx="6.12" ry="6.1"/></g><g id="øje-2" data-name="øje"><ellipse class="cls-4" cx="163.74" cy="236.48" rx="37.24" ry="37.12"/><ellipse class="cls-18" cx="167.82" cy="244.11" rx="24.99" ry="29.5"/><ellipse cx="174.96" cy="250.72" rx="17.85" ry="21.87"/><ellipse class="cls-4" cx="175.47" cy="240.04" rx="6.12" ry="6.1"/></g><g id="øjenbryn"><path class="cls-19" d="M197.1,195.48a2.47,2.47,0,0,1-2-.95c-6.78-8.56-16.1-12.21-27.75-10.83a50.42,50.42,0,0,0-16.06,4.86,2.5,2.5,0,0,1-2.39-4.39c.31-.17,31.23-16.62,50.12,7.26a2.5,2.5,0,0,1-.41,3.51A2.46,2.46,0,0,1,197.1,195.48Z"/></g><g id="øjenbryn-2" data-name="øjenbryn"><path class="cls-19" d="M271.54,186.33a2.5,2.5,0,0,1-2-4.05c18.89-23.88,49.81-7.43,50.12-7.26a2.5,2.5,0,1,1-2.39,4.39h0a50,50,0,0,0-16.06-4.86c-11.64-1.38-21,2.26-27.75,10.83A2.5,2.5,0,0,1,271.54,186.33Z"/></g><g id="briller"><g class="cls-20"><path class="cls-1" d="M234.09,224.42l-2.48-1.68c.16-.24,4-5.8,9.79-6.19,3.46-.23,6.78,1.4,9.88,4.85l-2.24,2c-2.44-2.73-4.95-4-7.44-3.86C237.25,219.83,234.12,224.38,234.09,224.42Z"/></g><g class="cls-10"><ellipse class="cls-21" cx="321.36" cy="215.12" rx="71.41" ry="71.71"/><path d="M321.36,288.33c-40.2,0-72.91-32.84-72.91-73.21s32.71-73.21,72.91-73.21,72.91,32.84,72.91,73.21S361.56,288.33,321.36,288.33Zm0-143.42c-38.55,0-69.91,31.5-69.91,70.21s31.36,70.21,69.91,70.21,69.91-31.5,69.91-70.21S359.91,144.91,321.36,144.91Z"/></g><g class="cls-10"><ellipse class="cls-21" cx="161.19" cy="223.26" rx="71.41" ry="71.71"/><path d="M161.19,296.46c-40.2,0-72.91-32.84-72.91-73.2s32.71-73.21,72.91-73.21,72.91,32.84,72.91,73.21S201.39,296.46,161.19,296.46Zm0-143.41c-38.55,0-69.91,31.5-69.91,70.21s31.36,70.2,69.91,70.2S231.1,262,231.1,223.26,199.74,153.05,161.19,153.05Z"/></g><g class="cls-22"><path class="cls-4" d="M144.81,183.73c-11,6.72-20.12,13.52-24.62,27.5-1.42,4.34-4.51,7.36-8,4.19h0c-3.45-3.15-5.9-11.21-4.33-15,4.93-12.55,14.65-17,27-21.52a22.68,22.68,0,0,1,12.1,0h0C149.39,179.76,148.14,181.64,144.81,183.73Z"/></g><g class="cls-22"><path class="cls-4" d="M303,171.64c-10.49,6-19.25,12.17-23.87,25.28-1.45,4.06-4.44,6.83-7.62,3.71h0c-3.14-3.1-5.21-10.83-3.62-14.4,5-11.74,14.21-15.64,25.88-19.54a21.05,21.05,0,0,1,11.34.36h0C307.42,168,306.18,169.76,303,171.64Z"/></g></g><path class="cls-15" d="M245.79,272.86c-10.68,0-20.3-9.62-20.73-10.06L227.9,260c.1.1,10,9.95,19.49,8.78,4.33-.54,8.05-3.36,11-8.39l3.44,2c-3.66,6.16-8.38,9.63-14,10.32A18,18,0,0,1,245.79,272.86Z"/><path d="M245.15,310.53c-13.76,1.48-26.82-6.21-35.23-19,5.38,18.58,20.32,31.31,36.37,29.59s28-17.32,29.24-36.62C270.05,298.78,258.92,309.06,245.15,310.53Z"/><path class="cls-23" d="M85.7,71.2a4.07,4.07,0,0,1-4.08-4.07c0-23,19.9-41.7,44.37-41.7a4.07,4.07,0,1,1,0,8.13c-20,0-36.21,15.06-36.21,33.57A4.08,4.08,0,0,1,85.7,71.2Z"/><path class="cls-23" d="M18.56,165.61a2.83,2.83,0,0,1-3.22-2.39c-2.32-15.8,9.47-30.66,26.29-33.12a2.83,2.83,0,1,1,.83,5.6c-13.73,2-23.38,14-21.51,26.71A2.82,2.82,0,0,1,18.56,165.61Z"/><path class="cls-23" d="M238.21,93.28a2.26,2.26,0,0,1,1.68-2.72c12.47-3,25.17,5.38,28.31,18.56a2.27,2.27,0,0,1-4.41,1C261.22,99.41,251,92.58,240.94,95A2.26,2.26,0,0,1,238.21,93.28Z"/><path class="cls-23" d="M379.37,105.11a2.27,2.27,0,0,1,2.3-2.23c12.82.2,23.07,11.38,22.86,24.93a2.27,2.27,0,0,1-4.53-.06c.17-11.06-8.08-20.19-18.4-20.35A2.26,2.26,0,0,1,379.37,105.11Z"/><path d="M277.89,289.92a37.22,37.22,0,0,0-1.91-8.83l-72.84,6.78a37.2,37.2,0,0,0-.25,9,37.64,37.64,0,0,0,19.22,29.44,20.62,20.62,0,1,1,40.41-2.45A37.64,37.64,0,0,0,277.89,289.92Z"/><path class="cls-24" d="M240.16,300.64a20.61,20.61,0,0,0-18,25.7,37.68,37.68,0,0,0,40.41-2.45,20.63,20.63,0,0,0-22.36-23.25Z"/></g></svg>
