<svg id="Lag_2" data-name="Lag 2" xmlns="http://www.w3.org/2000/svg" width="421.06" height="1202.24" viewBox="0 0 421.06 1202.24"><defs><style>.cls-1{stroke:#000;stroke-miterlimit:10;stroke-width:3px;}</style></defs><title>karakter_skitse</title><path class="cls-1" d="M100.48,74.36l-1-.08c1.32-15.72,14.58-29.78,30.21-32s32.27,7.59,37.9,22.33l-.93.36c-5.48-14.32-21.65-23.86-36.83-21.7S101.76,59.09,100.48,74.36Z"/><path class="cls-1" d="M239.64,95.37l-1-.3c3.9-12.32.58-26.61-8.44-36.4C221.51,49.2,207.88,44.36,194.68,46c-4.91.62-11.94,2.41-17.58,7.44-5.09,4.54-7.88,10.89-7.46,17l-1,.07c-.45-6.41,2.46-13.07,7.79-17.81,4.61-4.11,10.88-6.77,18.11-7.68C208.07,43.33,222,48.29,231,58,240.24,68,243.64,82.71,239.64,95.37Z"/><path class="cls-1" d="M280.3,137.68l-.87-.48a30.16,30.16,0,0,0-38.32-42.35l-.4-.92a31.16,31.16,0,0,1,39.59,43.75Z"/><path class="cls-1" d="M300.36,204.34l-.57-.82c9-6.26,15.39-15.34,17.63-24.92,2.47-10.54-.19-21.68-6.94-29.08-7.12-7.8-19-10.8-28.24-7.12l-.37-.93c9.77-3.88,21.84-.85,29.35,7.38,7,7.64,9.72,19.12,7.18,30C316.1,188.64,309.52,197.94,300.36,204.34Z"/><path class="cls-1" d="M318.49,251.15l-.73-.69c7.25-7.73,11.63-15,13.38-22.32,2.21-9.16-.15-18.63-6-24.13a18.08,18.08,0,0,0-12.92-4.66,14.38,14.38,0,0,0-10.23,4.5l-.74-.67a15.4,15.4,0,0,1,10.93-4.83,19.22,19.22,0,0,1,13.65,4.93c6.11,5.74,8.57,15.59,6.28,25.1C330.32,235.83,325.86,243.28,318.49,251.15Z"/><path class="cls-1" d="M53.24,115.17c-4.33-9.83-8.53-21.11-3.5-30.59C53.9,76.72,63,73.5,70.14,73.11c8.14-.44,16,1.9,23.64,4.17l-.28,1C86,76,78.17,73.67,70.19,74.11c-6.86.37-15.6,3.44-19.57,10.94-4.81,9.08-.7,20.1,3.54,29.72Z"/><path class="cls-1" d="M61.65,171.89c-3.36-2.08-7-3.92-10.43-5.7a113.06,113.06,0,0,1-13.65-7.82c-9-6.32-14.27-14.65-14.51-22.85a21.92,21.92,0,0,1,12.22-19.79,23.1,23.1,0,0,1,23.24,2.41l-.6.8a22.07,22.07,0,0,0-22.21-2.31,20.9,20.9,0,0,0-11.65,18.86c.23,7.88,5.36,15.92,14.08,22.06a113,113,0,0,0,13.53,7.75c3.5,1.79,7.11,3.64,10.51,5.74Z"/><path class="cls-1" d="M46.2,206.19A15.35,15.35,0,0,1,36.38,203a14.14,14.14,0,0,1-5.07-10.77,19.53,19.53,0,0,1,5.93-14.67c8.26-7.67,20.32-7.36,26.77-6.49l-.13,1c-6.28-.85-18-1.16-26,6.23a18.53,18.53,0,0,0-5.61,13.91,13.18,13.18,0,0,0,4.7,10c7.91,6.31,19.68,1.08,24.37-1.46,1.4-.76,2.79-1.57,4.19-2.37,6.4-3.68,13-7.51,20.39-7.24l0,1c-7.11-.23-13.58,3.49-19.86,7.1-1.41.82-2.81,1.62-4.22,2.38C58.71,203.32,52.47,206.19,46.2,206.19Z"/><path class="cls-1" d="M107.51,205.83a43.86,43.86,0,0,0-19.69-14l.33-1a45,45,0,0,1,20.15,14.3Z"/><path class="cls-1" d="M269.5,256.79c-5.6-24.85-12.57-55.79-33.83-75.48-17.23-16-42.8-22.6-66.74-17.31-22.72,5-43.53,20.7-55.67,41.94l-.87-.5C124.66,184,145.72,168.11,168.71,163c24.25-5.35,50.17,1.37,67.64,17.55,21.48,19.91,28.49,51,34.13,76Z"/><path class="cls-1" d="M282.89,353.71v-1a57.49,57.49,0,0,0,56.67-64.65c-1.34-10.63-5.71-19.63-12.32-25.36-6.33-5.48-15.55-8.59-26-8.76-9.45-.15-18.8,1.91-27.86,3.9l-.22-1c9.12-2,18.55-4.08,28.09-3.93,10.65.17,20.1,3.37,26.6,9,6.8,5.88,11.29,15.11,12.66,26a58.48,58.48,0,0,1-57.66,65.77Z"/><path class="cls-1" d="M290.93,334.36a13.69,13.69,0,0,1-7.46-2.07l-.11-.07-.06-.1c-3.33-5.74,0-13,2.32-16.79.54-.88,1.1-1.76,1.66-2.64,2.52-4,5.13-8.07,5.37-12.66a9.68,9.68,0,0,0-2.79-7.66,6.28,6.28,0,0,0-7.55-.79l-.68.49-2-15.55,1-.12,1.75,14a7.33,7.33,0,0,1,8.11,1.28,10.67,10.67,0,0,1,3.12,8.45c-.26,4.86-2.94,9.07-5.53,13.14-.55.88-1.11,1.75-1.64,2.63-2.17,3.59-5.34,10.38-2.37,15.66,4.6,2.91,11.4,2.36,16.58-1.36,4.22-3,7.52-7.84,10.07-14.7,4.26-11.45,4-22.52-.77-30.39a21.4,21.4,0,0,0-14.13-9.58,15.39,15.39,0,0,0-12.48,2.72l-.62-.79A16.34,16.34,0,0,1,296,274.5a22.34,22.34,0,0,1,14.8,10c4.91,8.13,5.22,19.53.86,31.26-2.63,7.05-6,12-10.42,15.16A18,18,0,0,1,290.93,334.36Z"/><path class="cls-1" d="M52.08,423.18l-.85-.52c41.89-68.29,52.72-154.74,29-231.25l1-.3C105,267.9,94.12,354.65,52.08,423.18Z"/><rect class="cls-1" x="88.41" y="215.49" width="12.08" height="1" transform="translate(-80.96 58.5) rotate(-24.46)"/><path class="cls-1" d="M92.64,245.42l-.59-.8c9.11-6.67,12.62-20,8-30.27l.91-.41C105.77,224.66,102.12,238.49,92.64,245.42Z"/><path class="cls-1" d="M140.65,232.67l-1-.25a48.82,48.82,0,0,0-2.25-30.72l.93-.38A49.86,49.86,0,0,1,140.65,232.67Z"/><rect class="cls-1" x="175.58" y="206.82" width="1" height="70.34" transform="translate(-102.83 350.51) rotate(-75.22)"/><rect class="cls-1" x="212.45" y="235.49" width="1" height="15"/><path class="cls-1" d="M212.57,235a164.87,164.87,0,0,0-71.67-31.22l.17-1a166.05,166.05,0,0,1,72.11,31.41Z"/><path class="cls-1" d="M86.27,308.88a27.06,27.06,0,0,1,3-49.22l.36.93A26.06,26.06,0,0,0,86.74,308Z"/><path class="cls-1" d="M80.05,289.12a11.91,11.91,0,0,1-5.31-1.22l.45-.89a11.14,11.14,0,0,0,9.57.07l.43.91A11.94,11.94,0,0,1,80.05,289.12Z"/><path class="cls-1" d="M148.32,300.18a8.78,8.78,0,0,1-3.07-.5c-4.88-1.79-6.33-7.8-7-12.17-.93-6.11-1.73-13.19.59-19.71,2.13-6,8-11.9,15.05-11.52l-.06,1c-6.55-.36-12,5.2-14.05,10.86-2.24,6.31-1.46,13.23-.54,19.23.62,4.12,2,9.77,6.34,11.38,2.45.9,5.31.23,7.61-.3l30.22-7.07.23,1-30.22,7.07A22.69,22.69,0,0,1,148.32,300.18Z"/><rect class="cls-1" x="140.64" y="276.4" width="41.77" height="1" transform="translate(-48.58 34.79) rotate(-10.7)"/><path class="cls-1" d="M121.74,305.07h-.11a3.47,3.47,0,0,1-2.72-1.34l-.6-.81L124,303v.5l.47.39A3.46,3.46,0,0,1,121.74,305.07Zm-.83-1.12a3.09,3.09,0,0,0,.75.12,3.2,3.2,0,0,0,.83-.1Z"/><path class="cls-1" d="M111.14,333.83a4.1,4.1,0,0,1-2.07-.54,4.91,4.91,0,0,1-2.35-4.18,5.85,5.85,0,0,1,2.29-5.05c2.84-2,7.22-1.2,9.57,1.75l-.78.62c-2-2.51-5.84-3.23-8.21-1.55a4.83,4.83,0,0,0-1.87,4.18,3.94,3.94,0,0,0,1.85,3.36,3.76,3.76,0,0,0,4-.4,3.51,3.51,0,0,0,1.64-3.37,3.4,3.4,0,0,0-3-2.5,3.1,3.1,0,0,0-3.35,1.36L108,327a4.08,4.08,0,0,1,4.38-1.88,4.32,4.32,0,0,1,3.79,3.32,4.46,4.46,0,0,1-2,4.36A5.3,5.3,0,0,1,111.14,333.83Z"/><path class="cls-1" d="M89.47,351.9a4.91,4.91,0,0,1-.86-.07l-.45-.07,0-.45a6.3,6.3,0,0,1,10.47-3.57l-.75.66a4.15,4.15,0,0,0-2.46-1.3,6.31,6.31,0,0,1-6,4.8Zm-.22-1a5.18,5.18,0,0,0,3.3-1.08A5.1,5.1,0,0,0,94.43,347a5.72,5.72,0,0,0-1.74.32A5,5,0,0,0,89.25,350.9Z"/><path class="cls-1" d="M142.29,341.39a7.22,7.22,0,0,1-1.8-.23c-3.21-.84-5.7-3.39-7.7-5.44l-.25-.26.16-.32a4.49,4.49,0,0,1,6.74-1.18l-.67.73A3.31,3.31,0,0,0,136,334a3.35,3.35,0,0,0-2.19,1.33c1.86,1.91,4.16,4.16,7,4.89a6.45,6.45,0,0,0,4.9-.72,3.81,3.81,0,0,0,1.08-5.81,6.55,6.55,0,0,0-4.52-2.48c-3.18-.25-6.33,1.42-8.86,2.77l-.47-.89c2.64-1.4,5.94-3.15,9.41-2.88a7.45,7.45,0,0,1,5.24,2.88,4.8,4.8,0,0,1-1.36,7.26A7.39,7.39,0,0,1,142.29,341.39Z"/><path class="cls-1" d="M171.82,335.25a28.15,28.15,0,0,1-6.4-1l-.14-.06a4.84,4.84,0,0,1-2.27-4.79,7.88,7.88,0,0,1,4.64-6.51c4.19-1.62,8.82,0,13.21,1.7l-.38.93c-.69-.28-1.39-.55-2.08-.8a1.07,1.07,0,0,1,.16.14,5.15,5.15,0,0,1,1.73,4.62c-.56,3.17-3.69,5.11-6.36,5.58A11.56,11.56,0,0,1,171.82,335.25Zm-6.1-1.95c2.52.6,5.36,1.26,8,.79,2.34-.41,5.08-2.08,5.56-4.77a4.25,4.25,0,0,0-1.41-3.71,3,3,0,0,0-2.85-.77l-.28-1a2.75,2.75,0,0,1,.57-.12,11.75,11.75,0,0,0-7.33.08,6.81,6.81,0,0,0-4,5.65A3.91,3.91,0,0,0,165.72,333.3Z"/><path class="cls-1" d="M206.12,344a12.52,12.52,0,0,1-2.86-.3,7.12,7.12,0,0,1-5.57-5,5,5,0,0,1,1.17-4.22,3.85,3.85,0,0,1,3.22-1.38l-.09,1a2.83,2.83,0,0,0-2.38,1.06,4,4,0,0,0-.94,3.34c.5,2.28,2.78,3.78,4.82,4.26a18.39,18.39,0,0,0,6.74-.11,10.57,10.57,0,0,0-11.41-10.9l-.14-1a11.51,11.51,0,0,1,12.49,12.4l0,.37-.37.06A32.6,32.6,0,0,1,206.12,344Z"/><path class="cls-1" d="M176.53,357a5.86,5.86,0,0,1-4.62-2.5,5.77,5.77,0,0,1-.93-5.6,4.74,4.74,0,0,1,.56-1,5.52,5.52,0,0,1,3.52-2.27l.47-.1a5.77,5.77,0,0,1,5.4,1.76l0,0a4.44,4.44,0,0,1,.46.59A6.18,6.18,0,0,1,177,357Zm-4.36-8.25a3.71,3.71,0,0,0-.26.53,5.13,5.13,0,1,0,4.36-2.81,5.5,5.5,0,0,0-1.17.17,4.86,4.86,0,0,0-2.72,1.79,2.23,2.23,0,0,0-.2.33Z"/><path class="cls-1" d="M201.28,363.73a7.42,7.42,0,0,1-5.43-2.17,5.53,5.53,0,0,1-.32-7.29,4.44,4.44,0,0,1,4-1.26,3.76,3.76,0,0,1,2.94,2.12l-.91.41a2.79,2.79,0,0,0-2.2-1.54,3.4,3.4,0,0,0-3.07.95,4.56,4.56,0,0,0,.31,5.93,6.78,6.78,0,0,0,6.26,1.7c2.08-.42,4.22-1.93,4.3-4a2.72,2.72,0,0,0-1.89-2.42,1.68,1.68,0,0,0-2,.42l-.79-.61a2.61,2.61,0,0,1,3.1-.76,3.72,3.72,0,0,1,2.55,3.4c-.1,2.62-2.64,4.48-5.1,5A9.62,9.62,0,0,1,201.28,363.73Z"/><path class="cls-1" d="M215,387.56l-.78-.61c8-10.24,23.69-13.39,35-7l-.49.87C237.87,374.67,222.74,377.69,215,387.56Z"/><path class="cls-1" d="M138.9,459.61a15.59,15.59,0,0,1-2.8-.25l.18-1c9.2,1.61,19.12-5.49,21.67-15.5,2.23-8.77-.79-19.23-7.88-27.3-10.86-12.36-29.57-18.23-48.83-15.31-19.55,3-37,14-48.38,22l-.58-.82c11.49-8.1,29.05-19.2,48.81-22.2,19.59-3,38.65,3,49.73,15.64,7.31,8.32,10.41,19.13,8.1,28.21C156.5,452.62,147.73,459.61,138.9,459.61Z"/><path class="cls-1" d="M208.73,455.27a35.82,35.82,0,0,1-24-9.36c-.52.31-1.06.61-1.6.91l-.48-.88a53.64,53.64,0,0,0,24-26.9c.87-2.14,1.61-4.38,2.33-6.54a82.65,82.65,0,0,1,3-8.24c2.6-5.81,6.07-9.81,10.3-11.89,5.29-2.61,11.73-1.55,15,2.46l.07.12c4.09,9.86,2.81,22.13-3.52,33.66-5.63,10.25-14.11,18.47-22.31,26.42l-.13.13h-.18C210.39,455.24,209.56,455.27,208.73,455.27Zm-23.12-9.9A34.68,34.68,0,0,0,211,454.19c8.1-7.86,16.46-16,22-26.06,6.17-11.23,7.45-23.16,3.5-32.73-3.37-4.1-9.56-4.17-13.7-2.14s-7.32,5.81-9.83,11.41a86.52,86.52,0,0,0-3,8.14c-.73,2.18-1.47,4.43-2.35,6.6A54.71,54.71,0,0,1,185.61,445.37Z"/><path class="cls-1" d="M203.57,470.63C149.26,470.63,95,454,50.32,423l.57-.82C105.38,460,174.33,476.39,240,467.08l.14,1A260.57,260.57,0,0,1,203.57,470.63Z"/><path class="cls-1" d="M242.54,467.39l-.71-.7c8-8.16,11.28-19.71,14.41-30.89.41-1.46.81-2.91,1.23-4.35a236,236,0,0,1,40.82-79.64l.79.62a235,235,0,0,0-40.65,79.3c-.42,1.44-.82,2.89-1.23,4.34C254,447.37,250.77,459.05,242.54,467.39Z"/><rect class="cls-1" x="247.23" y="378.99" width="58.42" height="1" transform="translate(-135.06 605.53) rotate(-82.71)"/><path class="cls-1" d="M265.79,511.49a638.36,638.36,0,0,1,8.11-102l1,.16a636.36,636.36,0,0,0-8.1,101.85Z"/><rect class="cls-1" x="266.53" y="411.27" width="12.59" height="1" transform="translate(-150.55 666.21) rotate(-87.48)"/><rect class="cls-1" x="182.68" y="492.4" width="40.73" height="1" transform="translate(-294.85 683.37) rotate(-88.55)"/><path class="cls-1" d="M94.54,439.64a5.85,5.85,0,0,1-4.74-2.21A6.32,6.32,0,0,1,93.11,428a7.17,7.17,0,0,0-3,.82l-.47-.88a8,8,0,0,1,8.5.61,6.74,6.74,0,0,1,1.77,8.22A5.92,5.92,0,0,1,95,439.62ZM93.3,428l.22.94a5.32,5.32,0,0,0-2.92,7.91,5.32,5.32,0,0,0,8.42-.55,5.69,5.69,0,0,0-1.53-6.95A6.52,6.52,0,0,0,93.3,428Z"/><path class="cls-1" d="M124.58,447.47a8.72,8.72,0,0,1-2.09-.25,9.9,9.9,0,0,1-6.3-5.07,13.88,13.88,0,0,1-1-10.82,12.06,12.06,0,0,1,2.9-4.6l-.23.12-.46-.89a11.86,11.86,0,0,1,3.11-1.09c.25-.14.51-.27.76-.39a7.09,7.09,0,0,1,5.78-.19l-.35.84a11.75,11.75,0,0,1,4.37,2.32,12,12,0,0,1,3.38,13.27A10.94,10.94,0,0,1,124.58,447.47Zm-3.72-21.65a11.08,11.08,0,0,0-4.73,5.83,12.86,12.86,0,0,0,.93,10,9,9,0,0,0,5.66,4.58c4.24,1,9.08-1.62,10.79-5.9a11,11,0,0,0-3.09-12.14A11.59,11.59,0,0,0,120.86,425.82Z"/><path class="cls-1" d="M61.37,597.56l-.54-.84c22.85-14.85,46.48-30.21,71.09-43,4.75-2.47,9.64-4.91,14.37-7.26,19.38-9.66,39.41-19.64,55.1-34.78l.69.72c-15.79,15.25-35.9,25.26-55.34,35-4.73,2.36-9.62,4.79-14.36,7.26C107.82,567.38,84.21,582.72,61.37,597.56Z"/><path class="cls-1" d="M146.73,719.14a567.86,567.86,0,0,1-90-119.8l.87-.49a567.06,567.06,0,0,0,89.81,119.59Z"/><path class="cls-1" d="M149.59,749.17A219.28,219.28,0,0,0,147,720.46l1-.15a221.11,221.11,0,0,1,2.63,28.84Z"/><path class="cls-1" d="M82.73,603.76l-.79-.61a59.47,59.47,0,0,1,32.54-21.45c1.55-.39,3.15-.72,4.69-1.05,4.73-1,9.62-2,13.61-4.71l.55.83c-4.15,2.79-9.13,3.84-14,4.86-1.54.32-3.13.66-4.65,1A58.41,58.41,0,0,0,82.73,603.76Z"/><path class="cls-1" d="M197.55,741.27a369,369,0,0,1-33.7-31c-30.79-32.14-55.64-69.86-79.67-106.35l.84-.55c24,36.45,48.82,74.14,79.56,106.2a364.25,364.25,0,0,0,33.6,30.94Z"/><path class="cls-1" d="M137.16,675.15a184.54,184.54,0,0,1-21.36-91.86l1,0a183.58,183.58,0,0,0,21.25,91.36Z"/><path class="cls-1" d="M259.47,560.61c-4,0-7.94-.26-11.65-.56-12-1-24.81-2.53-36.69-7.26-12.9-5.14-22.92-13.61-28.22-23.85l.89-.46c5.19,10,15,18.33,27.7,23.38,11.75,4.69,24.44,6.23,36.4,7.19,9.47.77,20.38,1.29,30.07-2.22,8.64-3.14,17.76-11,18.64-21.48l1,.09c-.92,10.92-10.36,19.08-19.3,22.33A55.31,55.31,0,0,1,259.47,560.61Z"/><path class="cls-1" d="M398.31,602.3l-1-.11c.53-5-1.63-10.5-5.92-15.07-3.89-4.14-8.88-7.07-13.72-9.91L265.39,511.36l.5-.87,112.3,65.86c4.89,2.87,10,5.84,13.94,10.09C396.62,591.21,398.87,597,398.31,602.3Z"/><path class="cls-1" d="M334.8,670.76l-.74-.67a263.77,263.77,0,0,1,43.57-38.44l1.4-1c4.41-3.07,9-6.25,12.35-10.45,4.19-5.18,5.78-11.3,4.24-16.36l1-.29c1.63,5.38,0,11.84-4.42,17.28-3.47,4.3-8.09,7.53-12.56,10.64l-1.4,1A263,263,0,0,0,334.8,670.76Z"/><path class="cls-1" d="M265.59,783.21l-.95-.31a266,266,0,0,0,11.95-61.29l1,.08A266,266,0,0,1,265.59,783.21Z"/><path class="cls-1" d="M277.09,721.49l-.63-.77A741.6,741.6,0,0,0,338.9,663l.72.7A742.16,742.16,0,0,1,277.09,721.49Z"/><path class="cls-1" d="M337,634.19a1,1,0,0,1-.46-.11l-.33-.17.06-.36a78.26,78.26,0,0,0-9.22-52.4l.86-.5a79.32,79.32,0,0,1,9.47,52.41l.75-.09a1.09,1.09,0,0,1-.48,1A1.14,1.14,0,0,1,337,634.19Z"/><path class="cls-1" d="M225.23,742.18l-1-.23c3.71-15.51,8-30.15,19.41-38.84,5-3.76,10.87-6,16.6-8.17,2.85-1.08,5.79-2.2,8.58-3.49,12.22-5.67,22.24-15,31.93-24L368,605.12l.68.73-67.18,62.37c-9.75,9-19.83,18.41-32.19,24.13-2.82,1.31-5.78,2.43-8.65,3.52-5.65,2.14-11.5,4.36-16.34,8C233.11,712.39,228.9,726.85,225.23,742.18Z"/><path class="cls-1" d="M204.61,662.33q-36.57,0-73-2l.06-1a1358.46,1358.46,0,0,0,177.16-2l.08,1C274.36,661,239.46,662.33,204.61,662.33Z"/><rect class="cls-1" x="138.88" y="683.2" width="144.3" height="1" transform="translate(-4 1.25) rotate(-0.34)"/><rect class="cls-1" x="182" y="726.06" width="46.1" height="1" transform="translate(-4.25 1.21) rotate(-0.34)"/><path class="cls-1" d="M115.57,782.58l-.73-.69c12.81-13.28,28.75-29.82,49-35.4,14.38-4,29.51-2.11,44.14-.33,10.34,1.26,21,2.56,31.43,1.83l.07,1c-10.5.73-21.23-.57-31.62-1.84-14.53-1.76-29.56-3.59-43.75.31C144.12,753,128.29,769.39,115.57,782.58Z"/><path class="cls-1" d="M190.66,790.28l-.57-.82a307.15,307.15,0,0,0,48-41l.72.69A308.09,308.09,0,0,1,190.66,790.28Z"/><path class="cls-1" d="M191.54,790.73a413.21,413.21,0,0,0-79-4l0-1a413.46,413.46,0,0,1,79.16,4Z"/><rect class="cls-1" x="239.59" y="749.13" width="1" height="13.82" transform="translate(-76.09 28.53) rotate(-5.87)"/><path class="cls-1" d="M113.26,796.52A30.15,30.15,0,0,1,115,781.89l.94.35a29.05,29.05,0,0,0-1.7,14.15Z"/><rect class="cls-1" x="154.25" y="762.63" width="1" height="79.71" transform="translate(-653.74 921.94) rotate(-87.49)"/><path class="cls-1" d="M197.89,808.74l-.72-.7c14.34-14.47,29.11-28.93,43.88-43l.69.73C227,779.82,212.22,794.28,197.89,808.74Z"/><rect class="cls-1" x="222.09" y="783.66" width="43.77" height="1" transform="translate(-44.04 15.08) rotate(-3.25)"/><path class="cls-1" d="M308.3,875.55c-3.68-41.89,5.86-83.76,15.09-124.25,6.18-27.12,12.57-55.16,15-83.1l1,.09c-2.43,28-8.82,56.08-15,83.23-9.21,40.42-18.74,82.21-15.07,123.94Z"/><path class="cls-1" d="M299.34,1022.78l-1-.17a736.28,736.28,0,0,0,9.29-147.1l1,0A737.58,737.58,0,0,1,299.34,1022.78Z"/><path class="cls-1" d="M259.92,1024.1a1604.58,1604.58,0,0,1-8.54-240.2l1,0a1603.91,1603.91,0,0,0,8.53,240Z"/><path class="cls-1" d="M220.46,1017.51a1052.58,1052.58,0,0,1,8.86-229.76l1,.14a1051.31,1051.31,0,0,0-8.85,229.55Z"/><path class="cls-1" d="M188.41,1017.8c-13.26-72.16-23.34-145.8-29.95-218.88l1-.09c6.61,73,16.69,146.66,29.94,218.79Z"/><path class="cls-1" d="M76.58,1086.15l-.73-.69c37.06-39,91-62.14,144.83-62.14l3.24,0,0,1C169.27,1023.41,114.19,1046.51,76.58,1086.15Z"/><path class="cls-1" d="M236.78,1034.25l-.95-.3a8.47,8.47,0,0,0-1.56-7.49,8.36,8.36,0,0,0-6.77-3.58l0-1a10,10,0,0,1,9.3,12.37Z"/><path class="cls-1" d="M193.9,1000.75q-4.77,0-9.54-.27l.06-1a164,164,0,0,0,30.45-1.07l.13,1A167,167,0,0,1,193.9,1000.75Z"/><path class="cls-1" d="M278.65,997c-6.9,0-13.8-.21-20.65-.61l.06-1a347.39,347.39,0,0,0,43.05-.12l.06,1C293.7,996.79,286.18,997,278.65,997Z"/><path class="cls-1" d="M310.65,1087.55l-2.2-1.94.66-.75,1.06.93a66.07,66.07,0,0,0-10.35-58.72l.8-.61a67.09,67.09,0,0,1,10.27,60.37Z"/><path class="cls-1" d="M232.83,1099.61c-25.39,0-50.35-1-74.41-2.15l-.55,0,.08-.54c1.43-9.82,7.36-19.62,16.68-27.61,8.35-7.14,18.27-12.16,27.86-17l56.38-28.52.45.89-56.38,28.52c-9.54,4.83-19.4,9.82-27.66,16.88-9,7.68-14.72,17-16.25,26.45,42.44,2,87.66,3.6,133.13-.11,4.88-.4,9.92-1.05,13.29-4.17a8.71,8.71,0,0,0,2.52-7.38,5.26,5.26,0,0,0-2.81-4.13l.43-.9a6.22,6.22,0,0,1,3.37,4.89,9.76,9.76,0,0,1-2.83,8.26c-3.61,3.33-8.84,4-13.89,4.42C272.32,1099,252.45,1099.61,232.83,1099.61Z"/><path class="cls-1" d="M238.24,1063.14c-2.2,0-4.37-2.26-5.1-3.11l-13.25-15.33.76-.66,13.24,15.33c.57.66,3.51,3.86,5.57,2.37,1-.71,1.17-2.18,1.23-3.38a38.5,38.5,0,0,0-5.28-21.53l.86-.51a39.53,39.53,0,0,1,5.42,22.1c-.08,1.42-.33,3.18-1.65,4.13A3,3,0,0,1,238.24,1063.14Z"/><path class="cls-1" d="M255.31,1056.73a5.41,5.41,0,0,1-.91-.07,13.27,13.27,0,0,1-6.23-3.16,41,41,0,0,1-12.38-17l.93-.37a40,40,0,0,0,12.08,16.54,12.3,12.3,0,0,0,5.74,3c1.92.28,4.34-.46,5.22-2.4s0-4.15-.94-6.14a99.56,99.56,0,0,0-9.66-16.23l.8-.59a100.46,100.46,0,0,1,9.77,16.39c1,2.2,2,4.74.94,7A5.77,5.77,0,0,1,255.31,1056.73Z"/><path class="cls-1" d="M267,1054.19A9.25,9.25,0,0,1,265,1054a18.12,18.12,0,0,1-7.39-4.3l.65-.76c1.93,1.67,4.27,3.46,7,4.08s5.67-.23,7-2.14c1.69-2.35,1-5.67.21-8a27.53,27.53,0,0,0-13.95-15.53l.44-.91a28.57,28.57,0,0,1,14.45,16.1c.92,2.59,1.6,6.25-.33,9A7.24,7.24,0,0,1,267,1054.19Z"/><path class="cls-1" d="M158.39,1063.6a2.06,2.06,0,0,1-.35,0c-1.63-.18-2.67-1.58-3.51-2.89l-12.41-19.12.84-.54,12.41,19.12c.72,1.11,1.59,2.31,2.78,2.44a1.92,1.92,0,0,0,1.55-.5c1.09-.95,1.62-3,1.66-4.59a44.35,44.35,0,0,0-4.34-20.14l.9-.44a45.31,45.31,0,0,1,4.44,20.6c0,1.69-.59,4.1-2,5.33A3,3,0,0,1,158.39,1063.6Z"/><path class="cls-1" d="M169.81,1062.09a3,3,0,0,1-1-.18c-1.5-.53-2.26-2.06-2.86-3.45l-9-21.09.92-.39,9,21.08c.54,1.26,1.16,2.52,2.27,2.91a3,3,0,0,0,3.3-1.56,8.75,8.75,0,0,0,.84-4.26,68.61,68.61,0,0,0-4.48-25.56l.94-.36a69.81,69.81,0,0,1,4.54,25.93,9.8,9.8,0,0,1-1,4.75A4.28,4.28,0,0,1,169.81,1062.09Z"/><path class="cls-1" d="M188,1061.12a10.07,10.07,0,0,1-5.73-1.78c-3.8-2.73-5.58-7.33-6.82-11.47-.18-.6-.36-1.21-.53-1.83-1-3.58-2.1-7.29-4.34-10.23l.8-.61c2.35,3.1,3.44,6.9,4.5,10.57.17.61.35,1.21.53,1.81,1.19,4,2.88,8.4,6.44,10.94a9,9,0,0,0,7,1.41,5.86,5.86,0,0,0,4-2.77c1.1-2,.94-4.37.64-6.47a42.88,42.88,0,0,0-9.82-21.62l.76-.65a44,44,0,0,1,10,22.13c.3,2.14.5,4.87-.76,7.1a6.83,6.83,0,0,1-4.61,3.25A9.24,9.24,0,0,1,188,1061.12Z"/><rect class="cls-1" x="125.81" y="1036.19" width="1" height="80.23" transform="translate(-951.08 1192.97) rotate(-89.49)"/><path class="cls-1" d="M132.7,1098.23c-12.37,0-24.75-.3-37-.91-3.59-.17-8-.39-11.9-2.15-4.23-1.93-7.06-5.65-7.21-9.48l1,0c.13,3.46,2.73,6.84,6.62,8.61,3.68,1.68,8,1.89,11.54,2.07,20.9,1,42.1,1.18,63,.45l0,1C150.1,1098.08,141.4,1098.23,132.7,1098.23Z"/><path class="cls-1" d="M232.84,1081.85a485.21,485.21,0,0,1-65.24-4.41l.14-1a483.69,483.69,0,0,0,142.54-1.84l.16,1A484.59,484.59,0,0,1,232.84,1081.85Z"/><path class="cls-1" d="M277.14,1024.45q-7.5,0-14.95-.49l.06-1a232.52,232.52,0,0,0,38.24-.7l.1,1A232,232,0,0,1,277.14,1024.45Z"/><path class="cls-1" d="M121.15,690.65l-.8-.59a24.33,24.33,0,0,1,16.09-9.52l.13,1A23.32,23.32,0,0,0,121.15,690.65Z"/><path class="cls-1" d="M312.57,685.86A15.43,15.43,0,0,0,297,675.37l-.09-1a16.43,16.43,0,0,1,16.63,11.18Z"/></svg>
