<svg id="Lag_1" data-name="Lag 1" xmlns="http://www.w3.org/2000/svg" width="1920" height="1080" viewBox="0 0 1920 1080"><defs><style>.cls-1{fill:#fff;}.cls-2{opacity:0.29;}.cls-3{fill:#6bbab5;}.cls-4{opacity:0.67;}.cls-5{fill:#a8aaaf;}</style></defs><title>desktop</title><rect class="cls-1" x="-0.33" y="-0.5" width="1921" height="1080"/><path d="M395.47,570.24h-3.73L372,516.63v67.82h-6.15V500.13h6.39l21.2,58.42,21.45-58.42h6.74v84.32h-6.5V516.63Z"/><path d="M475.82,567.59c0,12-6.51,17.83-19.28,17.83h-.24c-12.77,0-19.28-5.66-19.28-17.83V517c0-11.56,6.51-17.83,19.28-17.83h.24c12.77,0,19.28,6.27,19.28,17.83v14.46h-6.51V519.16c0-9.88-3.49-14-12.89-14s-12.89,4.1-12.89,14v46.26c0,9.88,3.49,14,12.89,14s12.89-4.09,12.89-14V551.08h6.51Z"/><path d="M497.25,500.13v38.42h27.11V500.13h6.5v84.32h-6.5V544.58H497.25v39.87h-6.5V500.13Z"/><path d="M395.47,673.84h-3.73L372,620.23v67.83h-6.15V603.73h6.39l21.2,58.43,21.45-58.43h6.74v84.33h-6.5V620.23Z"/><path d="M467.14,673.84h-3.73l-19.76-53.61v67.83h-6.14V603.73h6.38l21.2,58.43,21.45-58.43h6.74v84.33h-6.5V620.23Z"/><path d="M548.09,621.56v48.67c0,11.8-6.51,17.83-19.28,17.83H509.18V603.73h19.63C541.58,603.73,548.09,609.75,548.09,621.56Zm-19.76-11.81H515.68V682h12.65c9.52,0,13.25-4,13.25-14V623.73C541.58,613.73,537.85,609.75,528.33,609.75Z"/><path d="M563.5,688.06V603.73h33.13v6H570v32.53H592.9v6H570V682h27v6Z"/><polygon points="707.24 688.92 633.94 688.92 633.94 687.2 705.52 687.2 705.52 341.8 366.69 341.8 366.69 465.72 364.97 465.72 364.97 340.08 707.24 340.08 707.24 688.92"/><polygon points="709.82 691.5 631.36 691.5 631.36 684.62 702.94 684.62 702.94 344.38 369.28 344.38 369.28 468.3 362.39 468.3 362.39 337.5 709.82 337.5 709.82 691.5"/><g class="cls-2"><path class="cls-3" d="M262.77,963.35a15.18,15.18,0,0,1,4.12-2.07c27.91-9.21,55.47-19.44,82.88-30.1,14.92-5.8,29.89-11.49,45.11-16.46,3.34-1.1,6.38-2.53,8.27-5.81,1-1.78,3-2.22,4.74-3,20.95-9.86,42-19.59,62.83-29.61C480.35,871.65,490,867,500,863.19c10.53-4.05,19.8-10.91,30.15-15.38C552.76,838,574.43,826,597.53,817.2c1.6-.6,3.93-2.58,5-.47.87,1.72-2.11,2.38-3.28,3.61-2.41,2.53-5.47,3.58-8.69,4.44a12.54,12.54,0,0,0-5.71,3.68c-2.5,2.52-6.18,3.84-9.44,5.5-20.88,10.59-42.37,19.82-63.76,29.27-25,11-49.6,22.85-74.37,34.34a13.41,13.41,0,0,0-1.53,1.33c14.23-4.93,27.43-9.75,40-16.25,7-3.6,13.7-7.65,20.93-10.73a32.73,32.73,0,0,1,14.13-3,19.33,19.33,0,0,0,8.86-2.17c10.6-4.84,20.77-10.51,30.94-16.21,16-9,33.35-14.23,50.75-19.38a50.73,50.73,0,0,0,9.22-3.74c10-5.16,21.48-6.62,30.9-12.68,19.37-12.47,41.07-19,62.36-26.55,5-1.79,9.63-3.89,13.24-8,1.37-1.57,3.06-3.16,4.49.21.71,1.68,2.28,1.19,3.43.73a87.62,87.62,0,0,1,16-4.7c1.62-.31,2.3-1.33,2.63-3,.85-4.2-1.6-6.51-4.36-8.83-2.59-2.18-4.61-.64-6.74.69-.88.55-1.74,1.51-2.88.76s-.89-2.22-.53-3.31c.73-2.17-.15-3.7-1.47-5.25-4.1-4.81-9.52-7.56-15-10.26-1.71-.84-3.56-1.41-5.2-2.37s-3.49-2.23-3.34-4.72a5.8,5.8,0,0,0-4-6.08c-2.9-1.12-7.16.68-8,3.7-1.28,4.43-3.22,7.94-7.48,9.86-1.23.56-1,2.08-1.55,3.14a2.29,2.29,0,0,1-2.57,1.51c-1.29-.23-1.19-1.12-1-2.22.36-2.17-1.36-1.39-2.08-1.13-3.52,1.29-8,.55-10.23,4.73-.19.34-.81.47-1.25.62-15.31,5.33-30.3,11.7-46.32,14.68-1.08.2-2.23.92-3.43-.28.89-1.47,2.44-1.85,3.75-2.47,5.91-2.8,11.91-5.39,17.75-8.31,3.37-1.68,6.72-3.5,7.93-7.77.61-2.19,5.62-3.28,7.53-2,1.2.79.45,1.39-.07,2-1,1.15-2.75,1.55-3,3.93,2.69-.37,3.5-2.52,4.8-4.2a71.12,71.12,0,0,1,5.09-5.25c-3,1.33-4.61,1-4.59-2a1.28,1.28,0,0,0-1.4-1.35c-3.41.51-5.7-2.13-8.56-3.12-1.82-.63-2.16-1.78-.68-3.22.88-.86,1.82-1.77,1.11-3.12s-2-1.32-3.14-1.29c-5.9.2-11.87-.2-17.58,1.87a7.72,7.72,0,0,1-3.48.49A22.25,22.25,0,0,0,609,735.72a14.67,14.67,0,0,1-7.87,1.61c-2.65-.12-3.14-.76-1.76-3.19,3.24-5.73,8.59-7,14.39-7.57,6.23-.59,10-3.18,10.32-8.27.24-3.72-.79-6.51-4.32-8.35-5-2.61-10.72-3.05-15.71-5.7-1.23-.65-2.79,0-4.15.49-4.89,1.65-10,2-15.06,2.27-1.59.07-3.32,0-3.46-2.19-.13-1.91,1.45-2.27,2.88-2.55,7.77-1.58,15.55-3.09,23.3-4.74,2.09-.44,5.37-.45,5-3.38s-3.55-2.1-5.65-2.07c-3.74.07-7.33,1.79-11.23.71-4.07-1.14-6-3-5.93-6.5.07-3.84,2.9-4.57,5.74-5.26a16.86,16.86,0,0,0,1.75-.32c1.66-.56,1.95-1.4.25-2.31-1.9-1-2.18-2.34-1.81-4.5a5.89,5.89,0,0,0-7.67-6.57c-5.22,1.95-8.4-.65-7.84-6.38.15-1.58,1.28-1.54,2.34-1.51a20.2,20.2,0,0,0,3.17.22c1.57-.23,2.11-1.25.82-2.48a7.79,7.79,0,0,0-6.09-2.52c-2.12.18-4.27.19-6.37.53a60.15,60.15,0,0,1-23.61-.49,24.79,24.79,0,0,0-5.3-.25c-3.5-.07-6.85-3-6.68-5.74a6.64,6.64,0,0,1,7.2-6,10,10,0,0,0,7.94-2.2c3.18-2.43,7.09-3.26,10.7-4.76,3.41-1.42,3.59-2.83,1-5.55a9.62,9.62,0,0,0-8.16-2.78c-9.79.8-19.64,1-29.36,2.67a20.24,20.24,0,0,1-3.89.33,4.85,4.85,0,0,1-4.87-4c-.57-2.56,1.48-3.81,3.44-4.31,3.43-.86,7.07-.94,10.43-2,4.81-1.53,9.85-2.68,14-5.92,1-.78,2.35-1.53,1.94-3.15s-1.81-1.81-3.07-2.14c-.91-.24-1.88-.23-2.8-.43-1.27-.28-2.8-.47-2.63-2.31.16-1.68,1.62-1.56,2.76-1.55a41.33,41.33,0,0,1,17.28,3.63,21.67,21.67,0,0,0,7.59,1.62c3.31.26,6.82-3.6,6.75-7.09A15,15,0,0,0,569.28,591c-1.38-1.14-2.89-2.13-4.3-3.24-2.17-1.7-3.16-3.73-1.15-6.18,1.87-2.29.73-3-1.47-3.54a12.56,12.56,0,0,1-4-1.47c-7-4.69-14.9-6.48-22.85-8.54s-15.25-6.51-23.35-8.48c-2-.49-4-1.9-3.21-4.42s3.16-1.92,5.14-1.49c5,1.11,9.49,3.89,14,6.14,8.71,4.36,17.89,6.37,27.29,7.45,9.84,1.12,18.19,5.39,25.54,11.8,4.33,3.78,8.77,5,14.07,3.1a3.13,3.13,0,0,1,1.38-.3c7.64,1,12.37-4.33,17.4-8.57,6.25-5.27,13.38-5.85,20.59-2,7.48,4,13,9.37,16,17.61,1.8,4.86,2.54,4.74,6.64,2,1.78-1.2,3.69-2.2,5.42-3.46a7.36,7.36,0,0,0,2.72-9,23,23,0,0,1,.74-18.66c2.12-4.39,2.9-9.2,3.4-14a18.62,18.62,0,0,1,1.5-6.32c1.44-3,.24-4.29-2.54-4.85-.58-.12-1.16-.25-1.73-.41-.91-.25-2.12-.43-1.78-1.72.26-1,1.38-.82,2.16-.62a62.7,62.7,0,0,1,7.19,2,10,10,0,0,0,8.59-.45,70.13,70.13,0,0,1,15.64-5.7c2.21-.57,4.17-1.47,5.26-3.86.94-2.06,3.06-2.67,5.09-2.8a138.35,138.35,0,0,1,28.31,1.5c2.2.31,3.27,1.88,3.34,4.08.12,3.83-.4,7.5-3,10.56-1.19,1.42-2.29,2.92-3.93,5,3.93-.38,6.46,1.35,9.21,2.33,2,.7,3.08,0,4.9-1,2.94-1.68,5.23-4.23,8.27-5.67,3.62-1.72,3.84-2.74,1-5.41A150.16,150.16,0,0,0,731.51,513c-4-2.43-8.31-1.76-12.48-1.76-5.86,0-11.48-1.66-17.26-2.08-2.16-.16-3.88-1.69-3.38-4.24a4.29,4.29,0,0,1,4.88-3.78,50.85,50.85,0,0,1,15.12,3.9,18.48,18.48,0,0,0,7.85,1.77c6.76-.18,12.32,2.89,17.53,7,3.75,2.93,7.32,6,12.36,6.81s9-1.33,13-3.74c1.4-.85,2-2.39.45-3.59-3.17-2.44-5.69-5.67-9.9-6.85-3.16-.88-4.33-.1-5.06,2.83-.46,1.84.22,4.64-2.59,4.94-2.55.27-4-1.75-5.29-3.72-1.51-2.33-3-4.65-4.41-7.06-1.1-1.95-1.23-4.11.59-5.63s3.79-3.17,6.4-1.68a31.42,31.42,0,0,0,8,3.16c6.31,1.61,11.21,5.67,16.24,9.54,1.62,1.24,3.2,2.55,5.22,3,1.56.36,3.41,1.46,4.56-.38s-.29-3.36-1.64-4.62c-1.76-1.63-3.6-3.19-5.24-4.94-1.38-1.47-3.17-3.27-1.23-5.3,1.62-1.71,3.51-.46,5.14.63a21.62,21.62,0,0,1,4.92,5.22c1.24,1.63,2.46,3.29,3.81,4.81a12.5,12.5,0,0,0,14.1,3.34c2.24-.94,2.51-5.11.32-7.94-1.47-1.9-3.23-3.56-4.88-5.32a18.81,18.81,0,0,1-3.74-5.72c-.56-1.33-1.36-3,0-4,1.59-1.25,2.81.4,4,1.31a5.11,5.11,0,0,1,1.21,1.33c5.12,8.8,11.92,16.33,17.62,24.69a81.37,81.37,0,0,1,6.69,12.44,22.43,22.43,0,0,0,4.05,6.39c.75.8,1.65,1.66,2.77.85s.66-2,.23-3a8.9,8.9,0,0,0-3.47-4.52c-3.93-2.19-5.22-5.93-6.51-10a21.56,21.56,0,0,1,.26-15c.29-.74.49-1.43,1.35-1.37a3.82,3.82,0,0,1,3.68,2.41,10.78,10.78,0,0,1,.26,7.15c-.92,2.71-.23,4.94,1.25,7.17,3.84,5.74,8.65,10.64,13,16a18.49,18.49,0,0,1,2.28,3.23c.8,1.6.94,3.31-1.5,3.27-2.12,0-1.64,1-1.29,2.26a5.44,5.44,0,0,0,2.57,3.35c3.72,2.16,7.73,3.52,12.43,5.1-2.58-5.22-7.28-7.92-9.66-12.65,2-.47,2.48.91,3.21,1.72,2.08,2.33,4.16,4.67,6.08,7.14,1.77,2.25,3.94,3.25,6.57,2.34s2.82.37,2.54,2.45a29.29,29.29,0,0,0-.3,3.62c0,2.59,1,4.46,3.62,5.11,3,.74,4-.37,3-4,3.63,1.46,7.29,2,9.1,6.18.74,1.72,2.9,2.77,4.3,4.24,2.28,2.42,3.12-.74,4.67-1.12,2.12-.52,1.49,4,4.21,2.61,5.47-2.82,11.18-5.51,8.72-13.8-1.87,1-3.54-.35-5.55-1.12-6.39-2.44-12.15-6.75-19.28-7.1a7.79,7.79,0,0,1-3-1,2.1,2.1,0,0,1-1.22-2.4c.25-1.19,1.14-1.44,2.17-1.37a16.8,16.8,0,0,1,2.47.23c5.31,1.14,10.46,3,15.94,3.44,3.15.26,5.53,2.62,7.9,4.67.7.6,1.46,1.5,2.49.72s1.66-2.14,1.11-2.82a3.06,3.06,0,0,1,.56-4.58c1.71-1.43,3.23.42,4.71,1.32a3.26,3.26,0,0,0,.88.13c.38-1.9-.33-4,1.34-5.72.85-.86-.19-2.07-.76-2.94-1.44-2.22-3-4.37-4.49-6.56-.42-.61-.86-1.32-.24-2s1.41-.19,1.86.32c3,3.32,6.69,5.19,10.82,6.65,3.05,1.07,3,2.86.49,5.08-.51.44-.87.91-.67,1.53.58,1.78.94,3.25-1.81,2.37-.18-.05-.64.33-.74.6-.23.64.25,1.61.57,1.52,3-.8.4,5.05,4,3.39,2.29-1.06,4.11-2.61,4.38-5.27.56-5.54,1.8-11,1.88-16.6a43.09,43.09,0,0,0-4-19.76c-.74-1.53-3-3.29-.31-5.76.87-.79-1-4.18-2.65-5.5A29.25,29.25,0,0,1,911,482.83c-4.42-12.84-10.79-24.54-17.94-35.91-4-6.33-7.71-12.83-11.5-19.29-.58-1-1.76-2.44-.59-3.22,1.42-1,2.24.85,2.91,1.87,4,6,8.62,11.61,11.27,18.5,1.94,5,5.54,9,8.54,13.39,5.42,7.89,9,16.83,13.33,25.32,2.44,4.77,5.81,8.06,11.14,9.28,4.28,1,7.5,4.06,10.8,6.85,1.14.95,2.18,2.42,4,1.3s1.72-2.74,1.48-4.48a40.82,40.82,0,0,0-5.51-14.9c-3.94-6.81-6.84-14.15-10.65-21-.58-1-1.9-2.61-.37-3.51s2.53.89,3.14,2.11c5.45,10.79,10.82,21.62,16.22,32.45,1.08,2.16,2.12,4.34,3.26,6.47.74,1.4,1.6,3,3.52,2.31s4.07-1.9,3.73-4.25c-.76-5.35-.16-11.27-5.42-15.05-1.6-1.16-2.14-3,.4-3.73,3.66-1,3.05-3.47,2.33-6-1.49-5.24-3.1-10.45-4.67-15.67a19.19,19.19,0,0,1-.64-2.08c-.17-.94-.41-2.09.74-2.52s1.72.67,2,1.53a72.16,72.16,0,0,1,2.94,9c2,9.3,5.74,18,8.72,26.95,1.27,3.79,5,4.4,8,5.18,2.56.65,3.29-2.26,4.22-4.15,1.57-3.22,3.36-6.12,7.09-7.09,2.06-.54,3-2.41,3.69-4.17,2.8-7,4.83-14.15,2.8-21.92-1-3.65-1-7.29,1-10.89s1.73-7.77,1.82-11.74a90.94,90.94,0,0,1,1.81-16.23,103.37,103.37,0,0,0,2.18-16.91,10.12,10.12,0,0,1,1.78-5.81,2.65,2.65,0,0,1,2.69-1.39,2.55,2.55,0,0,1,1.91,2.37,11.28,11.28,0,0,1,0,4.7c-2.17,8.82-3.91,17.68-2.83,26.87a1,1,0,0,1-.08.7c-4.71,5.94-2.66,13.06-2.81,19.63a52.65,52.65,0,0,0,6.08,26.65,31.59,31.59,0,0,1,3.84,18.59,47.64,47.64,0,0,0,.29,7.63c.06.92-.21,2.22.92,2.52,1.31.35,2.27-.65,2.78-1.76a14.1,14.1,0,0,0,.92-3.47c.92-5.86,1.79-11.73,2.67-17.6.24-1.57.34-3.51,2.44-3.3,1.91.19,1.71,2.21,1.64,3.53a142.15,142.15,0,0,0,0,19.25c.26,3.3-2.87,5-3,8.07-4.73-1.62-3.8,3.47-5.77,5.14-.6.5-2.19.46-1.42,2a2.57,2.57,0,0,0,2.6,1.58,4.87,4.87,0,0,1,4.9,2.28c1.76,2.51,4,2.78,6.56,1.51,1-.47,2-.8,3-1.19,5.24-2,5.24-2,8.65,2.25,1.1-.16.94-1.6,1.86-1.95a3,3,0,0,1,3.92,1.54c.94,1.79-.35,2.73-1.78,3.24-2.28.81-4.42-.31-6.6-.77-1.25-.27-2.67-1-3.65.24s.06,2.51.89,3.51a3.55,3.55,0,0,1,1,2.62c0,.94.37,1.93,1.3,1.88,5.15-.29,9.29,3.35,14.34,3.7,4.48.31,8.71.2,12.78-1.94a26.94,26.94,0,0,1,6.21-2.61c3.62-.84,4.9-2.91,4.32-6.56-.54-3.4-1.32-6.64-3.91-9.12-.88-.85-1.34-8.86-.36-9.71,1.66-1.43,1.16-2.94.71-4.61-1.33-4.82-3.49-9.28-5.44-13.84-.71-1.66-1.72-3.45-.92-5.53,1.93.39,2.16,2,2.65,3.27,4.16,10.7,9.76,20.83,12.45,32.13.61,2.6,1.69,3.35,3.72,1a56.28,56.28,0,0,0,7.82-10.73c.61-1.18,1-3.37,2.78-2.54,1.65.77,0,2.31-.18,3.51-.89,4.75-3.73,8.74-4.87,13.42-.73,3,.53,4.62,2.79,5.91,1.18.68,2.46,1.11,3.62,0s.54-2.22.09-3.36a6.57,6.57,0,0,1-.37-1c-.22-1.09-1.45-2.41,0-3.22,1.2-.66,2.12.6,3,1.36s1.29,2.46,2.75,1.65c1.1-.61,1.06-2.07,1.12-3.28.1-2.06.15-4.12.26-6.18,0-.74.23-1.53,1.14-1.53.64,0,1,.62,1.18,1.21a24.52,24.52,0,0,1,1.4,7.12c0,2.83,1.89,3.64,3.93,3.47,2.34-.2,2.38-2.31,2.07-4.23-.37-2.27-.85-4.52-1.22-6.79-.11-.68-.29-1.58.46-2,1-.52,1.46.42,1.94,1.08s.77,1.23,1.21,1.79.89.91,1.52.68.59-1,.62-1.55c.08-1.6-.61-3.27.29-5.24,2.44,2.59,2.74,5.73,3.43,8.51.86,3.42,2.89,4.42,5.87,4.53,2,.08,3.32-.41,2.43-2.95a7.27,7.27,0,0,1-.41-3.19,3.21,3.21,0,0,1,3.28-3.17,3.05,3.05,0,0,1,3.28,2.71c.37,1.78.8,3.55,1.13,5.33.41,2.14,1.29,1.65,2.28.48a5.66,5.66,0,0,0,1.45-3.26c.14-2.05.1-4.13.41-6.15.24-1.62-.72-4.18,1.83-4.45,2.71-.28,5.22.62,6.09,3.82.29,1.05.51,2.13.81,3.17.73,2.46,1.57,4.5,4.66,2.38,1.59-1.09,3.21-.28,4.58.84,2.33,1.91,4.58,2.33,7,.09a4.36,4.36,0,0,1,4.66-.74c4.31,1.41,6.9.26,8.76-3.78.31-.67.55-1.53,1.39-1.36,1.55.33.84,2.06,1.68,3.22,2.28-2.08,4.43-4.4,7.71-4.59.7,0,1.47-.45,2.07-.25,4.57,1.57,7.9.61,9.05-4.56,1.38.25,1.45,1.18,1.64,2,.5,2.16,1.86,2.24,3.54,1.58,2-.77,3.93-1.69,6-2.28,2.35-.67,3.74-1.66,3.36-4.54-.35-2.62,1.11-2.76,3.1-1.79,3.18,1.55,4.4,1,5.58-2.25,1.51-4.18,2.21-4.4,5.63-2a14.71,14.71,0,0,0,3.19,1.55c3.38,1.3,3.92.88,4-2.79,0-.88-.67-2.26.53-2.52s1.53,1.25,1.93,2.19.68,2.07,1,3.1,1,2.12,2.27,1.83a2.08,2.08,0,0,0,1.52-2.55c-.35-2.51-.9-5-1.25-7.52-.14-1-.74-2.5.52-2.9,1.54-.5,1.94,1.19,2.2,2.25.52,2.1.64,4.31,1.12,6.43.25,1.1.1,2.84,1.53,3s2-1.43,2.47-2.69c.16-.43.4-.84.71-1.47,1.82.93,1.42,2.69,1.8,4.07.22.8.36,1.88,1.46,1.68s1-1.26.89-2.09a10.46,10.46,0,0,0-.78-2.77c-.55-1.18-1.18-2.32.48-3,1.39-.54,2.2.44,2.84,1.54.53.91.37,2.18,1.59,3.07a10,10,0,0,1,8.29-5.61c1.15-.1,1.34-.93,1.19-1.81a27.41,27.41,0,0,0-.79-2.78c-.36-1.34-1.42-3,.61-3.67,1.74-.53,2.42,1.18,2.93,2.54.56,1.53.41,3.72,2.58,3.85,1.94.11,3.06-1.59,4.23-3a13.35,13.35,0,0,0,2.42-5.59c.31-1.19.63-2.52,2.16-2.43,1.3.07,1.5,1.32,1.87,2.35.43,1.18-.27,3.56,2,3s2.21-2.53,1.58-4.48a8.9,8.9,0,0,1-.48-1.75c-.11-1.07-.35-2.38,1.11-2.62,1.14-.18,1.59.9,1.87,1.84.64,2.2,1.09,4.48,1.87,6.63s2.09,2.84,4,1.08c2.18-2,5.48-2.72,5.64-6.79.07-1.76,1.81-1.47,2.8,0,.67.95.66,2.35,1.82,3,1.35-.4.75-3,2.52-2.54s1.4,2.62,2.32,4.32c1.27-1.81,2.27-3.89,4.57-1,1.09,1.38,2.45-.6,3.1-1.86a32.26,32.26,0,0,1,4.92-7.75c1,.64.59,1.26.52,1.8-.17,1.25-1.18,2.76.49,3.55s2.5-.82,3.36-1.92c1.14-1.48,1.37-3.32,1.68-5.12.47-2.78,1.82-3.08,4-1.6,4.27,2.92,4.07,2.77,6.72-1.72,3.44-5.83,2.08-12.26,2.71-18.44.06-.6,0-1.22,0-1.82,0-.87,0-1.93,1-2.1s1.32.83,1.51,1.67c.45,2,.86,3.92,1.52,7,1.63-6.2,5.66-9.9,7.56-14.9,1.16-3,3.39-3.63,6.06-2.22,1.18.62,2-.26,2.91-.79,2.66-1.61,5.3-3.16,8.46-3.56,4-.5,7.28.41,9.34,4.26a9.1,9.1,0,0,0,2.51,3c2.24,1.7,4.22,1.45,5.76-.93,1-1.6,2-3.31,2.88-5,.53-1,1.15-1.56,2.24-.92s.68,1.47.27,2.22c-.91,1.7-1.92,3.34-2.86,5-.53,1-1.06,2-.3,3.05a1.29,1.29,0,0,0,1.57.55c1.29-.58.29-1.71.46-2.57a3,3,0,0,1,.84-2c1.47.32,1,2.32,2.41,2.94.75-1.8,2.84-2.59,3.64-4.18,2.29-4.55,5-8.78,7.67-13.11a2.78,2.78,0,0,0,0-3.13c-2.92-3-.81-3.85,1.71-4.66a2.73,2.73,0,0,0,1.1-.88c.9-1.08,1.62-2.64,3.36-2.09s1.77,2.41,2,3.93c1,6.57,1.82,7.15,8.06,5.58a.92.92,0,0,0,.33-.11c1.51-1.11,4.13,1.23,5-1.35.58-1.83-.47-3.79-.86-5.69-.32-1.54-.61-3.09-.93-4.63s0-1.18,1.56-2.68c1.32-1.31,1.74-3.6,2.49-5.48,1.07-2.68,2-5.43,3.15-8.08.52-1.18,1.32-2.63,2.85-2.26s1.09,2,1.08,3.12c-.07,7.24-1.18,14.27-4.46,20.74-1.34,2.66-.8,5.17-.19,7.76a1.59,1.59,0,0,0,2.14,1.28c2.08-.42,4.25-.43,6.31-.92s4.23-2.08,5.23,1.65c.32,1.19,5.14-.25,6.09-2,1.29-2.3,2.41-4.69,3.66-7a10.7,10.7,0,0,1,1.79-2.66c1.11-1.09,2.54-2.2,4.1-1.22,1.4.86.63,2.45.38,3.69a28.39,28.39,0,0,1-4.53,10.58c-.52.76-1.47,1.61-.9,2.57.68,1.15,2,.51,3,.38,3-.38,4.25-2.94,5.35-5.3,1.81-3.91,2.76-8.24,5.38-11.75,1.45-1.94,3.18-5.73,5.27-4.19,2.43,1.8-.45,4.79-2,6.64-3.33,4-4.09,8.91-5.45,13.64-.71,2.44.94,3.31,2.75,3.81,2.28.62,2.82,1.56,1.6,3.86-1.64,3.13-.65,4.54,2.74,4.46,1.06,0,2.13-.19,3.19-.15,3.13.14,3.88,1.26,2.45,4.08-1.55,3.08-2,5.61,1.51,7.71,1.43.86,1.37,2.74,1.39,4.32,0,2.74,1.22,3.33,3.66,2.48,3.24-1.12,6.56-2,9.84-3,.08,0,.21.1.62.31a10,10,0,0,1-6.66,4c-4,.88-4.59,4.88-6.91,7.25-1.2,1.22-.71,3.5,1.86,3.15,4-.54,5.57,2.42,7.42,5,.56.8,1,1.72.2,2.63a2.06,2.06,0,0,1-2.63.29c-1.26-.67-2.43-1.52-3.68-2.21-.86-.48-1.87-.8-2.52.26a1.8,1.8,0,0,0,.58,2.28c1.8,1.8,2.45,3.36-.57,4.55-1.1.44-1.13,1.48-.67,2.47a24.91,24.91,0,0,0,1.41,2.52c3,4.91,2.84,5.43-2.15,7.72a7.22,7.22,0,0,0-4,4c-.76,2-.7,3.76,2,4.44,8.53,2.2,15.93,7.1,23.88,10.69,1.2.53,2.59,1.36,1.93,3-.82,2-2.32.91-3.62.41-6.39-2.46-12.43-5.87-19.25-7.16a6.29,6.29,0,0,0-6.09,1.82c-4.78,4.52-4.85,4.44-10,.42a8,8,0,0,0-1.2-.67c-1.73,6.09,1.06,14.78,5.85,18.15a11.43,11.43,0,0,1,4.7,5.72,11.09,11.09,0,0,0,5.44,6.49c3.29,1.68,5.06,5,7.78,7.29.46.38.82,1,.29,1.56s-1.27.35-1.9,0c-3.47-2.06-6.94-4.12-10.58-6,3,3.77,6.91,6.43,10.35,9.64a12.81,12.81,0,0,1,1.32,1.23c.7.86,2.47,1.66,1.47,2.82s-2.06-.47-2.92-1.14c-5.57-4.35-11.08-8.77-16.64-13.13-2-1.59-4.13-3-6.72-1-2.29,1.77-3.06,3.81-1.7,6.63.83,1.71-.11,2.16-1.7,1.79a16.46,16.46,0,0,0-5.63-.59,3.05,3.05,0,0,0-2.81,1.84c-2.08,4.87-3.12,5.23-7.27,2.61a2,2,0,0,0-.43,2.35c2.48,6.5-2.22,12.3-1.63,18.63.18,2-1.55,2.2-3.08,1.93-2.38-.43-4.72,0-7.08.1a15.3,15.3,0,0,1-1.76.2c-1.51-.09-.11,3.33-2.31,2.08-2.36-1.33-4.91-2.44-6.62-4.78-1.3-1.8-2.69-3.52-4-5.25-1.51.91-.11,3.08-1.94,3.36-.29,0-.8-.49-1-.87-.72-1.39-.93-3.12.15-4.1,2.22-2,2.22-4.57,2.5-7.23.38-3.65,2.53-6.15,5.69-7.81,2.69-1.4,5-3,3.11-7-1.7,2.35-5.94,1.68-6.37,5.84a1.13,1.13,0,0,1-1.42.81,1.55,1.55,0,0,1-1.26-1.91c1.16-2.84-.44-4.77-1.78-6.9a6,6,0,0,1-1-3.82c.13-1.33,0-2.42-1.49-2.87a3,3,0,0,0-3.47,1.13,6.51,6.51,0,0,0-1.24,2.18c-1.54,6-4.67,11.41-5.16,17.69-.1,1.3-.07,3.17-1.86,2.85s-1.65-2.26-1.12-3.6c2-5.12,1.87-10.69,3.3-16,1.07-4,.71-4.09-3.25-3.55a1.08,1.08,0,0,1-1.26-.49c0-1.3,1.17-1.61,2-2.26.57-.46,1.88-.36,1.4-1.65a1.88,1.88,0,0,0-2-1.21c-2,.27-4.93-.5-4.5,3.35.21,1.89-1.07,1.79-2.33,1.75-.91,0-2.08-.31-2.41.93-.39,1.46,1,1.73,1.83,2.27,1.69,1.05,3.46,2,4.38,3.92-.94,1.06-1.66.4-2.38.09-1.09-.47-2.15-1-3.27-1.43-1.71-.59-3.65-1-5.07.29-1.61,1.48.75,2.75.76,4.5-2.72.47-4.52-2.41-7.29-2.15-.17,1.69,1.06,2.62,1.78,3.78.5.79,1.46,1.65.68,2.56-.92,1.07-1.75-.06-2.37-.65-1.83-1.75-4-1.86-6.31-1.74-2.54.14-3.17,1.41-2.07,3.58,1.19,2.38,2.6,4.63,3.86,7,.49.91,1.49,1.72.91,2.93-.23.5-.82.41-1.25.15-1-.6-2.69-.11-2.94-2.06-.35-2.73-2-4.89-3.28-7.23-.59-1.13-1.34-2.64-3-1.69-1.36.79-1.18,2.26-.67,3.58,1.1,2.82,2.25,5.61,3.35,8.43.35.91.78,2-.36,2.56-.92.45-1.47-.54-1.95-1.18-1.75-2.3-3.31-4.77-5.21-6.92-2.14-2.42-3-2.12-3.78.87-.15.6-.21,1.24-.87,1.45-.82.26-1.38-.26-1.75-.91-1.61-2.81-3-3-4.8,0-.86,1.47-2.71,1.25-4.23,1.38a41.93,41.93,0,0,0-5.28.46c-1.81.4-3,.14-3.6-1.79-.43-1.24-1.41-2.34-2.68-1.33s.16,1.87.71,2.7c.45.68,1.35,1.28,1,2.18-.45,1.15-1.63.88-2.5.72-1.74-.31-3.45-.81-5.16-1.28-1.31-.36-2.49-.79-1.82,1.49.86,3-1,2.14-2.56,1.86s-3.51-2-4.47-.24c-.76,1.4,1.58,2.37,2.5,3.56.77,1,1.94,1.75,2.05,3.16a1.4,1.4,0,0,1-2.25-.44c-1.84-3.06-5.11-2.75-7.86-3.51-1.93-.53-3,.53-2.12,2.7.7,1.67,1.6,3.25,2.33,4.91.38.85,1,2-.15,2.55-1,.5-1.37-.66-1.84-1.29-1.34-1.85-2.6-3.78-4-5.6-.48-.63-1.21-1.46-2.09-.94s-.35,1.56,0,2.26c1.19,2.37,2.42,4.72,3.71,7a4.82,4.82,0,0,0,4.21,2.33,30.26,30.26,0,0,1,9.58,2.31c3.36,1.34,5,.37,6.34-3.13.34-.91.6-2,1.83-1.79s1.37,1.39,1.18,2.31c-.44,2.09.36,3,2.32,3.05,2.61,0,3.09,3.17,5.45,3.78,1.05.27,1.79.76,3.09.54,5.14-.83,9.56,5.07,7.78,10.13-.94,2.68-3,3.56-5.62,3.44-3.16-.15-5.7.31-5.58,4.53,0,.95-.86,1.94-1.35,2.9-.27.54-.93,1.4-.82,1.52,3.24,3.46-1.48,6.11-.83,9.3.22,1.09-.49,1.76-1.54,2.1-.65.21-1.59.51-1.77,1-2.13,5.9-7.26,5.52-11.94,6.06-5.36.63-8.74-2.44-12.57-5.9-4.67-4.23-3.81-8.82-3.18-13.77.38-3-2.74-9.66-5.32-10.8-2.27-1-2.63.7-2.82,2.38-.29,2.47,1.52,4.52,1.62,7-1.75.44-1.92-.95-2.29-1.8-1.24-2.82-3.46-3.85-6.28-3.91a15.41,15.41,0,0,1-3.19,0c-4.09-1-7.44-.69-8.74,4.3a1.7,1.7,0,0,1-2.16,1.39c-.65-.2-.75-.83-.83-1.46-.7-5.18-3.7-6.18-8.77-6-5.87.19-9.28,3.8-13.37,6.78-.64.47-1.26,1.18-2.45.63.07-1.74,1.55-2.49,2.6-3.44s1.78-2.49.62-3.4c-2.48-1.95-4.18-5.27-7.81-5.35-1.29,0-1.43-.76-2.13-1.6-4-4.78-2.1-9.74-1-14.74.11-.54.26-1.2-.43-1.63-1.6.45-1.13,1.88-1.27,3-.57,4.48-2.33,5.9-6.49,5-1.82-.37-2.74.25-2.76,2.17a13.58,13.58,0,0,0,1.37,7.06,37.32,37.32,0,0,1,3,8.15c.3,1.08,1.08,2.77-.37,3.12s-1.48-1.57-1.75-2.66a36.27,36.27,0,0,0-4.26-10.74c-1.42-2.28-2.74-3.05-5.13-1.32-2.17,1.56-5.06,2.16-7.42,2.53-5.4.85-7,5.42-9.35,8.86-1.29,1.88,1.66,3.39,3.75,3.38a23.37,23.37,0,0,1,9.24,2.27c2.6,1.07,3.54,2.88,3.68,5.59.15,2.94-.63,5.25-3.23,6.72-3.17,1.8-6.67,2.28-10.21,2.8a47.44,47.44,0,0,0-17,5.86c-4.55,2.65-6.93,7.49-8.76,12.38a9.22,9.22,0,0,1-4.69,5.51c-4.63,2.37-7.88,6.5-11.27,10.37-5,5.78-13.13,4.75-16.56-2.16-4.32-8.73-10.12-10.32-17.74-4.67-2.24,1.67-4.57.55-6.83.89-.67.1-1.74-.48-2-.16-3,3.24-7.41,3.28-11,5-4.44,2.18-8.38,5.41-12.51,8.23-1,.66-2.12,1.35-1.81,2.83s1.54,1.8,2.69,2.08c2.61.63,5.17.08,7.72-.48,1.39-.3,3.27-.91,3.73.81.6,2.22-1.72,2.29-3,2.61-6.34,1.48-12.83,2.44-18.22,6.62-1.23.95-2.83,1.71-2.66,3.54s1.94,1.51,3.06,2c1.68.79,3.45,1.76,3.18,3.88s-2.31,2.3-3.94,2.31c-5.31,0-7.87,4-9.66,7.95a12.19,12.19,0,0,1-6.79,6.8c-1.46.61-3.92,1.47-3.39,3.11.59,1.83,2.93.57,4.43.32a45.63,45.63,0,0,0,13.83-4.42c3.49-1.83,7.32-1.65,11-2.2.58-.09,1.16.21,1.54,1.31-7.32,2.41-12.4,8.52-19.06,12.16a6.51,6.51,0,0,0-3.07,3.4,5.6,5.6,0,0,1-2.66,2.79c-1.25.73-3.63.63-3.31,2.68.48,3-.94,6.61,1.49,9,2,1.94,4.67-.8,4.84-1.62.76-3.59,4.17-4.24,6.12-5,8-3.17,16.22-3.33,24,1.4a45.9,45.9,0,0,1,5,3.41,4.57,4.57,0,0,0,5.2.65c8.1-3.38,8.15-3.32,6-12.27-.58-2.44-1.85-4.85,1.06-6.78,1-.66.88-1.73-.53-2s-2.3-1.06-1.32-2.5c2-3,.8-4.19-2.15-4.13-.28-1.52.61-1.45,1.23-1.67,2.3-.82,2.87-2.39,1.76-4.55-1-2,0-3.18,1-4.84,2.22-3.74,6.67-5,8.78-8.88.8-1.48,3.5-1.77,5-2,4.34-.62,8.75-1,13.12-1.64,1.56-.23,2.72,1.72,3.76,1.61,3.59-.39,5.24,1.55,6.86,4.33,1,1.73,2.48,0,4.48-.53-2.56,3-1.19,5,.36,7.42,1.9,2.89.25,6.57,1.35,9.82.6,1.77.55,3.37,2.69,1.24,1.26-1.25,2.77-1.09,3.54.53s-.48,2.32-1.82,2.83c-1.17.45-2.26,1.18-3.66.51.14,1.52,1.29,1.7,1.87,2.41s1.27,1.26,1.06,2.19c-.28,1.19-1.32.88-2.06.72-2.16-.45-2.74,1.23-2.5,2.55.65,3.42-2.06,5.47-2.73,8.3-.24,1-1,.79-1.73.53s-1.54-.62-1.73.36a2.52,2.52,0,0,0,.75,1.92c1.65,1.56,3.44,3,5.16,4.47,3.17,2.76,3.66,6.46,4.63,10.46,1.6,6.69-1.28,11.49-3.85,16.7-1.1,2.23-.69,3.88,1.24,5.34s3.92,2.8,5.07,5c.69,1.32,2.17,2.74.5,4.18s-2-1.12-3.22-1.3c-.72,3.34-.72,3.34-6.7-.32.14,3.64,2.72,6.41,3,10.13-2-.47-2.13-2.11-2.73-3.26-2.23-4.29-5.13-7.56-10.38-6.94a1.83,1.83,0,0,1-2-.91,32.6,32.6,0,0,0-8.73-8.36,8.31,8.31,0,0,1-3.33-4.18c-1-3.1-3.87-4.82-5.21-7.71-.71-1.54-2.2-1.3-3.69-.48a16.07,16.07,0,0,0-7.66,8.19c-.73,1.77-1.63,3.54-3.44,4.48-.5.26-1.15.69-1.59.05a1.83,1.83,0,0,1-.05-1.35c.33-1.17.81-2.28,1.13-3.44,1-3.73-.68-6.27-4.45-6.41a9.34,9.34,0,0,0-4.52.65,31.74,31.74,0,0,1-11,3.23c-5.2.56-11.18,1.24-15.31-3.84-1.71-2.1-4.26-2.35-6.4-3.43-2.62-1.3-3.09-4.39-5.48-5.84-.91-.56-1-.55-1.89,0-5.76,3.68-7.94,9.32-8.37,15.87-.2,3,0,6.06,0,9.1,0,.84-.1,2-1.08,2-1.31,0-1.17-1.25-1.15-2.21a22.58,22.58,0,0,0,0-5.06c-.49-2.33,1-5.45-3.54-6.24-2.37-.41-4.4-2.2-6.94-.55-.66.42-1.43,1-2.06-.17-1.94-3.72-4-1.44-6-.1-.9.61-1.62,2.49-2.8,1.36s.21-2.4.91-3.46c.52-.8,1.24-1.48,1.71-2.32.82-1.45,2.07-3.58.44-4.51-1.46-.83-3.11-2.73-5.63-1.11-4.66,3-5.69,5-4.56,11.24.21,1.15,1,2.41-.24,3.36s-2.27.13-3.36-.29c-7-2.72-12.79.35-15,7.68a67.14,67.14,0,0,1-8.59,17.42c-.69,1-1.73,2.56-3.1,1.71s-.18-2.24.22-3.28c1.73-4.52,3.58-9,5.32-13.49.58-1.52,1.74-3.35-.12-4.59s-3.54-.25-4.84,1.09a125.49,125.49,0,0,1-13.93,12.35c-.66.51-1.23,1.32-2,1.53-6.93,2-5.86,7.67-5.78,12.88.07,4.31,1,8.64-.47,13.29-2.06-1.47-1.9-3.73-2.72-5.44-.4-.84-.5-2.07-1.75-2s-1.39,1.28-1.43,2.2c-.24,6.34,2.18,11.92,4.7,18.38,1.88-3.72-.17-6.79.86-9.58,1.4-.26,1.34.81,1.47,1.57A161.36,161.36,0,0,1,989.86,846c0,1.45-.24,3,.65,4.25,2.41,3.39,2.11,7.06,1.34,10.82-1.16,5.65-4.05,8.86-8.49,9.43-4.69.61-10.59-2.71-12.68-7.13-4.87-10.32.71-19.2,11.88-18.6,2.71.15,3.5-.61,3.66-3.28.2-3.28.89-6.44-2.7-8.51-.72-.41-.91-1.91-1.2-2.95-4-14.11-8.45-28.07-11.29-42.49-.92-4.67-2.82-5.09-6.24-1.83-2.11,2-2.43,4.67-2.58,7.32-.25,4.72-.24,9.45-.44,14.17a9.94,9.94,0,0,0,3.29,8.38,13.78,13.78,0,0,1,4.54,10c.15,5.39-3.72,10.77-8.64,11.94A11.85,11.85,0,0,1,947.57,831c-3.48-7.62-1.2-14.15,6.31-17.62,2.16-1,3.31-2.24,3.44-4.85.47-9.31,1.18-18.62,1.79-27.93a4.85,4.85,0,0,0-.69-3.49c-1.81-2.33-2.67-5.11-3.81-7.78s-2.59-3.91-5.84-2.37c-3.84,1.83-8.08,1.28-12.12-.09-1.49-.5-2.09-1.88-2.61-3.26-.64-1.71-1.15-3.55-3.46-3.57a5.37,5.37,0,0,0-5.24,3.09c-1.29,2.58-2.38,5.27-3.54,7.91-3.68,8.34-10.35,13.11-18.69,15-6.29,1.44-12.87,1-19.18,3.24-3.51,1.26-7.74.87-11.61.59-4.61-.35-8.87-7.05-7.85-11.73.34-1.54,1-3,1.29-4.54,1-5.15-2.26-8.93-7.25-8.08-9.15,1.56-18.06,4-26,9.14-2.81,1.83-6.62,2.28-8,6.11a1.11,1.11,0,0,1-1.82.37c-1.6-1.9-3.51-1.1-5.27-.74-7.13,1.45-14.55,1.53-21.06,5.75-3.1,2-6.83,2.13-10.57.37-3.4-1.61-7-.27-10.44.49-7.07,1.57-7.29,2-3.53,8.43,9.06,15.54,21.27,27.2,38.56,32.61,4.75,1.48,9.28,3.72,14,5.42,3.72,1.35,7.44,2.52,10.66-1.43,1.37-1.69,3.51-.83,5.38-.44,7.19,1.49,13.51-.09,18.59-5.71a8.58,8.58,0,0,1,3.82-2.55c2.38-.75,4.84-1.17,5.68-4.21.35-1.25,1.76-.93,2.8-1,3.13-.28,6.36.22,9.2-1.94,1.48-1.12,3,.18,4.08,1.29,3.43,3.58,7.74,6,11.37,9.32,5.25,4.86,12.06,5.18,18.72,5.62,1.34.08,2.85-.52,4,1-2.86,1.92-6,1-9,1.25-4.45.42-5.65,1.7-6,6.35-.27,3.74-.54,7.51-1.18,11.19-1,5.75,2.19,10,4.62,14.48,1.14,2.11,1.93,4.17,1.13,6.56-.25.75-.31,1.85-1.44,1.74-.89-.1-.87-1-1-1.72a20.07,20.07,0,0,0-6.39-11.84c-2.26-2.08-3.22-1.52-4,.92-.82,2.71-1.91,4.2-4.72,2a2.68,2.68,0,0,0-2,0c-4.82,1.54-10.06,1.73-14.46,4.69-1.41,1-2.77.61-3.49-1.1-.55-1.29-1.48-2.15-2.76-1.71-7.86,2.76-16-.28-23.93,1.11-4.25.74-8.08,1.6-10.77,5.38-.79,1.11-2,2.61-3.51,1.48s-1.23-3.09-.32-4.61c2-3.34,5.35-4.54,8.71-5.83,1.29-.5,4.2-.25,3.19-2.66-.89-2.14-2.86-4.66-5.63-4.07a6.57,6.57,0,0,1-5-.61c-2.24-1.27-4.21-.44-5.83,1.14-2.8,2.72-5.35,2.49-8-.21-3.86-3.92-8.35-5.67-13.86-4.46-1.84.41-3.12.89-3.37,3a4.75,4.75,0,0,1-.58,1.71c-.79,1.4-1.4,4-3.16,3.18s0-2.82.59-4.08c1.11-2.5.4-3.62-2.1-3.95l-8.8-1.23a12.06,12.06,0,0,1-4.74-1.45c-.94-.57-1.85-1.31-1.42-2.61A2.22,2.22,0,0,1,782,846c1.41.16,2.79.55,4.2.72s3.14.78,3.27-1.49c.1-1.91-.58-3.72-2.82-3.93a11.35,11.35,0,0,0-3.49.45c-.92.21-1.9.75-2.59-.26s.22-1.81.66-2.62c3.06-5.61,3.08-5.69-2.23-9.19a49.66,49.66,0,0,0-5-2.77c-2.24-1.14-4.23-2.86-4.64-5.24-.6-3.4-2.91-5.93-3.53-9.51s-4.29-6.47-6.72-9.59-4.9-5.94-7.27-9c-1.91-2.45-4.41-2.52-7.08-2.19-2.94.35-5.87.74-8.82,1-1.28.12-2.87.3-3.11-1.52s1.19-2.21,2.49-2.56c2.59-.68,5.13-1.44,7.14-3.54-1.39-1.46-2.82-.65-4.14-.48-10.92,1.38-21.5,4.55-32.37,6.28-8.49,1.36-15.89,5.82-22.56,11.38a13.24,13.24,0,0,1-3.37,2c-12.38,5.14-24.7,10.47-37.58,14.23-7.6,2.22-13.72,7.6-21.22,10-11.48,3.65-22.09,9.18-32.46,15.32-6.06,3.59-12.89,5.43-19.31,8.2-16.91,7.27-33.71,14.81-50.13,23.13-14.51,7.35-29.75,12.2-45.2,16.92-24.59,7.5-48.94,15.81-72.47,26.46-18.83,8.53-38.64,14.45-58,21.64-18.23,6.78-36.63,13-54.92,19.62-6.35,2.29-12.76,4.38-19.11,6.67a14.43,14.43,0,0,1-6.6.85Zm941.89-379.62c-3.32-3.05-5.44-7.46-10.89-5.86-1.5.44-3.16-.84-4.58-1.75a4.06,4.06,0,0,0-4.62-.2c-2.41,1.32-4.49,1.28-6.26-1.68-2.2-3.69-8.29-4.92-12.08-2.8-1.25.69-2.5,1.33-3.59.3-2.78-2.62-6.39-1.72-10.07-3.08,1.49,3-.27,3.76-2.06,4.52-4.83,2.06-5.93,1.7-9.33-2.9-.22-.29-1-.56-1.21-.41-2.41,1.47-5,0-7.46.41,2.23.23,4,2.12,6.46,1.61.9-.19,1.17,1.05,1.19,1.9s-.71,1.54-1.38,1.21c-3.11-1.57-2.8.83-3.26,2.66-.77,3-2.55,3.33-5.44,2.31-1.62-.57-3.22-1.81-5.79-.62-2,.93-4.18.1-3.77,3.59.12,1-1.42,1-2.31,1.22a1.5,1.5,0,0,0-1.25,1.55,1.62,1.62,0,0,0,1.7,1.52c1.83.11,3.34-.25,3.51-2.53.09-1.24-1-3.19,1.67-2.82s1.09,2.2,1.09,3.52c0,1-.49,2.31.58,3a2,2,0,0,0,2.58-.53c2.75-2.62,4.67-.54,6.52,1.31,1.43,1.44.49,4.9-.94,4.39-3.57-1.27-4.53,3.18-7.5,2.86-.72-.08-1.58.95-2.32,1.54a1.86,1.86,0,0,0-.47,2.31,1.2,1.2,0,0,0,2,.51c1.67-1.56,2.24,1,3.56,1a17.52,17.52,0,0,1-.49-3c.06-2.83,3.42-5.35,4.88-3.6s3.55,3.75,3.13,6.88c-.6,4.52-5.15,6.44-7.18,6-5.27-1.08-4.93,1.62-5.83,5.16-1.24,4.82-3.63,9.3-4.52,14.3-.42,2.36.94,5.74-3,6.42-.26,0-.55.82-.55,1.25,0,1.76-.37,3.11-2.47,3.19-.8,0-1.21.67-1.18,1.53a3.69,3.69,0,0,1-1.89,3.59c-1.2.73-1.09,2.16-.6,3.29a8.82,8.82,0,0,1,1.06,4.84,2.52,2.52,0,0,0,1.8,2.47,1.72,1.72,0,0,0,2.19-.75c1.82-3.64,4.89-3.59,8.23-3.29,2.44.21,4.66-.1,5.44-3.3.47-1.93,4.55-2.54,6.27-1.22,1.15.89,2.59,2.08,3.78.89,2.37-2.36,3.38-5.92,6.86-7.44,1.06-.46,1.82-3.23,1-4.28-1.43-1.9.11-2.46.69-3.59.75-1.46,2.71-2.37,1.69-4.69-.43-.95,1-1.31,1.71-1.26,3.41.21,3-2.13,2.9-4.34-.07-1.13-1-2.23.11-3.39,4.23-4.36,7.85-9.47,15.1-8.92a5.9,5.9,0,0,0,5.88-2.85c.42-.8,3-4.44,5.7-.62.77,1.08,4,4.54,6.36.35a1.08,1.08,0,0,1,.93-.43c2.77.89,3.5-1.11,4.57-3,.74-1.31,2-2.64,3.78-1.94,1.27.5,3.21.72,2.4,3.28,1.07-1.72,2.54-3.06,1.45-5.09-.89-1.66-3.63.52-4.16-2,.85-.71,3-.73,2.66-1.37-1.26-2.59,1.2-2.89,2-4.2a1.52,1.52,0,0,0,.24-1C1199,585.82,1201.7,584.94,1204.66,583.73ZM750.82,698.09c-5.29,1.94-8.83,6.61-14.21,7.74-3.37.7-5.58,3-7.91,5.2-1.69,1.61-1.47,2.59.87,3,3.5.61,7,1.12,10.49,1.92,5.62,1.3,10.9,3.33,14.58,8.32,1.09,1.47,2.77,1.76,4.49,1.78l15.73.2c-.8-1-2.43-.21-2.89-1.66,1-1.47,2.55-.93,3.86-1.27,1-.26,2.64.24,2.76-1,.16-1.59-1.63-1.31-2.67-1.65-.62-.21-1.07-.48-.9-1.37,2.39-1.06,4.77-.57,7.19.17.82.25,2.33,1.11,2.51.19.63-3.36,3.2-2.37,5.06-2.57,4.22-.43,8.26-.46,11.64-4.11,2.59-2.79,5.77-1.8,8.55,1.49a1.37,1.37,0,0,0,1,.37c3.55-.14,6.17,2.31,9.26,3.46,3.59,1.34,6.18-.82,5.5-4.72a48.58,48.58,0,0,0-1.53-5.22c-.91-3.09-.49-5.38,3-6.47,3.72-1.16,6.46-4,9.14-6.7,1.39-1.41,2-2.86-.41-4.33-5.67-3.48-5.88-4.88-2.41-10.71.9-1.52,2.19-3,1.08-5-1.9-3.42-4.14-6.3-8.54-5.94-.94.08-2,.25-2.71-.51-1.56-1.61-2-.18-2.46.9a4.6,4.6,0,0,0,.1,3.1c.56,2.34-1,4.08-2.37,5.76-.32.41-1,.56-1.25.15-1.06-1.51.37-3,.17-4.51,0-.1-.14-.19-.49-.61-1.68,2-3.47,3.9-4.95,6A61.66,61.66,0,0,1,797,694.65c-6.07,4.28-9.68,11.2-14.82,16.55-.44.46-1.21.93-.67,1.9,2.57,0,5.16,0,7.75.13.86,0,2.23-.09,2.21,1.23,0,1.15-1.3,1.32-2.21,1.33a85.68,85.68,0,0,1-13.11-.52c-.79-.12-1.67-.39-1.69-1.71,5.62-.71,6.36-7.08,10.88-9.34-1.16-1.09-2.63.55-3-.85s1.06-2,2-2.61a44,44,0,0,0,12-11.72c.6-.85,1.49-2,.58-2.94s-2.21-.24-3.17.48a16.32,16.32,0,0,0-1.85,1.69,84.12,84.12,0,0,0-8.69,10c-1.46,2-4,3.63-6.09,2.23s1-2.94,1.27-4.59a2.73,2.73,0,0,0-.07-.49c-.89-.49-2.1,1.25-2.77-.07-.53-1,.54-1.72,1.19-2.39,1.72-1.76,1-2.68-1-3.24s-3-.06-4,1.83c-1.51,2.83-3.51,5.38-5.77,8.74-.57-3,.43-4.56.9-6.24.7-2.5-.28-3.39-2.63-3.29a5.58,5.58,0,0,0-4.37,2c-1.67,2-3.35,4.08-5.09,6.06C752.35,701.56,752,701.44,750.82,698.09ZM679.75,627.2c3.46,1.18,6.7,2.26,9.94,3.38,4.16,1.43,8.25.49,10.8-3a10,10,0,0,1,8.11-4.36c3.84-.22,4.4-1.49,2.83-5.23-1.32-3.15-.8-4.06,2.45-4.66,3.54-.66,6.81.33,10.07,1.63-4-3.21-8.88-3-13.47-3.88-7.66-1.51-16.05-.18-22.63-6-.43-.38-1.13-.67-1.6-.13s-.21,1.38,0,2C689.66,615.93,685.55,621.33,679.75,627.2Zm460.42,101.57c-2.41.76-3.43-1.44-4.75-2.63-.54-.48-.59-1.39-1.64-1.08a1.75,1.75,0,0,0-1.39,2.16,17.77,17.77,0,0,0,.73,2.78,28.61,28.61,0,0,0,7.56,11.23c2,2,3.68,5.49,5.57,0a1.19,1.19,0,0,1,.85-.58c3.61-.32,4.19-3.89,6.13-6a1.51,1.51,0,0,0,.24-1.29.74.74,0,0,0-1.18-.3c-2.89,2.62-4.09-.16-6-1.68S1142.77,728.26,1140.17,728.77Zm156.54-146a8.12,8.12,0,0,0,1.7,5c.91,1.32,2.07,2.86,3.73,1.62,1.84-1.38,4.53-2.51,4-5.58s-3.28-4.2-5.29-6c-1.62-1.5-2.45.2-3.64.39-1.53.25-2.88.81-4.5-.64-1-.95-3.92-1.83-4.71-.69-1.09,1.57.42,3.73,1.79,5s3.07.33,4.54-.51S1297.19,580,1296.71,582.76ZM926,702l-2.32.62c-1.15.31-2.38.53-2.59,2a3.58,3.58,0,0,0,1.8,3.67c1.81,1.19,3.77,1.6,5.68.42,1.64-1,4.13-1.76,3.24-4.44C931.05,702,928.94,701.59,926,702ZM795.56,752.08c1.73,3.32,2.14,6.68,5.36,8.25a2.75,2.75,0,0,0,3.69-1.32c1.28-2.35,4.91-4.07,2.11-8.1-1,3-4.05,1.3-5.33,2.81C798.5,757.08,798.29,752.5,795.56,752.08Z"/><path class="cls-3" d="M741.64,1033.69a3.73,3.73,0,0,1,.87-3.7,108.4,108.4,0,0,1,11.08-11.19c.79-.65,1.84-1.75,2.79-.84,1.12,1.07-.47,1.84-.87,2.72-2.55,5.58-7.31,9.06-11.74,12.85Z"/><path class="cls-3" d="M1357.53,817.81c-.28-2.23,1.06-3.19,1.85-4.43.59-1,1.19-1.91.38-3a2.24,2.24,0,0,0-2.87-.76c-2.1,1-2.47.54-2.52-1.88,0-2.07-2-3.66-3.95-4.28-1.66-.52-2.05-1-1.49-2.74.86-2.73,0-4.5-3.19-4.45-1.33,0-2.06-.39-1-2,3.22-4.64,3-5.05-2.35-6.16,1.9-4.18,1.9-4.18-1.35-6.72,3.46.06,3-3.69,5.19-4.8.16-.08.22-.72.1-1-1.38-2.77.39-4.27,2.21-5.61a5.45,5.45,0,0,0,2.23-3.94c.15-1.34,1.38-3.87,2.52-4.39,2.2-1,3.69-3.45,6.45-3.41a1.07,1.07,0,0,0,.85-.56c1.17-4.66,5-4,8.31-4.39a4.3,4.3,0,0,0,2.74-1.5,4.87,4.87,0,0,1,1.37-1c2.16,2.74,5-.18,7.28.92.31.14.76.41,1,.29,4.66-2.73,7.73,1.25,11.6,2.38,4.93,1.43,5.81,7.56,10.9,7.89-.35,1.48,3,2.47.44,4.32-1.59,1.16-1,2.55.4,3.51a17.21,17.21,0,0,0,2.88,1.35c1,.4,2.38.46,2.5,1.71.16,1.54-1.36,1.35-2.31,1.58-1.89.46-2.3,1.55-1.34,3.19,1.2,2,.15,4.1.25,6,.21,4-1.93,6.89-2.56,10.26-.58,3.13.06,5.79-3.69,7.36-1.57.65-2.49,3.59-3.29,5.27-1.86,3.93-5.66,3.79-8.36,5.63-3.11,2.11-7.13,2.08-10.93,1.54-.61-.09-1.35-.11-1.6.46-1.06,2.41-2.12,2.51-3.62.31-.52-.76-1.26,0-1.79.46s-1.25,1.05-1.66,0c-1.13-3-2.52-1.25-4.36-.75C1362.17,815.23,1359.26,814.67,1357.53,817.81Z"/><path class="cls-3" d="M1640.29,565.69c-2.23,2.89-1.63,4.56,1.9,4.88.37,0,1,.58,1,.84-.59,5.61,4.26,4.91,7.13,6.51,0,.21,0,.59-.11.62-4.68,1.3-5.54,4.28-4,8.75.71,2.12.2,4.59,1,6.8.41,1.14.06,2-1,2.27-2.59.72-2.82,2.12-1.38,4.25.83,1.22,1.39,2.5-.92,2.69-.94.08-1.24.7-.82,1.53.84,1.63-.23,1.31-1.22,1.52-3.34.75-7.28.6-8.37,5.22a1.48,1.48,0,0,1-1,.89c-4.3.18-8,3.53-12.55,2.35-2.92-.77-5.69.94-8.92-.25-7-2.6-11.53-7.29-15-13.84a18.16,18.16,0,0,1-2.57-8.17c0-1,0-1.89-1.25-2.25s-.75-1.32-.39-2.07c.82-1.71,2-3.27.57-5.33-.65-.89.55-1.42.93-2.12,1-1.92,3.29-3.33,2.49-6.08a1.06,1.06,0,0,1,.34-.93c4.61-2.13,7.4-6.24,10.51-10,.07-.09.22-.24.26-.22,4.51,2.29,7.52-2.95,11.52-2.42,4.16.55,8.49,0,12.48,2.08,2,1,4.65.2,6,3C1637.17,567.11,1638.72,565.27,1640.29,565.69Z"/><path class="cls-3" d="M1412.32,586.9c0,1.25-.87,1.56-1.42,2.14-1.21,1.27-1.05,2.28.74,2.37,3.75.18,5.32,2.71,6.38,5.86,3.13,9.26,2.7,12.05-6.22,17.86-2.83,1.85-4.35-1.59-6.72-1.41-.33,0-1-.86-1-.8-3.56,2.94-8.55,1.88-12.12,4.46-1.26.91-1.7,1.38-2.67,0-2.3-3.35-7.75-5.24-11.33-3.65a10.12,10.12,0,0,1-8.23-.1,12.49,12.49,0,0,0-4.39-1.19c-2.16,0-1.91-2.74-3.26-4s-1.08-6.39.29-8.15c1.63-2.11,1.2-5.53,4.24-6.78.67-.27-.18-1-.44-1.48a31.91,31.91,0,0,0-2.21-4.13c-3.49-4.66-2.09-8.61,1.47-12.29a36.74,36.74,0,0,1,4.61-4.48c2-1.42,4.69-.7,6.59-.4,3.43.54,7.79-.1,10,4.19.66,1.31,1.72.43,2.32-.26,1.44-1.65,3.49-.8,4.87-1.29,4.29-1.52,6.78,3.72,10.68,2.27a.67.67,0,0,1,.61.27c.81,2.73,3.78,5.35,3.7,7.19C1408.6,586.61,1411,586,1412.32,586.9Z"/><path class="cls-3" d="M1229.36,741.4c1.63,2.64,3,2.78,6,2.62,7.09-.39,14.6,1,18.54,8.27,1.44,2.66,3.39,5.46,2.21,9.69-2.45,8.76-4.89,17.34-10,24.95-1.23,1.83-1.65,4.25-2.3,6.44-.41,1.39-.49,3.41-2.39,2.76s-.81-2.48-.37-3.75c1.68-4.79,3.47-9.54,5.18-14.32a24.66,24.66,0,0,0,.59-3,19.3,19.3,0,0,1-11.43,3.8c-3,0-4.45-3-7.44-3.32-2.19-.26-3.67-.74-5,1.33-.47.75-.75,2.07-2,1.38-.93-.5-.51-1.52-.25-2.3.43-1.25,1.28-2.7-.45-3.43-1.93-.81-2.38,1.15-3,2.31a23.54,23.54,0,0,1-6.79,8.71c-.92.69-2,1.81-3.12.66s0-2.21.8-3.11c2.43-2.69,4.08-5.93,6-8.94.44-.68,1.13-1.48.11-2.2a1.44,1.44,0,0,0-2.14.65c-1.24,2.48-4.77,2.94-5,6.54-.09,1.67-2.73,2.06-4,3.35a.83.83,0,0,1-1.25-.2,1.62,1.62,0,0,1,0-1.72,20.46,20.46,0,0,0,1.77-3.92c.48-2.13,0-4.2-2-5.42-3.91-2.41-4.86-7-7.39-10.38-.47-.64,0-1.13.53-1.5s1.33-1.13,1-1.76c-1.9-4.07,1.29-6.17,3.17-8.69a45.56,45.56,0,0,1,5.83-6.25c2.29-2.11,5.91-1,7.62,1,3.17,3.81,6.48,4,11,3.72C1226.88,745.22,1228.68,745.22,1229.36,741.4Z"/><path class="cls-3" d="M598.93,774.31a.93.93,0,0,1,1.18.5c.47,1-.26,1.61-.89,2.14a31.32,31.32,0,0,1-9.37,5c-1.81.68-4,.84-4.57,3.41-.22.9-1.55,1.64-2.24.54-1.16-1.86-2.38-1-3.66-.54-2.8,1-5.57,2-8.38,3a5,5,0,0,0-3.5,2.73c-.93,2.09-3.1,2.84-5,3-7.48.51-14.18,3.67-21.08,6.11a99.58,99.58,0,0,1-23.13,5.29c-6.3.65-11.83,3.28-17.52,5.58-24.85,10-50.27,18.37-75.55,27.15-20.36,7.07-40.86,13.75-61.08,21.24A36.37,36.37,0,0,1,359,861a2.3,2.3,0,0,1-2.9-1.48,2.19,2.19,0,0,1,1.36-2.66,69,69,0,0,1,6.82-3c29.54-11,59.42-21,89-32,18.63-7,38-11.93,56.41-19.51,15.81-6.49,32.05-11.7,48-17.82a126.45,126.45,0,0,1,30.84-8C591.77,776.05,595,775.13,598.93,774.31Z"/><path class="cls-3" d="M479.13,762.31c0,4.23-3.45,7.9-7.77,10.24-11.88,6.42-23.89,5.56-35.65-.77a48.91,48.91,0,0,1-7.61-4.69c-5.51-4.45-11.48-3.8-17.55-2.12-4,1.1-7.92,2.46-12.16,1.82a19.69,19.69,0,0,1-2.78-.48c-1.4-.42-2.81-1.11-2.74-2.86s1.53-2.13,2.78-2.36c3.71-.7,7.45-1.26,11.19-1.82a23.23,23.23,0,0,0,5.51-1.28,5,5,0,0,1,5.37.76c2.35,2,4.79,1.61,7.37.73,4.18-1.42,7.87-3.85,11.74-5.91,10.57-5.6,21.46-8.06,33.12-3.71C475.28,751.84,478.69,755.91,479.13,762.31Z"/><path class="cls-3" d="M1447.58,634.49c-1.28-2.52-.5-4.53.25-6.55a45.87,45.87,0,0,0,1.72-4.76c.29-1.13.57-2.64-.43-3.43s-1.4.85-2.16,1.24c-1.41.74-2.25.48-2.4-1.27a5.5,5.5,0,0,0-1.35-3.64c-1.3-1.34-4.39-1.29-4.29-3,.35-6.66-1.87-14.09,2.83-19.69,2.64-3.16,5.77-6.63,10.39-7.45a4.34,4.34,0,0,1,5.21,3.76c.1,1.72.36,2.55,2.22,1.82,3.58-1.39,7.44-.81,11.11-1.58.46-.09,1.22-.3,1.19.17-.21,3.06,3.6,3.87,3.54,6.77-.05,2.42,1.21,2.13,2.79,1.56,4.32-1.56,6.88-.61,8.85,3.2,1.87,3.61,1.1,7.77-2,10-2.13,1.57-4.72,1.25-7.16,1.38-.9.05-1.88-1.45-2.77,0s-1.16,2.89-.11,4.09c2.54,2.89.21,3.4-1.74,3.76a3.75,3.75,0,0,0-2.56,1.43,3.33,3.33,0,0,1-4.63.77c-1-.68-1.9-1.12-2.93-.52-1.39.8-2.36.92-3-.91a1.7,1.7,0,0,0-1.33-1,9.53,9.53,0,0,0-3.33,1c-3.75,2.25-3.87,2.42-4.23,3.72C1450.45,628.52,1449.94,631.74,1447.58,634.49Z"/><path class="cls-3" d="M1269.88,762c-1.4-1.27-2.55-1.72-3.73-1.58-2,.22-3,.26-2.36-2.48.36-1.65-.7-4,1.62-4.45,2.78-.47,1,2.95,2.43,3.9,1.31-9,4.71-11.92,13.61-8.81,5,1.74,10.33,2.22,15,4.81a16,16,0,0,1,7.76,10.33c.49,1.84.45,3.82,1.43,5.56a1.69,1.69,0,0,1,.16,1.38c-2.69,4-2.89,9.35-6.76,12.72-4.55,3.95-15.74,4.94-21.45,2.84-3-1.12-5.4-3.76-8.88-3.78-1.3,0-1.13-1.42-.8-2.31a5.23,5.23,0,0,0-.87-5.43,3,3,0,0,1-.36-.62c-.87-2.1,1.8-3.76.31-6.36C1266,765.92,1267.35,763.27,1269.88,762Z"/><path class="cls-3" d="M1530,580c6.4,1.75,11.92,5.08,17.33,8.62,1.72,1.12,1.59,2.4-.49,2.94-1.58.4-2.72,1.46-1.48,2.68,2,2,2,4.3,2.52,6.69.27,1.35,1.23,2.55,1.94,3.93-1.77,1-5,1.34-2.33,4.62-2,.94-2.62,3.32-4.18,4.62-4.4,3.69-10.13,3.86-15.32,4.36-2.18.21-4.79-3.72-7.16-5.82-.71-.63-1.25-1.45-1.94-2.1-1.44-1.36-2.57-1.88-4.35,0-3.14,3.39-7.26,3.5-11.35.94-2.14-1.33-3.61-6-2.78-8.78a9.93,9.93,0,0,1,9-7,2.74,2.74,0,0,1,1.69.35c3.38,3,5.24,1,6.23-2.22,1.72-5.54,6.89-6.71,10.82-9.45,1.31-.92,2.28,1.08,3.63.73.75-.2,1.82.22,2.14-.82.25-.8-.54-1.25-1.05-1.73C1531.92,581.7,1531,580.83,1530,580Z"/><path class="cls-3" d="M993,929.09c.11-16.36-.61-32.79.6-49.06,1-13.26.29-26.34-.54-39.47-.45-7-3.12-13.67-2.82-20.83.19-4.71-.48-9.47-.27-14.18.1-2.24-.48-5.65,3.06-6,2.32-.23,3.75,3.2,3.1,7a44.65,44.65,0,0,0-.48,14.85c2.62,15.74,1.85,31.68,2.69,47.51a176.34,176.34,0,0,1-1.31,33c-1.1,8.17-.82,16.45-1.1,24.68,0,1.45-.1,2.9-.22,4.35-.09.94-.1,2.22-1.35,2.19s-1.18-1.31-1.32-2.26c-.08-.6-.1-1.21-.15-1.81Z"/><path class="cls-3" d="M1018,898.84c7.72-.62,13.67,4.56,14.53,12.66.8,7.46-4.14,13.53-11.75,14.47a6.14,6.14,0,0,1-4.42-.92,24.41,24.41,0,0,1-9.27-10.78C1004.33,907.53,1010.11,899.46,1018,898.84Z"/><path class="cls-3" d="M1186.29,651.06c4.89-.22,9.2,1.37,12.12,5.36,3.27,4.46,2.15,11.58-1.91,15.43-2,1.93-4.78,3.09-6,6-.3.76-1.43.93-1.55,0-.52-4-4-3-6.19-3.74-4.15-1.39-8.28-7.38-7.43-11.84C1176.48,656.45,1181.38,651.43,1186.29,651.06Z"/><path class="cls-3" d="M919.07,793.37c-.68-7.48,3.22-13.44,9.2-14,7.43-.76,13.75,4,14.28,10.87s-5.47,13.84-12.37,14.26C925.63,804.72,919.56,798.67,919.07,793.37Z"/><path class="cls-3" d="M1561.51,622c5.78-.81,8.85,2.45,10.48,5.61s1,7.39-1.41,10.6a15.56,15.56,0,0,1-3.84,3.67c-3.18,2.09-8.51.89-11.62-2.5s-4.67-7.18-2.39-11.8C1554.82,623.36,1559.05,623.12,1561.51,622Z"/><path class="cls-3" d="M471.69,668.9c-4.52-.2-8.5-1.26-11.92-3.92-2.91-2.27-5.43-5-8.88-6.58a3,3,0,0,1-1.31-4.33c.9-1.69,2.42-1.31,3.72-.56,2.05,1.18,4,.9,6.16.3,5.77-1.63,11-.18,15.76,3.34,2.26,1.68,4.38,3.74,3.45,7C477.64,667.67,474.5,668.37,471.69,668.9Z"/><path class="cls-3" d="M1246.63,645.68c.37,5.22-3.21,9.84-7.81,10.08-5.36.27-9.2-3.76-9.7-10.2-.27-3.41,4-9.3,7.05-9.64C1242.4,635.21,1246.12,638.69,1246.63,645.68Z"/><path class="cls-3" d="M811.25,460.64c-.06-1.4.21-2.45,1.37-2.91s1.77.4,2.32,1.19a48.4,48.4,0,0,1,4.68,9c2,4.64,4.24,9.22,6.07,13.85,2.13,5.4,4.75,10.78,5.75,16.65.22,1.3.67,2.91-.85,3.52S828.75,500.8,828,500c-5.27-5.36-7.72-12.14-8.93-19.38-1-6-5-10.69-6.65-16.37C812,463,811.58,461.69,811.25,460.64Z"/><path class="cls-3" d="M1515.5,497.82c-1.51-1.78-.64-1.93.08-2a8.8,8.8,0,0,1,2.46.19c10.48,2.41,21.09,4.3,31.34,7.7a47.67,47.67,0,0,0,8.91,2.39c.79.11,1.82.22,1.91,1.29.11,1.24-1,1.57-1.87,1.79a8.27,8.27,0,0,1-5.21-.6c-12-5.11-24.72-6.37-37.52-6.54a20.76,20.76,0,0,1-17.38-8.74c-.5-.66-1.46-1.29-.8-2.13.86-1.09,1.81-.17,2.39.48,3.35,3.79,8,5.11,12.37,6.85C1513.51,499.07,1514.79,499.13,1515.5,497.82Z"/><path class="cls-3" d="M606.4,815.77a2.63,2.63,0,0,1,1.69-2.53,111.57,111.57,0,0,1,33-13.59,3.38,3.38,0,0,1,.69-.14c1.22,0,2.89-.93,3.43.75.43,1.33-1.08,2-2.09,2.56a50.3,50.3,0,0,1-5,2.66c-7,3.1-14.08,6.19-21.77,7.42C613.07,813.43,609.9,814.74,606.4,815.77Z"/><path class="cls-3" d="M879.8,870.69c-.35,2.46-.55,4.89-1.07,7.23-2.59,11.56-5.27,23.1-7.92,34.65a13.12,13.12,0,0,1-.38,1.4c-.39,1.07-.45,2.92-1.92,2.55-1.68-.43-1-2.22-.72-3.44.78-3.79,1.64-7.56,2.54-11.32,2.32-9.64,3.41-19.55,6.21-29.08.23-.81.45-1.63.75-2.42s.53-1.53,1.33-1.51C879.87,868.8,879.3,870.06,879.8,870.69Z"/><path class="cls-3" d="M1076.4,329c0,1,.08,2.46-1.26,2.9-1.5.49-2-1-2.48-2a76.41,76.41,0,0,1-3.26-8c-1.6-5.07-3-10.18-5.72-14.81-.72-1.25-1.41-2.88.29-3.81,1.55-.84,2.63.44,3.52,1.62C1070.38,308.66,1076.1,324.11,1076.4,329Z"/><path class="cls-3" d="M801.93,1021a3.38,3.38,0,0,1,1.19-2.85c4.22-3.45,6.86-8.26,10.31-12.38a18.54,18.54,0,0,1,4.41-4.16c1-.6,2.08-1.7,3.21-.8,1.31,1,.46,2.5-.07,3.65a23.4,23.4,0,0,1-2.6,4.71c-3.68,4.8-8.3,8.57-13.1,12.11C804.05,1022.13,802.75,1022.6,801.93,1021Z"/><path class="cls-3" d="M657.32,913.74c1.83-.09,3,.87,2.39,3.29a13.09,13.09,0,0,1-6.42,8.25,36.64,36.64,0,0,1-7.16,3.91c-1.74.59-2.83,0-2.49-2.11C644.29,923.11,653.2,914.18,657.32,913.74Z"/><path class="cls-3" d="M324.21,610.61c4.4,1.2,9-.23,13.52-1.46a1.72,1.72,0,0,1,.71-.06c2.71.46,6.26,1,6.59,3.86s-3.37,2.95-5.48,3.22c-5.54.7-11-1.12-16.56-1.17a2,2,0,0,1-2.18-2.32C321.07,611.09,322.41,610.76,324.21,610.61Z"/><path class="cls-3" d="M710.63,829.22c-4.44,4.2-8.58,8.83-13.41,12.51-6.91,5.26-13.79,10.56-20.69,15.83-.94.72-2.18,2.32-3.29.9-.91-1.15.67-2.13,1.53-2.82,8.34-6.71,16.61-13.51,25.12-20C703.15,833.18,706,830,710.63,829.22Z"/><path class="cls-3" d="M1494.24,537.25c-2,.51-3.11-.86-4.38-1.6-5.7-3.36-10.55-8.17-17.43-9.51-2.07-.41-3.87-3-5.51-4.88-1.12-1.27-.05-2.17,1.21-2.65,2.47-.94,7.74.2,9.16,2.55,3.38,5.6,8.93,8.56,13.66,12.52C1492.11,534.65,1493.64,535.25,1494.24,537.25Z"/><path class="cls-3" d="M1099.59,834c-.14-2.08-.22-4.15,1.71-4.59,2.08-.49,2.67,1.59,3.11,3.21,1.69,6.26,2.27,12.82,5.16,18.75a2.35,2.35,0,0,1-1.44,3.25c-1.73.73-2.78-.41-3.27-1.84A147.35,147.35,0,0,1,1099.59,834Z"/><path class="cls-3" d="M781.66,916.65a18.93,18.93,0,0,1-3.44,10.67c-5.48,8.21-9.48,17.24-14,26-.68,1.3-1.24,3.77-2.87,3s-.11-2.8.54-4C768.21,940.25,773.61,927.74,781.66,916.65Z"/><path class="cls-3" d="M503.11,656.58a13.43,13.43,0,0,1,7.27,1c2,.92,3.48,2.23,2.74,4.75s-2.55,3.85-5.09,3.34c-3.95-.8-6.89-3.59-9.93-6-1.24-1-.28-2,.84-2.36A33.59,33.59,0,0,1,503.11,656.58Z"/><path class="cls-3" d="M897.13,473.33c0-1.8-.32-3.3,1.06-3.74s2,1.11,2.44,2.13c2,5.26,5.34,10,5.81,15.91.21,2.71,2.79,4.1,4.15,6.2.61.95,2,2.09.83,3.11s-2.23-.42-2.88-1.33C903.57,488.6,899.45,481.13,897.13,473.33Z"/><path class="cls-3" d="M1457.46,374.1a52.06,52.06,0,0,1,2.09-6.09c3.53-7.25,7.2-14.42,10.85-21.61a11.09,11.09,0,0,1,1.47-2,1.31,1.31,0,0,1,1.59-.46,1.34,1.34,0,0,1,.51,1.89c-1,1.8-2.13,3.48-3.08,5.28-3.33,6.28-6,12.89-8.82,19.4a39.18,39.18,0,0,1-2.4,4.41,1.1,1.1,0,0,1-1.49.57C1457.85,375.28,1457.75,374.68,1457.46,374.1Z"/><path class="cls-3" d="M1019.9,441.5c0,1.26.37,2.44-.72,2.88s-1.73-.59-2.3-1.32a18.53,18.53,0,0,1-3.34-6.74,118.33,118.33,0,0,0-3.48-12.51c-.33-.87-.71-2,.4-2.57s2.11.28,2.54,1.26C1015.79,428.76,1018.48,435.06,1019.9,441.5Z"/><path class="cls-3" d="M1077.94,507.05c1.62-6,3.13-11.14,6-15.67a148.91,148.91,0,0,0,9.36-16.63,8.4,8.4,0,0,1,1.18-1.79c.51-.63,1-1.69,1.92-1.24,1.18.58.59,1.71.18,2.52-1.43,2.78-2.89,5.55-4.45,8.25a194,194,0,0,0-10.29,19.84A8.57,8.57,0,0,1,1077.94,507.05Z"/><path class="cls-3" d="M706.5,855.25a5.75,5.75,0,0,1,.46-1.4c3.33-5.12,6.15-10.64,10.42-15.08.86-.9,2-2.37,3.26-1.4s.12,2.49-.46,3.59c-2.87,5.46-7.3,9.81-10.41,15.11a1.76,1.76,0,0,1-2.15.87A1.85,1.85,0,0,1,706.5,855.25Z"/><path class="cls-3" d="M387,655.64a5.88,5.88,0,0,1,.87-.06c1.44.22,3.64-.39,3.9,1.49.21,1.57-1.91,1.89-3.23,2.2a174.39,174.39,0,0,1-19.93,3.06c-1.11.12-2.64.4-2.81-1.28-.13-1.33,1.2-1.68,2.25-1.81A122.58,122.58,0,0,0,387,655.64Z"/><path class="cls-3" d="M1396.52,399.88c-5.71-9.66-6.54-21-10-31.36C1391.86,378.29,1396.86,388.19,1396.52,399.88Z"/><path class="cls-3" d="M1520.79,481.27c2.4-1.1,4.73-.62,7-.34q12.69,1.57,25.35,3.3c1.17.16,3.13.27,2.74,2s-2.12,1.12-3.34.69c-5.36-1.85-11-1.84-16.49-2.24A47.16,47.16,0,0,1,1520.79,481.27Z"/><path class="cls-3" d="M941.93,373.39c-.17-1.26-.16-2,.6-2.4a1.76,1.76,0,0,1,2.4.91q2.28,3.89,4.32,7.89c1.26,2.46,2.43,5,3.54,7.5.5,1.14,1.56,2.68.06,3.52s-2.25-.87-3-1.85c-2.72-3.41-4.3-7.47-6.06-11.42C943.08,376,942.41,374.48,941.93,373.39Z"/><path class="cls-3" d="M856.87,534.16c-5.44-1-10.12-3.68-14.92-6a1.39,1.39,0,0,1-.7-1.84,1.54,1.54,0,0,1,1.77-.89c5.23.63,10.23,2,14.6,5.15.85.62,1.71,1.47,1.25,2.74C858.5,534.3,857.56,534.15,856.87,534.16Z"/><path class="cls-3" d="M746.47,937a2.9,2.9,0,0,1,1.21-2.35c4.45-3.77,8.89-7.54,13.38-11.26a10.07,10.07,0,0,1,2.51-1.28c.66-.29,1.44-.48,1.94.21s0,1.45-.53,1.89c-5.22,4.51-10.45,9-15.74,13.45A1.65,1.65,0,0,1,746.47,937Z"/><path class="cls-3" d="M998.37,815.5c-.93-4.52,1.66-7.07,4.93-9,1.78-1.07,2.14.74,1.89,1.83a31.56,31.56,0,0,0-.68,10c.07.89-.24,2.4-1.39,2s-3.27.39-3.89-1.68C998.92,817.59,998.65,816.54,998.37,815.5Z"/><path class="cls-3" d="M894,899.7a5.72,5.72,0,0,1,.48-1.1,40.21,40.21,0,0,1,9.32-10.75c.85-.64,1.93-1.39,2.9-.65,1.21.93.16,2-.39,2.82a76.76,76.76,0,0,1-8.66,10.45,2.54,2.54,0,0,1-2.85.93C894.19,901.16,893.9,900.61,894,899.7Z"/><path class="cls-3" d="M1021.1,444.07a6.67,6.67,0,0,1,0-1.26c.3-1.44-.28-3.73,1.7-3.84s1.8,2.11,2,3.59a36.49,36.49,0,0,0,2.46,10.15,3.9,3.9,0,0,1,.32,2.8c-.23.82-.48,1.76-1.45,1.82-.77.05-1.2-.69-1.53-1.34C1022.7,452.18,1021.89,448,1021.1,444.07Z"/><path class="cls-3" d="M402.45,510.71c5.17,1.06,11.06,2.23,16.93,3.52,1.06.23,2.64.59,2.33,2.15-.28,1.4-1.72,1-2.7.78q-8.65-1.7-17.28-3.53c-1-.21-2.34-.5-2.25-1.87S400.74,510.58,402.45,510.71Z"/><path class="cls-3" d="M486.6,736.12a4.31,4.31,0,0,1,.71,0c1.55.18,3.88-1.23,4.48.53s-2.14,1.65-3.16,2.69a15,15,0,0,0-1.53,1.92c-1.11,1.57-3.1,2.46-4.28,1.48a8.27,8.27,0,0,0-5.51-2.09,1.08,1.08,0,0,1-1.13-1.13c.05-.7.61-1,1.15-1.24A27.74,27.74,0,0,1,486.6,736.12Z"/><path class="cls-3" d="M488.22,665.38a4.79,4.79,0,0,1,1,.07c2.24.53,4.85,1.22,4.58,4-.28,3-3.06,2.78-5.3,2.63-2.72-.18-4.7-2.1-6.85-3.5-1.3-.85-.75-1.9.65-2.2C484.12,666,486,665.77,488.22,665.38Z"/><path class="cls-3" d="M1495.07,546.45c3.16-1.13,5.91,0,8.59,1.15,4.69,2,9,4.78,14.07,5.94.64.15,1.5.35,1.48,1.27s-.75.9-1.32.79A75.75,75.75,0,0,1,1495.07,546.45Z"/><path class="cls-3" d="M584.11,859.3c5.76-2.5,10.56-6.61,16.2-9.3,1-.46,2.16-.7,2.89.44a1.48,1.48,0,0,1-.78,2.12c-5.46,2.79-10.63,6.23-16.55,8-.38.11-.86-.13-1.3-.21C584.42,860,584.27,859.65,584.11,859.3Z"/><path class="cls-3" d="M1440.3,370c.5-3.43,0-7.15,1.54-10.56.39-.89.88-1.84,2-1.71s1.53,1.14,1.51,2.14a28.55,28.55,0,0,1-1.82,11c-.39.91-1.07,1.7-2.2,1.37S1440.38,371,1440.3,370Z"/><path class="cls-3" d="M1024.43,485.51c-.06,2.76,0,5.53-.22,8.28-.09,1.28-.5,2.95-2.1,2.88-1.82-.08-1.54-1.87-1.5-3.11.12-3.6.34-7.2.59-10.79.07-1.16,0-2.88,1.34-2.94s1.21,1.74,1.46,2.81a19.38,19.38,0,0,1,.25,2.87Z"/><path class="cls-3" d="M1336.92,388.71c6.28,4.69,11.71,10.24,17.07,15.87.64.67,1.36,1.68.49,2.55s-1.59,0-2.16-.56C1346.91,400.87,1341.38,395.28,1336.92,388.71Z"/><path class="cls-3" d="M698.84,874a15.35,15.35,0,0,1-3.79,9,1.74,1.74,0,0,1-2.19.63,1.76,1.76,0,0,1-.86-1.83c.24-3.43,1.13-6.61,3.55-9.15a2.16,2.16,0,0,1,2.2-.81C698.78,872.09,698.65,873.06,698.84,874Z"/><path class="cls-3" d="M586.55,851a1.51,1.51,0,0,1,.88-1.45,113.31,113.31,0,0,1,13.92-6.24c.56-.21,1.28-.36,1.64.18.55.8-.17,1.35-.71,1.76a40.11,40.11,0,0,1-13.64,6.66A1.66,1.66,0,0,1,586.55,851Z"/><path class="cls-3" d="M1249.08,705.08c1.71-.12,3.62,2.18,3.09,4a16.78,16.78,0,0,1-4.79,7.07c-.62.6-2.05.76-1.79-.39.7-3.16,0-6.61,1.78-9.52A2.14,2.14,0,0,1,1249.08,705.08Z"/><path class="cls-3" d="M1473,417.45c4.23-8.07,8.36-16.19,14.23-23.19C1483.3,402.51,1479.36,410.76,1473,417.45Z"/><path class="cls-3" d="M1371.58,378.63c.46-6.63,1.26-12.86,3.69-18.7.31-.75.57-1.84,1.6-1.65s1,1.36.77,2.1c-1.44,5.86-2.66,11.8-5.1,17.35C1372.38,378.1,1371.91,378.33,1371.58,378.63Z"/></g><g class="cls-4"><polygon class="cls-5" points="862.17 0 1338.17 320 799.17 1080 1920.17 1080 1920.17 0 862.17 0"/></g><path d="M769.17,556.11h-4.68L747.3,508.17v61.27h-7.83V487.58h8.07l19.18,54.15,19.41-54.15h8.42v81.86h-8.19V508.17Z"/><path d="M836.28,549.21H816.4l-4.09,20.23h-8.18l17.3-81.86h10.06L849,569.44h-8.65Zm-1.4-7.37-8.53-42.56-8.54,42.56Z"/><path d="M891.59,569.44l-12.51-34.5H867v34.5h-8.42V487.58h19.77c12.39,0,19.17,5.62,19.17,17.31v12.75c0,8.53-3.62,13.8-10.4,16l13.21,35.78Zm-24.56-42h10.88c7.83,0,11.22-3.27,11.22-11.81V507c0-8.54-3.39-11.82-11.22-11.82H867Z"/><path d="M911.82,569.44V487.58h8.41v81.86Z"/><path d="M962.33,549.21H942.45l-4.09,20.23h-8.19l17.31-81.86h10l17.54,81.86h-8.65Zm-1.4-7.37-8.54-42.56-8.54,42.56Z"/><path d="M1040.32,553.07c0,11.93-6.78,17.31-19.18,17.31h-.23c-12.4,0-19.18-5.26-19.18-17.31V504c0-11.46,6.78-17.31,19.18-17.31h.23c12.4,0,19.18,5.85,19.18,17.31v14.26h-8.42V506.06c0-8.42-3.16-11.81-10.88-11.81s-10.87,3.39-10.87,11.81V551c0,8.42,3.16,11.82,10.87,11.82s10.88-3.4,10.88-11.82V536.81h8.42Z"/><path d="M1086.85,569.44l-12.51-34.5h-12v34.5h-8.41V487.58h19.76c12.39,0,19.18,5.62,19.18,17.31v12.75c0,8.53-3.63,13.8-10.41,16l13.21,35.78Zm-24.56-42h10.88c7.84,0,11.23-3.27,11.23-11.81V507c0-8.54-3.39-11.82-11.23-11.82h-10.88Z"/><path d="M1124.62,486.65h.93c12.4,0,19.18,5.61,19.18,17.31v49.11c0,11.69-6.78,17.31-19.18,17.31h-.93c-12.4,0-19.18-5.62-19.18-17.31V504C1105.44,492.15,1112.22,486.65,1124.62,486.65Zm.47,76.13c7.83,0,11.22-3.28,11.22-11.82v-44.9c0-8.54-3.39-11.81-11.22-11.81s-11.23,3.27-11.23,11.81V551C1113.86,559.5,1117.25,562.78,1125.09,562.78Z"/><path d="M1158.76,569.44V487.58h8.54l24,62.1v-62.1h7.83v81.86H1191l-24.44-63.26v63.26Z"/><path d="M1213.6,569.44V487.58h33.09v7.6H1222v29h21v7.48h-21v30.17h25v7.6Z"/><path d="M1285.86,487.58V524h23V487.58h8.42v81.86h-8.42V531.67h-23v37.77h-8.43V487.58Z"/><path d="M1353,569.44h-9.12l-16.95-81.86h8.65l13.09,67.59,13.1-67.59h8.19Z"/><path d="M1380,569.44V487.58h8.42v81.86Z"/><path d="M1442,504.89v47.24c0,11.7-6.78,17.31-19.18,17.31h-19.53V487.58h19.53C1435.17,487.58,1442,493.2,1442,504.89Zm-19.65-9.71h-10.64v66.66h10.64c7.84,0,11.23-3.27,11.23-11.81V507C1433.53,498.46,1430.14,495.18,1422.3,495.18Z"/><path d="M1485.1,526.88c7.6,1.17,9.58,7.36,9.58,13V553.3c0,9.59-6.55,16.14-18.94,16.14H1456V487.58h20c12.4,0,18.25,6.55,18.25,16.14V514C1494.22,519.51,1492.23,526.17,1485.1,526.88Zm-20.7-3.51h11.34c6.55,0,10.06-2.58,10.06-8.31v-9.47c0-7-2.81-10.52-10.06-10.52H1464.4Zm11.81,7.48H1464.4V562h11.81c7.25,0,10-3.51,10-10.53V539.15C1486.26,533.42,1482.76,530.85,1476.21,530.85Z"/><path d="M1507.54,569.44V487.58h33.1v7.6H1516v29h21v7.48h-21v30.17h25v7.6Z"/><path d="M1585.65,569.44l-12.51-34.5h-12.05v34.5h-8.42V487.58h19.77c12.39,0,19.18,5.62,19.18,17.31v12.75c0,8.53-3.63,13.8-10.41,16l13.21,35.78Zm-24.56-42H1572c7.83,0,11.23-3.27,11.23-11.81V507c0-8.54-3.4-11.82-11.23-11.82h-10.88Z"/><path d="M1643.53,553.07c0,11.93-6.78,17.31-19.18,17.31h-.93c-12.4,0-19.18-5.26-19.18-17.31V504c0-11.46,6.78-17.31,19.18-17.31h.93c12.4,0,19.18,5.85,19.18,17.31v11h-8.42v-8.89c0-8.54-3.39-11.81-11.23-11.81s-11.22,3.27-11.22,11.81V551c0,8.54,3.39,11.82,11.22,11.82s11.23-3.28,11.23-11.82V535.88h-11.69V528.4h20.11Z"/><path d="M1125.3,639.4H1123L1110.64,606v42.32h-3.83V595.65h4L1124,632.11l13.38-36.46h4.21v52.62h-4.06V606Z"/><path d="M1175.43,637.75c0,7.51-3.91,11.12-11.87,11.12h-.3c-8,0-11.88-3.53-11.88-11.12v-42.1h4.06v40.74c0,6.24,2,8.72,8,8.72s8-2.48,8-8.72V595.65h4.06Z"/><path d="M1205,648.27h-19.76V595.65h4v48.86H1205Z"/><path d="M1227.22,599.41h-9.92v48.86h-4.06V599.41h-9.92v-3.76h23.9Z"/><path d="M1233.84,648.27V595.65h4.06v52.62Z"/><path d="M1266.69,639.4h-2.34L1252,606v42.32h-3.84V595.65h4l13.23,36.46,13.38-36.46H1283v52.62h-4.06V606Z"/><path d="M1292.92,648.27V595.65h20.67v3.76H1297v20.3h14.28v3.75H1297v21h16.83v3.76Z"/><path d="M1346.06,606.78v30.36c0,7.37-4.06,11.13-12,11.13h-12.25V595.65H1334C1342,595.65,1346.06,599.41,1346.06,606.78Zm-12.33-7.37h-7.89v45.1h7.89c5.94,0,8.27-2.48,8.27-8.72V608.13C1342,601.89,1339.67,599.41,1333.73,599.41Z"/><path d="M1356,648.27V595.65H1360v52.62Z"/><path d="M1370.34,648.27V595.65H1391v3.76H1374.4v20.3h14.28v3.75H1374.4v21h16.83v3.76Z"/><path d="M1423.48,606.78v30.36c0,7.37-4.06,11.13-12,11.13H1399.2V595.65h12.25C1419.42,595.65,1423.48,599.41,1423.48,606.78Zm-12.33-7.37h-7.89v45.1h7.89c5.94,0,8.27-2.48,8.27-8.72V608.13C1419.42,601.89,1417.09,599.41,1411.15,599.41Z"/><path d="M1433.1,648.27V595.65h20.67v3.76h-16.61v20.3h14.28v3.75h-14.28v21H1454v3.76Z"/><path d="M1480,613.84v-6.76c0-5.79-2.1-8.34-7.74-8.34s-7.74,2.55-7.74,8.34v3.68c0,3.91,1.35,5,5.34,7.07l8,4.43c3.68,2,6.31,4.89,6.31,8.87v6.77c0,7.51-3.83,11-11.8,11h-.15c-8,0-11.8-3.38-11.8-11v-8.57h4.06v7.36c0,5.72,2.1,8.5,7.82,8.5s7.81-2.78,7.81-8.5v-4.21c0-3.9-1.58-5.26-5.56-7.51l-7.89-4.29c-4.36-2.48-6.24-4.51-6.24-8.72v-6.08c0-7.22,4.51-10.83,11.72-10.83h.16c7.21,0,11.72,3.61,11.72,10.83v8Z"/><path d="M1493.23,648.27V595.65h4.06v52.62Z"/><path d="M1531.94,637.75c0,7.51-4.06,11.12-12,11.12h-.61c-8,0-12-3.53-12-11.12V606.18c0-7.22,4.06-11.13,12-11.13h.61c8,0,12,3.91,12,11.13v6.91h-4.06v-5.56c0-6.24-2.33-8.72-8.27-8.72s-8.26,2.48-8.26,8.72v28.86c0,6.24,2.33,8.72,8.26,8.72s8.27-2.48,8.27-8.72V625.87h-8.57v-3.68h12.63Z"/><path d="M1541.41,648.27V595.65h4.21l17.22,43v-43h3.9v52.62h-4L1545.32,605v43.3Z"/><path d="M1576.67,648.27V595.65h20.67v3.76h-16.61v20.3H1595v3.75h-14.28v21h16.83v3.76Z"/><path d="M1627.4,648.27l-8.64-22.7h-9.17v22.7h-4.06V595.65h12.4c8,0,12,3.76,12,11.13v7.66c0,5.72-2.41,9.25-7.22,10.53l9,23.3Zm-1.5-35.1v-5c0-6.24-2.33-8.72-8.27-8.72h-8v22.48h8C1623.57,621.89,1625.9,619.33,1625.9,613.17Z"/><rect x="736.38" y="582.51" width="919.29" height="1.67"/></svg>
