<svg id="Lag_1" data-name="Lag 1" xmlns="http://www.w3.org/2000/svg" width="327.04" height="327.94" viewBox="0 0 327.04 327.94"><defs><style>.cls-1{fill:#2b7379;}.cls-2{fill:#f4f4f4;}.cls-3{fill:#112f3b;}</style></defs><title>indhold</title><rect class="cls-1" x="58.7" y="13" width="252.34" height="285.15"/><rect class="cls-2" x="74.47" y="26.25" width="221.43" height="197.46"/><path class="cls-3" d="M31,172.92,0,221.75,164.38,325.94l31-48.83Zm152.26,98.62,9.14,5.79-3.43,5.41L179.79,277Zm-11.67-7.39,9.14,5.78-3.43,5.41-9.13-5.79Zm-11.66-7.4,9.13,5.79L165.58,268l-9.13-5.79Zm-11.67-7.4,9.13,5.79-3.43,5.41-9.13-5.79Zm-11.93-7.55,9.14,5.78L142,253l-9.13-5.79Zm-11.67-7.4,9.14,5.79-3.43,5.41-9.13-5.79Zm-23.33-14.79,9.13,5.79L107,230.8,97.85,225Zm-11.93-7.56,9.14,5.79-3.43,5.41-9.13-5.79Zm-11.66-7.4,9.13,5.79-3.43,5.41-9.13-5.79Zm-11.42-7.23,9.13,5.79L72,208.62l-9.13-5.79ZM54.6,190l9.13,5.79-3.42,5.41-9.14-5.79Zm-11.41-7.23,9.13,5.79L48.89,194l-9.13-5.78Zm-11.67-7.4,9.13,5.79-3.43,5.41-9.13-5.79ZM11.38,227.91l-9.13-5.79,3.43-5.4,9.13,5.78ZM12.21,212l14.67-23.15c1.42-2.23,5.63-2.11,9.41.29l22.09,14c3.78,2.39,5.69,6.15,4.27,8.38L48,234.69c-1.42,2.24-5.63,2.11-9.41-.29l-22.08-14C12.71,218,10.79,214.26,12.21,212Zm10.84,23.29-9.13-5.79,3.43-5.41,9.13,5.79Zm11.42,7.23-9.13-5.79,3.42-5.4,9.14,5.78Zm11.67,7.4L37,244.15l3.42-5.41,9.14,5.79Zm6.15-12.52L67,214.28c1.42-2.24,5.63-2.11,9.41.28l22.09,14c3.78,2.4,5.69,6.15,4.27,8.39L88.06,260.09c-1.42,2.24-5.63,2.11-9.41-.28l-22.08-14C52.79,243.42,50.88,239.66,52.29,237.42Zm5.26,19.75-9.13-5.78L51.85,246,61,251.77Zm11.67,7.4-9.13-5.79,3.43-5.41,9.13,5.79Zm11.92,7.56L72,266.34l3.43-5.41,9.13,5.79ZM113,227l9.13,5.79-3.43,5.41-9.13-5.79ZM92.81,279.52l-9.13-5.78,3.43-5.41,9.13,5.79Zm11.67,7.4-9.13-5.79,3.43-5.41,9.13,5.79Zm11.67,7.4L107,288.53l3.43-5.41,9.13,5.79Zm2.33-9.27-22.09-14c-3.77-2.39-5.69-6.15-4.27-8.38l14.67-23.15c1.42-2.24,5.63-2.11,9.41.29l22.08,14c3.78,2.4,5.7,6.15,4.28,8.39l-14.67,23.15C126.47,287.57,122.26,287.45,118.48,285.05Zm9.59,16.82-9.13-5.78,3.43-5.41,9.13,5.79Zm11.67,7.4-9.13-5.79,3.43-5.41,9.13,5.79Zm11.67,7.4-9.13-5.79,3.43-5.41,9.13,5.79ZM135.71,296c-3.78-2.4-5.69-6.16-4.27-8.39l14.67-23.15c1.42-2.23,5.63-2.11,9.41.29l22.08,14c3.78,2.39,5.7,6.15,4.28,8.38l-14.67,23.15c-1.42,2.24-5.63,2.11-9.41-.29Zm27.37,28.08L154,318.27l3.43-5.4,9.13,5.78Z"/><path class="cls-2" d="M48,234.69l14.67-23.15c1.42-2.23-.49-6-4.27-8.38l-22.09-14c-3.78-2.4-8-2.52-9.41-.29L12.21,212c-1.42,2.24.5,6,4.28,8.39l22.08,14C42.35,236.8,46.56,236.93,48,234.69Z"/><path class="cls-2" d="M78.65,259.81c3.78,2.39,8,2.52,9.41.28L102.73,237c1.42-2.24-.49-6-4.27-8.39l-22.09-14c-3.78-2.39-8-2.52-9.41-.28L52.29,237.42c-1.41,2.24.5,6,4.28,8.39Z"/><path class="cls-2" d="M142.56,262.19c1.42-2.24-.5-6-4.28-8.39l-22.08-14c-3.78-2.4-8-2.53-9.41-.29L92.12,262.67c-1.42,2.23.5,6,4.27,8.38l22.09,14c3.78,2.4,8,2.52,9.41.29Z"/><path class="cls-2" d="M167.21,310.26l14.67-23.15c1.42-2.23-.5-6-4.28-8.38l-22.08-14c-3.78-2.4-8-2.52-9.41-.29l-14.67,23.15c-1.42,2.23.49,6,4.27,8.39l22.09,14C161.58,312.37,165.79,312.5,167.21,310.26Z"/><polygon class="cls-3" points="151.17 174.52 150.89 125.13 150.6 75.73 196.29 100.17 241.98 124.6 196.57 149.56 151.17 174.52"/></svg>
