<svg id="Layer_1" data-name="Layer 1" xmlns="http://www.w3.org/2000/svg" width="120.91mm" height="153.92mm" viewBox="0 0 342.73 436.31"><defs><style>.cls-1{stroke:#000;stroke-miterlimit:10;stroke-width:3px;}</style></defs><title>logo</title><path d="M72,280.57H69.79L58.31,249.42v39.41H54.74v-49h3.71l12.32,34,12.47-34h3.92v49H83.38V249.42Z"/><path d="M118.65,279c0,7-3.78,10.36-11.2,10.36h-.14c-7.42,0-11.2-3.29-11.2-10.36v-29.4c0-6.73,3.78-10.37,11.2-10.37h.14c7.42,0,11.2,3.64,11.2,10.37V258h-3.78v-7.14c0-5.75-2-8.13-7.49-8.13s-7.49,2.38-7.49,8.13v26.88c0,5.74,2,8.12,7.49,8.12s7.49-2.38,7.49-8.12v-8.33h3.78Z"/><path d="M131.11,239.82v22.34h15.75V239.82h3.78v49h-3.78V265.66H131.11v23.17h-3.78v-49Z"/><path d="M72,340.77H69.79L58.31,309.62V349H54.74V300h3.71l12.32,34,12.47-34h3.92v49H83.38V309.62Z"/><path d="M113.61,340.77h-2.17L100,309.62V349H96.39V300h3.71l12.32,34,12.46-34h3.93v49H125V309.62Z"/><path d="M160.65,310.39v28.28c0,6.86-3.78,10.37-11.2,10.37H138V300h11.41C156.87,300,160.65,303.53,160.65,310.39Zm-11.48-6.86h-7.35v42h7.35c5.53,0,7.7-2.31,7.7-8.12V311.65C156.87,305.84,154.7,303.53,149.17,303.53Z"/><path d="M169.61,349V300h19.25v3.5H173.39v18.9h13.3v3.5h-13.3v19.6h15.68V349Z"/><polygon class="cls-1" points="253.14 349.54 210.54 349.54 210.54 348.54 252.14 348.54 252.14 147.82 55.24 147.82 55.24 219.83 54.24 219.83 54.24 146.82 253.14 146.82 253.14 349.54"/></svg>
