<svg id="Lag_1" data-name="Lag 1" xmlns="http://www.w3.org/2000/svg" width="627" height="375" viewBox="0 0 627 375"><defs><style>.cls-1{fill:#fff;}.cls-2{opacity:0.29;}.cls-3{fill:#6bbab5;}.cls-4{opacity:0.67;}.cls-5{fill:#a8aaaf;}</style></defs><title>mobile_landscape</title><rect class="cls-1" x="0.5" width="627" height="375"/><g class="cls-2"><path class="cls-3" d="M50.74,331a5.73,5.73,0,0,1,1.56-.79c10.56-3.48,21-7.35,31.34-11.38,5.64-2.19,11.3-4.34,17-6.22a5.13,5.13,0,0,0,3.13-2.2c.39-.67,1.15-.84,1.79-1.14,7.92-3.73,15.87-7.41,23.76-11.2,3.64-1.75,7.27-3.49,11-4.94,4-1.54,7.49-4.13,11.4-5.82,8.57-3.7,16.76-8.26,25.5-11.57.6-.23,1.48-1,1.88-.18s-.79.9-1.24,1.36a6.62,6.62,0,0,1-3.28,1.68,4.79,4.79,0,0,0-2.16,1.39A13.43,13.43,0,0,1,169,282c-7.9,4-16,7.49-24.11,11.07-9.44,4.17-18.75,8.64-28.12,13a6.69,6.69,0,0,0-.58.51,114.1,114.1,0,0,0,15.13-6.15c2.63-1.36,5.18-2.89,7.91-4.06a12.59,12.59,0,0,1,5.35-1.14,7.24,7.24,0,0,0,3.35-.82c4-1.83,7.85-4,11.69-6.13,6-3.39,12.62-5.38,19.19-7.32a19.34,19.34,0,0,0,3.49-1.42c3.76-1.95,8.12-2.5,11.68-4.79,7.33-4.72,15.53-7.18,23.58-10a11.32,11.32,0,0,0,5-3c.52-.6,1.15-1.2,1.69.08.27.63.87.44,1.3.27a32.76,32.76,0,0,1,6.05-1.77,1.23,1.23,0,0,0,1-1.13c.32-1.58-.61-2.45-1.65-3.33s-1.74-.24-2.55.26c-.34.2-.66.57-1.09.29s-.34-.84-.2-1.26a1.91,1.91,0,0,0-.56-2,16.63,16.63,0,0,0-5.66-3.88c-.64-.32-1.34-.53-2-.9s-1.32-.84-1.26-1.78a2.19,2.19,0,0,0-1.52-2.3,2.47,2.47,0,0,0-3,1.4,5.23,5.23,0,0,1-2.83,3.73c-.46.21-.39.78-.58,1.19a.86.86,0,0,1-1,.56c-.49-.08-.45-.42-.38-.83.13-.83-.52-.53-.79-.43-1.33.48-3,.21-3.87,1.79-.07.13-.3.17-.47.23-5.79,2-11.46,4.42-17.51,5.55-.41.08-.85.35-1.3-.11a2.83,2.83,0,0,1,1.42-.93c2.23-1.06,4.5-2,6.71-3.14,1.27-.64,2.54-1.32,3-2.94.23-.83,2.12-1.24,2.84-.77.46.3.17.53,0,.77-.36.43-1,.59-1.12,1.48,1-.14,1.33-.95,1.82-1.58a27.62,27.62,0,0,1,1.92-2c-1.13.5-1.74.38-1.73-.75a.48.48,0,0,0-.53-.51c-1.29.19-2.16-.81-3.24-1.18-.69-.24-.82-.68-.26-1.22.34-.32.69-.67.43-1.18a1.16,1.16,0,0,0-1.19-.48c-2.23.07-4.49-.08-6.65.7a2.93,2.93,0,0,1-1.32.19,8.33,8.33,0,0,0-4.78,1.08,5.58,5.58,0,0,1-3,.61c-1-.05-1.19-.29-.66-1.21,1.22-2.17,3.24-2.65,5.44-2.86,2.35-.23,3.78-1.2,3.9-3.13a3,3,0,0,0-1.63-3.16c-1.9-1-4.06-1.15-5.94-2.15-.47-.25-1.06,0-1.57.18a20,20,0,0,1-5.7.86c-.6,0-1.25,0-1.31-.83s.55-.85,1.09-1c2.94-.6,5.88-1.17,8.81-1.79.79-.17,2-.17,1.91-1.28s-1.34-.79-2.13-.78c-1.42,0-2.78.68-4.25.26s-2.27-1.12-2.24-2.45,1.09-1.73,2.17-2c.22-.05.45-.05.66-.12.63-.21.74-.53.09-.88s-.82-.88-.68-1.69a2.23,2.23,0,0,0-2.9-2.49c-2,.74-3.18-.25-3-2.41.06-.6.49-.58.89-.58a7,7,0,0,0,1.2.09c.59-.09.8-.47.31-.94a2.94,2.94,0,0,0-2.3-.95c-.81.07-1.62.07-2.41.2a22.75,22.75,0,0,1-8.93-.19,9.58,9.58,0,0,0-2-.09c-1.33,0-2.59-1.13-2.53-2.17a2.5,2.5,0,0,1,2.72-2.26,3.75,3.75,0,0,0,3-.83,16.87,16.87,0,0,1,4.05-1.8c1.29-.54,1.36-1.07.37-2.1a3.65,3.65,0,0,0-3.09-1.05c-3.7.3-7.42.37-11.1,1a8,8,0,0,1-1.47.12,1.82,1.82,0,0,1-1.84-1.52c-.22-1,.56-1.44,1.3-1.63,1.3-.32,2.68-.35,3.94-.75a16.06,16.06,0,0,0,5.29-2.24c.38-.3.89-.58.73-1.19s-.68-.69-1.16-.81-.71-.09-1.06-.17-1.05-.17-1-.87.61-.59,1-.59a15.68,15.68,0,0,1,6.54,1.38,8.25,8.25,0,0,0,2.87.61,2.76,2.76,0,0,0,2.55-2.68,5.64,5.64,0,0,0-2.07-4.45c-.52-.44-1.09-.81-1.62-1.23-.82-.64-1.2-1.41-.44-2.34s.28-1.14-.55-1.34a4.55,4.55,0,0,1-1.51-.55c-2.65-1.77-5.64-2.45-8.64-3.23S148.1,179,145,178.27c-.76-.18-1.51-.72-1.22-1.67s1.2-.72,2-.56a23.35,23.35,0,0,1,5.29,2.32,30.47,30.47,0,0,0,10.32,2.82,17.49,17.49,0,0,1,9.66,4.46,5,5,0,0,0,5.32,1.17,1.22,1.22,0,0,1,.52-.11c2.89.4,4.68-1.64,6.58-3.24a6.49,6.49,0,0,1,7.79-.74,12.12,12.12,0,0,1,6.06,6.66c.68,1.83,1,1.79,2.51.74.68-.45,1.4-.83,2.05-1.31a2.79,2.79,0,0,0,1-3.39,8.71,8.71,0,0,1,.28-7,15.85,15.85,0,0,0,1.29-5.31,6.91,6.91,0,0,1,.56-2.39c.55-1.12.09-1.63-1-1.84-.22,0-.44-.09-.65-.15s-.8-.16-.67-.65.52-.31.81-.24a24.85,24.85,0,0,1,2.72.76,3.77,3.77,0,0,0,3.25-.17,26.65,26.65,0,0,1,5.91-2.15,2.68,2.68,0,0,0,2-1.46,2.09,2.09,0,0,1,1.93-1.06,52.52,52.52,0,0,1,10.7.57,1.43,1.43,0,0,1,1.26,1.54,5.6,5.6,0,0,1-1.12,4c-.45.54-.87,1.11-1.49,1.9a7,7,0,0,1,3.48.88c.74.26,1.17,0,1.86-.4,1.11-.63,2-1.6,3.13-2.14,1.36-.65,1.45-1,.38-2.05a56.32,56.32,0,0,0-9.59-7.32c-1.51-.92-3.14-.67-4.72-.67-2.21,0-4.33-.62-6.52-.79a1.29,1.29,0,0,1-1.28-1.6,1.63,1.63,0,0,1,1.84-1.43,19.23,19.23,0,0,1,5.72,1.48,7,7,0,0,0,3,.67,10.23,10.23,0,0,1,6.63,2.63c1.41,1.11,2.77,2.28,4.67,2.58s3.41-.51,4.91-1.42c.53-.32.75-.9.17-1.35-1.2-.93-2.15-2.15-3.75-2.59-1.19-.34-1.63,0-1.91,1.07-.18.69.08,1.75-1,1.86s-1.52-.66-2-1.4-1.15-1.76-1.67-2.67a1.58,1.58,0,0,1,.23-2.13c.68-.57,1.43-1.2,2.42-.63a12.27,12.27,0,0,0,3,1.19c2.39.61,4.24,2.14,6.14,3.6a5.21,5.21,0,0,0,2,1.15c.59.14,1.28.55,1.72-.14s-.11-1.27-.62-1.75c-.67-.62-1.36-1.2-2-1.87s-1.2-1.23-.47-2,1.33-.17,1.95.24a8.11,8.11,0,0,1,1.86,2c.47.62.93,1.24,1.44,1.82a4.73,4.73,0,0,0,5.33,1.26c.85-.35.95-1.93.12-3-.56-.72-1.22-1.35-1.84-2a7.23,7.23,0,0,1-1.42-2.16c-.21-.51-.51-1.13,0-1.53s1.06.15,1.51.5a1.82,1.82,0,0,1,.46.5c1.93,3.33,4.51,6.18,6.66,9.34a29.52,29.52,0,0,1,2.53,4.7,8.86,8.86,0,0,0,1.53,2.42c.29.3.63.62,1.05.32s.25-.76.09-1.13a3.38,3.38,0,0,0-1.32-1.71c-1.48-.83-2-2.24-2.46-3.77a8.22,8.22,0,0,1,.1-5.66c.11-.27.19-.54.51-.51A1.44,1.44,0,0,1,264,157a4,4,0,0,1,.1,2.7,2.86,2.86,0,0,0,.48,2.71c1.44,2.17,3.26,4,4.89,6a6.8,6.8,0,0,1,.87,1.22c.3.61.35,1.26-.57,1.24s-.62.37-.49.86a2.07,2.07,0,0,0,1,1.26,25.32,25.32,0,0,0,4.7,1.93c-1-2-2.75-3-3.65-4.78.76-.18.94.34,1.21.65.79.88,1.58,1.77,2.3,2.7a2.1,2.1,0,0,0,2.49.88c1-.34,1.06.14,1,.93a12.45,12.45,0,0,0-.12,1.37,1.75,1.75,0,0,0,1.37,1.93c1.14.28,1.5-.14,1.14-1.5,1.38.55,2.76.75,3.44,2.34.28.65,1.1,1,1.63,1.6.86.91,1.18-.28,1.77-.42.8-.2.56,1.52,1.59,1,2.07-1.06,4.22-2.08,3.3-5.21-.71.37-1.34-.14-2.1-.43-2.42-.92-4.6-2.55-7.29-2.68a3,3,0,0,1-1.14-.38.8.8,0,0,1-.46-.91c.1-.45.43-.55.82-.52a6,6,0,0,1,.94.09,49.24,49.24,0,0,0,6,1.3,5.67,5.67,0,0,1,3,1.76c.26.23.55.57.94.28s.63-.81.42-1.07a1.16,1.16,0,0,1,.21-1.73c.65-.54,1.22.16,1.78.5.07,0,.17,0,.34,0,.14-.71-.13-1.52.5-2.16.33-.32-.07-.78-.28-1.11-.55-.84-1.14-1.65-1.7-2.48-.16-.23-.33-.5-.09-.74s.53-.07.7.12a9.5,9.5,0,0,0,4.09,2.51c1.15.41,1.15,1.08.19,1.92-.2.17-.33.34-.26.58.22.67.36,1.23-.68.9-.07,0-.24.12-.28.22-.09.25.09.61.21.58,1.13-.3.16,1.91,1.5,1.28a2.48,2.48,0,0,0,1.66-2c.22-2.1.68-4.16.71-6.28a16.34,16.34,0,0,0-1.52-7.47c-.28-.58-1.15-1.25-.12-2.18.33-.3-.38-1.58-1-2.08a11,11,0,0,1-3.58-5,65.8,65.8,0,0,0-6.79-13.58c-1.5-2.39-2.91-4.85-4.35-7.29-.22-.37-.66-.92-.22-1.22s.85.32,1.1.71c1.5,2.28,3.26,4.39,4.26,7a25.34,25.34,0,0,0,3.23,5.07c2.05,3,3.4,6.36,5,9.57a6.14,6.14,0,0,0,4.22,3.51c1.61.36,2.83,1.53,4.08,2.59.43.36.82.91,1.52.49s.65-1,.56-1.69a15.44,15.44,0,0,0-2.09-5.64c-1.49-2.57-2.58-5.35-4-7.94-.22-.4-.72-1-.14-1.33s.95.34,1.19.8c2.06,4.08,4.09,8.18,6.13,12.27.4.82.8,1.64,1.23,2.45.28.53.61,1.12,1.33.87s1.54-.72,1.41-1.61c-.29-2-.06-4.26-2.05-5.69-.61-.44-.81-1.15.15-1.41,1.38-.37,1.15-1.31.88-2.26-.56-2-1.17-4-1.76-5.93a7.75,7.75,0,0,1-.24-.78c-.07-.36-.16-.8.27-1s.66.26.77.58a25.86,25.86,0,0,1,1.12,3.39A96,96,0,0,0,316,151.42c.48,1.43,1.88,1.66,3,2,1,.24,1.24-.86,1.59-1.57.6-1.22,1.27-2.32,2.69-2.68a2.3,2.3,0,0,0,1.39-1.58c1.06-2.66,1.82-5.35,1.06-8.29a5.25,5.25,0,0,1,.38-4.11c.77-1.34.66-2.94.69-4.44a34.06,34.06,0,0,1,.69-6.14,39.32,39.32,0,0,0,.82-6.4A3.87,3.87,0,0,1,329,116a1,1,0,0,1,1-.53,1,1,0,0,1,.72.9,4.11,4.11,0,0,1,0,1.78,28.54,28.54,0,0,0-1.07,10.16.38.38,0,0,1,0,.26c-1.78,2.25-1,4.94-1.06,7.42a19.86,19.86,0,0,0,2.3,10.08,12,12,0,0,1,1.45,7,18.55,18.55,0,0,0,.11,2.88c0,.35-.08.84.35,1s.86-.25,1.05-.67a5.4,5.4,0,0,0,.35-1.31c.34-2.22.67-4.44,1-6.66.09-.59.13-1.32.92-1.24s.65.83.62,1.33a55.27,55.27,0,0,0,0,7.28c.1,1.24-1.09,1.91-1.13,3-1.78-.61-1.43,1.31-2.18,1.94-.23.19-.83.18-.54.74a1,1,0,0,0,1,.6,1.83,1.83,0,0,1,1.85.86,1.75,1.75,0,0,0,2.48.57c.36-.18.75-.3,1.13-.45,2-.76,2-.76,3.27.85.41-.06.35-.6.7-.74a1.12,1.12,0,0,1,1.48.59c.36.67-.13,1-.67,1.22a4.36,4.36,0,0,1-2.49-.29c-.48-.1-1-.39-1.38.09s0,.95.33,1.33a1.31,1.31,0,0,1,.37,1c0,.35.14.73.49.71,1.95-.11,3.52,1.27,5.43,1.4a8.71,8.71,0,0,0,4.83-.73,9.86,9.86,0,0,1,2.35-1,1.89,1.89,0,0,0,1.63-2.48,5.66,5.66,0,0,0-1.48-3.45c-.33-.32-.51-3.35-.14-3.67.63-.54.44-1.11.27-1.75a41.09,41.09,0,0,0-2.05-5.23,2.65,2.65,0,0,1-.35-2.09c.73.15.82.77,1,1.24,1.58,4,3.69,7.87,4.71,12.15.23,1,.64,1.26,1.4.38a21.11,21.11,0,0,0,3-4.06c.23-.45.37-1.28,1-1s0,.87-.07,1.32c-.33,1.8-1.41,3.31-1.84,5.08a1.82,1.82,0,0,0,1.06,2.23,1.06,1.06,0,0,0,1.37,0c.41-.39.2-.84,0-1.27a3,3,0,0,1-.14-.39c-.08-.41-.55-.91,0-1.22s.8.23,1.14.52.49.93,1,.62.4-.78.43-1.24c0-.78.05-1.56.1-2.34,0-.28.08-.57.43-.57s.37.23.44.45a9.24,9.24,0,0,1,.53,2.69,1.22,1.22,0,0,0,1.49,1.32c.88-.08.9-.88.78-1.6s-.32-1.71-.46-2.57c0-.26-.11-.6.17-.74s.55.15.74.41.29.46.46.67a.52.52,0,0,0,.57.26c.26-.09.22-.36.23-.59a4.54,4.54,0,0,1,.11-2,6.32,6.32,0,0,1,1.3,3.22,2,2,0,0,0,2.22,1.71c.77,0,1.25-.15.92-1.11a3,3,0,0,1-.16-1.21,1.21,1.21,0,0,1,1.24-1.2,1.15,1.15,0,0,1,1.24,1c.14.67.3,1.34.43,2s.49.63.86.18a2.08,2.08,0,0,0,.55-1.23c.05-.78,0-1.56.15-2.33.1-.61-.26-1.58.7-1.68a1.94,1.94,0,0,1,2.3,1.45c.11.4.19.8.31,1.2.27.92.59,1.7,1.76.9.6-.42,1.21-.11,1.73.31a1.77,1.77,0,0,0,2.64,0,1.63,1.63,0,0,1,1.76-.28,2.35,2.35,0,0,0,3.31-1.43c.12-.25.21-.58.53-.52.59.13.32.78.63,1.22.87-.79,1.68-1.66,2.92-1.73.26,0,.56-.17.78-.1,1.73.6,3,.23,3.42-1.72.53.09.55.44.62.75.19.81.71.84,1.34.59s1.49-.64,2.26-.86,1.41-.63,1.27-1.71.42-1,1.17-.68c1.21.59,1.67.38,2.11-.85.57-1.58.84-1.67,2.13-.75a5.66,5.66,0,0,0,1.21.59c1.27.48,1.48.33,1.49-1.06,0-.33-.25-.86.2-.95s.58.47.73.83.26.78.4,1.17.36.8.86.69a.79.79,0,0,0,.57-1c-.13-1-.34-1.9-.47-2.85-.06-.38-.28-.94.19-1.1s.74.45.84.85c.19.8.24,1.63.42,2.44.09.41,0,1.07.58,1.12s.75-.54.93-1a5.39,5.39,0,0,1,.27-.56c.69.35.54,1,.68,1.54.08.3.14.71.55.63s.39-.47.34-.79a3.76,3.76,0,0,0-.3-1c-.2-.45-.44-.88.19-1.12s.83.16,1.07.58.14.82.6,1.16a3.8,3.8,0,0,1,3.14-2.12c.43,0,.5-.35.45-.69s-.21-.69-.3-1.05-.54-1.15.23-1.38.91.44,1.1,1,.16,1.4,1,1.45,1.16-.6,1.6-1.12a5.07,5.07,0,0,0,.92-2.11c.11-.45.23-1,.81-.92s.57.5.71.89-.1,1.35.74,1.15.83-1,.59-1.7a3.79,3.79,0,0,1-.18-.66c0-.4-.13-.9.42-1s.6.34.71.69c.24.84.41,1.7.71,2.51s.79,1.08,1.52.41,2.08-1,2.14-2.57c0-.66.68-.55,1.06,0,.25.36.24.89.68,1.14.51-.15.29-1.15,1-1s.53,1,.88,1.63c.48-.68.86-1.47,1.73-.36.41.52.93-.23,1.17-.71a12.35,12.35,0,0,1,1.86-2.93c.37.24.23.48.2.68-.07.47-.45,1.05.18,1.34s.95-.31,1.27-.72a4.14,4.14,0,0,0,.64-1.94c.18-1,.69-1.16,1.51-.6,1.61,1.1,1.54,1,2.54-.65,1.3-2.21.78-4.64,1-7,0-.22,0-.46,0-.68s0-.73.38-.8.5.32.57.63c.17.74.33,1.49.57,2.64.62-2.34,2.15-3.74,2.86-5.63a1.45,1.45,0,0,1,2.3-.84c.44.23.77-.1,1.1-.3a8.13,8.13,0,0,1,3.19-1.35,3.13,3.13,0,0,1,3.53,1.61,3.53,3.53,0,0,0,.95,1.15,1.34,1.34,0,0,0,2.18-.35c.4-.61.75-1.25,1.09-1.9.2-.38.44-.59.85-.34s.26.55.1.83c-.34.65-.73,1.27-1.08,1.9-.2.37-.4.75-.12,1.16a.5.5,0,0,0,.6.21c.48-.22.11-.65.17-1a1.2,1.2,0,0,1,.32-.76c.56.12.37.88.91,1.11.29-.68,1.07-1,1.38-1.58.86-1.72,1.9-3.32,2.9-4.95a1.09,1.09,0,0,0,0-1.19c-1.11-1.15-.31-1.45.64-1.76a1,1,0,0,0,.42-.33c.34-.41.61-1,1.27-.79s.67.91.75,1.48c.38,2.49.69,2.71,3,2.11,0,0,.09,0,.12,0,.58-.42,1.57.47,1.88-.51.22-.69-.18-1.43-.33-2.15s-.23-1.17-.35-1.75,0-.45.59-1a5.88,5.88,0,0,0,.94-2.07c.41-1,.76-2,1.2-3,.19-.45.49-1,1.07-.86s.41.75.41,1.18a17.51,17.51,0,0,1-1.69,7.85,4.06,4.06,0,0,0-.07,2.93.59.59,0,0,0,.81.48c.79-.16,1.61-.16,2.39-.34s1.6-.79,2,.62c.12.45,1.94-.09,2.3-.74.48-.87.91-1.77,1.38-2.65a3.9,3.9,0,0,1,.68-1c.42-.41,1-.83,1.55-.46s.24.93.14,1.4a10.62,10.62,0,0,1-1.71,4c-.2.29-.56.61-.34,1s.74.19,1.11.15c1.15-.15,1.61-1.12,2-2,.68-1.48,1-3.11,2-4.44.55-.74,1.2-2.17,2-1.58s-.17,1.81-.75,2.5c-1.26,1.51-1.55,3.38-2.06,5.16-.27.93.35,1.25,1,1.44.86.24,1.06.59.6,1.46-.62,1.18-.24,1.72,1,1.69.4,0,.8-.07,1.2-.06,1.19.05,1.47.48.93,1.55s-.75,2.12.57,2.91c.54.32.52,1,.53,1.63,0,1,.46,1.26,1.38.94,1.23-.42,2.48-.76,3.72-1.13,0,0,.08,0,.23.12a3.76,3.76,0,0,1-2.51,1.52c-1.52.33-1.74,1.84-2.61,2.74-.46.46-.27,1.32.7,1.19,1.51-.21,2.1.91,2.8,1.9.22.31.4.66.08,1a.78.78,0,0,1-1,.11c-.47-.26-.91-.57-1.39-.84-.32-.18-.71-.3-.95.1a.68.68,0,0,0,.22.86c.68.68.93,1.27-.22,1.72-.41.17-.42.57-.25.94a8.92,8.92,0,0,0,.54.95c1.11,1.86,1.07,2.05-.82,2.92a2.76,2.76,0,0,0-1.5,1.5c-.28.76-.26,1.42.74,1.68,3.23.83,6,2.68,9,4,.46.2,1,.51.73,1.12-.31.76-.87.35-1.37.16-2.41-.94-4.7-2.22-7.27-2.71a2.39,2.39,0,0,0-2.31.69c-1.8,1.7-1.83,1.67-3.76.16a2.51,2.51,0,0,0-.46-.26c-.65,2.31.4,5.59,2.22,6.86a4.4,4.4,0,0,1,1.77,2.17,4.18,4.18,0,0,0,2.06,2.45c1.24.64,1.91,1.89,2.94,2.76.17.14.31.36.11.59s-.48.13-.72,0c-1.31-.78-2.62-1.56-4-2.25a35.44,35.44,0,0,0,3.92,3.64c.16.16.35.29.49.46.27.33.94.63.56,1.07s-.78-.18-1.1-.43c-2.11-1.64-4.19-3.32-6.29-5-.77-.6-1.57-1.14-2.55-.38A1.82,1.82,0,0,0,504,175c.32.65,0,.82-.64.68a6.12,6.12,0,0,0-2.13-.22,1.14,1.14,0,0,0-1.06.69c-.79,1.84-1.18,2-2.75,1a.74.74,0,0,0-.16.89c.93,2.46-.84,4.65-.62,7,.07.74-.59.83-1.16.73a11.44,11.44,0,0,0-2.68,0,5.26,5.26,0,0,1-.67.07c-.57,0,0,1.26-.87.79a7,7,0,0,1-2.5-1.81c-.49-.68-1-1.33-1.52-2-.57.34,0,1.16-.74,1.27-.11,0-.3-.19-.37-.33a1.3,1.3,0,0,1,.05-1.55,3.79,3.79,0,0,0,.95-2.74,3.7,3.7,0,0,1,2.15-3c1-.53,1.91-1.14,1.17-2.64-.64.89-2.24.64-2.4,2.21a.44.44,0,0,1-.54.31c-.35-.09-.6-.43-.48-.72.44-1.08-.16-1.81-.67-2.61a2.35,2.35,0,0,1-.36-1.45c.05-.5,0-.91-.56-1.08a1.11,1.11,0,0,0-1.31.42,2.23,2.23,0,0,0-.47.83c-.59,2.25-1.77,4.31-2,6.69,0,.49,0,1.2-.7,1.08s-.62-.86-.42-1.37c.76-1.93.71-4,1.24-6,.41-1.49.27-1.54-1.22-1.34a.42.42,0,0,1-.48-.18c0-.5.44-.61.74-.86s.71-.13.53-.62a.71.71,0,0,0-.77-.46c-.77.1-1.86-.19-1.7,1.26.08.72-.4.68-.88.67s-.79-.12-.91.35.36.65.69.86a3.84,3.84,0,0,1,1.66,1.48c-.36.4-.63.15-.9,0s-.81-.39-1.24-.54a1.86,1.86,0,0,0-1.92.11c-.6.56.29,1,.29,1.71-1,.17-1.71-.91-2.76-.82-.06.64.41,1,.68,1.43s.55.63.25,1-.66,0-.89-.25a2.92,2.92,0,0,0-2.39-.65c-1,0-1.19.53-.78,1.35s1,1.75,1.46,2.63c.19.35.57.66.35,1.11-.09.19-.32.16-.48.06-.39-.23-1,0-1.11-.78a8.13,8.13,0,0,0-1.24-2.73c-.22-.43-.51-1-1.12-.64s-.45.85-.25,1.35c.41,1.07.85,2.12,1.26,3.19.13.34.3.76-.13,1s-.56-.21-.74-.45c-.66-.87-1.25-1.8-2-2.62s-1.15-.8-1.43.33c-.06.23-.08.47-.33.55s-.52-.1-.66-.34c-.61-1.07-1.15-1.15-1.82,0-.32.55-1,.47-1.6.52a16.35,16.35,0,0,0-2,.17c-.69.15-1.12,0-1.37-.67-.15-.48-.53-.89-1-.51s.06.71.27,1,.51.48.38.82-.62.34-.95.28c-.66-.12-1.31-.31-2-.48s-.94-.3-.69.56c.33,1.12-.37.81-1,.7s-1.32-.75-1.69-.09.6.9.95,1.35.73.66.77,1.19a.53.53,0,0,1-.85-.16c-.69-1.16-1.93-1-3-1.33-.73-.2-1.15.2-.8,1,.26.63.6,1.23.88,1.86.14.32.37.74-.06,1s-.52-.25-.69-.49c-.51-.7-1-1.43-1.51-2.11-.18-.24-.45-.56-.79-.36s-.13.59,0,.85c.45.9.92,1.79,1.41,2.66A1.79,1.79,0,0,0,448,188a11.43,11.43,0,0,1,3.62.88c1.27.5,1.91.14,2.4-1.19.13-.34.22-.76.69-.67s.52.52.44.87c-.16.79.14,1.14.88,1.15,1,0,1.17,1.2,2.06,1.43a2.47,2.47,0,0,0,1.17.21c1.94-.32,3.61,1.91,2.94,3.83a1.91,1.91,0,0,1-2.12,1.3c-1.2-.06-2.16.11-2.11,1.71,0,.36-.33.73-.51,1.1-.1.2-.36.52-.31.57,1.22,1.31-.56,2.31-.32,3.52.09.41-.18.66-.58.79-.24.08-.6.2-.67.38-.8,2.24-2.74,2.09-4.51,2.3-2,.23-3.31-.93-4.75-2.23-1.77-1.6-1.44-3.34-1.21-5.21.15-1.13-1-3.65-2-4.08s-1,.26-1.07.9c-.1.93.58,1.7.62,2.63-.67.17-.73-.36-.87-.68a2.42,2.42,0,0,0-2.37-1.48,5.42,5.42,0,0,1-1.21,0c-1.55-.37-2.81-.26-3.3,1.62a.65.65,0,0,1-.82.53c-.25-.07-.28-.32-.32-.55-.26-2-1.39-2.34-3.31-2.28-2.22.07-3.51,1.44-5.06,2.57-.24.17-.47.44-.92.23,0-.66.58-.94,1-1.3s.68-.94.24-1.28c-.94-.74-1.59-2-3-2-.49,0-.54-.28-.8-.6-1.51-1.81-.8-3.68-.39-5.57,0-.21.1-.46-.17-.62-.6.17-.42.71-.48,1.13-.21,1.69-.88,2.23-2.45,1.91-.69-.15-1,.09-1,.82a5.1,5.1,0,0,0,.51,2.66,13.69,13.69,0,0,1,1.15,3.09c.11.41.41,1.05-.14,1.18s-.56-.6-.66-1a13.84,13.84,0,0,0-1.61-4.06c-.54-.86-1-1.15-1.94-.5a6.59,6.59,0,0,1-2.81,1c-2,.32-2.63,2.05-3.53,3.35-.49.71.63,1.28,1.41,1.27a9.15,9.15,0,0,1,3.5.86,2.13,2.13,0,0,1,1.39,2.12,2.47,2.47,0,0,1-1.22,2.54,10.78,10.78,0,0,1-3.86,1.06,18.07,18.07,0,0,0-6.43,2.21c-1.71,1-2.61,2.83-3.31,4.68a3.47,3.47,0,0,1-1.77,2.09A15.13,15.13,0,0,0,393.8,217a3.66,3.66,0,0,1-6.26-.82c-1.64-3.3-3.83-3.9-6.71-1.76-.85.63-1.73.2-2.58.33-.26,0-.66-.18-.77-.06-1.15,1.23-2.8,1.24-4.17,1.91a41.86,41.86,0,0,0-4.73,3.11c-.36.25-.8.51-.68,1.07s.58.68,1,.79a6.43,6.43,0,0,0,2.92-.18c.52-.12,1.23-.35,1.41.3.22.84-.65.87-1.16,1-2.39.56-4.85.92-6.89,2.5-.46.36-1.07.65-1,1.34s.73.57,1.16.77c.63.3,1.3.66,1.2,1.47s-.88.87-1.49.87c-2,0-3,1.51-3.66,3a4.62,4.62,0,0,1-2.56,2.57c-.55.23-1.48.55-1.28,1.17s1.11.22,1.67.12a17.19,17.19,0,0,0,5.23-1.67c1.32-.69,2.77-.62,4.17-.83.22,0,.44.08.58.5-2.76.91-4.69,3.22-7.2,4.59a2.44,2.44,0,0,0-1.16,1.29,2.17,2.17,0,0,1-1,1.06c-.47.27-1.37.23-1.25,1,.18,1.14-.36,2.5.56,3.41.74.73,1.77-.3,1.83-.61.29-1.36,1.58-1.61,2.31-1.9a9.76,9.76,0,0,1,9.07.53,17.49,17.49,0,0,1,1.89,1.29,1.74,1.74,0,0,0,2,.25c3.06-1.28,3.08-1.26,2.27-4.64-.22-.93-.7-1.84.4-2.57.37-.25.34-.65-.2-.77s-.87-.4-.5-1c.77-1.14.31-1.58-.81-1.56-.11-.57.23-.55.46-.63a1.08,1.08,0,0,0,.67-1.72c-.38-.75,0-1.2.39-1.83.84-1.42,2.52-1.88,3.32-3.36.31-.56,1.33-.67,1.89-.75,1.64-.23,3.31-.38,5-.62.59-.08,1,.65,1.42.61,1.36-.14,2,.59,2.6,1.64.38.65.93,0,1.69-.2-1,1.15-.45,1.91.14,2.81.72,1.09.09,2.48.51,3.71.22.67.2,1.27,1,.47a.76.76,0,0,1,1.34.2c.3.62-.18.87-.69,1.07s-.85.44-1.38.19c.06.57.49.64.71.91s.48.48.4.83-.5.33-.78.27c-.82-.17-1,.47-.95,1,.25,1.3-.77,2.07-1,3.14-.09.38-.38.3-.65.2s-.58-.23-.66.14a1,1,0,0,0,.29.73c.62.59,1.3,1.12,1.95,1.68,1.2,1,1.38,2.45,1.75,4,.61,2.53-.48,4.34-1.46,6.31a1.44,1.44,0,0,0,.47,2,6.11,6.11,0,0,1,1.92,1.9c.26.51.82,1,.19,1.58s-.77-.42-1.22-.49c-.27,1.27-.27,1.27-2.53-.12.05,1.38,1,2.43,1.14,3.83-.76-.18-.81-.8-1-1.23-.85-1.62-1.94-2.86-3.93-2.62a.68.68,0,0,1-.76-.35,12.59,12.59,0,0,0-3.31-3.16,3.15,3.15,0,0,1-1.26-1.58c-.39-1.17-1.46-1.82-2-2.91-.27-.59-.84-.5-1.4-.19a6.09,6.09,0,0,0-2.9,3.1,3,3,0,0,1-1.3,1.7c-.19.09-.43.26-.6,0a.76.76,0,0,1,0-.52c.13-.44.31-.86.43-1.3.39-1.41-.26-2.37-1.68-2.42a3.48,3.48,0,0,0-1.71.25,12.08,12.08,0,0,1-4.17,1.21c-2,.22-4.23.48-5.79-1.44-.65-.8-1.62-.9-2.43-1.3-1-.49-1.16-1.66-2.07-2.21-.34-.21-.39-.21-.71,0-2.18,1.39-3,3.52-3.16,6-.08,1.14,0,2.29,0,3.44,0,.32,0,.75-.41.76s-.44-.47-.43-.84a9.4,9.4,0,0,0,0-1.91c-.19-.88.37-2.06-1.34-2.36-.9-.16-1.66-.83-2.62-.21-.25.16-.54.39-.78-.06-.74-1.41-1.51-.55-2.27,0-.34.23-.61.94-1.06.51s.08-.9.35-1.3.46-.57.64-.88c.31-.55.79-1.35.17-1.71s-1.18-1-2.13-.42c-1.76,1.13-2.15,1.88-1.72,4.25.08.44.37.91-.09,1.27s-.86.05-1.27-.11c-2.66-1-4.84.14-5.69,2.91a25.54,25.54,0,0,1-3.25,6.58c-.26.39-.65,1-1.17.65s-.07-.84.08-1.24c.66-1.71,1.36-3.39,2-5.1.22-.57.66-1.27,0-1.74a1.41,1.41,0,0,0-1.83.42A48.6,48.6,0,0,1,327.4,263c-.25.19-.46.5-.74.57-2.62.74-2.21,2.9-2.18,4.87,0,1.63.37,3.27-.18,5-.78-.56-.72-1.41-1-2.06-.15-.32-.19-.78-.66-.74s-.53.49-.54.84c-.09,2.4.82,4.51,1.77,7,.72-1.41-.06-2.57.33-3.63.53-.1.51.31.55.6a60.27,60.27,0,0,1,.93,11.22,2.69,2.69,0,0,0,.25,1.61,4.91,4.91,0,0,1,.51,4.09c-.44,2.13-1.53,3.35-3.21,3.56a5.11,5.11,0,0,1-4.8-2.69c-1.84-3.9.27-7.26,4.49-7,1,.06,1.33-.23,1.39-1.23.07-1.25.34-2.44-1-3.22-.27-.16-.35-.73-.46-1.12-1.49-5.33-3.19-10.61-4.26-16.06-.35-1.77-1.07-1.93-2.36-.7a3.86,3.86,0,0,0-1,2.77c-.1,1.79-.09,3.57-.17,5.36a3.77,3.77,0,0,0,1.25,3.17,5.17,5.17,0,0,1,1.71,3.77,4.63,4.63,0,0,1-3.26,4.52,4.5,4.5,0,0,1-5.07-2.49c-1.31-2.88-.45-5.35,2.39-6.66a1.91,1.91,0,0,0,1.3-1.84c.18-3.52.45-7,.68-10.56a1.85,1.85,0,0,0-.26-1.32,12.34,12.34,0,0,1-1.44-2.94c-.43-1-1-1.48-2.21-.89a6,6,0,0,1-4.58,0c-.57-.19-.79-.71-1-1.23s-.44-1.34-1.31-1.35a2,2,0,0,0-2,1.16c-.49,1-.9,2-1.34,3a9.71,9.71,0,0,1-7.07,5.68c-2.37.54-4.86.36-7.25,1.22a10.91,10.91,0,0,1-4.39.22c-1.74-.13-3.35-2.66-3-4.43.12-.58.37-1.14.48-1.72.4-1.94-.85-3.37-2.74-3.05a25.47,25.47,0,0,0-9.83,3.45c-1.06.69-2.5.86-3,2.32a.42.42,0,0,1-.68.14c-.61-.72-1.33-.42-2-.29-2.69.55-5.5.58-8,2.18a4,4,0,0,1-4,.14c-1.28-.61-2.64-.11-3.94.18-2.68.6-2.76.75-1.34,3.19,3.43,5.88,8,10.28,14.58,12.33,1.8.56,3.51,1.41,5.28,2,1.41.51,2.82,1,4-.54.52-.64,1.33-.31,2-.17a6.94,6.94,0,0,0,7-2.16,3.16,3.16,0,0,1,1.44-1c.9-.28,1.83-.44,2.15-1.59.13-.48.66-.36,1.06-.39,1.18-.11,2.4.08,3.48-.73.56-.43,1.13.06,1.54.48,1.29,1.35,2.93,2.26,4.29,3.53,2,1.83,4.57,1.95,7.08,2.12.51,0,1.08-.2,1.52.38-1.08.73-2.28.37-3.41.48-1.68.15-2.13.64-2.26,2.39a40.09,40.09,0,0,1-.45,4.24c-.38,2.17.83,3.77,1.75,5.47a3,3,0,0,1,.43,2.48c-.1.29-.12.7-.55.66s-.33-.39-.37-.65a7.54,7.54,0,0,0-2.42-4.48c-.85-.78-1.21-.57-1.49.35s-.73,1.59-1.79.76c-.16-.13-.53-.07-.77,0-1.82.58-3.8.66-5.46,1.77a.82.82,0,0,1-1.33-.41c-.2-.49-.56-.82-1-.65-3,1-6-.1-9.05.42-1.6.28-3,.61-4.07,2-.3.42-.74,1-1.32.55s-.47-1.16-.13-1.74a5.77,5.77,0,0,1,3.3-2.2c.49-.19,1.59-.1,1.2-1s-1.08-1.76-2.12-1.54a2.44,2.44,0,0,1-1.9-.23,1.75,1.75,0,0,0-2.21.43,1.87,1.87,0,0,1-3-.07,5.33,5.33,0,0,0-5.25-1.69c-.69.15-1.18.34-1.27,1.12a1.93,1.93,0,0,1-.22.65c-.3.53-.53,1.51-1.2,1.2s0-1.06.23-1.54c.42-.95.15-1.37-.8-1.5l-3.32-.46a4.5,4.5,0,0,1-1.79-.55c-.36-.21-.7-.5-.54-1a.83.83,0,0,1,1-.53c.53.06,1.06.2,1.59.27s1.19.29,1.23-.56-.21-1.41-1.06-1.49a4.28,4.28,0,0,0-1.32.17c-.35.08-.72.28-1-.1s.08-.68.25-1c1.16-2.12,1.16-2.15-.84-3.48a19.26,19.26,0,0,0-1.89-1,3,3,0,0,1-1.76-2c-.23-1.29-1.1-2.24-1.33-3.6s-1.63-2.44-2.54-3.62-1.86-2.25-2.75-3.4a2.63,2.63,0,0,0-2.68-.83c-1.11.14-2.22.29-3.33.4-.49,0-1.09.11-1.18-.58s.45-.84.94-1a5.24,5.24,0,0,0,2.7-1.34c-.52-.55-1.07-.24-1.56-.18-4.13.52-8.13,1.72-12.24,2.38a17.9,17.9,0,0,0-8.53,4.3,5.31,5.31,0,0,1-1.28.75,141.5,141.5,0,0,1-14.21,5.38c-2.87.84-5.19,2.87-8,3.77a59.32,59.32,0,0,0-12.27,5.8c-2.29,1.35-4.88,2.05-7.31,3.09-6.39,2.76-12.74,5.6-18.95,8.75a105.58,105.58,0,0,1-17.09,6.4,224.52,224.52,0,0,0-27.4,10c-7.12,3.23-14.61,5.47-21.92,8.19-6.89,2.56-13.85,4.92-20.76,7.41-2.41.87-4.83,1.66-7.23,2.53a5.6,5.6,0,0,1-2.5.32ZM406.87,187.42c-1.26-1.15-2.06-2.82-4.12-2.22-.56.17-1.19-.31-1.73-.66a1.53,1.53,0,0,0-1.75-.07,1.53,1.53,0,0,1-2.36-.64,3.66,3.66,0,0,0-4.57-1.06c-.47.27-.94.51-1.36.12-1.05-1-2.41-.65-3.8-1.17.56,1.13-.11,1.43-.78,1.71-1.83.78-2.25.64-3.53-1.09-.08-.12-.37-.22-.46-.16-.91.55-1.89,0-2.82.16.85.08,1.52.8,2.44.6.34-.07.44.4.45.72s-.27.59-.52.46c-1.17-.59-1.06.31-1.23,1-.29,1.14-1,1.26-2.06.87a2.41,2.41,0,0,0-2.19-.24c-.76.36-1.58,0-1.42,1.36,0,.39-.54.37-.88.46a.58.58,0,0,0-.47.59.6.6,0,0,0,.65.57c.69,0,1.26-.09,1.32-1,0-.47-.38-1.21.63-1.07s.41.83.41,1.33-.18.87.22,1.15a.76.76,0,0,0,1-.2c1-1,1.77-.2,2.46.5.55.54.19,1.85-.35,1.65-1.35-.47-1.71,1.21-2.84,1.09-.27,0-.6.36-.88.58a.69.69,0,0,0-.17.87.45.45,0,0,0,.77.2c.63-.59.85.38,1.35.39a6.66,6.66,0,0,1-.18-1.14c0-1.07,1.29-2,1.84-1.36a3.26,3.26,0,0,1,1.18,2.6,2.62,2.62,0,0,1-2.71,2.27c-2-.4-1.86.62-2.21,2-.46,1.82-1.37,3.51-1.7,5.4-.16.89.35,2.17-1.15,2.43-.1,0-.21.31-.21.47,0,.67-.14,1.18-.93,1.21-.31,0-.46.25-.45.58a1.38,1.38,0,0,1-.71,1.35.94.94,0,0,0-.23,1.25,3.37,3.37,0,0,1,.4,1.83,1,1,0,0,0,.68.93.66.66,0,0,0,.83-.28c.69-1.38,1.85-1.36,3.11-1.25.92.08,1.76,0,2.06-1.24.18-.73,1.72-1,2.37-.46.43.33,1,.78,1.43.33.89-.89,1.28-2.24,2.59-2.81a1.4,1.4,0,0,0,.39-1.62c-.54-.72,0-.93.27-1.36s1-.89.63-1.77c-.16-.36.37-.5.65-.48,1.29.08,1.15-.8,1.1-1.64,0-.43-.39-.84,0-1.28,1.6-1.65,3-3.58,5.71-3.37a2.24,2.24,0,0,0,2.22-1.08c.16-.3,1.13-1.68,2.16-.24.29.42,1.53,1.72,2.4.14a.37.37,0,0,1,.35-.16c1.05.33,1.33-.42,1.73-1.15.28-.49.76-1,1.43-.73.48.19,1.21.27.91,1.24.4-.65,1-1.16.55-1.92s-1.38.19-1.58-.78c.32-.27,1.13-.28,1-.52-.48-1,.45-1.09.75-1.58a.62.62,0,0,0,.09-.39C404.71,188.21,405.75,187.88,406.87,187.42Zm-171.6,43.24c-2,.73-3.33,2.5-5.37,2.93a6.23,6.23,0,0,0-3,2c-.64.61-.55,1,.33,1.14,1.32.23,2.66.42,4,.72a8.85,8.85,0,0,1,5.52,3.15,2,2,0,0,0,1.69.67l6,.08c-.3-.4-.91-.08-1.09-.63.36-.56,1-.35,1.46-.48s1,.09,1-.37c.06-.61-.61-.5-1-.63s-.41-.18-.35-.52a3.76,3.76,0,0,1,2.72.07c.31.09.89.42,1,.07.24-1.27,1.21-.9,1.91-1,1.6-.17,3.13-.18,4.41-1.56,1-1,2.18-.68,3.23.57a.5.5,0,0,0,.36.13c1.34-.05,2.33.88,3.5,1.32,1.36.5,2.34-.31,2.08-1.79a15.3,15.3,0,0,0-.58-2c-.34-1.17-.18-2,1.14-2.45a8.8,8.8,0,0,0,3.46-2.53c.52-.54.75-1.08-.16-1.64-2.14-1.31-2.22-1.85-.91-4.05.34-.57.83-1.13.41-1.89-.72-1.29-1.56-2.38-3.23-2.25-.36,0-.75.1-1-.19-.58-.61-.74-.07-.92.34a1.72,1.72,0,0,0,0,1.18c.21.88-.38,1.54-.89,2.17-.12.15-.37.21-.47.06-.41-.57.14-1.13.06-1.71,0,0-.05-.07-.18-.23-.64.77-1.32,1.48-1.88,2.27a23.16,23.16,0,0,1-5.7,5.73c-2.3,1.62-3.66,4.24-5.61,6.26-.16.17-.45.35-.25.72,1,0,1.95,0,2.93,0,.33,0,.84,0,.84.47s-.5.5-.84.5a31.67,31.67,0,0,1-5-.2c-.29,0-.63-.14-.63-.64,2.12-.27,2.4-2.68,4.11-3.53-.44-.41-1,.2-1.15-.32s.4-.76.76-1a16.75,16.75,0,0,0,4.53-4.43c.23-.32.56-.75.22-1.11s-.84-.09-1.2.18a5.26,5.26,0,0,0-.7.64,32.16,32.16,0,0,0-3.29,3.79c-.55.77-1.51,1.38-2.3.85s.39-1.11.48-1.74a.5.5,0,0,0,0-.18c-.33-.19-.79.47-1,0s.2-.65.45-.91c.65-.66.36-1-.39-1.22a1.14,1.14,0,0,0-1.51.69,39.49,39.49,0,0,1-2.18,3.31,4.26,4.26,0,0,1,.34-2.36c.27-1-.1-1.28-1-1.25a2.11,2.11,0,0,0-1.65.77c-.64.77-1.27,1.54-1.93,2.29C235.85,232,235.7,231.93,235.27,230.66Zm-26.87-26.8,3.76,1.27a3.42,3.42,0,0,0,4.08-1.12,3.82,3.82,0,0,1,3.07-1.65c1.45-.08,1.66-.56,1.07-2-.5-1.19-.3-1.53.93-1.76a6.85,6.85,0,0,1,3.8.62c-1.51-1.21-3.35-1.13-5.09-1.47-2.9-.57-6.07-.07-8.56-2.28-.16-.14-.42-.26-.6-.05s-.08.52,0,.78C212.15,199.6,210.6,201.64,208.4,203.86Zm174.09,38.4c-.91.29-1.3-.54-1.8-1-.2-.18-.22-.53-.62-.41a.65.65,0,0,0-.52.81,6.59,6.59,0,0,0,.27,1.06,10.88,10.88,0,0,0,2.86,4.24c.77.75,1.39,2.08,2.11,0a.41.41,0,0,1,.32-.21c1.36-.12,1.58-1.47,2.32-2.27a.64.64,0,0,0,.09-.49.29.29,0,0,0-.45-.11c-1.09,1-1.55-.06-2.25-.64A2.88,2.88,0,0,0,382.49,242.26Zm59.19-55.21a3,3,0,0,0,.64,1.91c.34.5.78,1.08,1.41.62s1.71-1,1.53-2.11-1.25-1.59-2-2.29-.93.08-1.38.15-1.09.31-1.7-.24c-.4-.36-1.48-.7-1.78-.26s.15,1.41.67,1.9,1.16.13,1.72-.19S441.86,186,441.68,187.05ZM301.51,232.12l-.88.23c-.43.12-.9.2-1,.78a1.36,1.36,0,0,0,.68,1.39,1.89,1.89,0,0,0,2.15.15c.62-.38,1.56-.66,1.22-1.67C303.42,232.15,302.62,232,301.51,232.12Zm-49.32,19c.65,1.25.81,2.52,2,3.11a1,1,0,0,0,1.39-.5c.49-.88,1.86-1.54.8-3.06-.37,1.12-1.53.49-2,1.06C253.3,253,253.22,251.23,252.19,251.08Z"/><path class="cls-3" d="M231.8,357.55a1.43,1.43,0,0,1,.33-1.4,40.82,40.82,0,0,1,4.19-4.23c.3-.25.7-.66,1.05-.32s-.17.7-.32,1c-1,2.11-2.77,3.43-4.44,4.86Z"/><path class="cls-3" d="M464.67,275.92c-.11-.84.4-1.2.7-1.67s.45-.72.14-1.13a.84.84,0,0,0-1.08-.29c-.79.38-.94.21-1-.71a1.92,1.92,0,0,0-1.49-1.61c-.63-.2-.77-.38-.56-1,.32-1,0-1.71-1.21-1.68-.5,0-.78-.15-.37-.74,1.22-1.76,1.15-1.92-.88-2.33.72-1.58.72-1.58-.51-2.55,1.31,0,1.12-1.39,2-1.81.06,0,.08-.27,0-.37-.53-1.05.14-1.62.83-2.12a2.06,2.06,0,0,0,.84-1.49,2.64,2.64,0,0,1,1-1.66c.83-.39,1.39-1.31,2.44-1.29a.41.41,0,0,0,.32-.21c.44-1.77,1.9-1.51,3.14-1.66a1.64,1.64,0,0,0,1-.57,1.7,1.7,0,0,1,.51-.36c.82,1,1.88-.07,2.76.34.11.06.28.16.36.12,1.76-1,2.92.47,4.38.89,1.87.54,2.2,2.86,4.12,3-.13.56,1.14.93.17,1.63-.6.44-.39,1,.15,1.33a6.78,6.78,0,0,0,1.09.51c.37.15.9.17.95.64s-.52.52-.88.6c-.71.18-.87.59-.5,1.21.45.77.05,1.55.09,2.25.08,1.52-.73,2.61-1,3.88s0,2.19-1.39,2.78c-.6.25-.95,1.36-1.25,2-.7,1.48-2.14,1.43-3.16,2.13a5.88,5.88,0,0,1-4.13.58c-.23,0-.51,0-.6.17-.41.91-.81.95-1.37.12-.2-.29-.48,0-.68.17s-.47.4-.63,0c-.43-1.13-1-.48-1.65-.29C466.42,275,465.32,274.74,464.67,275.92Z"/><path class="cls-3" d="M571.58,180.6c-.84,1.09-.62,1.72.72,1.84.14,0,.38.23.37.32-.22,2.12,1.61,1.86,2.7,2.46,0,.08,0,.23,0,.24-1.76.49-2.09,1.62-1.53,3.31.27.8.08,1.73.38,2.57.15.43,0,.74-.39.85-1,.28-1.07.81-.53,1.61.32.46.53.95-.35,1-.35,0-.47.26-.3.58.31.61-.09.49-.46.57-1.27.28-2.76.23-3.17,2a.54.54,0,0,1-.39.33c-1.62.07-3,1.34-4.74.89-1.11-.29-2.16.36-3.38-.09a10.29,10.29,0,0,1-5.67-5.24,6.79,6.79,0,0,1-1-3.08c0-.37,0-.72-.47-.86s-.29-.49-.15-.78c.31-.64.77-1.24.21-2-.24-.34.21-.54.35-.8.4-.73,1.25-1.26,1-2.3a.39.39,0,0,1,.13-.36c1.74-.8,2.79-2.36,4-3.78,0,0,.08-.09.1-.08,1.7.86,2.84-1.12,4.35-.92s3.21,0,4.72.79c.75.38,1.76.07,2.27,1.14C570.4,181.14,571,180.44,571.58,180.6Z"/><path class="cls-3" d="M485.38,188.62c0,.47-.32.59-.53.81-.46.48-.4.86.28.89,1.42.07,2,1,2.41,2.22,1.18,3.5,1,4.55-2.35,6.75-1.07.7-1.64-.6-2.54-.53-.13,0-.36-.33-.39-.3-1.35,1.11-3.23.71-4.58,1.68-.48.35-.65.52-1,0a3.85,3.85,0,0,0-4.29-1.38,3.83,3.83,0,0,1-3.11,0,4.65,4.65,0,0,0-1.66-.45c-.82,0-.72-1-1.23-1.5s-.41-2.42.11-3.08.45-2.09,1.6-2.57c.25-.1-.07-.37-.17-.56a10.44,10.44,0,0,0-.83-1.55c-1.32-1.77-.79-3.26.56-4.66a13.88,13.88,0,0,1,1.74-1.69,3.37,3.37,0,0,1,2.49-.15c1.3.21,2.95,0,3.77,1.59.25.49.66.16.88-.1.55-.63,1.32-.31,1.84-.49,1.63-.58,2.56,1.41,4,.86a.25.25,0,0,1,.23.1c.31,1,1.43,2,1.4,2.72C484,188.51,484.88,188.28,485.38,188.62Z"/><path class="cls-3" d="M416.21,247c.61,1,1.15,1.05,2.28,1,2.68-.15,5.52.37,7,3.12.54,1,1.28,2.07.83,3.67-.92,3.31-1.84,6.55-3.78,9.43a9.18,9.18,0,0,0-.87,2.44c-.15.52-.18,1.28-.9,1s-.31-.94-.14-1.42c.64-1.81,1.31-3.61,2-5.41a9.66,9.66,0,0,0,.22-1.14,7.3,7.3,0,0,1-4.32,1.44c-1.15,0-1.68-1.12-2.81-1.25-.83-.1-1.39-.29-1.88.5-.18.28-.29.78-.77.52s-.19-.58-.09-.87c.16-.48.48-1-.17-1.3s-.9.44-1.12.88a8.92,8.92,0,0,1-2.57,3.29c-.35.26-.78.68-1.18.25s0-.84.3-1.18a25.08,25.08,0,0,0,2.29-3.38c.17-.26.43-.56,0-.83a.55.55,0,0,0-.81.24c-.47.94-1.8,1.12-1.87,2.48,0,.63-1,.78-1.51,1.27a.33.33,0,0,1-.48-.08.63.63,0,0,1,0-.65,7.84,7.84,0,0,0,.67-1.48,1.77,1.77,0,0,0-.75-2.05c-1.48-.91-1.84-2.64-2.79-3.93-.18-.24,0-.42.2-.57s.5-.42.39-.66c-.72-1.54.49-2.33,1.2-3.28a17.18,17.18,0,0,1,2.21-2.37,2.06,2.06,0,0,1,2.87.4c1.21,1.44,2.46,1.5,4.17,1.4C415.27,248.48,416,248.48,416.21,247Z"/><path class="cls-3" d="M177.85,259.48a.34.34,0,0,1,.44.19c.18.37-.1.61-.34.81a11.87,11.87,0,0,1-3.54,1.9c-.68.25-1.49.32-1.73,1.29-.08.34-.58.62-.84.2-.44-.7-.9-.37-1.39-.2-1.06.37-2.1.77-3.17,1.12a1.9,1.9,0,0,0-1.32,1,2.09,2.09,0,0,1-1.9,1.12c-2.83.2-5.36,1.39-8,2.32a38.2,38.2,0,0,1-8.74,2,24.1,24.1,0,0,0-6.63,2.11c-9.39,3.79-19,6.94-28.56,10.26-7.7,2.68-15.45,5.2-23.1,8a12.86,12.86,0,0,1-1.92.58.86.86,0,0,1-1.1-.56.82.82,0,0,1,.52-1,27,27,0,0,1,2.58-1.14c11.17-4.16,22.46-8,33.63-12.12,7-2.63,14.37-4.51,21.33-7.37,6-2.46,12.12-4.43,18.14-6.74a47.24,47.24,0,0,1,11.66-3C175.14,260.14,176.35,259.79,177.85,259.48Z"/><path class="cls-3" d="M132.55,254.94c0,1.6-1.31,3-2.94,3.87-4.49,2.43-9,2.11-13.48-.29a18.29,18.29,0,0,1-2.87-1.77c-2.09-1.69-4.35-1.44-6.64-.8a11,11,0,0,1-4.6.68,6.23,6.23,0,0,1-1-.18c-.53-.16-1.06-.41-1-1.08s.58-.8,1-.89c1.41-.27,2.82-.48,4.24-.69a8.84,8.84,0,0,0,2.08-.48,1.88,1.88,0,0,1,2,.29,2.65,2.65,0,0,0,2.78.27,31.89,31.89,0,0,0,4.45-2.23c4-2.12,8.11-3,12.52-1.41A5.07,5.07,0,0,1,132.55,254.94Z"/><path class="cls-3" d="M498.72,206.61a2.79,2.79,0,0,1,.09-2.47,17.65,17.65,0,0,0,.65-1.8c.11-.43.22-1-.16-1.3s-.53.32-.82.47c-.53.28-.85.18-.9-.48a2,2,0,0,0-.52-1.38c-.48-.5-1.65-.49-1.62-1.13.14-2.52-.7-5.33,1.07-7.45a7,7,0,0,1,3.93-2.81,1.63,1.63,0,0,1,2,1.42c0,.65.14,1,.84.69,1.35-.53,2.82-.31,4.2-.6.18,0,.46-.12.45.06-.08,1.16,1.36,1.47,1.34,2.56,0,.92.46.81,1.06.59,1.63-.59,2.6-.23,3.34,1.21a2.94,2.94,0,0,1-.75,3.8,4.66,4.66,0,0,1-2.7.52c-.35,0-.71-.55-1.05,0a1.25,1.25,0,0,0,0,1.54c1,1.09.08,1.29-.66,1.42a1.44,1.44,0,0,0-1,.55,1.25,1.25,0,0,1-1.75.28c-.37-.25-.72-.42-1.11-.19s-.89.35-1.13-.35a.65.65,0,0,0-.51-.36,3.4,3.4,0,0,0-1.25.4c-1.42.85-1.47.91-1.6,1.4A8,8,0,0,1,498.72,206.61Z"/><path class="cls-3" d="M431.53,254.81a1.77,1.77,0,0,0-1.41-.6c-.74.09-1.12.1-.89-.93.13-.63-.27-1.53.61-1.68,1.05-.18.37,1.11.92,1.47.49-3.42,1.78-4.51,5.14-3.33,1.88.66,3.91.84,5.68,1.82a6,6,0,0,1,2.94,3.9,8.19,8.19,0,0,0,.54,2.11.65.65,0,0,1,.06.52c-1,1.51-1.09,3.53-2.56,4.81-1.72,1.49-5.95,1.86-8.11,1.07-1.14-.42-2-1.42-3.35-1.43-.5,0-.43-.54-.31-.87a2,2,0,0,0-.32-2.06.79.79,0,0,1-.14-.23c-.33-.8.68-1.42.12-2.41C430.06,256.31,430.57,255.3,431.53,254.81Z"/><path class="cls-3" d="M529.89,186a23.61,23.61,0,0,1,6.55,3.26c.65.43.6.91-.18,1.11-.6.16-1,.56-.56,1a4.28,4.28,0,0,1,.95,2.53,6.39,6.39,0,0,0,.73,1.49c-.67.39-1.9.5-.88,1.74-.77.36-1,1.26-1.58,1.75-1.66,1.39-3.83,1.46-5.79,1.65-.83.08-1.81-1.41-2.71-2.2-.27-.24-.47-.55-.73-.8-.55-.51-1-.71-1.65,0a3.14,3.14,0,0,1-4.29.35,3.49,3.49,0,0,1-1-3.32,3.74,3.74,0,0,1,3.39-2.63,1,1,0,0,1,.64.13c1.28,1.12,2,.38,2.36-.84.65-2.09,2.6-2.54,4.09-3.57.49-.35.86.41,1.37.27.29-.07.69.09.81-.31s-.21-.47-.4-.65C530.61,186.65,530.25,186.33,529.89,186Z"/><path class="cls-3" d="M326.84,318c0-6.19-.23-12.4.23-18.55a109.17,109.17,0,0,0-.21-14.92c-.17-2.64-1.18-5.17-1.07-7.88.08-1.78-.18-3.58-.1-5.36,0-.85-.18-2.14,1.16-2.27.88-.09,1.42,1.2,1.17,2.65a16.85,16.85,0,0,0-.18,5.62c1,5.95.7,12,1,18a67,67,0,0,1-.5,12.49c-.41,3.09-.31,6.21-.41,9.33,0,.55,0,1.09-.09,1.64,0,.36,0,.84-.51.83s-.44-.5-.5-.85,0-.46-.05-.69Z"/><path class="cls-3" d="M336.3,306.56a5,5,0,0,1,5.5,4.79,4.87,4.87,0,0,1-4.45,5.47,2.3,2.3,0,0,1-1.67-.35,9.17,9.17,0,0,1-3.5-4.07C331.13,309.85,333.31,306.8,336.3,306.56Z"/><path class="cls-3" d="M399.92,212.88a5.13,5.13,0,0,1,4.59,2,4.69,4.69,0,0,1-.72,5.84c-.77.73-1.81,1.16-2.25,2.26-.12.28-.54.35-.59,0-.2-1.51-1.53-1.14-2.34-1.41-1.57-.52-3.13-2.79-2.81-4.47C396.22,214.92,398.07,213,399.92,212.88Z"/><path class="cls-3" d="M298.89,266.68c-.26-2.82,1.22-5.08,3.48-5.31a4.71,4.71,0,0,1,5.4,4.11,5.24,5.24,0,0,1-4.68,5.39C301.37,271,299.07,268.69,298.89,266.68Z"/><path class="cls-3" d="M541.8,201.9a3.61,3.61,0,0,1,4,2.12,4,4,0,0,1-.54,4,6,6,0,0,1-1.45,1.39c-1.2.78-3.22.33-4.39-.95s-1.77-2.72-.91-4.46S540.87,202.31,541.8,201.9Z"/><path class="cls-3" d="M129.74,219.62a7.52,7.52,0,0,1-4.51-1.48,17.11,17.11,0,0,0-3.36-2.49,1.11,1.11,0,0,1-.49-1.63c.33-.64.91-.5,1.4-.22a2.83,2.83,0,0,0,2.33.12,6.59,6.59,0,0,1,6,1.26c.85.64,1.66,1.41,1.31,2.63S130.8,219.42,129.74,219.62Z"/><path class="cls-3" d="M422.74,210.84a3.41,3.41,0,0,1-3,3.81c-2,.11-3.47-1.42-3.66-3.85-.1-1.29,1.52-3.52,2.66-3.65C421.14,206.89,422.55,208.2,422.74,210.84Z"/><path class="cls-3" d="M258.12,140.88c0-.53.08-.93.52-1.1s.67.15.88.45a18.84,18.84,0,0,1,1.77,3.39c.75,1.75,1.6,3.49,2.29,5.24a32.06,32.06,0,0,1,2.18,6.29c.08.49.25,1.1-.33,1.33s-.69-.42-1-.72a13.16,13.16,0,0,1-3.38-7.33c-.38-2.28-1.89-4-2.51-6.19C258.41,141.75,258.25,141.28,258.12,140.88Z"/><path class="cls-3" d="M524.4,154.94c-.57-.68-.24-.73,0-.74a3.22,3.22,0,0,1,.93.07c4,.91,8,1.62,11.85,2.91a18.86,18.86,0,0,0,3.37.91c.3,0,.69.08.72.48s-.36.6-.71.68a3.11,3.11,0,0,1-2-.23c-4.55-1.93-9.34-2.41-14.18-2.47a7.88,7.88,0,0,1-6.58-3.31c-.18-.24-.55-.48-.3-.8s.69-.07.91.18c1.26,1.43,3,1.93,4.67,2.59C523.65,155.41,524.13,155.43,524.4,154.94Z"/><path class="cls-3" d="M180.67,275.16a1,1,0,0,1,.64-1,42.09,42.09,0,0,1,12.49-5.14,1.19,1.19,0,0,1,.26-.05c.46,0,1.09-.36,1.3.28s-.41.75-.79,1a20.35,20.35,0,0,1-1.9,1,34.33,34.33,0,0,1-8.23,2.8A29.74,29.74,0,0,0,180.67,275.16Z"/><path class="cls-3" d="M284,295.92c-.13.93-.21,1.85-.4,2.73-1,4.38-2,8.74-3,13.1a4.58,4.58,0,0,1-.14.53c-.15.41-.17,1.11-.73,1s-.37-.84-.27-1.3c.3-1.44.62-2.86,1-4.28.88-3.65,1.29-7.4,2.35-11,.09-.3.17-.62.28-.91s.2-.58.51-.57C284.07,295.2,283.85,295.68,284,295.92Z"/><path class="cls-3" d="M358.38,91.09c0,.38,0,.93-.48,1.09s-.77-.37-.94-.76a30.67,30.67,0,0,1-1.23-3,27.15,27.15,0,0,0-2.16-5.6c-.28-.47-.54-1.09.11-1.44s1,.16,1.33.61A30.77,30.77,0,0,1,358.38,91.09Z"/><path class="cls-3" d="M254.6,352.73a1.28,1.28,0,0,1,.45-1.08c1.59-1.3,2.59-3.12,3.9-4.68a6.74,6.74,0,0,1,1.67-1.57c.37-.22.78-.64,1.21-.3s.17.94,0,1.38a8.78,8.78,0,0,1-1,1.78,23.9,23.9,0,0,1-4.95,4.58C255.4,353.18,254.91,353.36,254.6,352.73Z"/><path class="cls-3" d="M199.92,312.2c.69,0,1.13.33.91,1.24a4.94,4.94,0,0,1-2.43,3.12,13.73,13.73,0,0,1-2.71,1.48c-.66.22-1.07,0-.94-.8C195,315.74,198.36,312.36,199.92,312.2Z"/><path class="cls-3" d="M74,197.58c1.67.46,3.39-.08,5.12-.55a.76.76,0,0,1,.26,0c1,.17,2.37.36,2.49,1.46s-1.27,1.11-2.07,1.21c-2.09.27-4.16-.42-6.26-.44a.75.75,0,0,1-.82-.87C72.79,197.76,73.29,197.64,74,197.58Z"/><path class="cls-3" d="M220.08,280.24A64.52,64.52,0,0,1,215,285l-7.82,6c-.36.28-.83.88-1.25.35s.25-.81.58-1.07c3.15-2.54,6.28-5.11,9.5-7.56C217.25,281.74,218.32,280.52,220.08,280.24Z"/><path class="cls-3" d="M516.36,169.85c-.78.19-1.18-.33-1.66-.61-2.15-1.27-4-3.09-6.59-3.59-.78-.16-1.46-1.14-2.08-1.85-.42-.48,0-.82.46-1,.93-.36,2.93.07,3.46,1,1.28,2.12,3.38,3.24,5.17,4.74C515.56,168.86,516.13,169.09,516.36,169.85Z"/><path class="cls-3" d="M367.14,282c-.05-.79-.08-1.57.65-1.74s1,.6,1.18,1.22c.64,2.36.86,4.84,1.95,7.09a.9.9,0,0,1-.55,1.23c-.65.27-1.05-.16-1.23-.7A55.68,55.68,0,0,1,367.14,282Z"/><path class="cls-3" d="M246.94,313.3a7.2,7.2,0,0,1-1.31,4,101,101,0,0,0-5.29,9.83c-.26.49-.47,1.42-1.09,1.12s0-1.06.21-1.53C241.85,322.22,243.89,317.49,246.94,313.3Z"/><path class="cls-3" d="M141.61,215a5.22,5.22,0,0,1,2.76.39c.74.34,1.31.84,1,1.79a1.55,1.55,0,0,1-1.92,1.26,9.08,9.08,0,0,1-3.76-2.28c-.47-.38-.11-.77.32-.89A13.92,13.92,0,0,1,141.61,215Z"/><path class="cls-3" d="M290.6,145.68c0-.68-.13-1.25.4-1.41s.76.41.92.8c.77,2,2,3.79,2.19,6,.08,1,1.06,1.56,1.57,2.35.23.36.77.79.32,1.17s-.85-.15-1.09-.5A29,29,0,0,1,290.6,145.68Z"/><path class="cls-3" d="M502.46,108.16a16.87,16.87,0,0,1,.79-2.3c1.33-2.74,2.72-5.46,4.1-8.17a4.15,4.15,0,0,1,.55-.77.49.49,0,0,1,.6-.17.51.51,0,0,1,.2.72c-.37.67-.81,1.31-1.17,2-1.26,2.37-2.26,4.87-3.33,7.34a14.83,14.83,0,0,1-.91,1.66.42.42,0,0,1-.57.22C502.6,108.61,502.56,108.38,502.46,108.16Z"/><path class="cls-3" d="M337,133.64c0,.48.14.93-.27,1.09s-.65-.22-.87-.5a7,7,0,0,1-1.26-2.54,42.45,42.45,0,0,0-1.32-4.73c-.12-.33-.27-.76.15-1s.8.11,1,.48A38.25,38.25,0,0,1,337,133.64Z"/><path class="cls-3" d="M359,158.43a21.41,21.41,0,0,1,2.25-5.93,56.15,56.15,0,0,0,3.54-6.28,3.49,3.49,0,0,1,.45-.68c.19-.24.38-.64.73-.47s.22.65.06,1c-.54,1-1.09,2.1-1.68,3.12a75,75,0,0,0-3.89,7.5A3.25,3.25,0,0,1,359,158.43Z"/><path class="cls-3" d="M218.52,290.08a2.74,2.74,0,0,1,.17-.53,37.29,37.29,0,0,1,3.94-5.7c.33-.34.76-.9,1.23-.53s0,.94-.17,1.36c-1.09,2.06-2.76,3.71-3.94,5.71a.67.67,0,0,1-.81.33A.69.69,0,0,1,218.52,290.08Z"/><path class="cls-3" d="M97.73,214.61a1.61,1.61,0,0,1,.33,0c.54.08,1.38-.15,1.47.56s-.72.72-1.22.83a64,64,0,0,1-7.53,1.16c-.42.05-1,.15-1.06-.48s.45-.64.84-.69A46.47,46.47,0,0,0,97.73,214.61Z"/><path class="cls-3" d="M479.41,117.91c-2.16-3.66-2.47-7.93-3.79-11.86C477.65,109.75,479.54,113.49,479.41,117.91Z"/><path class="cls-3" d="M526.4,148.68a4.63,4.63,0,0,1,2.65-.13c3.19.4,6.39.81,9.58,1.25.44.06,1.18.1,1,.77s-.81.42-1.27.26a23.87,23.87,0,0,0-6.23-.85A17.55,17.55,0,0,1,526.4,148.68Z"/><path class="cls-3" d="M307.53,107.89c-.06-.48-.06-.76.23-.91a.68.68,0,0,1,.91.35c.57,1,1.12,2,1.63,3s.92,1.88,1.34,2.84c.19.43.59,1,0,1.33s-.85-.33-1.14-.7a19,19,0,0,1-2.29-4.32Z"/><path class="cls-3" d="M275.37,168.68a22.24,22.24,0,0,1-5.64-2.28.52.52,0,0,1-.26-.7.59.59,0,0,1,.67-.33,11.44,11.44,0,0,1,5.51,1.95c.33.23.65.55.48,1S275.63,168.67,275.37,168.68Z"/><path class="cls-3" d="M233.63,321a1.09,1.09,0,0,1,.46-.89c1.68-1.42,3.36-2.85,5.06-4.25a3.42,3.42,0,0,1,.95-.49c.24-.11.54-.18.73.08s0,.55-.2.71c-2,1.71-3.95,3.42-5.95,5.09A.63.63,0,0,1,233.63,321Z"/><path class="cls-3" d="M328.87,275.05c-.35-1.71.63-2.67,1.87-3.41.67-.4.81.28.71.69a12.39,12.39,0,0,0-.26,3.79c0,.34-.09.91-.52.75s-1.24.15-1.47-.64C329.08,275.84,329,275.45,328.87,275.05Z"/><path class="cls-3" d="M289.4,306.89a2.18,2.18,0,0,1,.18-.42,15.09,15.09,0,0,1,3.53-4.06c.32-.24.73-.53,1.09-.25s.06.77-.15,1.07a28.82,28.82,0,0,1-3.27,3.95,1,1,0,0,1-1.08.35C289.48,307.44,289.37,307.23,289.4,306.89Z"/><path class="cls-3" d="M337.47,134.61a2.56,2.56,0,0,1,0-.47c.11-.55-.1-1.41.65-1.45s.68.79.76,1.35a14.09,14.09,0,0,0,.93,3.84,1.45,1.45,0,0,1,.12,1.06c-.09.31-.18.67-.55.69s-.45-.26-.58-.51A17.49,17.49,0,0,1,337.47,134.61Z"/><path class="cls-3" d="M103.56,159.81c2,.4,4.18.85,6.4,1.33.4.09,1,.22.88.82s-.65.37-1,.29q-3.27-.65-6.54-1.33c-.37-.08-.88-.19-.85-.71S102.91,159.76,103.56,159.81Z"/><path class="cls-3" d="M135.37,245a1.23,1.23,0,0,1,.27,0c.59.07,1.47-.46,1.7.2s-.82.62-1.2,1a6,6,0,0,0-.58.73c-.42.59-1.17.92-1.62.55a3.13,3.13,0,0,0-2.08-.79.41.41,0,0,1-.43-.43c0-.26.23-.37.44-.46A10.14,10.14,0,0,1,135.37,245Z"/><path class="cls-3" d="M136,218.29a1.55,1.55,0,0,1,.38,0c.85.2,1.83.46,1.73,1.53s-1.16,1.05-2,1a5.62,5.62,0,0,1-2.59-1.32c-.49-.32-.28-.72.24-.83C134.43,218.54,135.14,218.44,136,218.29Z"/><path class="cls-3" d="M516.67,173.32a4.29,4.29,0,0,1,3.25.44,33.15,33.15,0,0,0,5.32,2.25c.25.05.57.13.56.48s-.28.34-.5.29A28.61,28.61,0,0,1,516.67,173.32Z"/><path class="cls-3" d="M172.24,291.61c2.18-.94,4-2.5,6.13-3.51.36-.18.81-.27,1.09.16a.57.57,0,0,1-.29.81,38.78,38.78,0,0,1-6.26,3c-.15.05-.33,0-.49-.08Z"/><path class="cls-3" d="M496,106.61c.19-1.29,0-2.7.58-4,.14-.33.33-.7.76-.64s.58.42.58.8a10.9,10.9,0,0,1-.69,4.16c-.15.34-.41.64-.83.52S496,107,496,106.61Z"/><path class="cls-3" d="M338.73,150.28c0,1.05,0,2.1-.09,3.14,0,.48-.19,1.11-.79,1.08s-.59-.7-.57-1.17c.05-1.36.13-2.72.22-4.08,0-.44,0-1.09.51-1.12s.46.66.55,1.07a7.74,7.74,0,0,1,.1,1.08Z"/><path class="cls-3" d="M456.88,113.69a52.31,52.31,0,0,1,6.45,6c.24.26.52.64.19,1s-.6,0-.82-.21A55.07,55.07,0,0,1,456.88,113.69Z"/><path class="cls-3" d="M215.62,297.16a5.79,5.79,0,0,1-1.43,3.4.66.66,0,0,1-.83.23.68.68,0,0,1-.33-.69,5.35,5.35,0,0,1,1.35-3.46.81.81,0,0,1,.83-.3C215.6,296.45,215.55,296.82,215.62,297.16Z"/><path class="cls-3" d="M173.16,288.48a.59.59,0,0,1,.34-.55,43.52,43.52,0,0,1,5.26-2.36c.21-.08.48-.13.62.07s-.06.52-.27.67a15.12,15.12,0,0,1-5.16,2.52A.64.64,0,0,1,173.16,288.48Z"/><path class="cls-3" d="M423.67,233.3a1.3,1.3,0,0,1,1.16,1.51,6.21,6.21,0,0,1-1.81,2.67c-.23.23-.77.29-.67-.15.26-1.19,0-2.5.67-3.6A.81.81,0,0,1,423.67,233.3Z"/><path class="cls-3" d="M508.34,124.55a47.38,47.38,0,0,1,5.37-8.77C512.23,118.9,510.74,122,508.34,124.55Z"/><path class="cls-3" d="M470,109.87a22.22,22.22,0,0,1,1.4-7.07c.12-.28.21-.69.6-.62s.36.51.3.79a40.16,40.16,0,0,1-1.93,6.56C470.29,109.67,470.11,109.76,470,109.87Z"/></g><g class="cls-4"><polygon class="cls-5" points="237.24 0 412.82 111.11 214 375 627.5 375 627.5 0 237.24 0"/></g><path d="M97,212H95.34l-8.83-24v30.31H83.76V180.68h2.86l9.47,26.11,9.59-26.11h3v37.69h-2.9V188.06Z"/><path d="M132.92,210.83c0,5.39-2.91,8-8.62,8h-.1c-5.71,0-8.62-2.53-8.62-8V188.22c0-5.17,2.91-8,8.62-8h.1c5.71,0,8.62,2.8,8.62,8v6.46H130v-5.49c0-4.42-1.56-6.25-5.76-6.25s-5.76,1.83-5.76,6.25v20.67c0,4.42,1.56,6.25,5.76,6.25s5.76-1.83,5.76-6.25v-6.4h2.91Z"/><path d="M142.5,180.68v17.18h12.11V180.68h2.91v37.69h-2.91V200.55H142.5v17.82h-2.91V180.68Z"/><path d="M97,258.32H95.34l-8.83-24v30.31H83.76V227h2.86l9.47,26.12L105.68,227h3v37.69h-2.9V234.36Z"/><path d="M129,258.32h-1.67l-8.83-24v30.31H115.8V227h2.85l9.48,26.12L137.71,227h3v37.69h-2.9V234.36Z"/><path d="M165.22,235V256.7c0,5.28-2.91,8-8.62,8h-8.77V227h8.77C162.31,227,165.22,229.68,165.22,235Zm-8.83-5.27h-5.66V262h5.66c4.25,0,5.92-1.78,5.92-6.24V235.92C162.31,231.45,160.64,229.68,156.39,229.68Z"/><path d="M172.11,264.67V227h14.8v2.7H175v14.53h10.22v2.69H175V262h12.06v2.69Z"/><polygon points="236.35 265.06 203.59 265.06 203.59 264.29 235.58 264.29 235.58 109.92 84.15 109.92 84.15 165.31 83.38 165.31 83.38 109.15 236.35 109.15 236.35 265.06"/><polygon points="237.5 266.21 202.44 266.21 202.44 263.13 234.42 263.13 234.42 111.08 85.3 111.08 85.3 166.46 82.23 166.46 82.23 108 237.5 108 237.5 266.21"/><path d="M266.35,212.74h-1.59l-5.84-16.28v20.81h-2.66v-27.8H259l6.52,18.39,6.59-18.39H275v27.8h-2.78V196.46Z"/><path d="M289.15,210.4H282.4L281,217.27h-2.78l5.87-27.8h3.42l6,27.8h-2.94Zm-.48-2.5-2.9-14.46-2.9,14.46Z"/><path d="M307.94,217.27l-4.25-11.72H299.6v11.72h-2.86v-27.8h6.71c4.21,0,6.51,1.9,6.51,5.88v4.32c0,2.91-1.23,4.69-3.53,5.45l4.49,12.15ZM299.6,203h3.69c2.66,0,3.81-1.11,3.81-4v-2.94c0-2.9-1.15-4-3.81-4H299.6Z"/><path d="M314.81,217.27v-27.8h2.86v27.8Z"/><path d="M332,210.4h-6.76l-1.39,6.87H321l5.88-27.8h3.42l6,27.8h-2.94Zm-.48-2.5-2.9-14.46-2.9,14.46Z"/><path d="M358.46,211.71c0,4-2.3,5.88-6.51,5.88h-.08c-4.21,0-6.52-1.79-6.52-5.88V195c0-3.9,2.31-5.88,6.52-5.88H352c4.21,0,6.51,2,6.51,5.88v4.84H355.6v-4.13c0-2.86-1.07-4-3.69-4s-3.7,1.15-3.7,4V211c0,2.86,1.08,4,3.7,4s3.69-1.15,3.69-4v-4.81h2.86Z"/><path d="M374.27,217.27,370,205.55h-4.09v11.72h-2.86v-27.8h6.71c4.21,0,6.52,1.9,6.52,5.88v4.32c0,2.91-1.24,4.69-3.54,5.45l4.49,12.15ZM365.93,203h3.69c2.66,0,3.82-1.11,3.82-4v-2.94c0-2.9-1.16-4-3.82-4h-3.69Z"/><path d="M387.1,189.15h.32c4.21,0,6.51,1.9,6.51,5.88v16.68c0,4-2.3,5.88-6.51,5.88h-.32c-4.21,0-6.52-1.91-6.52-5.88V195C380.58,191,382.89,189.15,387.1,189.15Zm.16,25.86c2.66,0,3.81-1.11,3.81-4V195.74c0-2.9-1.15-4-3.81-4s-3.82,1.11-3.82,4V211C383.44,213.9,384.6,215,387.26,215Z"/><path d="M398.7,217.27v-27.8h2.9l8.14,21.09V189.47h2.66v27.8h-2.74l-8.3-21.49v21.49Z"/><path d="M417.33,217.27v-27.8h11.24v2.58h-8.38v9.85h7.15v2.54h-7.15v10.25h8.5v2.58Z"/><path d="M441.87,189.47v12.35h7.83V189.47h2.86v27.8H449.7V204.44h-7.83v12.83H439v-27.8Z"/><path d="M464.67,217.27h-3.1l-5.76-27.8h2.94l4.45,23,4.45-23h2.78Z"/><path d="M473.85,217.27v-27.8h2.86v27.8Z"/><path d="M494.9,195.35v16c0,4-2.3,5.88-6.52,5.88h-6.63v-27.8h6.63C492.6,189.47,494.9,191.37,494.9,195.35Zm-6.67-3.3h-3.62v22.64h3.62c2.66,0,3.81-1.11,3.81-4V196.06C492,193.16,490.89,192.05,488.23,192.05Z"/><path d="M509.56,202.81c2.58.4,3.25,2.51,3.25,4.41v4.57c0,3.26-2.22,5.48-6.43,5.48h-6.72v-27.8h6.8c4.21,0,6.19,2.22,6.19,5.48v3.49C512.65,200.31,512,202.58,509.56,202.81Zm-7-1.19h3.86c2.22,0,3.41-.87,3.41-2.82v-3.22c0-2.38-1-3.57-3.41-3.57h-3.86Zm4,2.54h-4v10.57h4c2.46,0,3.41-1.19,3.41-3.57V207C510,205,508.76,204.16,506.54,204.16Z"/><path d="M517.18,217.27v-27.8h11.24v2.58H520v9.85h7.15v2.54H520v10.25h8.5v2.58Z"/><path d="M543.72,217.27l-4.26-11.72h-4.09v11.72h-2.86v-27.8h6.72c4.21,0,6.51,1.9,6.51,5.88v4.32c0,2.91-1.23,4.69-3.53,5.45l4.48,12.15ZM535.37,203h3.7c2.66,0,3.81-1.11,3.81-4v-2.94c0-2.9-1.15-4-3.81-4h-3.7Z"/><path d="M563.38,211.71c0,4-2.31,5.88-6.52,5.88h-.32c-4.21,0-6.51-1.79-6.51-5.88V195c0-3.9,2.3-5.88,6.51-5.88h.32c4.21,0,6.52,2,6.52,5.88v3.73h-2.86v-3c0-2.9-1.16-4-3.82-4s-3.81,1.11-3.81,4V211c0,2.9,1.15,4,3.81,4s3.82-1.11,3.82-4v-5.13h-4v-2.54h6.84Z"/><path d="M387.33,241h-.79l-4.19-11.36v14.37h-1.3V226.18h1.35l4.5,12.38,4.54-12.38h1.43v17.87h-1.38V229.68Z"/><path d="M404.36,240.48c0,2.55-1.33,3.78-4,3.78h-.11c-2.7,0-4-1.2-4-3.78v-14.3h1.38V240c0,2.12.69,3,2.71,3s2.7-.84,2.7-3V226.18h1.38Z"/><path d="M414.4,244.05h-6.72V226.18h1.38v16.59h5.34Z"/><path d="M422,227.45h-3.37v16.6h-1.37v-16.6h-3.37v-1.27H422Z"/><path d="M424.2,244.05V226.18h1.38v17.87Z"/><path d="M435.36,241h-.79l-4.19-11.36v14.37h-1.3V226.18h1.35l4.5,12.38,4.54-12.38h1.43v17.87h-1.38V229.68Z"/><path d="M444.27,244.05V226.18h7v1.27h-5.64v6.9h4.85v1.28h-4.85v7.14h5.72v1.28Z"/><path d="M462.32,230v10.31c0,2.5-1.37,3.78-4.08,3.78h-4.16V226.18h4.16C461,226.18,462.32,227.45,462.32,230Zm-4.18-2.51h-2.68v15.32h2.68c2,0,2.81-.84,2.81-3v-9.39C461,228.3,460.15,227.45,458.14,227.45Z"/><path d="M465.69,244.05V226.18h1.38v17.87Z"/><path d="M470.57,244.05V226.18h7v1.27H472v6.9h4.85v1.28H472v7.14h5.72v1.28Z"/><path d="M488.62,230v10.31c0,2.5-1.37,3.78-4.08,3.78h-4.16V226.18h4.16C487.25,226.18,488.62,227.45,488.62,230Zm-4.18-2.51h-2.68v15.32h2.68c2,0,2.81-.84,2.81-3v-9.39C487.25,228.3,486.45,227.45,484.44,227.45Z"/><path d="M491.89,244.05V226.18h7v1.27h-5.64v6.9h4.85v1.28h-4.85v7.14H499v1.28Z"/><path d="M507.83,232.36v-2.3c0-2-.72-2.84-2.63-2.84s-2.63.87-2.63,2.84v1.25c0,1.33.46,1.69,1.81,2.4l2.73,1.51a3.48,3.48,0,0,1,2.15,3v2.3c0,2.55-1.31,3.73-4,3.73h-.05c-2.71,0-4-1.15-4-3.73v-2.91h1.38v2.5c0,1.94.71,2.88,2.65,2.88s2.66-.94,2.66-2.88v-1.43c0-1.33-.54-1.79-1.89-2.55l-2.68-1.46c-1.48-.84-2.12-1.53-2.12-3v-2.07c0-2.45,1.53-3.68,4-3.68h.05c2.45,0,4,1.23,4,3.68v2.71Z"/><path d="M512.32,244.05V226.18h1.38v17.87Z"/><path d="M525.47,240.48c0,2.55-1.38,3.78-4.09,3.78h-.2c-2.71,0-4.09-1.2-4.09-3.78V229.75c0-2.45,1.38-3.78,4.09-3.78h.2c2.71,0,4.09,1.33,4.09,3.78v2.35h-1.38v-1.89c0-2.12-.79-3-2.81-3s-2.81.84-2.81,3V240c0,2.12.8,3,2.81,3s2.81-.84,2.81-3v-3.58h-2.91v-1.25h4.29Z"/><path d="M528.69,244.05V226.18h1.43l5.84,14.6v-14.6h1.33v17.87h-1.35L530,229.34v14.71Z"/><path d="M540.66,244.05V226.18h7v1.27H542v6.9h4.85v1.28H542v7.14h5.72v1.28Z"/><path d="M557.9,244.05,555,236.34h-3.11v7.71h-1.38V226.18h4.21c2.71,0,4.09,1.27,4.09,3.78v2.6c0,1.94-.82,3.14-2.45,3.58l3.06,7.91Zm-.51-11.92v-1.71c0-2.12-.79-3-2.81-3h-2.73v7.64h2.73C556.6,235.09,557.39,234.22,557.39,232.13Z"/><rect x="255.21" y="221.71" width="312.29" height="0.57"/></svg>
