<svg id="Lag_1" data-name="Lag 1" xmlns="http://www.w3.org/2000/svg" width="375" height="627" viewBox="0 0 375 627"><defs><style>.cls-1{fill:#fff;}.cls-2{opacity:0.29;}.cls-3{fill:#6bbab5;}.cls-4{opacity:0.67;}.cls-5{fill:#a8aaaf;}</style></defs><title>mobile_portrait</title><rect class="cls-1" x="0.5" y="-2" width="375" height="629"/><g class="cls-2"><path class="cls-3" d="M74.49,585.85a5,5,0,0,1,.65-1.53c5.49-9,10.64-18.28,15.66-27.6,2.73-5.07,5.5-10.13,8.5-15.05a4.82,4.82,0,0,0,.91-3.52,3.3,3.3,0,0,1,.59-1.93c3.44-7.59,6.91-15.16,10.29-22.78,1.55-3.52,3.11-7,4.94-10.41,1.94-3.57,2.88-7.62,4.67-11.26,3.92-8,7-16.33,11.31-24.13.3-.54.47-1.62,1.26-1.3.63.27,0,1.15-.06,1.76a6.3,6.3,0,0,1-1.34,3.25,4.42,4.42,0,0,0-.7,2.34,13.14,13.14,0,0,1-1.3,3.71c-3.25,7.77-7,15.32-10.63,22.9-4.26,8.86-8.24,17.85-12.34,26.78a3.69,3.69,0,0,0-.1.72A107.87,107.87,0,0,0,114,514c1.07-2.62,2-5.3,3.23-7.83a11.79,11.79,0,0,1,3.16-4.13,6.94,6.94,0,0,0,1.92-2.66c1.77-3.8,3.23-7.73,4.68-11.67,2.28-6.18,5.81-11.69,9.38-17.16a19.18,19.18,0,0,0,1.65-3.18c1.52-3.73,4.33-6.83,5.49-10.69,2.39-7.94,6.82-14.78,10.88-21.83a10.74,10.74,0,0,0,1.75-5.29c0-.75.1-1.58,1.28-1,.58.29.9-.21,1.1-.6a32.23,32.23,0,0,1,3.29-5,1.14,1.14,0,0,0,0-1.42c-.75-1.35-2-1.41-3.26-1.4s-1.41.9-1.68,1.76c-.12.36-.13.82-.61.88s-.77-.4-.92-.78a1.8,1.8,0,0,0-1.63-1.09,15.86,15.86,0,0,0-6.5.69c-.66.16-1.3.44-2,.56a1.83,1.83,0,0,1-2-.51,2.08,2.08,0,0,0-2.52-.73,2.35,2.35,0,0,0-1.33,2.89,5,5,0,0,1,.25,4.45c-.21.44.2.81.31,1.22a.81.81,0,0,1-.35,1c-.41.24-.59,0-.79-.37-.41-.68-.7-.06-.83.17-.67,1.18-2.06,2-1.7,3.69,0,.14-.11.32-.2.46-2.94,5-5.56,10.28-9.25,14.84-.25.31-.4.77-1,.72a2.74,2.74,0,0,1,.45-1.55c1-2.15,2-4.26,2.92-6.42.53-1.25,1-2.53.36-4-.35-.74.77-2.21,1.58-2.31.52-.07.45.27.46.56,0,.54-.39,1.07.11,1.77.65-.73.37-1.51.33-2.27a26.3,26.3,0,0,1,.17-2.63c-.51,1.07-1,1.35-1.72.53a.45.45,0,0,0-.7,0c-.82.93-2.06.74-3.07,1.14-.65.26-1,0-.94-.72,0-.44.08-.91-.43-1.12a1.13,1.13,0,0,0-1.16.39c-1.57,1.43-3.3,2.72-4.37,4.62a2.91,2.91,0,0,1-.84.94,8,8,0,0,0-2.8,3.74,5.32,5.32,0,0,1-1.78,2.28c-.75.58-1,.53-1.23-.46-.45-2.33.72-3.93,2.17-5.43s2-3.21.9-4.68a2.81,2.81,0,0,0-3.13-1.28c-2,.46-3.65,1.67-5.64,2.11-.49.11-.75.66-1,1.11a19.69,19.69,0,0,1-3.59,4.14c-.42.38-.92.76-1.46.2s-.13-1,.19-1.37c1.76-2.24,3.54-4.48,5.28-6.74.46-.61,1.36-1.38.59-2.1s-1.46.25-2,.75c-1,.89-1.59,2.2-2.91,2.82s-2.34.58-3.14-.4-.28-1.93.34-2.78a4.52,4.52,0,0,0,.4-.49c.33-.54.21-.85-.47-.7s-1.14-.13-1.54-.8a2.12,2.12,0,0,0-3.64,0c-1,1.75-2.45,1.78-3.64.08-.32-.47,0-.72.29-1a6.44,6.44,0,0,0,.92-.68c.38-.43.29-.83-.35-.87a2.83,2.83,0,0,0-2.26.73c-.54.55-1.13,1.05-1.62,1.64a21.8,21.8,0,0,1-6.58,5.38,9,9,0,0,0-1.51,1.17A2.14,2.14,0,1,1,77.08,432a3.63,3.63,0,0,0,1.66-2.46,15.79,15.79,0,0,1,1.81-3.8c.61-1.19.33-1.62-1-1.75a3.47,3.47,0,0,0-2.88,1.15c-2.49,2.5-5.15,4.85-7.41,7.58a7.2,7.2,0,0,1-1,1,1.75,1.75,0,0,1-2.28,0c-.75-.57-.48-1.39-.06-2,.74-1,1.72-1.91,2.39-3a15,15,0,0,0,2.44-4.88c.09-.45.29-1-.2-1.32s-.92-.07-1.34.13-.57.38-.87.54-.88.52-1.26,0,.08-.8.4-1.07a14.73,14.73,0,0,1,5.57-3,7.79,7.79,0,0,0,2.46-1.33,2.62,2.62,0,0,0,.19-3.52,5.38,5.38,0,0,0-4.24-1.95c-.65,0-1.29.09-1.94.12-1,0-1.74-.28-1.76-1.42s-.5-1-1.22-.63a4.65,4.65,0,0,1-1.44.53c-3,.35-5.6,1.71-8.26,3s-5.69,1.78-8.37,3.13c-.66.34-1.54.41-1.91-.46S47,415.31,47.6,415a22.71,22.71,0,0,1,5.27-1.59A29,29,0,0,0,62.08,409a16.72,16.72,0,0,1,9.75-2.74,4.69,4.69,0,0,0,4.58-2.44,1.11,1.11,0,0,1,.31-.4c2.33-1.5,2.37-4.07,2.76-6.41a6.19,6.19,0,0,1,5.18-5.35,11.56,11.56,0,0,1,8.51,1.08c1.62.91,1.8.7,2.27-1,.21-.74.5-1.46.68-2.21a2.66,2.66,0,0,0-1.35-3.09,8.25,8.25,0,0,1-4.16-5.28,14.73,14.73,0,0,0-2.35-4.64,6.71,6.71,0,0,1-1.06-2.08c-.3-1.15-.94-1.23-1.83-.74l-.57.3c-.31.14-.68.37-.89-.06s.19-.55.45-.67a21.59,21.59,0,0,1,2.44-1.13A3.59,3.59,0,0,0,89,370a24.9,24.9,0,0,1,3-5.22,2.56,2.56,0,0,0,.53-2.28,2,2,0,0,1,.74-2,50.83,50.83,0,0,1,8.1-6.2,1.36,1.36,0,0,1,1.87.34,5.31,5.31,0,0,1,1.65,3.58c0,.67.06,1.34.1,2.29a6.79,6.79,0,0,1,3.06-1.51c.7-.26.85-.72,1.1-1.43.41-1.15.44-2.38.94-3.49.59-1.31.41-1.64-1-1.72a54.89,54.89,0,0,0-11.46.62c-1.66.27-2.69,1.46-3.83,2.44-1.6,1.37-3.53,2.22-5.21,3.46a1.24,1.24,0,0,1-1.92-.37,1.55,1.55,0,0,1,.46-2.18,18.2,18.2,0,0,1,5-2.46,6.72,6.72,0,0,0,2.56-1.35,9.73,9.73,0,0,1,6.43-2.19c1.71-.07,3.41-.06,5-1a6.68,6.68,0,0,0,2.68-4.05c.18-.56,0-1.12-.71-1.09-1.44.07-2.89-.22-4.31.44-1.08.49-1.21,1-.73,1.95.3.62,1.14,1.22.44,2s-1.51.46-2.31.22c-1-.29-1.92-.56-2.86-.91a1.48,1.48,0,0,1-1.15-1.68c.14-.82.29-1.75,1.36-2a11.37,11.37,0,0,0,2.91-1c2.1-1,4.4-1.07,6.68-1.18a5.14,5.14,0,0,0,2.13-.39c.51-.27,1.28-.4,1.16-1.17s-.86-.86-1.53-.88c-.86,0-1.73,0-2.58-.13s-1.64-.16-1.58-1.17c0-.84.85-.94,1.56-1a7.42,7.42,0,0,1,2.56.28c.72.15,1.44.32,2.17.43a4.51,4.51,0,0,0,4.64-2.39c.39-.78-.51-2-1.77-2.24-.84-.18-1.71-.22-2.57-.32a6.81,6.81,0,0,1-2.37-.69c-.46-.24-1.07-.5-1-1.1s.87-.55,1.41-.57a1.74,1.74,0,0,1,.64.08c3.45,1.21,7.08,1.68,10.59,2.64a30,30,0,0,1,4.74,1.84,8,8,0,0,0,2.6.81c.39,0,.84.07.95-.42s-.28-.7-.63-.87a3.2,3.2,0,0,0-2-.43c-1.58.32-2.81-.4-4.11-1.2a7.78,7.78,0,0,1-3.42-4.16c-.09-.27-.2-.51,0-.69a1.37,1.37,0,0,1,1.57-.2,3.83,3.83,0,0,1,1.74,1.9,2.76,2.76,0,0,0,2,1.67c2.39.67,4.85.89,7.28,1.35a5.82,5.82,0,0,1,1.38.35c.59.25,1,.69.35,1.24s-.22.66.18.92a1.88,1.88,0,0,0,1.48.32,23.7,23.7,0,0,0,4.6-1.51c-1.93-.82-3.85-.47-5.6-1.2.44-.6.89-.33,1.28-.28,1.11.15,2.23.31,3.33.53a2,2,0,0,0,2.35-.89c.51-.88.86-.56,1.26.08a13,13,0,0,0,.77,1.06,1.66,1.66,0,0,0,2.18.55c1-.5,1-1-.1-1.79,1.34-.45,2.46-1.16,3.94-.43.6.3,1.44.08,2.16.15,1.19.13.69-.93,1-1.39.46-.64,1.35.75,1.77-.27.83-2.05,1.77-4.12-.84-5.82-.28.71-1,.73-1.78,1-2.32.83-4.91,1-6.94,2.56a3.11,3.11,0,0,1-1.06.43.76.76,0,0,1-.89-.38c-.21-.38,0-.66.27-.88a6,6,0,0,1,.73-.51,45.23,45.23,0,0,0,5.17-2.79,5.37,5.37,0,0,1,3.26-.56c.32,0,.75.07.84-.39s0-1-.35-1a1.1,1.1,0,0,1-.92-1.38c.14-.79,1-.64,1.6-.74a1.74,1.74,0,0,0,.27-.17c-.34-.61-1-1-1-1.88,0-.44-.53-.52-.89-.63-.92-.27-1.84-.5-2.76-.75-.26-.06-.54-.16-.53-.48s.34-.38.58-.35a9,9,0,0,0,4.52-.7c1.09-.42,1.5.07,1.32,1.28,0,.23,0,.45.17.57.58.35,1,.67.06,1.07-.06,0-.1.24-.06.34s.45.38.51.28c.63-.91,1.29,1.29,1.88,0a2.36,2.36,0,0,0,0-2.47c-1.14-1.64-2.08-3.43-3.36-5a15.51,15.51,0,0,0-5.72-4.46c-.56-.25-1.61-.2-1.44-1.51.06-.42-1.25-.91-2-.89a10.44,10.44,0,0,1-5.68-1.41,62.46,62.46,0,0,0-13.3-5.64c-2.57-.8-5.11-1.71-7.65-2.59-.39-.14-1.05-.26-.92-.75s.81-.29,1.24-.17c2.49.73,5.07,1.17,7.4,2.44a24.88,24.88,0,0,0,5.47,1.67c3.33.89,6.39,2.51,9.56,3.82a5.81,5.81,0,0,0,5.22-.07,9.75,9.75,0,0,1,4.56-.64c.53,0,1.16.15,1.4-.58s-.17-1.16-.64-1.58a14.73,14.73,0,0,0-5-2.79c-2.67-.94-5.18-2.27-7.82-3.26-.41-.16-1.13-.28-.92-.88s.9-.34,1.35-.16c4,1.69,8,3.4,12,5.1.8.34,1.6.7,2.41,1,.53.21,1.13.44,1.5-.19s.67-1.47,0-2c-1.46-1.29-2.68-3.05-5-2.86-.71.06-1.3-.33-.76-1.11.77-1.12,0-1.66-.76-2.19-1.64-1.08-3.29-2.13-4.94-3.2a5.67,5.67,0,0,1-.66-.42c-.27-.22-.61-.47-.39-.86s.63-.22.91-.05a25.72,25.72,0,0,1,2.9,1.76,91,91,0,0,0,8.68,5.34c1.23.75,2.39,0,3.41-.45.85-.42.37-1.39.19-2.12a4.07,4.07,0,0,1,.28-3.6,2.14,2.14,0,0,0,0-2c-.87-2.58-2-5-4.35-6.66a5,5,0,0,1-2.27-3.22c-.27-1.44-1.34-2.53-2.24-3.64a32.57,32.57,0,0,1-3.3-4.87,36.83,36.83,0,0,0-3.35-5.14,3.59,3.59,0,0,1-.87-2,1,1,0,0,1,.41-1,.92.92,0,0,1,1.08.2,4,4,0,0,1,1.09,1.29,27.25,27.25,0,0,0,5.51,8c.06.05.14.13.14.21.1,2.72,2.32,4.19,3.82,6a18.87,18.87,0,0,0,7.88,5.87,11.44,11.44,0,0,1,5.4,4.2,16.8,16.8,0,0,0,1.86,2c.23.24.46.66.84.47a.89.89,0,0,0,.35-1.13,5,5,0,0,0-.56-1.16q-1.68-2.73-3.38-5.44c-.3-.49-.73-1.05-.1-1.48s1,.21,1.27.58a52.62,52.62,0,0,0,4.48,5.29c.85.84.39,2.05,1.07,2.9-1.67.66-.23,1.84-.38,2.76,0,.28-.49.64.07.86a.92.92,0,0,0,1.08-.17,1.76,1.76,0,0,1,1.88-.52,1.68,1.68,0,0,0,2.15-1.12c.15-.35.35-.68.53-1,1-1.78,1-1.78,2.9-1.41.26-.3-.12-.65.05-1a1.06,1.06,0,0,1,1.43-.5c.68.27.55.83.27,1.3-.43.76-1.28.95-2,1.33-.41.22-1,.34-1,.92s.61.68,1.07.75a1.33,1.33,0,0,1,.88.49c.2.27.55.44.79.22,1.34-1.29,3.33-1.26,4.79-2.34a8.26,8.26,0,0,0,3.05-3.52,9.73,9.73,0,0,1,1.09-2.16,1.81,1.81,0,0,0-.35-2.81,5.4,5.4,0,0,0-3.2-1.58c-.44,0-2.44-2.11-2.37-2.58.12-.78-.37-1.07-.88-1.42a38.86,38.86,0,0,0-4.72-2.52c-.59-.29-1.28-.55-1.55-1.3.62-.35,1.07.05,1.49.28,3.64,1.95,7.54,3.42,10.92,5.88.77.57,1.24.53,1.25-.59a20.13,20.13,0,0,0-.37-4.77c-.11-.46-.52-1.15.17-1.34s.55.62.77,1c.87,1.51,1,3.27,1.8,4.81a1.74,1.74,0,0,0,2.15,1c.48-.09.93-.27,1-.84s-.37-.74-.76-.94a3.79,3.79,0,0,1-.34-.2c-.31-.24-1-.32-.75-.88s.73-.33,1.15-.34.93.38,1.14-.19-.19-.81-.46-1.16c-.45-.59-.92-1.16-1.37-1.75-.16-.21-.3-.47-.05-.68a.52.52,0,0,1,.61,0,9.21,9.21,0,0,1,2,1.62,1.14,1.14,0,0,0,1.88,0c.6-.6.11-1.18-.42-1.64s-1.29-1-1.92-1.57c-.19-.16-.45-.37-.33-.65s.49-.22.78-.15.5.15.75.2a.51.51,0,0,0,.58-.17c.13-.23-.07-.4-.2-.57-.35-.46-.93-.75-1.14-1.5a6,6,0,0,1,2.92,1.53,2,2,0,0,0,2.67-.13c.58-.46.81-.89,0-1.38a2.65,2.65,0,0,1-.86-.77,1.16,1.16,0,0,1,.16-1.64,1.09,1.09,0,0,1,1.53,0c.51.4,1,.78,1.55,1.19s.74.15.74-.4a2,2,0,0,0-.37-1.23c-.44-.59-.93-1.15-1.32-1.78s-1.17-1-.54-1.65a1.86,1.86,0,0,1,2.56-.37c.33.22.64.46,1,.68.78.5,1.48.86,1.83-.44.19-.67.82-.83,1.45-.84,1.09,0,1.8-.43,1.94-1.61a1.57,1.57,0,0,1,1.1-1.29,2.23,2.23,0,0,0,1.52-3.08c-.08-.25-.21-.54.06-.69.5-.28.71.36,1.21.48a4.63,4.63,0,0,1,1-3.05c.18-.18.3-.47.51-.55,1.62-.64,2.3-1.68,1.41-3.37.44-.25.67,0,.91.16.65.48,1,.18,1.34-.39s.68-1.38,1.1-2,.64-1.33-.14-2-.34-1,.43-1.21c1.24-.32,1.45-.75,1-1.92-.56-1.5-.42-1.72,1.08-1.86a5.39,5.39,0,0,0,1.24-.32c1.23-.44,1.28-.67.43-1.69-.2-.24-.71-.46-.44-.81s.71,0,1,.15.67.41,1,.6.76.35,1.05,0a.75.75,0,0,0-.18-1.05c-.69-.61-1.42-1.16-2.1-1.77-.27-.24-.79-.51-.54-.91s.81-.13,1.13.1c.63.45,1.18,1,1.81,1.5.32.24.69.75,1.11.46s.21-.86.05-1.32c-.05-.15-.08-.32-.15-.56.72-.18,1,.4,1.45.69.24.17.54.43.79.12s0-.59-.25-.78a3.52,3.52,0,0,0-.86-.58c-.42-.19-.86-.36-.56-.92s.71-.4,1.14-.24.61.51,1.15.47a3.63,3.63,0,0,1,1-3.48c.3-.29.15-.56-.09-.77s-.58-.38-.87-.58-1.1-.5-.69-1.14.94-.25,1.39,0,1,.92,1.61.45.47-1.15.47-1.8a4.78,4.78,0,0,0-.65-2.1c-.19-.39-.41-.83,0-1.17s.72,0,1.06.21.76,1,1.24.38,0-1.22-.61-1.6a2.58,2.58,0,0,1-.54-.37c-.28-.26-.66-.57-.31-1s.64-.13.94.06c.69.46,1.35,1,2.06,1.38s1.24.29,1.36-.65.87-2,0-3.17c-.39-.5.15-.83.75-.67.41.1.73.49,1.2.4.28-.43-.5-1,.1-1.29s1,.39,1.65.64c-.08-.79-.29-1.59,1-1.33.62.12.53-.74.41-1.24a11.74,11.74,0,0,1-.46-3.27c.41-.05.45.21.56.38.25.38.32,1,1,.85s.5-.81.48-1.31a4,4,0,0,0-.74-1.79c-.52-.87-.22-1.27.72-1.37,1.85-.2,1.76-.19,1.44-2-.42-2.4-2.3-3.84-3.57-5.68-.12-.18-.29-.33-.43-.5s-.43-.54-.21-.81.55-.08.8.11l2.05,1.55c-1-2.08-.76-4-1.41-5.85a1.37,1.37,0,0,1,1.14-2c.47-.1.49-.55.61-.9a7.7,7.7,0,0,1,1.49-2.95,3,3,0,0,1,3.55-1,3.17,3.17,0,0,0,1.39.24,1.27,1.27,0,0,0,1.36-1.6c-.09-.68-.23-1.36-.38-2-.09-.4-.05-.7.4-.78s.53.25.59.55c.15.67.26,1.36.39,2,.08.39.17.79.63.91a.48.48,0,0,0,.56-.22c.22-.46-.32-.54-.47-.81a1.1,1.1,0,0,1-.25-.75c.48-.25.81.41,1.35.24-.21-.67.17-1.37,0-2-.44-1.78-.67-3.58-1-5.38a1,1,0,0,0-.74-.86c-1.51-.14-1.12-.86-.62-1.67a1,1,0,0,0,.1-.49c0-.51-.18-1.11.43-1.36s1,.24,1.46.61c1.81,1.56,2.17,1.53,3.51-.36,0,0,.06-.06.07-.1.15-.66,1.41-.63,1-1.53-.27-.64-1-.93-1.57-1.36L262.86,163c-.45-.35-.27-.33-.2-1.1a6,6,0,0,0-.6-2.08c-.33-1-.72-2-1-3-.14-.44-.26-1,.25-1.28s.76.28,1,.6a16.69,16.69,0,0,1,3.63,6.72,3.87,3.87,0,0,0,1.75,2.17.57.57,0,0,0,.89-.15c.47-.6,1.06-1.11,1.51-1.73s.67-1.56,1.82-.77c.37.25,1.35-1.26,1.21-1.95-.18-.93-.43-1.85-.63-2.78a4,4,0,0,1-.14-1.14c.06-.56.19-1.2.84-1.3s.75.53,1,.93a10.07,10.07,0,0,1,1.23,4c0,.33,0,.79.35.92s.66-.32.9-.59c.75-.81.48-1.8.23-2.7a21.81,21.81,0,0,1-1.27-4.48c-.06-.87-.47-2.31.46-2.37,1.09-.08,1,1.41,1,2.28,0,1.87,1,3.4,1.7,5,.38.83,1,.69,1.64.4.77-.36,1.14-.23,1.34.68.28,1.24.88,1.4,1.79.58.29-.25.54-.55.84-.78.89-.69,1.36-.56,1.63.54s.77,2,2.21,1.76c.59-.1,1,.43,1.39.86.65.74,1.11.63,1.58-.17.63-1.07,1.33-2.09,2-3.12,0,0,.07,0,.24-.06a3.58,3.58,0,0,1-.89,2.65c-.89,1.18-.11,2.41-.2,3.6,0,.62.63,1.13,1.25.43,1-1.09,2.09-.64,3.21-.35.34.08.69.22.67.67a.73.73,0,0,1-.65.69c-.51.11-1,.16-1.53.26-.34.07-.7.22-.63.66s.38.46.69.49c.92.07,1.46.34.91,1.38-.2.37,0,.67.39.83s.65.25,1,.36c2,.65,2,.82,1.21,2.62a2.59,2.59,0,0,0-.16,2c.27.73.69,1.2,1.58.76,2.85-1.39,6-1.77,9-2.65.46-.13,1-.23,1.22.37s-.42.79-.89.95c-2.32.82-4.77,1.3-6.94,2.54a2.27,2.27,0,0,0-1.25,1.92c-.25,2.35-.29,2.35-2.62,2.44a3,3,0,0,0-.49.1,6.66,6.66,0,0,0,5.84,3.6,4.07,4.07,0,0,1,2.62.47,4,4,0,0,0,3,.51c1.29-.31,2.55.18,3.83.17.22,0,.45.08.45.36s-.27.39-.53.44c-1.43.24-2.86.49-4.29.84a32.18,32.18,0,0,0,5.09.22,4.79,4.79,0,0,1,.65,0c.39.07,1.06-.12,1.06.43s-.68.35-1.07.37c-2.54.11-5.08.18-7.62.29-.93,0-1.84.14-2.08,1.3a1.74,1.74,0,0,0,1.09,2.21c.62.27.47.61-.05.89a5.71,5.71,0,0,0-1.68,1.15,1.11,1.11,0,0,0-.34,1.16c.57,1.82.37,2.16-1.38,2.41a.7.7,0,0,0,.43.74c2.2,1.21,2.26,3.89,3.91,5.49.5.49.09,1-.4,1.24a11,11,0,0,0-1.91,1.68,5,5,0,0,1-.44.47c-.43.33.75.94-.14,1.11a6.74,6.74,0,0,1-2.93.24c-.78-.19-1.56-.34-2.33-.5-.2.6.69.87.25,1.37-.07.08-.33.05-.47,0-.52-.21-1-.64-.92-1.16a3.55,3.55,0,0,0-1-2.56,3.5,3.5,0,0,1-.27-3.47c.41-1,.68-2-.78-2.64.08,1-1.23,1.85-.38,3.09a.4.4,0,0,1-.2.55.56.56,0,0,1-.79-.23c-.35-1.05-1.23-1.2-2.1-1.47a2.2,2.2,0,0,1-1.15-.82c-.28-.4-.57-.66-1.08-.44a1.06,1.06,0,0,0-.68,1.12,2.42,2.42,0,0,0,.16.89c1,2,1.39,4.21,2.72,6,.28.38.73.89.16,1.22s-1-.24-1.15-.72c-.64-1.88-2-3.37-2.82-5.14-.63-1.34-.76-1.29-1.72-.22-.12.13-.24.24-.46.16-.3-.35-.05-.71,0-1.07s.43-.54,0-.78a.68.68,0,0,0-.84.14c-.5.55-1.47,1-.45,2,.5.47.13.74-.23,1s-.64.4-.44.82.66.25,1,.2a3.7,3.7,0,0,1,2.11,0c0,.51-.36.5-.63.58s-.83.22-1.22.38c-.61.24-1.24.57-1.33,1.26s.85.58,1.26,1.06c-.63.76-1.8.39-2.5,1.11.35.5.91.47,1.38.62s.78.11.78.54-.49.39-.8.38a2.76,2.76,0,0,0-2.13,1c-.67.63-.54,1.12.26,1.46s1.8.66,2.69,1c.35.14.81.13.94.59.05.2-.14.31-.31.34-.43.07-.77.6-1.29.12a7.88,7.88,0,0,0-2.59-1.21c-.42-.17-1-.41-1.21.23s.21.89.66,1.13c1,.52,1.93,1,2.88,1.53.31.17.69.37.5.78s-.53.2-.81.14c-1-.22-2-.54-3-.68s-1.33.13-.83,1.12c.1.2.23.39.1.6a.53.53,0,0,1-.69.16c-1.1-.39-1.55-.12-1.32,1.12.11.6-.45,1-.84,1.36a14.32,14.32,0,0,0-1.34,1.36c-.4.53-.77.73-1.4.35-.41-.24-.93-.31-1,.26s.48.48.83.57.67,0,.78.37-.24.62-.52.78c-.55.32-1.13.59-1.71.86s-.86.36-.15.83c.93.61.23.82-.26,1.11s-1.43.27-1.28,1,1,.28,1.51.4.94,0,1.3.38a.51.51,0,0,1-.72.41c-1.22-.41-2,.44-3,.87-.65.31-.71.85,0,1.24.58.29,1.2.51,1.79.8.3.14.73.3.55.73s-.53.14-.81.07c-.8-.19-1.59-.42-2.39-.6-.28-.06-.68-.11-.79.23s.26.51.52.62c.88.37,1.77.73,2.66,1.06a1.72,1.72,0,0,0,1.7-.35,11.2,11.2,0,0,1,3.16-1.6c1.23-.42,1.47-1.08,1-2.34-.12-.33-.31-.69.08-.92s.7.07.86.36c.37.67.81.75,1.35.29.72-.6,1.58.15,2.37-.23a2.28,2.28,0,0,0,1-.58,2.77,2.77,0,0,1,4.49,1,1.81,1.81,0,0,1-.73,2.25c-.9.7-1.49,1.42-.47,2.55.23.25.21.73.31,1.11,0,.21.07.6.13.61,1.69.19,1,2,1.94,2.74a.65.65,0,0,1,.07.93c-.13.21-.32.51-.25.69.8,2.12-.7,3.21-1.85,4.45-1.32,1.42-3,1.37-4.82,1.32-2.27-.06-3.1-1.52-4.09-3-.59-.91-3-2-4-1.71s-.55.81-.21,1.31c.49.74,1.47.88,2.07,1.53-.38.53-.75.19-1.05,0a2.28,2.28,0,0,0-2.63.4,5.57,5.57,0,0,1-.89.73c-1.34.69-2.19,1.55-1.38,3.22a.62.62,0,0,1-.27.89c-.23.1-.4-.06-.57-.21-1.4-1.25-2.46-.83-3.8.4-1.57,1.42-1.66,3.21-2.08,5-.07.28-.07.62-.53.75-.39-.5-.15-1.05-.09-1.55s-.09-1.1-.62-1.08c-1.14,0-2.38-.47-3.39.36-.36.29-.57.12-1,.06-2.21-.38-2.85-2.18-3.72-3.8-.1-.17-.21-.39-.5-.34-.34.5.13.78.35,1.11.89,1.36.74,2.16-.6,2.9-.59.32-.69.71-.25,1.24a4.9,4.9,0,0,0,2,1.61,13.58,13.58,0,0,1,2.74,1.52c.33.23.94.51.62.94s-.77-.08-1.1-.31a12.83,12.83,0,0,0-3.67-1.95c-.92-.29-1.46-.19-1.71.84a6.27,6.27,0,0,1-1.44,2.42c-1.28,1.5-.65,3.12-.49,4.61.08.82,1.24.54,1.81.05a8.58,8.58,0,0,1,3.06-1.54,2,2,0,0,1,2.31.68,2.34,2.34,0,0,1,.69,2.59A10.11,10.11,0,0,1,256,272.3a17,17,0,0,0-3.28,5.58,8.06,8.06,0,0,0,.49,5.43,3.33,3.33,0,0,1,0,2.61,14.6,14.6,0,0,0-.66,5.47,3.47,3.47,0,0,1-5,3.27c-3.22-1.38-5.18-.46-5.95,2.87-.22,1-1.12,1.22-1.66,1.84-.16.18-.59.27-.6.43-.07,1.6-1.26,2.63-1.83,3.95a37.57,37.57,0,0,0-1.5,5.18c-.12.41-.27.87.16,1.2a1.09,1.09,0,0,0,1.22-.06,6.21,6.21,0,0,0,2-1.94c.31-.4.68-1,1.21-.64.68.46.06,1-.23,1.42-1.39,1.89-2.94,3.67-3.44,6.07-.12.55-.38,1.13.1,1.59s.88,0,1.31-.16c.64-.17,1.36-.32,1.78.32s-.1,1.17-.54,1.55c-1.45,1.26-1.22,2.94-.79,4.44a4.42,4.42,0,0,1-.27,3.45c-.26.5-.73,1.31-.2,1.64s.93-.53,1.29-.95a16.66,16.66,0,0,0,2.75-4.44,11.89,11.89,0,0,1,2.5-3.18c.14-.16.37-.21.73,0-1.44,2.37-1.4,5.23-2.38,7.78a2.34,2.34,0,0,0,0,1.65,2.08,2.08,0,0,1-.08,1.39c-.17.49-.85,1-.28,1.5.84.72,1.29,2,2.51,2.12,1,.08,1.1-1.3.95-1.57-.63-1.16.15-2.13.51-2.8a9.29,9.29,0,0,1,6.89-5.22,15.81,15.81,0,0,1,2.17-.23,1.64,1.64,0,0,0,1.57-1c1.43-2.82,1.46-2.81-1.22-4.76-.73-.54-1.64-.9-1.29-2.11.11-.41-.16-.68-.63-.43s-.87.24-.94-.38c-.15-1.3-.76-1.33-1.56-.63-.43-.35-.17-.54,0-.74a1,1,0,0,0-.58-1.66c-.74-.31-.73-.88-.84-1.57-.27-1.54.66-2.92.32-4.48-.12-.59.55-1.3.91-1.71,1-1.18,2.16-2.32,3.21-3.51.37-.43,1.14-.17,1.4-.44.9-.94,1.8-.8,2.89-.42.68.24.69-.57,1.11-1.19,0,1.43.85,1.66,1.83,1.95,1.19.35,1.6,1.74,2.66,2.37.58.35.94.8,1-.29a.72.72,0,0,1,1.09-.68c.6.27.41.75.16,1.2s-.34.85-.88,1c.39.38.75.16,1.08.22s.64.05.8.35-.16.55-.4.68a.71.71,0,0,0-.09,1.28c1,.79.72,2,1.19,2.91.17.33-.09.46-.35.55s-.56.19-.39.5a.9.9,0,0,0,.66.35c.82.05,1.63,0,2.45,0,1.52,0,2.52.92,3.72,1.79,2,1.45,2.33,3.44,2.84,5.47a1.36,1.36,0,0,0,1.59,1.17,5.69,5.69,0,0,1,2.56.19c.5.2,1.23.25,1.11,1s-.81.17-1.18.4c.58,1.08.58,1.08-1.91,1.47.89,1,2.24,1.12,3.19,2.07-.66.34-1.07-.08-1.5-.25-1.62-.66-3.17-.87-4.47.52a.66.66,0,0,1-.77.23,11.54,11.54,0,0,0-4.34-.25,3,3,0,0,1-1.89-.37c-1-.61-2.19-.41-3.22-.89-.56-.26-.91.15-1.13.73a5.76,5.76,0,0,0-.18,4,2.9,2.9,0,0,1,.1,2c-.07.19-.15.46-.42.39a.73.73,0,0,1-.33-.36c-.18-.4-.31-.82-.5-1.21a1.62,1.62,0,0,0-2.71-.72,3.39,3.39,0,0,0-1.09,1.24,11.39,11.39,0,0,1-2.26,3.46c-1.3,1.37-2.78,2.95-5.09,2.53-1-.18-1.72.35-2.56.55-1,.26-1.87-.48-2.86-.32-.38.06-.41.1-.52.45a6.79,6.79,0,0,0,1.42,6.3c.65.87,1.42,1.65,2.13,2.48.19.23.44.57.17.8s-.61-.07-.83-.34a8.36,8.36,0,0,0-1.17-1.39c-.68-.52-1-1.72-2.43-.88-.74.44-1.71.42-2,1.47-.08.27-.14.61-.6.43-1.4-.56-1.43.54-1.66,1.37-.11.38.14,1.06-.45,1s-.5-.71-.56-1.16,0-.7-.07-1c-.12-.59-.27-1.47-.94-1.34s-1.49,0-1.8,1c-.58,1.91-.4,2.69,1.38,4.14.32.27.83.43.72,1s-.59.56-1,.7c-2.56.9-3.42,3.09-2.33,5.62a23.74,23.74,0,0,1,1.72,6.77c.06.45.13,1.11-.44,1.2s-.58-.57-.71-.95c-.58-1.64-1.12-3.3-1.7-4.94-.19-.55-.3-1.32-1.1-1.23s-1,.76-1.07,1.43a45,45,0,0,1-.93,6.64,2.64,2.64,0,0,1-.18.87c-1.44,2.16.19,3.47,1.43,4.88,1,1.16,2.29,2.13,3,3.75-.91.08-1.39-.58-2-.85-.31-.14-.62-.45-.94-.13s-.08.67.13.94c1.41,1.79,3.38,2.75,5.57,3.93-.35-1.46-1.63-1.82-2-2.82.32-.4.56-.09.77.08a58.45,58.45,0,0,1,7.61,7.56,2.45,2.45,0,0,0,1.17,1,4.66,4.66,0,0,1,2.89,2.65c1,1.81,1,3.37-.12,4.56a4.88,4.88,0,0,1-5.14,1c-3.74-1.69-4.29-5.42-1.09-7.87.78-.59.82-1,.24-1.75-.72-.95-1.26-2-2.73-1.7-.29.06-.7-.31-1-.53-4.38-2.94-8.87-5.71-13-9-1.35-1.07-2-.74-2.14.95a3.66,3.66,0,0,0,1,2.61c1,1.35,2.15,2.64,3.19,4a3.58,3.58,0,0,0,2.86,1.53,4.92,4.92,0,0,1,3.57,1.67,4.41,4.41,0,0,1,.43,5.29,4.28,4.28,0,0,1-5.21,1.33c-2.73-1.28-3.63-3.6-2.38-6.3a1.83,1.83,0,0,0-.19-2.14c-2.05-2.66-4-5.37-6-8.06a1.8,1.8,0,0,0-1-.8,11.53,11.53,0,0,1-2.86-1.24c-.92-.45-1.62-.46-2.15.72a5.77,5.77,0,0,1-3.34,2.81,1.69,1.69,0,0,1-1.48-.29c-.58-.31-1.14-.7-1.78-.17a2,2,0,0,0-.72,2.07c.26,1,.59,2,.88,3a9.23,9.23,0,0,1-1.61,8.48c-1.38,1.86-3.29,3.27-4.49,5.36a10.44,10.44,0,0,1-3,2.87c-1.34,1-4.08.15-4.89-1.37-.27-.5-.43-1-.71-1.55-.91-1.65-2.7-1.91-3.87-.51a24.19,24.19,0,0,0-5,8.57c-.34,1.15-1.28,2.17-.77,3.54a.4.4,0,0,1-.41.53c-.88-.15-1.22.52-1.62,1-1.61,2.06-3.62,3.82-4.42,6.49a3.79,3.79,0,0,1-2.81,2.57c-1.31.35-2,1.56-2.74,2.57-1.57,2.09-1.54,2.25,1,3.14,6.11,2.14,12.18,2.48,18.18-.08,1.64-.71,3.4-1.15,5.09-1.78,1.33-.5,2.62-1.05,2.58-2.88,0-.78.77-1.05,1.37-1.38a6.62,6.62,0,0,0,3.76-5.9,3.1,3.1,0,0,1,.45-1.59c.47-.76,1.05-1.46.57-2.48-.2-.43.26-.67.53-.94.79-.81,1.79-1.42,2.06-2.68.15-.65.87-.66,1.42-.6,1.77.18,3.51-.17,5.29-.1,2.57.1,4.51-1.4,6.44-2.84.38-.29.66-.81,1.33-.65-.33,1.19-1.42,1.67-2.18,2.44-1.12,1.15-1.14,1.79-.15,3.14a37.93,37.93,0,0,1,2.29,3.34c1.06,1.81,2.93,2.22,4.65,2.88a2.85,2.85,0,0,1,1.84,1.53c.11.27.35.58,0,.82s-.48-.09-.67-.25a7.18,7.18,0,0,0-4.51-1.74c-1.11-.05-1.24.33-.87,1.17s.45,1.6-.83,1.66c-.2,0-.43.27-.55.47-1,1.55-2.35,2.83-2.87,4.66a.77.77,0,0,1-1.21.52c-.45-.23-.91-.25-1.15.17-1.51,2.6-4.44,3.66-6.3,5.9-1,1.19-1.84,2.32-1.69,4,0,.5.07,1.18-.62,1.23s-1.05-.56-1.16-1.19a5.49,5.49,0,0,1,1-3.63c.24-.44,1.1-1.05.26-1.47a2,2,0,0,0-2.5.2,2.33,2.33,0,0,1-1.51,1,1.65,1.65,0,0,0-1.33,1.68c-.13,1.4-.89,1.93-2.24,1.81a5.08,5.08,0,0,0-4.84,2c-.41.54-.65,1-.23,1.6a1.65,1.65,0,0,1,.24.6c.11.57.55,1.42-.12,1.61s-.65-.78-.79-1.25c-.28-1-.74-1.09-1.5-.6l-2.7,1.72a4.27,4.27,0,0,1-1.63.72c-.4.06-.82.07-1-.39a.78.78,0,0,1,.38-1c.42-.29.89-.51,1.31-.79s1.05-.52.55-1.17a1.17,1.17,0,0,0-1.69-.42,4,4,0,0,0-.85.94c-.2.27-.35.65-.77.54s-.36-.55-.43-.87c-.47-2.26-.49-2.28-2.76-2a17,17,0,0,0-2,.41,2.86,2.86,0,0,1-2.5-.35c-1-.79-2.18-1-3.19-1.78s-2.68-.77-4.08-1.06-2.72-.48-4.08-.76a2.48,2.48,0,0,0-2.45,1.06c-.72.78-1.44,1.57-2.18,2.34-.32.33-.71.75-1.2.31s-.19-.88.08-1.28a5.08,5.08,0,0,0,1.13-2.64c-.72-.07-.92.48-1.25.84-2.66,2.92-4.82,6.26-7.39,9.28a17,17,0,0,0-3.52,8.38,4.77,4.77,0,0,1-.46,1.33,130.83,130.83,0,0,1-7,12.67c-1.56,2.39-2,5.29-3.48,7.69a56.71,56.71,0,0,0-5.3,11.78c-.82,2.4-2.27,4.5-3.38,6.76-2.93,5.94-5.77,11.93-8.32,18a100.45,100.45,0,0,1-8.43,15.19A214.82,214.82,0,0,0,102,541c-3.17,6.74-7.21,13-10.83,19.47-3.4,6.11-7,12.12-10.45,18.2-1.2,2.11-2.47,4.18-3.67,6.29a5.29,5.29,0,0,1-1.61,1.78Zm169.22-324c-1.62-.06-3.23-.77-4.35.94-.31.47-1.06.51-1.66.59a1.48,1.48,0,0,0-1.32,1,1.46,1.46,0,0,1-2.1,1,3.48,3.48,0,0,0-4,2.05c-.17.48-.37.95-.91.92-1.37-.06-2.15,1-3.47,1.51,1.1.47.8,1.09.49,1.72-.84,1.69-1.23,1.85-3.23,1.39-.13,0-.4.07-.43.17-.32,1-1.37,1.16-1.95,1.85.67-.46,1.6-.36,2.15-1.07.2-.26.56,0,.77.25s.16.59-.1.65c-1.22.3-.57.88-.27,1.49.5,1,.08,1.51-1,1.9-.58.22-1.31.26-1.73,1.18-.33.73-1.12,1-.2,1.87.28.25-.16.59-.34.87a.55.55,0,0,0,0,.72.59.59,0,0,0,.82,0c.53-.4.85-.85.37-1.51-.27-.36-1-.65-.2-1.17s.81.35,1.12.71.4.75.87.7.54-.38.58-.75c.14-1.36,1.15-1.24,2.09-1.16.73.06,1.28,1.22.77,1.42-1.28.48-.5,1.93-1.39,2.53-.21.15-.21.63-.27,1a.65.65,0,0,0,.41.74.43.43,0,0,0,.68-.34c.09-.82.85-.25,1.21-.55a6.11,6.11,0,0,1-.83-.71c-.65-.79-.31-2.26.49-2.12a3.11,3.11,0,0,1,2.47,1.15,2.51,2.51,0,0,1-.56,3.32c-1.7.94-1,1.6-.39,2.78.78,1.61,1.18,3.39,2.1,5,.43.74,1.6,1.35.67,2.46-.06.08,0,.36.14.48.41.48.63.93.07,1.45a.46.46,0,0,0,0,.69,1.33,1.33,0,0,1,.32,1.43c-.15.47.21.84.61,1a3.11,3.11,0,0,1,1.42,1.07.92.92,0,0,0,1.07.26.62.62,0,0,0,.42-.72c-.35-1.42.5-2.12,1.49-2.82.71-.51,1.25-1.12.72-2.18-.32-.63.65-1.75,1.43-1.79.52,0,1.19,0,1.24-.64.1-1.2-.46-2.41.14-3.64a1.34,1.34,0,0,0-.71-1.42c-.84-.18-.55-.7-.65-1.14s.18-1.28-.64-1.68c-.33-.16,0-.58.18-.75,1-.73.34-1.29-.22-1.86-.29-.29-.8-.37-.76-.95.14-2.19-.07-4.43,2.05-6a2.14,2.14,0,0,0,.94-2.16c-.07-.31-.22-1.91,1.42-1.5.46.12,2.16.3,1.82-1.39a.37.37,0,0,1,.16-.33c1-.41.69-1.13.54-1.9-.1-.53-.07-1.19.58-1.41.47-.16,1.05-.55,1.43.34-.11-.73,0-1.44-.8-1.74s-.87,1-1.61.41c.06-.39.64-.89.4-1-.94-.42-.34-1.08-.43-1.61a.52.52,0,0,0-.18-.34C242.63,263.8,243.18,262.93,243.71,261.9ZM146.16,399.22c-1,1.77-.87,3.87-2.08,5.44a5.88,5.88,0,0,0-1,3.27c-.09.84.2,1.05.93.62,1.1-.65,2.19-1.33,3.32-1.92a8.39,8.39,0,0,1,5.94-1.13,1.9,1.9,0,0,0,1.64-.56l4.36-3.62c-.46-.1-.72.51-1.18.22-.08-.63.48-.85.76-1.25s.78-.55.52-.92-.75,0-1.11.17-.41.12-.57-.16a3.55,3.55,0,0,1,2-1.63c.28-.13.9-.24.73-.54-.61-1.07.32-1.39.79-1.88,1-1.11,2.15-2.06,2.22-3.85.06-1.37,1.16-1.84,2.69-1.59a.46.46,0,0,0,.35-.12c.94-.87,2.23-.81,3.35-1.21a1.39,1.39,0,0,0,.4-2.58,16.58,16.58,0,0,0-1.64-1.08c-1-.63-1.39-1.35-.68-2.47a8.47,8.47,0,0,0,.93-4c.05-.71-.12-1.24-1.12-1.09-2.37.37-2.75,0-3.17-2.37-.1-.63-.1-1.33-.87-1.62-1.31-.49-2.6-.76-3.72.37-.24.24-.49.53-.86.49-.81-.08-.58.41-.46.82a1.59,1.59,0,0,0,.75.83c.69.51.67,1.35.69,2.13,0,.19-.13.38-.31.33-.64-.16-.59-.9-1-1.27,0,0-.09,0-.28-.06,0,1,0,1.88.05,2.81a22.06,22.06,0,0,1-.6,7.67c-.66,2.59,0,5.33-.19,8,0,.23-.11.54.26.68.71-.59,1.42-1.21,2.15-1.78.25-.19.59-.54.9-.18s-.05.67-.3.88A29.06,29.06,0,0,1,157.1,398a.58.58,0,0,1-.86-.07c1.37-1.51.09-3.42.8-5.1-.57,0-.6.77-1,.48s-.18-.8-.07-1.18a15.83,15.83,0,0,0,.55-6c0-.38-.06-.89-.53-.94s-.66.45-.75.87a5.29,5.29,0,0,0-.12.89,31.77,31.77,0,0,0,0,4.78c.07.9-.25,1.94-1.15,2s-.41-1-.72-1.55a1.2,1.2,0,0,0-.14-.12c-.35.08-.28.84-.77.63s-.26-.59-.23-.93c.06-.88-.36-1-1-.65a1.07,1.07,0,0,0-.66,1.43c.24,1.13.29,2.3.46,3.74a3.87,3.87,0,0,1-1.21-1.92c-.39-.84-.87-.86-1.49-.28a2,2,0,0,0-.72,1.58c0,.95,0,1.9,0,2.84C147.39,399.81,147.25,399.88,146.16,399.22Zm-36-2.81,3.51-1.39a3.29,3.29,0,0,0,2.27-3.34,3.56,3.56,0,0,1,1.2-3.09c1-.95.85-1.43-.45-2.09-1.1-.56-1.17-.93-.42-1.85a6.47,6.47,0,0,1,3.14-1.91c-1.85.06-3.13,1.26-4.59,2.09-2.45,1.38-4.44,3.7-7.61,3.63-.21,0-.47.08-.47.34s.27.42.49.55C110.22,391,110.36,393.45,110.14,396.41Zm149.79-79.73c-.48.77-1.28.4-1.91.39-.26,0-.49-.25-.71.08a.64.64,0,0,0,.13.92,5.6,5.6,0,0,0,.85.59A10.29,10.29,0,0,0,263,320c1,.07,2.29.64,1.53-1.3a.43.43,0,0,1,.09-.36c.92-.93.24-2,.28-3.07a.53.53,0,0,0-.23-.41.28.28,0,0,0-.4.2c-.17,1.39-1.15.91-2,.93A2.69,2.69,0,0,0,259.93,316.68Zm8.76-76.55a2.87,2.87,0,0,0,1.64,1c.56.15,1.24.3,1.4-.43s.65-1.74-.2-2.47-1.88-.38-2.86-.42c-.79,0-.62.63-.9,1s-.6.89-1.38.87c-.51,0-1.5.42-1.46.92.07.68,1,.92,1.67,1s.92-.63,1.12-1.2S268.18,239.27,268.69,240.13ZM195,359.36l-.49.71c-.24.36-.53.7-.23,1.17a1.29,1.29,0,0,0,1.35.58,1.79,1.79,0,0,0,1.66-1.21c.21-.66.71-1.44-.16-2S195.75,358.57,195,359.36Zm-24,44.2c1.25.5,2.15,1.32,3.4,1a1,1,0,0,0,.7-1.22c-.2-.95.39-2.27-1.32-2.71.43,1-.8,1.3-.8,2C173,404.24,171.86,403,171,403.56Z"/><path class="cls-3" d="M222,493.25a1.32,1.32,0,0,1-.63-1.21,38,38,0,0,1,.42-5.65c.06-.37.1-.91.56-.89s.31.62.4.95c.61,2.12.12,4.19-.21,6.26Z"/><path class="cls-3" d="M340.24,290.28c-.6-.54-.45-1.12-.53-1.64s-.12-.8-.59-.91a.82.82,0,0,0-1,.46c-.34.76-.55.73-1.12.08A1.85,1.85,0,0,0,335,288c-.58.25-.8.21-1.05-.4-.41-.95-1-1.24-1.91-.48-.36.32-.66.38-.73-.3-.2-2-.35-2.1-2.08-1.14-.46-1.59-.46-1.59-1.94-1.53,1-.79-.05-1.7.3-2.53,0-.06-.11-.25-.2-.29-1-.43-.89-1.26-.71-2.05a2,2,0,0,0-.31-1.6,2.57,2.57,0,0,1-.34-1.79c.37-.79.21-1.81,1-2.44a.4.4,0,0,0,.1-.35c-.77-1.55.45-2.27,1.25-3.15a1.59,1.59,0,0,0,.4-1,1.65,1.65,0,0,1,.15-.59c1.23.25,1.32-1.21,2.21-1.45.11,0,.3-.06.33-.14.63-1.84,2.4-1.46,3.73-2.06,1.68-.76,3.35.71,4.83-.38.24.48,1.39,0,1.12,1.08-.16.69.32.94.93.86a5.53,5.53,0,0,0,1.11-.3c.36-.11.76-.43,1.08-.12s-.06.69-.26,1c-.41.57-.27,1,.38,1.18.8.28,1,1.09,1.46,1.58,1,1.05,1.08,2.34,1.69,3.4s1.37,1.57.71,2.88c-.28.55.16,1.57.33,2.21.41,1.52-.66,2.36-1,3.5a5.59,5.59,0,0,1-2.63,3c-.19.12-.4.29-.34.5.28.91,0,1.18-.92.93-.32-.08-.34.29-.38.55s-.1.57-.46.38c-1-.55-1,.25-1.36.81C340.91,288.49,340,289,340.24,290.28Z"/><path class="cls-3" d="M358.77,155.21c.06,1.31.62,1.63,1.66.89a.49.49,0,0,1,.47,0c1.14,1.67,2.31.35,3.47.12,0,.06.13.16.11.19-1,1.45-.52,2.47.94,3.34.69.42,1.12,1.22,1.85,1.64a.55.55,0,0,1,.25.86c-.54.8-.27,1.24.62,1.48.51.15,1,.36.37,1-.24.24-.17.48.14.61.61.25.24.41,0,.7-.74,1-1.86,1.86-1.08,3.38a.5.5,0,0,1-.07.49c-1.13,1-1.37,2.83-2.89,3.57-1,.47-1.33,1.59-2.5,2a9.77,9.77,0,0,1-7.34-.29,6.61,6.61,0,0,1-2.61-1.63c-.23-.26-.43-.53-.87-.33s-.51-.19-.59-.47c-.17-.67-.2-1.38-1.09-1.6-.38-.09-.18-.52-.24-.79-.16-.78.13-1.68-.73-2.25a.39.39,0,0,1-.13-.34c.77-1.66.57-3.43.54-5.19,0,0,0-.12,0-.12,1.77-.43,1.37-2.57,2.59-3.36s2.33-2,3.9-2.34c.78-.19,1.32-1,2.35-.57C358.25,156.32,358.24,155.46,358.77,155.21Z"/><path class="cls-3" d="M301.31,214.26c.3.34.12.63.11.92,0,.63.24.87.75.48,1.07-.83,2.09-.5,3.12.11,3,1.81,3.55,2.67,2.47,6.35-.35,1.16-1.56.57-2.17,1.18-.09.08-.46,0-.47,0-.29,1.64-1.9,2.51-2.28,4.05-.13.54-.14.78-.74.61a3.67,3.67,0,0,0-4,1.65,3.66,3.66,0,0,1-2.28,1.89,4.56,4.56,0,0,0-1.48.7c-.61.49-1.16-.3-1.82-.32s-1.79-1.5-1.82-2.3c-.05-1-1-1.79-.43-2.85.12-.23-.28-.23-.46-.3a12.11,12.11,0,0,0-1.57-.61c-2.05-.46-2.58-1.87-2.47-3.71a13.59,13.59,0,0,1,.22-2.31c.2-.84,1.12-1.28,1.7-1.64,1.07-.66,2.12-1.85,3.72-1.19.49.21.57-.28.57-.61,0-.79.77-1,1-1.49.82-1.42,2.73-.57,3.46-1.87a.23.23,0,0,1,.23-.07c.86.56,2.28.58,2.69,1.1C300.22,215.05,300.73,214.34,301.31,214.26Z"/><path class="cls-3" d="M287.3,299.3c1.06.34,1.48.05,2.26-.69,1.85-1.76,4.23-3.14,7-2.07,1,.4,2.2.71,2.87,2.14a30,30,0,0,1,3.09,9.17,8.49,8.49,0,0,0,.87,2.3c.21.47.66,1.05,0,1.31s-.8-.49-1-.94c-.66-1.7-1.28-3.42-1.93-5.13a9.29,9.29,0,0,0-.54-1,6.94,6.94,0,0,1-2.24,3.71c-.84.71-1.91.23-2.81.83-.66.44-1.18.66-1.06,1.53.05.31.28.74-.23.85s-.49-.3-.6-.57c-.18-.45-.28-1-.93-.84s-.38.87-.27,1.33a8.48,8.48,0,0,1,.18,4c-.09.4-.14,1-.7.91s-.52-.6-.51-1a25.06,25.06,0,0,0-.43-3.86c0-.29,0-.67-.49-.63a.52.52,0,0,0-.43.68c.24,1-.62,1.92.17,2.95.37.47-.27,1.2-.31,1.85a.3.3,0,0,1-.39.23.57.57,0,0,1-.41-.46,6.73,6.73,0,0,0-.43-1.49,1.68,1.68,0,0,0-1.8-1c-1.64.26-3-.77-4.45-1.11-.28-.07-.25-.32-.21-.53s.1-.63-.12-.73c-1.47-.67-1.09-2-1.16-3.12a16.5,16.5,0,0,1,.13-3.07,2,2,0,0,1,2.33-1.49c1.76.3,2.71-.43,3.89-1.56C287.51,300.93,288,300.51,287.3,299.3Z"/><path class="cls-3" d="M122.38,455.57a.31.31,0,0,1,.43-.14c.36.16.31.5.26.79a11.44,11.44,0,0,1-1.39,3.57c-.34.61-.89,1.15-.45,2,.15.3,0,.81-.49.67-.75-.24-.88.29-1.13.71-.54.92-1,1.86-1.6,2.77a1.78,1.78,0,0,0-.32,1.57,2,2,0,0,1-.68,2c-1.93,1.89-3,4.32-4.35,6.6a36.47,36.47,0,0,1-5.09,6.85,23,23,0,0,0-3.5,5.62c-4.46,8.55-9.47,16.77-14.34,25.08-3.92,6.69-8,13.31-11.76,20.08a12.29,12.29,0,0,1-1,1.61.82.82,0,0,1-1.14.28.8.8,0,0,1-.25-1.05,23.45,23.45,0,0,1,1.17-2.42c5.51-9.91,11.36-19.64,16.87-29.55,3.48-6.26,7.61-12.15,10.89-18.52,2.81-5.47,6-10.69,9-16.09a45.46,45.46,0,0,1,6.57-9.4C120.82,457.72,121.49,456.71,122.38,455.57Z"/><path class="cls-3" d="M86.77,480.27c1,1.17.9,3,.26,4.61-1.75,4.54-5.24,7.11-9.94,8.12a17.13,17.13,0,0,1-3.17.49c-2.55.07-4,1.64-5.31,3.52a10.24,10.24,0,0,1-2.9,3.34,6.45,6.45,0,0,1-.87.52c-.49.21-1,.35-1.42-.14s-.08-.94.21-1.3c.85-1.06,1.74-2.08,2.64-3.11a8.18,8.18,0,0,0,1.21-1.64,1.79,1.79,0,0,1,1.64-1,2.51,2.51,0,0,0,2.19-1.52,29.93,29.93,0,0,0,1.84-4.37c1.58-4,4-7.21,8.2-8.75A4.82,4.82,0,0,1,86.77,480.27Z"/><path class="cls-3" d="M322.08,219.06a2.64,2.64,0,0,1-1.46-1.85,16.73,16.73,0,0,0-.65-1.71c-.18-.38-.46-.86-.91-.84s-.19.56-.31.85c-.21.53-.5.65-.95.21a2,2,0,0,0-1.22-.68c-.67-.07-1.5.67-1.88.18-1.46-1.91-3.8-3.42-3.82-6.05A6.61,6.61,0,0,1,312,204.7a1.56,1.56,0,0,1,2.3-.19c.43.45.69.62,1,0,.66-1.22,1.85-2,2.68-3,.1-.13.26-.36.36-.23.66.89,1.89.22,2.55,1s.83.3,1.13-.23c.82-1.43,1.74-1.77,3.17-1.19a2.78,2.78,0,0,1,1.8,3.21c-.22.93-1,1.45-1.64,2-.23.23-.85,0-.76.64a1.22,1.22,0,0,0,.92,1.15c1.37.19.86.88.4,1.43a1.36,1.36,0,0,0-.36,1,1.19,1.19,0,0,1-1.09,1.29c-.43.05-.78.14-.93.55s-.43.8-1,.45a.61.61,0,0,0-.59.05,3.26,3.26,0,0,0-.66,1.06c-.51,1.49-.5,1.56-.29,2A7.64,7.64,0,0,1,322.08,219.06Z"/><path class="cls-3" d="M303.2,295.47a1.66,1.66,0,0,0-1.39.44c-.48.51-.75.76-1.23-.13-.28-.54-1.13-.95-.59-1.6s.95.58,1.58.5c-1.76-2.78-1.5-4.36,1.66-5.59,1.77-.68,3.35-1.8,5.24-2.19a5.73,5.73,0,0,1,4.53,1,8.5,8.5,0,0,0,1.7,1.19c.14.05.35.21.36.34.2,1.72,1.4,3.23,1.12,5.06-.32,2.14-3.15,5-5.21,5.78-1.09.41-2.35.24-3.31,1-.36.31-.64-.12-.76-.44a1.89,1.89,0,0,0-1.51-1.29.68.68,0,0,1-.24-.08c-.73-.37-.39-1.45-1.4-1.82C303.06,297.46,302.81,296.41,303.2,295.47Z"/><path class="cls-3" d="M331.91,184.87a22.45,22.45,0,0,1,6.76-1.69c.73-.09,1,.29.55.92s-.4,1,.22,1.08a4,4,0,0,1,2.26,1.25,6.31,6.31,0,0,0,1.44.62c-.24.69-1.06,1.54.45,1.81-.34.73.05,1.52-.07,2.24-.34,2-1.87,3.42-3.18,4.77-.54.57-2.18.1-3.31.08-.34,0-.69-.11-1-.12-.71,0-1.14.08-1.18,1a3,3,0,0,1-2.89,2.91,3.32,3.32,0,0,1-2.81-1.75,3.58,3.58,0,0,1,.83-4c.16-.13.36-.3.54-.29,1.62,0,1.67-1,1.19-2.07-.82-1.92.32-3.44.75-5.11.15-.56.88-.24,1.17-.65.16-.23.55-.36.4-.72s-.45-.22-.7-.23C332.84,184.9,332.37,184.89,331.91,184.87Z"/><path class="cls-3" d="M266.42,405.9c-3.79-4.5-7.82-8.83-11.29-13.57a103.77,103.77,0,0,0-9.37-10.68c-1.75-1.81-4-3-5.64-5-1.05-1.33-2.34-2.48-3.38-3.81-.5-.64-1.45-1.44-.57-2.37.58-.6,1.77,0,2.49,1.21A16.06,16.06,0,0,0,242,375.8c4.39,3.7,7.9,8.24,11.83,12.38a64.18,64.18,0,0,1,7.36,9.35,87.29,87.29,0,0,0,5.46,7c.32.41.65.82,1,1.25.2.27.49.63.15.91s-.64-.08-.89-.31-.31-.31-.47-.46Z"/><path class="cls-3" d="M266.21,391.77a4.77,4.77,0,0,1,6.94.08,4.63,4.63,0,0,1,.16,6.7,2.2,2.2,0,0,1-1.43.78,8.8,8.8,0,0,1-5.05-.78C264.49,397.35,264.19,393.79,266.21,391.77Z"/><path class="cls-3" d="M254.4,284.63a4.88,4.88,0,0,1,4.58-1.37,4.44,4.44,0,0,1,3.08,4.67c-.11,1-.59,2-.24,3,.1.28-.17.59-.43.35-1.08-1-1.81.12-2.57.42a4.39,4.39,0,0,1-4.8-1.5C253,288.39,253.15,285.88,254.4,284.63Z"/><path class="cls-3" d="M214.48,386c-1.93-1.89-2.26-4.43-.76-6a4.48,4.48,0,0,1,6.45-.36,5,5,0,0,1-.06,6.8C218.93,387.59,215.85,387.35,214.48,386Z"/><path class="cls-3" d="M350.36,189a3.44,3.44,0,0,1,4.18-.91,3.76,3.76,0,0,1,2.09,3.23,5.52,5.52,0,0,1-.2,1.9c-.38,1.32-2.12,2.23-3.76,2s-3-.87-3.41-2.67S349.94,189.91,350.36,189Z"/><path class="cls-3" d="M62.91,456.43a7.21,7.21,0,0,1-4.18,1.71,16.47,16.47,0,0,0-4,.27,1.06,1.06,0,0,1-1.37-.88c-.15-.67.35-.92.88-1A2.67,2.67,0,0,0,56,455.15a6.29,6.29,0,0,1,5.1-2.76c1-.07,2.07,0,2.57,1.09S63.56,455.63,62.91,456.43Z"/><path class="cls-3" d="M269.67,269.06a3.25,3.25,0,0,1,.21,4.58c-1.4,1.33-3.39,1.12-5-.52-.87-.87-1.07-3.49-.32-4.29C266.07,267.18,267.9,267.26,269.67,269.06Z"/><path class="cls-3" d="M107.24,320.09c-.34-.37-.51-.72-.3-1.11s.57-.31.91-.22a17.57,17.57,0,0,1,3.38,1.36c1.62.81,3.31,1.54,4.89,2.38a30.72,30.72,0,0,1,5.47,3.21c.36.3.86.64.59,1.16s-.77.13-1.18.09a12.47,12.47,0,0,1-7-3.22c-1.69-1.41-3.86-1.76-5.64-2.93Z"/><path class="cls-3" d="M308.75,165.77c-.83-.13-.63-.38-.44-.55a3.71,3.71,0,0,1,.72-.53c3.44-1.78,6.78-3.74,10.38-5.21a17.51,17.51,0,0,0,3-1.42c.24-.16.55-.37.82-.1s.11.66-.09.93a2.92,2.92,0,0,1-1.57,1.05,35.07,35.07,0,0,0-11.8,7,7.49,7.49,0,0,1-6.8,1.66c-.29-.06-.7,0-.71-.4s.45-.47.76-.42c1.8.26,3.38-.47,5-1C308.5,166.58,308.86,166.3,308.75,165.77Z"/><path class="cls-3" d="M134.11,465.18a.93.93,0,0,1-.13-1.09,40.26,40.26,0,0,1,5.87-11.44,1,1,0,0,1,.15-.2c.34-.29.58-.93,1.12-.6s.17.8,0,1.19a18.52,18.52,0,0,1-.76,1.91,32.34,32.34,0,0,1-4.23,7.11A31.19,31.19,0,0,0,134.11,465.18Z"/><path class="cls-3" d="M221.79,416.35c.48.76,1,1.47,1.4,2.23,2,3.77,3.95,7.56,5.92,11.34a4,4,0,0,1,.22.47c.15.39.56.91.07,1.15s-.78-.38-1-.78c-.67-1.22-1.31-2.45-2-3.69-1.61-3.18-3.63-6.15-5.09-9.41-.12-.28-.26-.55-.36-.84s-.21-.54,0-.72S221.51,416.3,221.79,416.35Z"/><path class="cls-3" d="M149.08,222.1c.23.29.6.65.33,1.09s-.78.2-1.15,0a26,26,0,0,1-2.77-1.44,26.29,26.29,0,0,0-5-2.72c-.49-.17-1.06-.45-.81-1.11s.82-.49,1.34-.37A28.64,28.64,0,0,1,149.08,222.1Z"/><path class="cls-3" d="M235.57,475.68a1.17,1.17,0,0,1-.34-1.06c.34-1.93,0-3.86-.07-5.79a6.58,6.58,0,0,1,.23-2.17c.14-.4.18-1,.7-1s.71.58.83,1a9,9,0,0,1,.39,1.9,22.85,22.85,0,0,1-.76,6.38C236.42,475.51,236.18,475.94,235.57,475.68Z"/><path class="cls-3" d="M170.93,480.11c.48-.45,1-.46,1.42.34a4.69,4.69,0,0,1,.17,3.76,12.81,12.81,0,0,1-1.05,2.74c-.33.57-.77.66-1.17,0C169.55,485.72,169.9,481.19,170.93,480.11Z"/><path class="cls-3" d="M8.92,474.92c1.48-.7,2.39-2.16,3.36-3.56a.62.62,0,0,1,.18-.18c.85-.51,1.94-1.2,2.71-.48s-.24,1.59-.75,2.16c-1.36,1.48-3.28,2.26-4.81,3.54a.72.72,0,0,1-1.14-.12C8.17,475.78,8.46,475.38,8.92,474.92Z"/><path class="cls-3" d="M165.79,444.51a64.84,64.84,0,0,1-.75,6.56c-.67,3.05-1.32,6.11-2,9.17-.09.41-.06,1.14-.69,1s-.32-.74-.24-1.13c.71-3.78,1.39-7.58,2.21-11.34C164.66,447.34,164.69,445.8,165.79,444.51Z"/><path class="cls-3" d="M312.14,181.53c-.44.62-1.05.5-1.58.59-2.34.41-4.79.23-7,1.47-.66.37-1.76.07-2.65-.05-.6-.09-.52-.58-.28-1a3.35,3.35,0,0,1,3.1-1.44c2.23.74,4.44.25,6.66.23A2.71,2.71,0,0,1,312.14,181.53Z"/><path class="cls-3" d="M273.39,355c-.53-.53-1-1.08-.61-1.65s1.11-.19,1.6.15c1.93,1.32,3.62,3,5.8,3.93a.84.84,0,0,1,.36,1.22c-.3.61-.86.54-1.32.27A52.46,52.46,0,0,1,273.39,355Z"/><path class="cls-3" d="M205.65,451.86a6.74,6.74,0,0,1,1.55,3.73A97.39,97.39,0,0,0,209.44,466c.12.51.55,1.32-.09,1.48s-.69-.74-.8-1.23C207.48,461.46,206,456.78,205.65,451.86Z"/><path class="cls-3" d="M68.64,445.72a4.91,4.91,0,0,1,2.23-1.43c.75-.21,1.47-.2,1.86.66a1.5,1.5,0,0,1-.62,2.11,8.66,8.66,0,0,1-4.13.66c-.57,0-.55-.49-.32-.84A12,12,0,0,1,68.64,445.72Z"/><path class="cls-3" d="M133.72,303.5c-.43-.48-.86-.82-.58-1.26s.81-.18,1.16,0c1.79,1,3.8,1.49,5.31,3,.69.69,1.72.47,2.58.73.39.11,1,.09,1,.65s-.71.41-1.1.31A27.73,27.73,0,0,1,133.72,303.5Z"/><path class="cls-3" d="M264,145.45a18.12,18.12,0,0,1-.85-2.15c-.73-2.81-1.4-5.63-2.08-8.45a3.38,3.38,0,0,1-.06-.9.47.47,0,0,1,.32-.5.49.49,0,0,1,.58.4c.16.72.23,1.45.39,2.17.56,2.5,1.38,4.92,2.12,7.37a13.24,13.24,0,0,1,.37,1.77.39.39,0,0,1-.27.5C264.34,145.69,264.18,145.55,264,145.45Z"/><path class="cls-3" d="M159.9,266.11c.29.35.67.59.47,1s-.61.24-.93.18a6.75,6.75,0,0,1-2.49-1.07,42.41,42.41,0,0,0-3.88-2.61c-.29-.16-.66-.38-.49-.8s.64-.41,1-.25A36.79,36.79,0,0,1,159.9,266.11Z"/><path class="cls-3" d="M191.1,270.5a20.83,20.83,0,0,1-2-5.68,51.78,51.78,0,0,0-1.32-6.74,2.8,2.8,0,0,1-.09-.77c0-.28-.12-.69.24-.78s.56.33.63.65c.26,1.09.51,2.19.71,3.29a68.49,68.49,0,0,0,1.82,7.84A3.09,3.09,0,0,1,191.1,270.5Z"/><path class="cls-3" d="M170.73,452.61a2.27,2.27,0,0,1-.2-.5,35.35,35.35,0,0,1-.67-6.56c0-.45,0-1.12.57-1.14s.61.65.71,1.09c.49,2.16.29,4.39.68,6.57a.64.64,0,0,1-.38.74A.7.7,0,0,1,170.73,452.61Z"/><path class="cls-3" d="M36.64,472.57l.22-.22c.45-.27.91-1,1.42-.5s-.08,1-.37,1.36a65,65,0,0,1-4.74,5.49c-.28.29-.63.72-1.07.3s-.06-.74.19-1A43.69,43.69,0,0,0,36.64,472.57Z"/><path class="cls-3" d="M253.3,166.75c-3.83-1.31-6.69-4.21-10.08-6.24C247,161.93,250.66,163.47,253.3,166.75Z"/><path class="cls-3" d="M306.33,160a4.34,4.34,0,0,1,1.84-1.72q3.84-2.53,7.71-5c.36-.23.92-.66,1.22-.09s-.31.81-.75,1a23.17,23.17,0,0,0-5,3.24A16.58,16.58,0,0,1,306.33,160Z"/><path class="cls-3" d="M122.64,265.68c-.34-.31-.51-.52-.4-.8a.65.65,0,0,1,.88-.31c1,.35,2,.74,3,1.15s1.83.79,2.72,1.23c.4.19,1.06.37.84.95s-.82.28-1.26.2a18.51,18.51,0,0,1-4.33-1.71Z"/><path class="cls-3" d="M136.9,329.56a21.39,21.39,0,0,1-5.49,1.84.49.49,0,0,1-.62-.34.57.57,0,0,1,.28-.66,11,11,0,0,1,5.2-2c.38,0,.81,0,1,.45S137.09,329.4,136.9,329.56Z"/><path class="cls-3" d="M200.77,465.64a1,1,0,0,1-.22-.92c.34-2.07.67-4.15,1-6.21a3.82,3.82,0,0,1,.39-.94c.11-.23.28-.47.58-.39s.33.4.3.64c-.38,2.45-.76,4.91-1.17,7.36A.59.59,0,0,1,200.77,465.64Z"/><path class="cls-3" d="M241.36,373.55c-1.31-1-1.19-2.33-.75-3.63.23-.7.76-.29.94.06a11.38,11.38,0,0,0,2.15,2.91c.23.22.5.71.09.86s-.81.87-1.46.45C242,374,241.68,373.76,241.36,373.55Z"/><path class="cls-3" d="M232.45,421a1.65,1.65,0,0,1-.13-.41,14.44,14.44,0,0,1,0-5.12c.09-.37.2-.83.64-.85s.52.51.56.86a27.44,27.44,0,0,1,.06,4.88.89.89,0,0,1-.56.92C232.85,421.33,232.64,421.25,232.45,421Z"/><path class="cls-3" d="M160.83,266.54a2.6,2.6,0,0,1-.3-.34c-.26-.47-.95-1-.43-1.45s1,.15,1.39.51a13.39,13.39,0,0,0,3,2.2,1.41,1.41,0,0,1,.75.69c.12.28.28.6,0,.84s-.48.09-.73,0A16.4,16.4,0,0,1,160.83,266.54Z"/><path class="cls-3" d="M7,429.29c1.66-.92,3.55-2,5.45-3,.35-.19.86-.46,1.14,0s-.24.67-.55.85q-2.78,1.56-5.56,3.07c-.32.17-.76.41-1,0S6.51,429.65,7,429.29Z"/><path class="cls-3" d="M82.7,471.35a1.53,1.53,0,0,1,.18-.18c.47-.31.78-1.24,1.35-.9s-.2,1-.24,1.47a6.62,6.62,0,0,0,0,.89c.07.69-.27,1.4-.82,1.4a3,3,0,0,0-2,.72.39.39,0,0,1-.57-.05.56.56,0,0,1,0-.61A10.18,10.18,0,0,1,82.7,471.35Z"/><path class="cls-3" d="M66.62,451.61a1.32,1.32,0,0,1,.29-.22c.73-.38,1.61-.8,2.19,0s-.19,1.47-.83,1.95a5.37,5.37,0,0,1-2.7.65c-.55.07-.64-.35-.33-.75S66.09,452.23,66.62,451.61Z"/><path class="cls-3" d="M314.51,183.86a4,4,0,0,1,2.63-1.69,32.22,32.22,0,0,0,5.24-1.66c.21-.11.49-.26.7,0s0,.42-.18.52A27,27,0,0,1,314.51,183.86Z"/><path class="cls-3" d="M138.17,482.3c1-2,1.35-4.28,2.26-6.33.16-.35.43-.69.9-.55a.53.53,0,0,1,.28.76,36.76,36.76,0,0,1-2.66,6.06c-.08.12-.27.16-.41.24Z"/><path class="cls-3" d="M258.31,148.34a13.76,13.76,0,0,1-2.05-3.25c-.1-.33-.19-.71.16-.94a.66.66,0,0,1,.91.23,10.34,10.34,0,0,1,2.07,3.44.66.66,0,0,1-.28.89C258.78,148.86,258.56,148.6,258.31,148.34Z"/><path class="cls-3" d="M171.42,277.11c.63.77,1.29,1.51,1.87,2.32.28.37.56.92.1,1.27s-.86-.15-1.14-.5c-.81-1-1.58-2.05-2.36-3.09-.25-.33-.68-.78-.32-1.12s.74.2,1.06.43a7.26,7.26,0,0,1,.74.73Z"/><path class="cls-3" d="M234.37,177.61a49.89,49.89,0,0,1,8.38.36c.33,0,.76.14.73.58s-.43.38-.72.35A50.64,50.64,0,0,1,234.37,177.61Z"/><path class="cls-3" d="M173,459.52a5.51,5.51,0,0,1,1.06,3.34c0,.3-.1.61-.45.69a.66.66,0,0,1-.67-.3,5.11,5.11,0,0,1-1.16-3.34.78.78,0,0,1,.41-.73C172.55,459,172.74,459.31,173,459.52Z"/><path class="cls-3" d="M136.9,479.46a.56.56,0,0,1-.1-.6,43.28,43.28,0,0,1,2.36-5c.1-.19.27-.4.49-.33s.27.41.22.64a14.53,14.53,0,0,1-2.18,5A.61.61,0,0,1,136.9,479.46Z"/><path class="cls-3" d="M284.22,284.75a1.22,1.22,0,0,1,1.77.37,6,6,0,0,1,.34,3.05c0,.31-.38.69-.58.31-.55-1-1.55-1.8-1.74-3A.79.79,0,0,1,284.22,284.75Z"/><path class="cls-3" d="M278.34,153.69a46,46,0,0,1-1.52-9.67C277.67,147.2,278.52,150.38,278.34,153.69Z"/><path class="cls-3" d="M241.5,166.75a21,21,0,0,1-3.35-6c-.09-.28-.28-.63,0-.82s.58.15.7.39a38.07,38.07,0,0,1,2.66,5.94A1.29,1.29,0,0,1,241.5,166.75Z"/></g><g class="cls-4"><polygon class="cls-5" points="157.95 -2 255.83 184.37 145 627 375.5 627 375.5 -2 157.95 -2"/></g><path d="M92.4,337.05H89.78L75.94,299.49V347h-4.3V287.93h4.47L91,328.86l15-40.93h4.72V347h-4.55V299.49Z"/><path d="M148.69,335.19c0,8.44-4.56,12.49-13.51,12.49H135c-8.94,0-13.5-4-13.5-12.49V299.74c0-8.1,4.56-12.49,13.5-12.49h.17c8.95,0,13.51,4.39,13.51,12.49v10.13h-4.56v-8.61c0-6.92-2.45-9.79-9-9.79s-9,2.87-9,9.79v32.41c0,6.92,2.45,9.79,9,9.79s9-2.87,9-9.79v-10h4.56Z"/><path d="M163.71,287.93v26.92h19V287.93h4.56V347h-4.56V319.07h-19V347h-4.56V287.93Z"/><path d="M92.4,409.63H89.78L75.94,372.07v47.52h-4.3V360.51h4.47L91,401.44l15-40.93h4.72v59.08h-4.55V372.07Z"/><path d="M142.61,409.63H140l-13.84-37.56v47.52h-4.3V360.51h4.47l14.86,40.93,15-40.93h4.72v59.08h-4.55V372.07Z"/><path d="M199.32,373v34.1c0,8.27-4.56,12.49-13.51,12.49H172.06V360.51h13.75C194.76,360.51,199.32,364.73,199.32,373Zm-13.84-8.27h-8.86v50.64h8.86c6.67,0,9.28-2.79,9.28-9.79V374.52C194.76,367.52,192.15,364.73,185.48,364.73Z"/><path d="M210.12,419.59V360.51h23.21v4.22H214.68v22.79h16v4.22h-16v23.63h18.9v4.22Z"/><polygon points="310.81 420.19 259.46 420.19 259.46 418.99 309.61 418.99 309.61 177.01 72.24 177.01 72.24 263.83 71.03 263.83 71.03 175.81 310.81 175.81 310.81 420.19"/><polygon points="312.62 422 257.66 422 257.66 417.18 307.8 417.18 307.8 178.82 74.05 178.82 74.05 265.63 69.23 265.63 69.23 174 312.62 174 312.62 422"/></svg>
