<svg id="Lag_1" data-name="Lag 1" xmlns="http://www.w3.org/2000/svg" width="170.5" height="96.81" viewBox="0 0 170.5 96.81"><defs><style>.cls-1{fill:#112f3b;}</style></defs><title>ned_prik</title><circle class="cls-1" cx="34.44" cy="12.44" r="6.44"/><circle class="cls-1" cx="48.89" cy="12.44" r="6.44"/><circle class="cls-1" cx="63.35" cy="12.44" r="6.44"/><circle class="cls-1" cx="77.8" cy="12.44" r="6.44"/><circle class="cls-1" cx="92.25" cy="12.44" r="6.44"/><circle class="cls-1" cx="48.58" cy="26.42" r="6.44"/><circle class="cls-1" cx="63.35" cy="26.26" r="6.44"/><circle class="cls-1" cx="77.8" cy="26.42" r="6.44"/><circle class="cls-1" cx="91.78" cy="26.42" r="6.44"/><circle class="cls-1" cx="106.7" cy="26.26" r="6.44"/><circle class="cls-1" cx="121.15" cy="26.26" r="6.44"/><circle class="cls-1" cx="135.61" cy="26.26" r="6.44"/><circle class="cls-1" cx="121.15" cy="12.44" r="6.44"/><circle class="cls-1" cx="135.61" cy="12.44" r="6.44"/><circle class="cls-1" cx="150.06" cy="12.44" r="6.44"/><circle class="cls-1" cx="63.35" cy="40.25" r="6.44"/><circle class="cls-1" cx="77.8" cy="40.4" r="6.44"/><circle class="cls-1" cx="91.78" cy="40.4" r="6.44"/><circle class="cls-1" cx="106.7" cy="40.4" r="6.44"/><circle class="cls-1" cx="121.15" cy="40.4" r="6.44"/><circle class="cls-1" cx="77.8" cy="54.38" r="6.44"/><circle class="cls-1" cx="92.25" cy="54.38" r="6.44"/><circle class="cls-1" cx="91.78" cy="68.36" r="6.44"/><circle class="cls-1" cx="106.55" cy="54.54" r="6.44"/><circle class="cls-1" cx="106.7" cy="12.44" r="6.44"/></svg>
