<svg id="Lag_1" data-name="Lag 1" xmlns="http://www.w3.org/2000/svg" width="230" height="313.99" viewBox="0 0 230 313.99"><defs><style>.cls-1{fill:none;}.cls-2{fill:#6bbab5;}.cls-3{fill:#2b7379;}</style></defs><title>ux</title><path class="cls-1" d="M89.5,39a37.44,37.44,0,0,0-26.92,63.48V97.39A29.57,29.57,0,0,1,92.09,67.87h0c.78,0,1.57,0,2.34.1a29.14,29.14,0,0,1,19.49,9.7,30.11,30.11,0,0,1,7.62,18.25A37.46,37.46,0,0,0,89.5,39Z"/><path class="cls-1" d="M113.93,149.91v41a0,0,0,0,1,0,0c-1.37.43-2.73.9-4.06,1.42h0s0,0,0,0V150.8a77.14,77.14,0,0,1-35.42,1.12v63.51h0s-1.75-4.1-1.77-4.13l-8.13-15a28.21,28.21,0,0,0-26-17.28,27.81,27.81,0,0,0-10.73,2.15,5,5,0,0,0-2.67,6.47L70.22,295.94a19.46,19.46,0,0,0,.93,1.95h0A19.59,19.59,0,0,0,90.36,314H177.8A28.27,28.27,0,0,0,206,285.8V220.45a32.24,32.24,0,0,0-.59-6.09h0V172.13a14.35,14.35,0,0,0-14.16-14.54q-.48,0-1,0a14.21,14.21,0,0,0-13.21,14.13v16.66l0,0h0a31.13,31.13,0,0,0-3.22-.16h-.28V156.79a14.36,14.36,0,0,0-14.16-14.55q-.48,0-1,0a14.22,14.22,0,0,0-13.21,14.14v31.83a0,0,0,0,1,0,0h-2.88s0,0,0,0V150.3a14.65,14.65,0,0,0-6.46-12.21,76.45,76.45,0,0,1-21.86,11.46C113.93,149.67,113.93,149.79,113.93,149.91Z"/><path class="cls-1" d="M109.8,139.12V120.76a48.69,48.69,0,0,1-35.42,2v17.66a66.21,66.21,0,0,0,35.42-1.32Z"/><path class="cls-1" d="M93.51,79.73c-.48,0-1,0-1.42,0A17.76,17.76,0,0,0,74.38,97.39v13.38A37.33,37.33,0,0,0,109.8,108V97.78A18,18,0,0,0,93.51,79.73Z"/><path class="cls-1" d="M40.82,76.5a48.69,48.69,0,1,1,80.78,36.59v11.68a25.48,25.48,0,0,1,4.74-.77c.58,0,1.18-.06,1.76-.06a25.6,25.6,0,0,1,6.22.78c.58-.55,1.16-1.1,1.73-1.67a65.4,65.4,0,1,0-73.47,13.33V117.06A48.64,48.64,0,0,1,40.82,76.5Z"/><path class="cls-2" d="M43.41,123.05a65.51,65.51,0,1,1,92.64,0c-.57.57-1.15,1.12-1.73,1.67a25.75,25.75,0,0,1,10.48,5.42,76.71,76.71,0,1,0-82.22,18.37V136.38A65.29,65.29,0,0,1,43.41,123.05Z"/><path class="cls-2" d="M52,76.5a37.47,37.47,0,1,1,69.5,19.42c0,.62.06,1.24.06,1.86v15.31a48.68,48.68,0,1,0-59,4V102.52A37.34,37.34,0,0,1,52,76.5Z"/><path class="cls-3" d="M92.67,86.67c.41,0,.83,0,1.24,0a15.69,15.69,0,0,1,14.23,15.75v82.58a0,0,0,0,0,0,0h0c1.16-.45,2.34-.87,3.54-1.24,0,0,0,0,0,0V148a12.41,12.41,0,0,1,11.54-12.34q.42,0,.84,0a12.53,12.53,0,0,1,12.36,12.71v33.14a0,0,0,0,0,0,0H139a0,0,0,0,0,0,0V153.67a12.41,12.41,0,0,1,11.54-12.34q.42,0,.84,0A12.54,12.54,0,0,1,163.8,154v27.5h.25a26,26,0,0,1,2.81.14h0a0,0,0,0,0,0,0V167.07a12.42,12.42,0,0,1,11.54-12.34l.84,0a12.53,12.53,0,0,1,12.36,12.71v36.87h0a28.2,28.2,0,0,1,.51,5.31v57.07a24.69,24.69,0,0,1-24.62,24.62H91.17a17.11,17.11,0,0,1-16.78-14.05h0c-.3-.55-.57-1.11-.82-1.7L34.14,180.94a4.34,4.34,0,0,1,2.33-5.65,24.23,24.23,0,0,1,9.37-1.88A24.63,24.63,0,0,1,68.56,188.5l7.1,13.11s1.54,3.61,1.55,3.61h0V102.13A15.51,15.51,0,0,1,92.67,86.67m0-10.31h0A25.81,25.81,0,0,0,66.9,102.13v68c-.62-.47-1.27-.92-1.93-1.36a35,35,0,0,0-19.13-5.69,34.43,34.43,0,0,0-13.34,2.68,14.64,14.64,0,0,0-7.87,19.13L64.06,279.5c.16.39.34.78.52,1.17A27.34,27.34,0,0,0,91.17,301.6h76.36a35,35,0,0,0,34.93-34.93V209.6a37.42,37.42,0,0,0-.52-6.23v-36a22.87,22.87,0,0,0-22.67-23c-.51,0-1,0-1.53,0a22.16,22.16,0,0,0-5.26,1,22.72,22.72,0,0,0-21-14.45c-.51,0-1,0-1.54.06a22.33,22.33,0,0,0-8.57,2.33,22.51,22.51,0,0,0-17.21-8.06c-.51,0-1,0-1.54.06a21.81,21.81,0,0,0-4.14.67V102.47a26.29,26.29,0,0,0-6.7-17.55,25.44,25.44,0,0,0-17-8.48c-.68,0-1.36-.08-2-.08Z"/></svg>
