<svg id="Lag_1" data-name="Lag 1" xmlns="http://www.w3.org/2000/svg" width="370" height="283.93" viewBox="0 0 370 283.93"><defs><style>.cls-1{fill:#6bbab5;}.cls-2{fill:#2b7379;}</style></defs><title>web</title><path class="cls-1" d="M220.31,39.85h0a62.45,62.45,0,0,1,13.35,1.44c17.7,3.84,33.16,15.34,43.54,32.38,10.94,18,15.41,40.41,12.57,63.19l-2.32,18.63,17.28,7.32a38.59,38.59,0,0,1,16.89,13.92A38.15,38.15,0,0,1,290,236.08H89a38,38,0,0,1-27.86-64l11.38-12.23-7-15.16c-1.44-3.1-1.63-5.43-1.18-6.37s2.84-2.53,6.78-3.32L90,131.2l1-19.26c.56-10.48,4.34-20.06,10.66-27,3.84-4.22,10.29-9.25,19.19-9.25a23.21,23.21,0,0,1,10,2.28l17.75,8.4,12.27-15.32c15.9-19.83,37.56-31.2,59.44-31.2m0-24.85c-29.95,0-58.65,15.32-78.84,40.51h0a47.93,47.93,0,0,0-20.6-4.67c-29.09,0-52.88,26.41-54.67,59.77h0c-11.14,2.23-20.06,8-24.34,17-4,8.36-3.32,18.1,1.05,27.53h0A62.74,62.74,0,0,0,26,198h0a63.16,63.16,0,0,0,63,63H290a63.16,63.16,0,0,0,63-63h0a63.2,63.2,0,0,0-38.57-58h0C321.69,81.65,289.65,28,238.94,17a87.69,87.69,0,0,0-18.62-2Z"/><path class="cls-2" d="M140.45,224.71h-8l-6.61-35.24-6.61,35.24h-8.29l-8.08-51.39h8.37L115.49,210l6.61-36.71h7.63L136.34,210l4.26-36.71h7.93Z"/><path class="cls-2" d="M202.71,224.71h-8l-6.61-35.24-6.61,35.24H173.2l-8.08-51.39h8.37L177.75,210l6.61-36.71H192L198.6,210l4.26-36.71h7.93Z"/><path class="cls-2" d="M265,224.71h-8l-6.61-35.24-6.61,35.24h-8.29l-8.08-51.39h8.37L240,210l6.61-36.71h7.63L260.86,210l4.26-36.71h7.93Z"/></svg>
