<svg id="Lag_2" data-name="Lag 2" xmlns="http://www.w3.org/2000/svg" width="1205.13" height="1080" viewBox="0 0 1205.13 1080"><defs><style>.cls-1{fill:none;stroke:#000;stroke-miterlimit:10;stroke-width:3px;}</style></defs><title>splash_skitse</title><path class="cls-1" d="M285.8,265l17.36,85.28,90-21.69a200,200,0,0,0-20.51-83,343.67,343.67,0,0,0-93,5.9l5.73,21.6"/><path class="cls-1" d="M553.37,254.92l24,67.65A157.17,157.17,0,0,1,652,304.92l-24.87-59.71c-2.2-5.26-4.93-11.06-10.29-13-4.46-1.61-9.37,0-13.84,1.58l-50.09,17.86"/><path class="cls-1" d="M228.79,371.28l66,109.64"/><path class="cls-1" d="M231.52,360.47c90.07,69.07,221.18,65.56,309.42,137"/><path class="cls-1" d="M538,495.87l48.57,86.53"/><path class="cls-1" d="M291.71,479.84A1472.29,1472.29,0,0,0,580.39,591.2"/><path class="cls-1" d="M588,588.35l4.21,323.25"/><path class="cls-1" d="M302.17,486.53A2086.55,2086.55,0,0,1,308.76,752"/><path class="cls-1" d="M305.2,758.09,582.37,923.33"/><path class="cls-1" d="M885.17,470.75A1137.46,1137.46,0,0,1,889.69,744"/><path class="cls-1" d="M879,464.6A1065.21,1065.21,0,0,1,582.29,574.85"/><path class="cls-1" d="M879.92,752A1482.43,1482.43,0,0,1,578.67,917.7"/><path class="cls-1" d="M586.55,584.35a497.49,497.49,0,0,1,57.67-107.89"/><path class="cls-1" d="M648.75,471.29A1656.3,1656.3,0,0,1,973.49,362"/><path class="cls-1" d="M984.21,363.39A805.17,805.17,0,0,1,877.34,466"/><path class="cls-1" d="M257.16,351.06,271.11,377"/><path class="cls-1" d="M259.38,350.93A91.42,91.42,0,0,1,299.29,333"/><path class="cls-1" d="M389.07,301.05a606.51,606.51,0,0,1,99.55-34L574,383.35"/><path class="cls-1" d="M421,438.88a458.37,458.37,0,0,0,153.41-50.42"/><path class="cls-1" d="M577.08,387.16a430.08,430.08,0,0,1,81.06-88.45"/><path class="cls-1" d="M660.38,299.35l73.84,11.88"/><path class="cls-1" d="M769.53,303.67c-16.28,7-33,14.43-45.07,27.41s-18.34,33-10.31,48.84c7.58,14.9,25.51,21.86,42.22,22.25,16.37.39,33.24-4.62,45.22-15.78s18.26-28.84,13.8-44.59c-3.91-13.8-15.46-24.64-28.8-29.93s-28.24-5.53-42.38-3.14"/><path class="cls-1" d="M820.44,343.36,930,370.19"/><path class="cls-1" d="M582.66,394.55l79.83,13.87"/><path class="cls-1" d="M710.31,386.85a306.7,306.7,0,0,0-71.08,41.9,109.67,109.67,0,0,1,19.2,31.92"/><path class="cls-1" d="M718.61,382.53A107.28,107.28,0,0,1,746,428.82"/><path class="cls-1" d="M515.89,473.08c11.43-9.28,25.32-16.25,40-16.68,14.18-.41,28.69,5.8,37.17,17.17s10.14,27.8,3,40.06-23.16,19-36.56,14.31"/><path class="cls-1" d="M580.29,394.85l4.06,57.86"/><path class="cls-1" d="M580.73,454.63l4,8"/><path class="cls-1" d="M582.49,530.51l2.22,43.88"/><path class="cls-1" d="M479,328.43c-15.15-5-33.07,2.42-41.29,16.09s-6.74,32.17,2.6,45.1S466,409.68,482,409c9.86-.44,20.08-4,26.1-11.86,7.23-9.4,6.85-22.83,2.76-34-8.6-23.36-33-39.92-57.88-39.29"/><path class="cls-1" d="M455.06,352.77l35.87,32"/><path class="cls-1" d="M485,355l-24,37.89"/><path class="cls-1" d="M732.19,360.34a93.88,93.88,0,0,0,58.93-30.46"/><path class="cls-1" d="M786.21,333a176.11,176.11,0,0,0-15.32,39.77c-1.4,5.6-2.17,12.48,2.17,16.29,4.14,3.64,11.19,2,14.54-2.35s3.55-10.48,2.07-15.78l-15.43-1.25"/><path class="cls-1" d="M734.06,357.92c4.67,3.95,9.44,8,12.51,13.31s4.16,12.16,1.21,17.52-10.73,8-15.61,4.3l.43-13.84,15.62-4.33"/><path class="cls-1" d="M230.78,177.17c-18.06,4.16-36.41,8.84-52,18.85s-28.22,26.41-29.09,44.92c-.69,15,6.37,29.53,16.36,40.73a84.55,84.55,0,0,0,119.1,7"/><path class="cls-1" d="M233.44,177.61a62,62,0,0,1,61.49,65.56"/><path class="cls-1" d="M77.86,175.42l47.38-30,29.57,45.83L112,222.87a151.24,151.24,0,0,1-31.71-43.75"/><path class="cls-1" d="M89.18,324.4,53.92,360l41.8,20.2a207.87,207.87,0,0,0,33.32-43A55.73,55.73,0,0,0,93.77,323"/><path class="cls-1" d="M207.75,227.25l-4.89,56.17,57.59-33.9L209.29,236"/><path class="cls-1" d="M324,128.77l-30.95,53.51,66.32,8a176.6,176.6,0,0,0,21.46-50.43l-55.67-8.19"/><path class="cls-1" d="M428.48,104.36c-7.16-3.17-15.84-.91-22,3.89S396.14,120,392.67,127c-3.57,7.21-6.66,15.5-4.1,23.11,3.44,10.2,15.44,14.69,26.16,15.61,10.15.87,20.78-.38,29.53-5.58S459.5,145.28,459,135.11c-.52-10.46-8.23-19.52-17.52-24.36s-20-6.14-30.42-6.83"/><path class="cls-1" d="M145.66,388.85a223.84,223.84,0,0,0,53.91-44.21,156,156,0,0,1,34.31,35.92"/><path class="cls-1" d="M141.8,394.68l41.1,38.5a136.16,136.16,0,0,1,44.69-44.12"/><path class="cls-1" d="M147.89,462.69a107.8,107.8,0,0,0-67,35,107.34,107.34,0,0,1,62.69,49.73l31.84-38.27a431.77,431.77,0,0,0-42-46.21"/><path class="cls-1" d="M237.34,482.59c-13.41,1.83-23.24,16.68-20.29,29.89s17.51,22.41,30.83,20,23.69-15.41,23.66-28.94c0-9-4.63-18.3-12.62-22.55s-19.15-2.35-24.28,5.11"/><path class="cls-1" d="M879.85,167.63a632,632,0,0,0-56.37,75c-3.19,5-6.41,11.16-3.86,16.5,2.2,4.62,7.72,6.41,12.66,7.74l55,14.74c6.72,1.8,13.94,3.59,20.49,1.26,7.78-2.77,12.46-10.51,16.5-17.7l24-42.66c4.63-8.23,9.43-17.28,8-26.62-2.15-13.79-17-21.94-30.81-24.07s-28.21-.45-41.51-4.67"/><path class="cls-1" d="M855.89,243.11A326.17,326.17,0,0,1,914,206.28a69.47,69.47,0,0,1-1,39.28"/><path class="cls-1" d="M777.74,189.12,746.8,251.23a299.14,299.14,0,0,0,75.43,20.46"/><path class="cls-1" d="M782.15,182.85,858,185"/><path class="cls-1" d="M1016.25,117.42a174,174,0,0,1-2.39,51.52l67.86,1.43a178.83,178.83,0,0,0,1.63-56.92l-69.78.86"/><path class="cls-1" d="M1091.33,197.22a71,71,0,0,0-21.5,45.22l71.5,15.43,17.14-50.3c.59-1.72,1.16-3.7.23-5.27s-3.06-2-4.92-2.3l-62.31-9"/><path class="cls-1" d="M979.65,312.69c-8.43,2.3-16.91,5.21-23.74,10.67s-11.77,13.91-11,22.62,8.45,16.85,17.17,16.26"/><path class="cls-1" d="M975.52,312.74c12.9-7.06,31.51,1.76,34.22,16.21s-11.44,29.41-26,27.5"/><path class="cls-1" d="M1059.91,317.1a92.58,92.58,0,0,1-16.33,37.52L1084.72,374a513.65,513.65,0,0,1,41.69-55.66c-12.53-4-25.31-8-38.46-8.07s-27,4.45-35.13,14.79"/><path class="cls-1" d="M999.62,418.77a377.81,377.81,0,0,1,83-5.47c2.74,8,5.51,16.18,5.48,24.63s-3.36,17.38-10.48,21.94c-4.51,2.89-10,3.74-15.28,4.53l-63.09,9.39-2.29-53"/><path class="cls-1" d="M947.06,501.18c-15.31-3.84-31.84,11.45-29.67,27.09s21.56,25.91,35.93,19.37,19.54-27.31,10.33-40.13A28.14,28.14,0,0,0,938,496.23"/><path class="cls-1" d="M335.45,592.38l-7.66,105.18,3.5-7.43"/><path class="cls-1" d="M335.2,590.36a108.46,108.46,0,0,1,43.9,19.95"/><path class="cls-1" d="M341.06,624.62l46,17.55"/><path class="cls-1" d="M397.05,626.28a251.52,251.52,0,0,0-31.68,83.45,206.2,206.2,0,0,1,49.2,15.9l2.43-5.56"/><path class="cls-1" d="M417.08,712.1l32.12-93.78a197.32,197.32,0,0,1,19.42,94l-7.72-4.29"/><path class="cls-1" d="M423,682.9l57.89-3.45"/><path class="cls-1" d="M512.57,658.2l.08,88.21L508.79,728"/><path class="cls-1" d="M478.86,648.22l35.91,8"/><path class="cls-1" d="M514.79,658.05a39.24,39.24,0,0,0,28-7.67"/><path class="cls-1" d="M599.32,677.77A225.89,225.89,0,0,1,624,765.64l.48-5.68"/><path class="cls-1" d="M612.12,687.71c11-10.42,30.38-8.83,41,2s12.6,28.47,6.47,42.34S640.39,755.93,626,760.59l4.45-6.69"/><path class="cls-1" d="M680.15,674.23l1.78,50.51c.12,3.39.63,7.43,3.66,9,2.11,1.07,4.66.44,6.91-.29a95.33,95.33,0,0,0,34.49-20"/><path class="cls-1" d="M683.62,699.13l40.46-31.21"/><path class="cls-1" d="M674.64,668.55l35.86-24"/><path class="cls-1" d="M742.31,644.64c-13.25,2.48-23.85,15.11-24,28.59,9.23-2.3,19.54-1.77,27.56,3.35s13,15.42,10.24,24.53-14.34,14.94-22.66,10.33"/><path class="cls-1" d="M753.07,644.9l30.23,51.69"/><path class="cls-1" d="M784.79,613.55a58.87,58.87,0,0,0-9.64,37.73c.93,10.26,6.33,21.74,16.48,23.48,7.64,1.3,15.24-3.73,19.34-10.31s5.45-14.46,6.71-22.11"/><path class="cls-1" d="M787.85,645.15c7-8.16,17-17.18,27-13.28,7.86,3.06,10.84,12.62,11.38,21s-.2,17.4,4,24.69L828,672.17"/><path class="cls-1" d="M807.92,612.41l26.2,39.37L828,644.23"/><path class="cls-1" d="M806.08,616.3l48.59,21.39A306.1,306.1,0,0,0,821.18,579"/><path class="cls-1" d="M377,900.33a228,228,0,0,0-110.6,3.85c-7.9,2.28-17.24,7.17-16.74,15.37s10.19,11.88,18.17,13.53a611.57,611.57,0,0,0,204.94,7.29"/><path class="cls-1" d="M458.65,906.13c-6.92-.51-14.09-1-20.62,1.37s-12.29,8.33-12.1,15.27c.29,10.37,12.22,15.81,22.25,18.48a456.11,456.11,0,0,0,230.79.57"/><path class="cls-1" d="M679.64,890.23A441.13,441.13,0,0,1,938.8,912.16c-71.73,46.46-162.95,61.7-245.88,41.06"/><path class="cls-1" d="M700.24,918.39l52.41-3.64c7.85-.55,18.63,1.37,18.84,9.24.18,7.06-8.72,10.19-15.74,11.08a550.26,550.26,0,0,1-135.23.42"/></svg>
