<svg id="Lag_2" data-name="Lag 2" xmlns="http://www.w3.org/2000/svg" width="697.33" height="606.74" viewBox="0 0 697.33 606.74"><defs><style>.cls-1{fill:none;stroke:#000;stroke-miterlimit:10;stroke-width:3px;}</style></defs><title>Tegnebræt 1</title><path class="cls-1" d="M570.73,115.28c-115.6,106-180,265.51-170.4,422.06"/><path class="cls-1" d="M563.2,113.72c-83.22-59.29-190.71-87-290.51-65S84,145.38,54.42,243.2s7.25,214.57,92.88,270.33c74.06,48.21,168.59,47.38,256.92,44.9"/><path class="cls-1" d="M400.28,533v23.17"/><path class="cls-1" d="M288.72,39.62C212.85,101.36,175,202.82,179.36,300.52s47.57,191.1,109.43,266.86"/><path class="cls-1" d="M364,35.81,360.49,573"/><path class="cls-1" d="M100.59,150.89a2424.12,2424.12,0,0,0,434.31,2.54"/><path class="cls-1" d="M45.15,346.44a988.33,988.33,0,0,1,384.1-8.52"/><path class="cls-1" d="M141.82,509.26a674.25,674.25,0,0,1,269-55.1"/><path class="cls-1" d="M546,268.59c-19.27-6.22-41.35-6.48-58.82,3.73s-28.47,32.46-21.87,51.6c4.65,13.5,16.92,23.31,30.31,28.27,17.07,6.33,37.07,5.54,52.67-3.85s25.9-27.75,23.95-45.85-17.13-34.44-35.27-36"/><path class="cls-1" d="M532.79,189.55a191.59,191.59,0,0,0-5.94,69.56"/><path class="cls-1" d="M541.38,182.14l86.39,4"/><path class="cls-1" d="M627.39,185.4,629,268.57,560.4,267"/><path class="cls-1" d="M586.06,314.47a125.1,125.1,0,0,0-53.44,89.26l115.51,2.33a218.58,218.58,0,0,0-54.23-99.61l-10.34,11.67"/><path class="cls-1" d="M474,389.65l75.85-8.34"/><path class="cls-1" d="M473.3,399.12a478.17,478.17,0,0,1,87.64,84.45,112.22,112.22,0,0,1,16.31-74.87"/><path class="cls-1" d="M659.56,448.18c-11.82-3.42-23.84-6.87-36.15-6.8s-25.15,4.18-33.09,13.58c-8.35,9.9-9.87,24.78-4.46,36.55s17.18,20.15,29.95,22.32c23.05,3.91,47.66-14.54,49.6-37.84.71-8.59-1.57-17.76-7.7-23.83s-16.47-8.09-23.66-3.34"/></svg>