<svg xmlns="http://www.w3.org/2000/svg" width="398.36" height="543.84" viewBox="0 0 398.36 543.84"><defs><style>.cls-1{fill:none;}.cls-1,.cls-2{stroke:#000;stroke-miterlimit:10;stroke-width:3px;}</style></defs><title>dyr_skitse</title><g id="Lag_3" data-name="Lag 3"><path class="cls-1" d="M55.13,94.7a92.69,92.69,0,0,1,32.72,62.94"/><path class="cls-1" d="M55.64,93.29C42,111.9,41.2,138,50.25,159.17s26.86,37.79,47,49.08"/><path class="cls-1" d="M58.11,91.11A149.07,149.07,0,0,1,106.5,136.9"/><path class="cls-1" d="M139,135.39c-10.5-1.45-22.26-2.59-30.66,3.87-8.9,6.83-10.46,19.4-11.31,30.59-.69,9-1.26,18.64,3,26.67s12.43,13,21,15.27,17.68,2.19,26.6,2.06c12.06-.17,25.45-.88,33.9-9.49,6.56-6.68,8.48-16.82,7.47-26.13a50.57,50.57,0,0,0-61.93-43.77"/><path class="cls-2" d="M155.41,143.23c-8-1.2-16.13,6.23-15.63,14.31s9.49,14.45,17.27,12.23,12-12.42,8.15-19.51-14.81-8.95-20.82-3.54"/><path class="cls-1" d="M115,132.08c45-25.33,101.34-29.49,149.57-11.05"/><path class="cls-1" d="M275.19,129.44c-15.8-7.46-36.29-3.28-47.92,9.77s-13.42,33.88-4.19,48.72c8.43,13.57,24.06,21,39.59,24.77,9.31,2.24,19.05,3.41,28.47,1.7s18.55-6.54,24-14.41c10.15-14.68,4.71-35.9-7.51-48.9s-29.53-19.72-46.23-26"/><path class="cls-2" d="M286.32,146.9c-3.36-4-10.75-2.46-13,2.26s.42,10.82,5,13.27,10.49,1.62,14.91-1.16c1.06-7.7-6.26-15.4-14-14.73"/><path class="cls-1" d="M270.63,125.62c.56-8.15,8.32-14.07,16.16-16.36s16.22-2.12,24.1-4.25a43.18,43.18,0,0,0,28.53-25.72"/><path class="cls-1" d="M336.2,77.81c9.15,13.4,18.26,27.09,23.43,42.46s6,32.86-1.12,47.41S335,192.76,319,190"/><path class="cls-1" d="M318.87,98.58c9.79,16.63,3.59,40.66-13,50.46"/><path class="cls-1" d="M133,228.73a106.91,106.91,0,0,0,150.1,1"/><path class="cls-1" d="M96.57,200.2c-4.17,22.5,10.86,44.4,28.86,58.54a132.78,132.78,0,0,0,174.92-9.58c14.22-13.93,25.64-35.33,16.86-53.2"/><path class="cls-1" d="M161.81,287.41a99.69,99.69,0,0,0,48.52,134.83"/><path class="cls-1" d="M251.81,283.58a103.27,103.27,0,0,1-39,137.3"/><path class="cls-1" d="M181.35,299.05l47.85,3.41"/><path class="cls-1" d="M177.93,312.42a410.93,410.93,0,0,1,65-1.37"/><path class="cls-1" d="M188.18,332.44l50.14-.71"/><path class="cls-1" d="M181.36,342h49"/><path class="cls-1" d="M193.89,324l29.62-2.28"/><path class="cls-1" d="M170,365l60.37,3.42"/><path class="cls-1" d="M204.14,374.12l23.92.23"/><path class="cls-1" d="M192.73,355.61l42.14-3.52"/><path class="cls-1" d="M193.89,387.94H240.6"/><path class="cls-1" d="M161.47,284.53c-15.59,15.94-40.07,19.39-57.92,32.74a63.31,63.31,0,0,0-25,48.21c-.15,5.57,1,12,5.85,14.76,3.09,1.72,6.86,1.43,10.39,1.08,8.19-.8,16.49-1.62,24.2-4.51s14.88-8.13,18.31-15.61"/><path class="cls-1" d="M140.09,361.66a127.17,127.17,0,0,1-16.84,91.14c-2.27,3.62-4.84,7.84-3.44,11.88,1.62,4.68,7.42,6.11,12.32,6.83,9,1.31,19.54,2.14,25.8-4.46,4.09-4.3,5.08-10.59,5.88-16.47l7.95-58.48"/><path class="cls-1" d="M260,278.57c33.21,15.16,57.32,48.65,61.16,84.95.28,2.59.36,5.51-1.36,7.47-2.65,3-7.56,1.83-11.24.18a111.36,111.36,0,0,1-30.26-20"/><path class="cls-1" d="M275.55,349.12a201.93,201.93,0,0,0,14.56,105.47c-14,2.17-29.88,3.89-41-4.9-6.18-4.87-9.85-12.36-11.57-20s-1.68-15.62-1.62-23.48"/><path class="cls-1" d="M320.29,342.11a26.62,26.62,0,0,1,23.82-3,65,65,0,0,1-22.63,8.8"/><path class="cls-1" d="M322.66,352.64A41.36,41.36,0,0,1,349.52,357a43,43,0,0,1-22.3,2.06"/><path class="cls-1" d="M327,360.53a69.84,69.84,0,0,1,12,26,24.14,24.14,0,0,1-22-9.15"/><path class="cls-1" d="M315.75,378.62A37.59,37.59,0,0,1,304.5,395.7c-1.59,1.37-3.76,2.67-5.66,1.79-2.14-1-2.34-3.89-2.22-6.24q.56-10.86,1.1-21.73"/><path class="cls-1" d="M84.37,345a42.64,42.64,0,0,0-28.84,1.62l26.7,3.67"/><path class="cls-1" d="M73.06,353.46a45.7,45.7,0,0,0-18.75,21.83,26,26,0,0,0,20.82-9.41"/><path class="cls-1" d="M79.22,377.12c-3.38-1.66-7.9,1.55-7.75,5.31s4.45,6.61,8.08,5.6,5.85-5.28,5-8.93"/><path class="cls-1" d="M84.69,378.71c2.79,5.28,5.7,10.69,10.29,14.5s11.36,5.63,16.64,2.84,7.19-11.12,2.6-14.93"/><path class="cls-2" d="M134.28,302.76c6.29,5.22,4.11,17.2-3.62,19.86s-16.83-5.42-15.09-13.41"/><path class="cls-2" d="M97.74,341.45A10.44,10.44,0,0,0,92.28,351a9.5,9.5,0,0,0,6.88,8.44c6.21,1.55,12.65-5.69,10.38-11.68s-11.9-7.13-15.51-1.84"/><path class="cls-2" d="M127.81,339.91l-3,.47c-4.44,4.1-3.24,12.59,2.16,15.29s12.92-1.42,13.54-7.44-5.91-11.57-11.75-10"/><path class="cls-2" d="M293.83,310.73a12.2,12.2,0,0,0,11.82,17.95"/><path class="cls-2" d="M274.77,324c-.68,3.1-1.35,6.37-.44,9.41s4,5.68,7.09,4.92c4.51-1.11,4.48-8.4.66-11.05s-9-1.79-13.41-.2"/><path class="cls-2" d="M317.38,348.76a11.37,11.37,0,0,0-14.24,17.73"/><path class="cls-2" d="M275.93,413.41c-9.62.29-17.15,11.54-13.75,20.55s16.49,12.47,23.9,6.32"/><path class="cls-2" d="M144.88,400.79c10.71.38,19.21,12.57,15.86,22.75s-17.42,14.94-26.26,8.89"/></g></svg>
