<svg id="Layer_1" data-name="Layer 1" xmlns="http://www.w3.org/2000/svg" width="63.85mm" height="37.39mm" viewBox="0 0 181 106"><title>Artboard 1</title><path d="M14,14.75H11.2v14H9.62v-14H6.83V13.32H14Z"/><path d="M19.7,28.72H18.11V22.87l-3.32-9.55h1.65l2.46,7.74,2.49-7.74H23L19.7,22.87Z"/><path d="M32.15,16.57v2.58c0,2.2-1.28,3.25-3.61,3.25H26.41v6.32H24.82V13.32h3.72C30.87,13.32,32.15,14.37,32.15,16.57Zm-1.59.4c0-1.61-.63-2.22-2.11-2.22h-2V21h2c1.48,0,2.11-.61,2.11-2.22Z"/><path d="M37.82,13.14H38c2.33,0,3.61,1.06,3.61,3.26v9.24c0,2.2-1.28,3.26-3.61,3.26h-.18c-2.33,0-3.6-1.06-3.6-3.26V16.4C34.22,14.18,35.49,13.14,37.82,13.14Zm.09,14.33c1.48,0,2.11-.62,2.11-2.23V16.79c0-1.6-.63-2.22-2.11-2.22s-2.11.62-2.11,2.22v8.45C35.8,26.85,36.44,27.47,37.91,27.47Z"/><path d="M51.55,25.64c0,2.24-1.27,3.26-3.61,3.26h-.17c-2.33,0-3.61-1-3.61-3.26V16.4c0-2.16,1.28-3.26,3.61-3.26h.17c2.34,0,3.61,1.1,3.61,3.26v2.07H50V16.79c0-1.6-.64-2.22-2.11-2.22s-2.12.62-2.12,2.22v8.45c0,1.61.64,2.23,2.12,2.23S50,26.85,50,25.24V22.4h-2.2V21h3.78Z"/><path d="M60.35,28.72,58,22.23H55.73v6.49H54.15V13.32h3.72c2.33,0,3.6,1,3.6,3.25V19a2.83,2.83,0,0,1-1.95,3L62,28.72Zm-4.62-7.9h2.05c1.47,0,2.11-.62,2.11-2.22V17c0-1.61-.64-2.22-2.11-2.22H55.73Z"/><path d="M69.2,24.91H65.46l-.77,3.81H63.14l3.26-15.4h1.89l3.3,15.4H70Zm-.27-1.38-1.6-8-1.61,8Z"/><path d="M73.4,13.32h6.14v1.43H75v5.56h3.87v1.41H75v7H73.4Z"/><path d="M81.47,28.72V13.32h1.59v15.4Z"/><path d="M6.47,31.47v-1.1h78v1.1Z"/><path d="M11.51,42h-2v9.75H8.72V42h-2v-.75h4.77Z"/><path d="M15.29,51.72h-.81v-4.1l-2.34-6.4H13l1.89,5.45,1.89-5.45h.85l-2.34,6.4Z"/><path d="M23.86,43.44v1.65c0,1.47-.81,2.22-2.4,2.22H19.79v4.41H19V41.22h2.48C23.05,41.22,23.86,42,23.86,43.44Zm-.81.27c0-1.24-.47-1.74-1.65-1.74H19.79v4.59H21.4c1.18,0,1.65-.5,1.65-1.74Z"/><path d="M27.79,41.1h.12c1.59,0,2.4.75,2.4,2.22v6.3c0,1.47-.81,2.22-2.4,2.22h-.12c-1.59,0-2.4-.75-2.4-2.22v-6.3C25.39,41.83,26.2,41.1,27.79,41.1Zm.06,10c1.18,0,1.65-.5,1.65-1.74V43.59c0-1.24-.47-1.74-1.65-1.74s-1.65.5-1.65,1.74v5.76C26.2,50.59,26.66,51.09,27.85,51.09Z"/><path d="M37.09,49.62c0,1.5-.81,2.22-2.4,2.22h-.12c-1.59,0-2.4-.71-2.4-2.22v-6.3c0-1.44.81-2.22,2.4-2.22h.12c1.59,0,2.4.78,2.4,2.22V44.7h-.81V43.59c0-1.24-.47-1.74-1.65-1.74S33,42.35,33,43.59v5.76c0,1.24.46,1.74,1.65,1.74s1.65-.5,1.65-1.74v-2.1H34.57v-.73h2.52Z"/><path d="M43.34,51.72l-1.72-4.53H39.79v4.53H39V41.22h2.47c1.59,0,2.4.75,2.4,2.22V45a1.91,1.91,0,0,1-1.44,2.1l1.8,4.65Zm-.3-7v-1c0-1.24-.46-1.74-1.65-1.74h-1.6v4.49h1.6C42.58,46.46,43,45.94,43,44.71Z"/><path d="M49.33,49H46.51l-.59,2.7h-.81l2.34-10.5h.93l2.37,10.5h-.84Zm-.17-.74L47.92,42.5l-1.25,5.78Z"/><path d="M52.1,41.22h4.07V42H52.91v4.12H55.7v.75H52.91v4.88H52.1Z"/><path d="M57.58,51.72V41.22h.81v10.5Z"/><path d="M66.89,42h-2v9.75H64.1V42h-2v-.75h4.77Z"/><path d="M68.21,51.72V41.22H69v10.5Z"/><path d="M75.13,42h-2v9.75h-.81V42h-2v-.75h4.77Z"/><path d="M80.33,51.72H76.39V41.22h.81V51h3.13Z"/><path d="M81.62,51.72V41.22h4.13V42H82.43V46h2.85v.75H82.43V51h3.36v.75Z"/><path d="M91,44.85V43.5c0-1.15-.42-1.67-1.54-1.67s-1.55.52-1.55,1.67v.73c0,.79.27,1,1.07,1.42l1.6.88a2,2,0,0,1,1.26,1.77v1.35c0,1.5-.76,2.19-2.35,2.19h0c-1.59,0-2.36-.68-2.36-2.19V47.94h.81v1.47c0,1.14.42,1.69,1.56,1.69S91,50.55,91,49.41v-.84c0-.78-.31-1-1.11-1.5l-1.57-.86c-.87-.49-1.25-.9-1.25-1.73V43.26c0-1.44.9-2.16,2.34-2.16h0c1.44,0,2.34.72,2.34,2.16v1.59Z"/><path d="M97.94,51.72,95.74,46l-1.37,2.23v3.53h-.81V41.22h.81v5.67l3.36-5.67h.9l-2.38,3.91,2.56,6.59Z"/><path d="M107.81,51v.75h-4.17V49H101l-.87,2.7h-.83l3.41-10.5h5.07V42h-3.32V46h2.85v.75h-2.85V51Zm-4.17-2.67V42h-.4l-2,6.33Z"/><path d="M113.77,51.72,112,47.19h-1.83v4.53h-.81V41.22h2.48c1.59,0,2.4.75,2.4,2.22V45a1.91,1.91,0,0,1-1.44,2.1l1.8,4.65Zm-.3-7v-1c0-1.24-.47-1.74-1.65-1.74h-1.61v4.49h1.61C113,46.46,113.47,45.94,113.47,44.71Z"/><path d="M119.86,50h-.47l-2.46-6.68v8.45h-.76V41.22H117l2.64,7.27,2.67-7.27h.84v10.5h-.81V43.27Z"/><path d="M128.11,46.06h-.89V45h.89Zm0,5.66h-.89v-1.1h.89Z"/><path d="M137.83,40a1,1,0,0,1,.78-.31,1.06,1.06,0,0,1,.79.3,1.09,1.09,0,0,1,.3.8v9.79a.28.28,0,0,0,.32.31h.39v.81l-.42,0c-.72-.08-1.08-.44-1.08-1.09V40.84a.27.27,0,0,0-.31-.31c-.19,0-.29.1-.29.31V51.72h-.62l-5-9.92v8.81a1.09,1.09,0,0,1-.3.79,1.06,1.06,0,0,1-.78.3h-.4v-.78h.39a.27.27,0,0,0,.31-.31V39.72h.62l5,9.93V40.82A1.08,1.08,0,0,1,137.83,40Z"/><path d="M148.52,39.72a1.09,1.09,0,0,1,.8.31,1,1,0,0,1,.31.78,1,1,0,0,1-.31.79,1.09,1.09,0,0,1-.8.31h-4.2a.94.94,0,0,0-1,1,1,1,0,0,0,.27.73,1,1,0,0,0,.73.28h2.81A1.06,1.06,0,0,1,148.22,45a1.09,1.09,0,0,1-.3.8,1.06,1.06,0,0,1-.79.3h-2.81a.94.94,0,0,0-1,1,.89.89,0,0,0,1,1h4.2a1.06,1.06,0,0,1,1.11,1.11,1.06,1.06,0,0,1-.32.78,1.09,1.09,0,0,1-.79.31h-4.89c-.21,0-.31.1-.31.3s.1.3.31.3h6.69v.8h-6.69a1.08,1.08,0,0,1-1.11-1.1,1,1,0,0,1,.32-.78,1.06,1.06,0,0,1,.79-.31h4.89c.21,0,.32-.1.32-.29a.28.28,0,0,0-.32-.31h-4.2a1.75,1.75,0,0,1-1.29-.51,1.79,1.79,0,0,1-.51-1.31,1.74,1.74,0,0,1,1.8-1.8h2.81a.3.3,0,0,0,0-.6h-2.81a1.8,1.8,0,1,1,0-3.6h4.2c.21,0,.32-.1.32-.3s-.11-.3-.32-.3h-6.6V50.62a1,1,0,0,1-.31.79,1,1,0,0,1-.78.31h-.41v-.8h.39a.28.28,0,0,0,.32-.3V39.72Z"/><path d="M152.56,41.2a5.34,5.34,0,1,1,4.89,9v.73h4.93v.8h-5.74V49.51l.34,0A4.25,4.25,0,0,0,159.77,48a4.45,4.45,0,0,0,1.11-3,4.54,4.54,0,1,0-9.07,0,4.45,4.45,0,0,0,1.11,3,4.21,4.21,0,0,0,2.77,1.51l.35,0v2.21h-5.73v-.8h4.93v-.73A5.33,5.33,0,0,1,151,45,5.15,5.15,0,0,1,152.56,41.2Z"/><path d="M169,40a1,1,0,0,1,.78-.31,1.06,1.06,0,0,1,.79.3,1.09,1.09,0,0,1,.3.8v9.79a.28.28,0,0,0,.32.31h.39v.81l-.42,0c-.72-.08-1.08-.44-1.08-1.09V40.84a.27.27,0,0,0-.31-.31c-.19,0-.29.1-.29.31V51.72h-.62l-5-9.92v8.81a1.09,1.09,0,0,1-.3.79,1.06,1.06,0,0,1-.78.3h-.4v-.78h.39a.27.27,0,0,0,.31-.31V39.72h.62l5,9.93V40.82A1.08,1.08,0,0,1,169,40Z"/><path d="M11.51,65h-2v9.75H8.72V65h-2v-.75h4.77Z"/><path d="M12.83,74.72V64.22h.81v10.5Z"/><path d="M19.75,65h-2v9.75H17V65H15v-.75h4.77Z"/><path d="M25,74.72H21V64.22h.81V74H25Z"/><path d="M26.24,74.72V64.22h4.13V65H27.05v4H29.9v.75H27.05V74h3.36v.75Z"/><path d="M35.6,67.85V66.5c0-1.15-.42-1.67-1.54-1.67s-1.55.52-1.55,1.67v.73c0,.79.27,1,1.07,1.42l1.6.88a2,2,0,0,1,1.26,1.77v1.35c0,1.5-.76,2.19-2.35,2.19h0c-1.59,0-2.36-.68-2.36-2.19V70.94h.81v1.47c0,1.14.42,1.69,1.56,1.69s1.56-.55,1.56-1.69v-.84c0-.78-.31-1-1.11-1.5L33,69.21c-.87-.49-1.25-.9-1.25-1.73V66.26c0-1.44.9-2.16,2.34-2.16h0c1.44,0,2.34.72,2.34,2.16v1.59Z"/><path d="M42.56,74.72,40.36,69,39,71.19v3.53h-.81V64.22H39v5.67l3.36-5.67h.9l-2.38,3.91,2.56,6.59Z"/><path d="M52.43,74v.75H48.26V72H45.61l-.87,2.7h-.83l3.41-10.5h5.07V65H49.07v4h2.85v.75H49.07V74ZM48.26,71.3V65h-.4l-2,6.33Z"/><path d="M58.39,74.72l-1.73-4.53H54.83v4.53H54V64.22H56.5c1.59,0,2.4.75,2.4,2.22V68a1.91,1.91,0,0,1-1.44,2.1l1.8,4.65Zm-.3-7v-1c0-1.24-.47-1.74-1.65-1.74H54.83v4.49h1.61C57.62,69.46,58.09,68.94,58.09,67.71Z"/><path d="M64.48,73H64l-2.46-6.68v8.45h-.76V64.22h.79l2.64,7.27,2.67-7.27h.84v10.5h-.81V66.27Z"/><path d="M72.73,69.06h-.89V68h.89Zm0,5.66h-.89v-1.1h.89Z"/><path d="M75.65,74.72a.18.18,0,0,1,.16-.19,1.23,1.23,0,0,1,.34,0,.42.42,0,0,0,.34-.15.74.74,0,0,0,.16-.53V62.72a.21.21,0,0,1,.2-.2h7a.21.21,0,0,1,.2.2.18.18,0,0,1-.06.14.2.2,0,0,1-.14.06H77.05v5.6h3.89c.33-.67.75-1,1.26-1a1.08,1.08,0,0,1,.73.25.72.72,0,0,1,.29.52.61.61,0,0,1-.07.25.42.42,0,0,1-.18.17,1.39,1.39,0,0,1-.26.1,1.22,1.22,0,0,1-.33.06l-.37,0h-.82a4.77,4.77,0,0,0-.36,1.88,4.48,4.48,0,0,0,.27,1.58,3.47,3.47,0,0,0,.69,1.18,3.32,3.32,0,0,0,1,.71,2.51,2.51,0,0,0,1.09.25.2.2,0,0,1,0,.4,2.87,2.87,0,0,1-1.2-.27,3.93,3.93,0,0,1-1.09-.75,3.75,3.75,0,0,1-.81-1.27,4.54,4.54,0,0,1-.31-1.72,5.77,5.77,0,0,1,.33-2H77.05v4.9a1,1,0,0,1-.3.85,1.36,1.36,0,0,1-.9.25.18.18,0,0,1-.14-.06A.2.2,0,0,1,75.65,74.72Zm5.76-6.2h.69c.48,0,.71-.09.71-.26s-.06-.16-.2-.24a.78.78,0,0,0-.41-.12C81.92,67.92,81.65,68.12,81.41,68.52Z"/><path d="M84.64,73.22v-4.5a.17.17,0,0,1,.07-.14.18.18,0,0,1,.14-.06.21.21,0,0,1,.2.2v4.5a1.83,1.83,0,0,0,.21,1,.67.67,0,0,0,.58.35.18.18,0,0,1,.14.06.19.19,0,0,1,0,.28.18.18,0,0,1-.14.06,1,1,0,0,1-1-.61,1,1,0,0,1-1,.61.18.18,0,0,1-.14-.06.19.19,0,0,1,0-.28.18.18,0,0,1,.14-.06c.32,0,.52-.07.6-.22a2.35,2.35,0,0,0,.18-.88C84.63,73.33,84.64,73.26,84.64,73.22Zm.21-6.81a.55.55,0,0,1,.44.19.6.6,0,0,1,.15.4.58.58,0,0,1-.18.45.66.66,0,0,1-.4.16h0a.6.6,0,0,1-.6-.59.55.55,0,0,1,.19-.45.56.56,0,0,1,.39-.16Zm-.15.46a.22.22,0,0,0,0,.14.2.2,0,0,0,.06.14.18.18,0,0,0,.15.06.15.15,0,0,0,.13-.06A.24.24,0,0,0,85,67a.18.18,0,0,0-.21-.2A.18.18,0,0,0,84.7,66.87Z"/><path d="M87.05,73.22V62.72a.2.2,0,0,1,.4,0v10.5a1.24,1.24,0,0,0,.39.93,1.2,1.2,0,0,0,.81.37.2.2,0,0,1,0,.4,1.47,1.47,0,0,1-.77-.24,1.7,1.7,0,0,1-.61-.64,1.41,1.41,0,0,1-1.42.88.2.2,0,0,1,0-.4,1.15,1.15,0,0,0,.86-.3A1.66,1.66,0,0,0,87.05,73.22Z"/><path d="M89.62,73.68s0-.21-.08-.55a8.61,8.61,0,0,1-.09-1.42A6.76,6.76,0,0,1,89.6,70a1.92,1.92,0,0,1,1.54-1.4,4.37,4.37,0,0,1,1-.1,2.51,2.51,0,0,1,2.3.92v-.72a.2.2,0,0,1,.06-.14.18.18,0,0,1,.14-.06.21.21,0,0,1,.2.2v4.49s0,.1,0,.18,0,.35,0,.44a2.48,2.48,0,0,0,.07.3.41.41,0,0,0,.12.23.52.52,0,0,0,.21.11.89.89,0,0,0,.35,0,.18.18,0,0,1,.14.06.19.19,0,0,1,0,.28.18.18,0,0,1-.14.06,1.09,1.09,0,0,1-.83-.27,1.33,1.33,0,0,1-.3-.77,2.47,2.47,0,0,1-2.37,1A2.67,2.67,0,0,1,90,74.15a.93.93,0,0,1-.48.58,1.6,1.6,0,0,1-.8.19c-.15,0-.23-.07-.23-.2s.08-.2.24-.2a.94.94,0,0,0,.7-.23A.8.8,0,0,0,89.62,73.68Zm.23-2A6.66,6.66,0,0,0,90,73.33a1.53,1.53,0,0,0,1.13,1.07,3.83,3.83,0,0,0,1,.12,2.13,2.13,0,0,0,2-.81,3.5,3.5,0,0,0,.3-1.61v-.84c0-.12,0-.26,0-.43a3,3,0,0,0-.05-.41c0-.1,0-.22-.09-.35a.89.89,0,0,0-.14-.34l-.21-.27a1.05,1.05,0,0,0-.29-.23,3.52,3.52,0,0,0-.39-.16,1.76,1.76,0,0,0-.49-.12,5.85,5.85,0,0,0-.62,0,2.12,2.12,0,0,0-2,.81,3.62,3.62,0,0,0-.3,1.58Z"/><path d="M99.15,74.52a.16.16,0,0,1,.13.06.19.19,0,0,1,0,.28.16.16,0,0,1-.13.06,2.44,2.44,0,0,1-2.37-1,1.44,1.44,0,0,1-.3.78,1.12,1.12,0,0,1-.84.26.16.16,0,0,1-.13-.06.19.19,0,0,1,0-.28.16.16,0,0,1,.13-.06c.33,0,.53-.07.61-.22a2.36,2.36,0,0,0,.18-.89c0-.09,0-.16,0-.2V64.73a.2.2,0,0,1,.06-.14.22.22,0,0,1,.15-.06.21.21,0,0,1,.2.2v1.79h2.3a.16.16,0,0,1,.13.06.2.2,0,0,1,.06.14.18.18,0,0,1-.06.14.16.16,0,0,1-.13.06h-2.3v4.79A6.79,6.79,0,0,0,97,73.33a1.55,1.55,0,0,0,1.13,1.07A3.91,3.91,0,0,0,99.15,74.52Z"/><path d="M100.34,71.79c0,.23,0,.42,0,.56s0,.31,0,.51a1.74,1.74,0,0,0,.1.47,3.09,3.09,0,0,0,.17.39.89.89,0,0,0,.29.34,2.5,2.5,0,0,0,.4.25,2.17,2.17,0,0,0,.56.16,5.5,5.5,0,0,0,.74,0,3.47,3.47,0,0,0,1-.13,1.68,1.68,0,0,0,.67-.33,1.28,1.28,0,0,0,.38-.54,2.45,2.45,0,0,0,.17-.67,6.24,6.24,0,0,0,0-.81V68.72a.2.2,0,0,1,.06-.14.18.18,0,0,1,.14-.06.21.21,0,0,1,.2.2V72c0,1,0,1.55,0,1.63,0,.41.13.66.3.77a.85.85,0,0,0,.46.1.2.2,0,0,1,0,.4,1.08,1.08,0,0,1-.8-.26,1.41,1.41,0,0,1-.34-.78,2.46,2.46,0,0,1-2.36,1,2.67,2.67,0,0,1-2.19-.77.93.93,0,0,1-.48.58,1.6,1.6,0,0,1-.8.19c-.15,0-.23-.07-.23-.2s.08-.2.23-.2a1,1,0,0,0,.71-.23.84.84,0,0,0,.23-.61,1,1,0,0,0,0-.27,4.89,4.89,0,0,1-.08-.6c0-.29,0-.68,0-1.17V68.72a.17.17,0,0,1,.07-.14.2.2,0,0,1,.34.14Z"/><path d="M106.89,68.61a1.33,1.33,0,0,1,.16-.65.49.49,0,0,1,.42-.32.41.41,0,0,1,.29.15.45.45,0,0,1,.15.3.13.13,0,0,1,0,.06v.75a13.34,13.34,0,0,0,1.43-.12,13.62,13.62,0,0,1,1.54-.12.75.75,0,0,1,.47.15,1,1,0,0,1,.3.34,2.11,2.11,0,0,1,.15.53,4.76,4.76,0,0,1,.07.58c0,.17,0,.37,0,.6s0,.41,0,.71,0,.53,0,.7,0,.46,0,.64a5,5,0,0,0,.1.6,1.72,1.72,0,0,0,.21.53,1.11,1.11,0,0,0,.37.34,1,1,0,0,0,.56.14.18.18,0,0,1,.14.06.19.19,0,0,1,0,.28.18.18,0,0,1-.14.06,1.83,1.83,0,0,1-.68-.13,1.44,1.44,0,0,1-.48-.36,1.91,1.91,0,0,1-.3-.57,4.1,4.1,0,0,1-.15-.73,7.25,7.25,0,0,1,0-.86c0-.17,0-.41,0-.71s0-.53,0-.7a4.5,4.5,0,0,0-.14-1.38c-.09-.28-.25-.41-.46-.41a12.75,12.75,0,0,0-1.5.11,13.14,13.14,0,0,1-1.47.12v3.93a2,2,0,0,1-.52,1.21,1.68,1.68,0,0,1-1.27.48.2.2,0,0,1-.14-.06.22.22,0,0,1,0-.28.2.2,0,0,1,.14-.06,1.27,1.27,0,0,0,1.39-1.31V69.27a.82.82,0,0,1-.48-.2A.65.65,0,0,1,106.89,68.61Zm.63.27v-.74l0-.07a1,1,0,0,0-.12.23.89.89,0,0,0-.06.3A.26.26,0,0,0,107.52,68.88Z"/><path d="M114.1,73.68a5.34,5.34,0,0,0-.1-.61,6.87,6.87,0,0,1-.1-1.16c0-.29,0-.54,0-.76a4.63,4.63,0,0,1,.09-.7,2.48,2.48,0,0,1,.18-.63,2.67,2.67,0,0,1,.32-.53,1.79,1.79,0,0,1,.49-.42,2.77,2.77,0,0,1,.69-.25,3.87,3.87,0,0,1,.94-.1,3.37,3.37,0,0,1,1.12.17,2.48,2.48,0,0,1,.82.46,2,2,0,0,1,.5.6,1.43,1.43,0,0,1,.17.65,1.12,1.12,0,0,1-.21.68,1.49,1.49,0,0,1-.6.47,4.59,4.59,0,0,1-.84.29,7.23,7.23,0,0,1-1,.17l-1.07.07-1,0h-.17v.17a3.65,3.65,0,0,0,.12.87,2.19,2.19,0,0,0,.35.7,1.59,1.59,0,0,0,.71.51,3.36,3.36,0,0,0,1.13.17,2.28,2.28,0,0,0,1-.28,2.22,2.22,0,0,1,.9-.29,1.51,1.51,0,0,1,.53.09,1.35,1.35,0,0,1,.4.2,1.42,1.42,0,0,0,.32.19.75.75,0,0,0,.34.09.2.2,0,0,1,0,.4,1,1,0,0,1-.53-.14l-.5-.28a1,1,0,0,0-1.06,0,6.74,6.74,0,0,1-.64.28,1.92,1.92,0,0,1-.77.14,2.62,2.62,0,0,1-2.17-.84,1,1,0,0,1-.47.63,1.63,1.63,0,0,1-.83.21c-.15,0-.23-.07-.23-.2s.08-.2.23-.2a1,1,0,0,0,.71-.23A.84.84,0,0,0,114.1,73.68Zm4.74-3.28a1,1,0,0,0-.14-.48,1.81,1.81,0,0,0-.41-.48,1.88,1.88,0,0,0-.69-.37,3,3,0,0,0-1-.15,3.8,3.8,0,0,0-.8.08,2.44,2.44,0,0,0-.6.22,1.29,1.29,0,0,0-.41.36,1.7,1.7,0,0,0-.27.43,2.24,2.24,0,0,0-.15.53,4.07,4.07,0,0,0-.07.56c0,.17,0,.37,0,.6l1.22,0c.34,0,.7,0,1.07-.08a6.16,6.16,0,0,0,.93-.14,3.49,3.49,0,0,0,.69-.23,1.15,1.15,0,0,0,.47-.34A.75.75,0,0,0,118.84,70.4Z"/><path d="M131.23,70.94a6.9,6.9,0,0,1-.06,1,3.66,3.66,0,0,1-.15.63l-.15.41a1.34,1.34,0,0,0-.06.36,1.06,1.06,0,0,0,.43.84,1.63,1.63,0,0,0,1.1.37.2.2,0,0,1,0,.4,2.15,2.15,0,0,1-1.25-.38,1.54,1.54,0,0,1-.66-1c-.78.89-2.22,1.34-4.32,1.34A5.44,5.44,0,0,1,122,73.54a1.55,1.55,0,0,1-.65,1,2.1,2.1,0,0,1-1.26.4.2.2,0,0,1,0-.4,1.63,1.63,0,0,0,1.1-.37,1.06,1.06,0,0,0,.43-.84,1.3,1.3,0,0,0-.06-.32,3.7,3.7,0,0,1-.6-2,.18.18,0,0,1,.07-.15.24.24,0,0,1,.14-.05c.11,0,.17.08.2.22s.06.39.13.73a3.22,3.22,0,0,0,.36,1c.12.16.21.29.28.37l.33.35a2.42,2.42,0,0,0,.42.35,4.43,4.43,0,0,0,.52.29,3.09,3.09,0,0,0,.7.25,7,7,0,0,0,.87.15,10.89,10.89,0,0,0,3.06-.11,4.53,4.53,0,0,0,1.35-.46,2.3,2.3,0,0,0,.85-.75,2.92,2.92,0,0,0,.44-1,4.88,4.88,0,0,0,.13-1.21c0-1.28-1.63-2-4.84-2-.35,0-.7,0-1-.07s-.7-.08-1.1-.15a5.3,5.3,0,0,1-1.08-.29,4.18,4.18,0,0,1-.9-.44,1.81,1.81,0,0,1-.65-.64,1.57,1.57,0,0,1-.24-.86,5.1,5.1,0,0,1,.29-1.67,3,3,0,0,1,.84-1.22,3.68,3.68,0,0,1,1.57-.78,9.89,9.89,0,0,1,2.42-.25,9.14,9.14,0,0,1,2,.2,4.88,4.88,0,0,1,1.41.55,3.24,3.24,0,0,1,.91.86,3.67,3.67,0,0,1,.54,1.06,6.63,6.63,0,0,1,.26,1.23v0a.18.18,0,0,1-.06.13.23.23,0,0,1-.14,0c-.12,0-.19,0-.19-.17a7.86,7.86,0,0,0-.24-1.16,3.43,3.43,0,0,0-.51-1,2.71,2.71,0,0,0-.85-.76,4.54,4.54,0,0,0-1.3-.48,8.21,8.21,0,0,0-1.83-.18,10.69,10.69,0,0,0-1.92.16,5.17,5.17,0,0,0-1.35.46,2.35,2.35,0,0,0-.85.74,2.6,2.6,0,0,0-.45,1,5.18,5.18,0,0,0-.14,1.19,1.13,1.13,0,0,0,.2.67,1.65,1.65,0,0,0,.51.51,3.75,3.75,0,0,0,.75.36,7.87,7.87,0,0,0,.85.24q.42.09.9.15c.32,0,.58.07.79.09l.63,0a16.48,16.48,0,0,1,2.38.21c1.74.33,2.68,1,2.81,2A1.62,1.62,0,0,1,131.23,70.94Z"/><path d="M135.83,74.52a.18.18,0,0,1,.14.06.19.19,0,0,1,0,.28.18.18,0,0,1-.14.06,2.42,2.42,0,0,1-2.36-1,1.44,1.44,0,0,1-.31.78,1.1,1.1,0,0,1-.83.26.2.2,0,0,1,0-.4c.32,0,.53-.07.61-.22a2.59,2.59,0,0,0,.18-.89,1,1,0,0,1,0-.2V64.73a.21.21,0,0,1,.2-.2.17.17,0,0,1,.14.06.2.2,0,0,1,.06.14v1.79h2.3a.18.18,0,0,1,.14.06.2.2,0,0,1,.06.14.21.21,0,0,1-.2.2h-2.3v4.79a6.66,6.66,0,0,0,.14,1.62,1.53,1.53,0,0,0,1.13,1.07A3.83,3.83,0,0,0,135.83,74.52Z"/><path d="M136.8,73.68s0-.21-.09-.55a8.61,8.61,0,0,1-.09-1.42,6.21,6.21,0,0,1,.16-1.69,1.89,1.89,0,0,1,1.54-1.4,4.37,4.37,0,0,1,1-.1,2.51,2.51,0,0,1,2.3.92V64.72a.24.24,0,0,1,.05-.14.2.2,0,0,1,.14-.06.22.22,0,0,1,.15.06.2.2,0,0,1,.06.14v8.49s0,.1,0,.18a3.16,3.16,0,0,0,0,.44,2.26,2.26,0,0,0,.06.3.41.41,0,0,0,.13.23.52.52,0,0,0,.21.11.89.89,0,0,0,.35,0,.2.2,0,0,1,.14.06.22.22,0,0,1,0,.28.2.2,0,0,1-.14.06,1.07,1.07,0,0,1-.83-.27,1.4,1.4,0,0,1-.31-.77,2.46,2.46,0,0,1-2.36,1,2.67,2.67,0,0,1-2.19-.77,1,1,0,0,1-.48.58,1.62,1.62,0,0,1-.81.19c-.15,0-.22-.07-.22-.2s.08-.2.23-.2a.93.93,0,0,0,.7-.23A.81.81,0,0,0,136.8,73.68Zm.23-2a6.19,6.19,0,0,0,.14,1.62,1.52,1.52,0,0,0,1.12,1.07,3.91,3.91,0,0,0,1,.12c1,0,1.67-.27,2-.8a3.38,3.38,0,0,0,.3-1.58v-.42a6.55,6.55,0,0,0-.13-1.6,1.49,1.49,0,0,0-1.07-1.07,3.68,3.68,0,0,0-1.07-.13,2.12,2.12,0,0,0-2,.81,3.35,3.35,0,0,0-.3,1.58Z"/><path d="M11.51,88h-2v9.75H8.72V88h-2v-.75h4.77Z"/><path d="M12.77,97.72V87.22H16.9V88H13.58v4h2.85v.75H13.58V97h3.36v.75Z"/><path d="M22.91,97.72,20.71,92l-1.37,2.23v3.53h-.81V87.22h.81v5.67l3.36-5.67h.9l-2.38,3.91,2.56,6.59Z"/><path d="M28.52,90.85V89.5c0-1.15-.42-1.67-1.54-1.67s-1.55.52-1.55,1.67v.73c0,.79.27,1,1.07,1.42l1.6.88a2,2,0,0,1,1.26,1.77v1.35c0,1.5-.76,2.19-2.35,2.19h0c-1.59,0-2.36-.68-2.36-2.19V93.94h.81v1.47c0,1.14.42,1.69,1.56,1.69s1.56-.55,1.56-1.69v-.84c0-.78-.31-1-1.11-1.5l-1.57-.86c-.87-.49-1.25-.9-1.25-1.73V89.26c0-1.44.9-2.16,2.34-2.16h0c1.44,0,2.34.72,2.34,2.16v1.59Z"/><path d="M35.09,88h-2v9.75H32.3V88h-2v-.75h4.77Z"/><path d="M40.94,87.1h.12c1.59,0,2.4.75,2.4,2.22v6.3c0,1.47-.81,2.22-2.4,2.22h-.12c-1.59,0-2.4-.75-2.4-2.22v-6.3C38.54,87.83,39.35,87.1,40.94,87.1Zm.06,10c1.19,0,1.65-.5,1.65-1.74V89.59c0-1.24-.46-1.74-1.65-1.74s-1.65.5-1.65,1.74v5.76C39.35,96.59,39.82,97.09,41,97.09Z"/><path d="M50.24,95.62c0,1.5-.81,2.22-2.4,2.22h-.12c-1.59,0-2.4-.71-2.4-2.22v-6.3c0-1.44.81-2.22,2.4-2.22h.12c1.59,0,2.4.78,2.4,2.22V90.7h-.81V89.59c0-1.24-.46-1.74-1.65-1.74s-1.65.5-1.65,1.74v5.76c0,1.24.47,1.74,1.65,1.74s1.65-.5,1.65-1.74v-2.1H47.72v-.73h2.52Z"/><path d="M59.3,95.62c0,1.5-.78,2.22-2.37,2.22h-.06c-1.59,0-2.37-.71-2.37-2.22v-8.4h.81v8.13c0,1.24.41,1.74,1.59,1.74s1.59-.5,1.59-1.74V87.22h.81Z"/><path d="M61.31,97.72V87.22h.81v10.5Z"/><path d="M67.19,92.06h-.88V91h.88Zm0,5.66h-.88v-1.1h.88Z"/><path d="M77.11,93.84l-.31,3.25-6.16.48.23-10.46h3.81l-.54,6.73Z"/><path d="M86.18,87.41c-.22,1.72-.4,3.43-.56,5.13s-.3,3.41-.45,5.14l-3,.22.13-1.13a1.37,1.37,0,0,1-.34.29,2.22,2.22,0,0,1-.41.2,2.37,2.37,0,0,1-.46.11l-.44,0a2.47,2.47,0,0,1-.94-.2,3.37,3.37,0,0,1-.81-.49,3.81,3.81,0,0,1-.65-.73,4.76,4.76,0,0,1-.5-.87,5.44,5.44,0,0,1-.31-.94,4.18,4.18,0,0,1-.1-.92c0-.44,0-.89,0-1.36s0-1,.09-1.42.11-.94.18-1.41.16-.91.26-1.33l1.8.08c.6,0,1.2,0,1.79,0l-.33,1.28q-.16.65-.3,1.29c-.09.43-.16.86-.21,1.3A11.41,11.41,0,0,0,80.56,93c0,.1,0,.25,0,.44a3.43,3.43,0,0,0,.08.56,1.67,1.67,0,0,0,.19.49.41.41,0,0,0,.36.21.65.65,0,0,0,.5-.24,2.05,2.05,0,0,0,.39-.64,6,6,0,0,0,.29-.93c.08-.35.15-.72.2-1.1s.11-.77.14-1.17.06-.75.08-1.1,0-.65,0-.92,0-.49,0-.64v-.29c0-.09,0-.19,0-.28l.94,0h1.68Z"/><path d="M93.49,87.71l-.27,3.1a2.12,2.12,0,0,0-.41-.08,3,3,0,0,0-.42,0,4,4,0,0,0-1,.13,2.53,2.53,0,0,0-.84.41,2.12,2.12,0,0,0-.58.68,2.15,2.15,0,0,0-.21,1,1.92,1.92,0,0,0,.12.71,1.24,1.24,0,0,0,.34.51,1.42,1.42,0,0,0,.54.3,2.3,2.3,0,0,0,.71.11,2.74,2.74,0,0,0,.56-.06q.28-.06.57-.15a5.25,5.25,0,0,0,.55-.22c.17-.08.34-.17.49-.26l-.12,3.44a4.86,4.86,0,0,1-.61.26c-.22.08-.45.14-.68.2s-.47.1-.7.13a5.07,5.07,0,0,1-.66,0,4.47,4.47,0,0,1-3.36-1.45,4.79,4.79,0,0,1-1-1.55A5.37,5.37,0,0,1,86.24,93a7.06,7.06,0,0,1,.34-2.24,5.06,5.06,0,0,1,1-1.81,4.62,4.62,0,0,1,1.64-1.2,5.47,5.47,0,0,1,2.25-.44,7.23,7.23,0,0,1,1,.08A4.28,4.28,0,0,1,93.49,87.71Z"/><path d="M103.19,88.26,100,92.11l3,5-3.4.6-2.23-3-.11,2.87-3,.12.23-10.49,3.42.19-.27,3,2.13-3.06Z"/><path d="M107.05,87.41l-.51,10-3.09.16-.3-9.93Z"/><path d="M115.82,91.8a9.18,9.18,0,0,1-.09,1.28c-.83,0-1.66.14-2.49.26l-2.48.35a1.85,1.85,0,0,0,.6.84,1.55,1.55,0,0,0,1,.32,2.21,2.21,0,0,0,.64-.11,5.11,5.11,0,0,0,.7-.28c.22-.11.44-.22.65-.35l.55-.35-.36,3.33a2.92,2.92,0,0,1-.61.37,3.66,3.66,0,0,1-.7.25,4.57,4.57,0,0,1-.72.14,5.94,5.94,0,0,1-.72.05,4.25,4.25,0,0,1-1.32-.2,3.63,3.63,0,0,1-1.09-.56,4,4,0,0,1-.86-.83,5.26,5.26,0,0,1-.6-1.06,5.87,5.87,0,0,1-.37-1.21,6.88,6.88,0,0,1-.12-1.29,7.9,7.9,0,0,1,.12-1.36,6.56,6.56,0,0,1,.38-1.31,6,6,0,0,1,.63-1.17,4.73,4.73,0,0,1,.9-.94,3.94,3.94,0,0,1,1.16-.63,4.33,4.33,0,0,1,1.43-.23,3.67,3.67,0,0,1,1.19.18,3.36,3.36,0,0,1,1,.5,3.56,3.56,0,0,1,.74.76,4.87,4.87,0,0,1,.51,1,6.46,6.46,0,0,1,.3,1.11A6.64,6.64,0,0,1,115.82,91.8Zm-2.93-.38a2,2,0,0,0,0-.42,1.07,1.07,0,0,0-.14-.39.73.73,0,0,0-.26-.29.65.65,0,0,0-.4-.11.91.91,0,0,0-.52.15,1.61,1.61,0,0,0-.38.4,2.49,2.49,0,0,0-.27.51,4.75,4.75,0,0,0-.15.52l2.17-.21Z"/><path d="M123.8,94a3.84,3.84,0,0,1-.35,1.73,3.23,3.23,0,0,1-1,1.2,3.89,3.89,0,0,1-1.41.7,6.48,6.48,0,0,1-1.74.22,3.9,3.9,0,0,1-.79-.09l-.87-.24c-.29-.1-.57-.2-.84-.31l-.72-.31.32-2.87a5,5,0,0,0,1.38.57,5.91,5.91,0,0,0,1.49.19h.34a1.51,1.51,0,0,0,.37-.07.83.83,0,0,0,.31-.16.41.41,0,0,0,.12-.32.32.32,0,0,0-.09-.23.65.65,0,0,0-.22-.17,1.5,1.5,0,0,0-.32-.09l-.34,0h-.55a3.27,3.27,0,0,1-1.15-.2,2.5,2.5,0,0,1-.88-.56,2.55,2.55,0,0,1-.58-.88,3,3,0,0,1-.2-1.15,3.35,3.35,0,0,1,.34-1.54,3.82,3.82,0,0,1,.93-1.17,4.48,4.48,0,0,1,1.34-.74,4.81,4.81,0,0,1,1.56-.25l.74,0a6.59,6.59,0,0,1,.76.1c.25,0,.5.1.73.16a5.17,5.17,0,0,1,.69.26l-.28,3a10,10,0,0,0-1-.28,5.61,5.61,0,0,0-1.06-.11h-.25l-.31,0-.34.06a1.32,1.32,0,0,0-.3.1.65.65,0,0,0-.21.16.34.34,0,0,0-.07.24.29.29,0,0,0,.12.25.71.71,0,0,0,.29.13,1.64,1.64,0,0,0,.4,0h.43l.39,0a1.49,1.49,0,0,1,.3,0,3,3,0,0,1,1.06.24,2.54,2.54,0,0,1,.79.57,2.35,2.35,0,0,1,.5.84A3.29,3.29,0,0,1,123.8,94Z"/><path d="M131.85,87.39l-.07,3.11-2.18.09-.27,6.79-3.09.16L126,90.75l-2.18.11.09-3.45Z"/><path d="M144.05,96.08a3.25,3.25,0,0,1-.85.75,5,5,0,0,1-1.08.54,7,7,0,0,1-1.19.32,6.71,6.71,0,0,1-1.15.1,5.22,5.22,0,0,1-2-.36,4.51,4.51,0,0,1-1.54-1,4.62,4.62,0,0,1-1-1.52A5.11,5.11,0,0,1,134.9,93a6.46,6.46,0,0,1,.7-3,6,6,0,0,1,.84-1.21,5.07,5.07,0,0,1,1.11-1,5.49,5.49,0,0,1,1.37-.61,5.73,5.73,0,0,1,1.57-.21l.68,0c.24,0,.47,0,.71.09a5,5,0,0,1,.69.17,4.45,4.45,0,0,1,.62.27l-.21,2.8a4,4,0,0,0-.84-.21,8.43,8.43,0,0,0-.86,0,3.83,3.83,0,0,0-1.09.15,2.61,2.61,0,0,0-.89.47,2.06,2.06,0,0,0-.59.77,2.41,2.41,0,0,0-.22,1.07,2.52,2.52,0,0,0,.1.73,1.86,1.86,0,0,0,.31.63,1.61,1.61,0,0,0,.52.45,1.53,1.53,0,0,0,.72.17,2.38,2.38,0,0,0,.58-.08,1.35,1.35,0,0,0,.51-.25l0-.57-1.76,0,.09-2.19,2.18-.07c.73,0,1.46,0,2.2-.07Z"/><path d="M153.34,87.41c-.22,1.72-.41,3.43-.56,5.13s-.31,3.41-.45,5.14l-3,.22.13-1.13a1.58,1.58,0,0,1-.34.29,2,2,0,0,1-.42.2,2.12,2.12,0,0,1-.45.11l-.45,0a2.42,2.42,0,0,1-.93-.2,3,3,0,0,1-.81-.49,4.23,4.23,0,0,1-.66-.73,5.36,5.36,0,0,1-.49-.87,4.7,4.7,0,0,1-.31-.94,4.2,4.2,0,0,1-.11-.92c0-.44,0-.89,0-1.36s0-1,.09-1.42.1-.94.17-1.41a13,13,0,0,1,.27-1.33l1.79.08c.6,0,1.2,0,1.8,0-.11.43-.22.85-.34,1.28s-.2.86-.29,1.29-.16.86-.21,1.3a9.55,9.55,0,0,0-.08,1.32c0,.1,0,.25,0,.44a3.43,3.43,0,0,0,.08.56,1.43,1.43,0,0,0,.19.49.39.39,0,0,0,.36.21.66.66,0,0,0,.5-.24,2.52,2.52,0,0,0,.39-.64,6,6,0,0,0,.29-.93c.08-.35.14-.72.2-1.1s.1-.77.14-1.17.06-.75.07-1.1,0-.65,0-.92,0-.49,0-.64a2.81,2.81,0,0,0,0-.29,2.64,2.64,0,0,0,0-.28l.95,0h1.68Z"/><path d="M162.81,87.8l-3.44,5.63.1,4.14h-3.76l.08-4.11L153.11,88l3.74-.47L158,90.72l1.27-3.17Z"/></svg>