<svg id="Lag_1" data-name="Lag 1" xmlns="http://www.w3.org/2000/svg" width="286.57" height="251.03" viewBox="0 0 286.57 251.03"><defs><style>.cls-1{fill:#112f3b;}</style></defs><title>adobe</title><path class="cls-1" d="M170.69,215.53l-4,0c-12.82-.13-24.7-.2-36.31-.2-10.33,0-20.47.06-30.15.16h-.84c-38,0-71.06-28.32-76.87-65.86A78.08,78.08,0,0,1,85.09,60.48a66.5,66.5,0,0,1,12.84-1.21c1.32,0,2.7,0,4.12.11a9.54,9.54,0,0,0,2.75.41c4.33,0,8.39-3,12.18-6.16,14.57-12,31.91-18.68,51.57-19.94,1.94-.13,3.9-.19,5.84-.19,43.22,0,80.66,31.08,89,73.91a91.35,91.35,0,0,1-15,69.39c-14.23,20.38-35.19,33.7-59,37.52A118.53,118.53,0,0,1,170.69,215.53Zm-73-88a7.66,7.66,0,0,0-5.48,2.39c-3.38,3.4-3.12,8.23.66,12q4.44,4.45,8.86,8.93c7.74,7.82,15.75,15.9,23.8,23.67,13.56,13.06,29.5,19.68,47.4,19.68h0a79.18,79.18,0,0,0,12.49-1,68.41,68.41,0,0,0,44.89-27.68,69.75,69.75,0,0,0,12.46-51.46c-5.09-34.16-34.47-59-69.87-59h-.69a59.81,59.81,0,0,0-9,.69,69.92,69.92,0,0,0-31.19,13.13c-.81.6-1.62,1.34-1.53,2.22.07.69.65,1.25,1.88,1.83a47.35,47.35,0,0,1,9,5.52,4.22,4.22,0,0,0,2.61,1,5.08,5.08,0,0,0,2.59-.86,53.14,53.14,0,0,1,27.2-7.51,55.45,55.45,0,0,1,5.58.28c28.56,2.76,50,28.39,47.74,57.12C225,156.36,202.56,177.67,175,178.08H174c-14.76,0-27.68-5.43-38.4-16.15l-10.58-10.58q-10.4-10.41-20.82-20.8A9.36,9.36,0,0,0,97.68,127.53Zm2.56-46.87a66.14,66.14,0,0,0-8.33.54c-26,3.34-45.58,23.69-48.6,50.64C40.59,156,54.19,179.18,77.14,189.4c9,4,18.51,4.58,26.57,4.58,2.61,0,5.26-.06,7.82-.12s5.21-.12,7.82-.12c1.05,0,2.1,0,3.16,0l1.34,0-1-.9-2.25-2a66.07,66.07,0,0,1-6.93-6.73c-3.93-4.65-8.54-6.63-15.42-6.63h-.11a38.73,38.73,0,0,1-29.7-14.33,39.4,39.4,0,0,1-8.79-32.39c3-16.37,12.39-27.15,27.82-32a43.72,43.72,0,0,1,13.16-2.15c10.22,0,19.63,4.13,28,12.28,4.21,4.11,8.44,8.36,12.53,12.47q4.61,4.63,9.25,9.25a9.77,9.77,0,0,0,6.76,3.08,7.68,7.68,0,0,0,5.53-2.38c3.43-3.44,3.08-8.25-.89-12.23l-3.4-3.42c-5.86-5.89-11.93-12-17.95-17.93C129,86.41,115.43,80.66,100.24,80.66Z"/><path d="M174.39,34c43,0,80.22,30.91,88.54,73.51a90.85,90.85,0,0,1-14.94,69c-14.15,20.26-35,33.51-58.7,37.3a117.48,117.48,0,0,1-18.6,1.21c-1.34,0-2.69,0-4,0-12.81-.13-24.69-.2-36.32-.2-10.32,0-20.47.06-30.16.16h-.83A77.68,77.68,0,0,1,85.18,61a65.57,65.57,0,0,1,12.75-1.2c1.29,0,2.65,0,4,.1a9.68,9.68,0,0,0,2.82.42c4.5,0,8.65-3.1,12.51-6.27,14.48-11.9,31.73-18.57,51.28-19.83,1.93-.13,3.88-.19,5.81-.19M144.06,80a5.49,5.49,0,0,0,2.84-.93,52.7,52.7,0,0,1,26.95-7.44c1.82,0,3.68.09,5.54.27,28.28,2.74,49.49,28.13,47.28,56.59a53.39,53.39,0,0,1-16.42,34.65,52.18,52.18,0,0,1-35.31,14.46H174c-14.62,0-27.42-5.38-38-16l-10.41-10.42c-6.88-6.88-14-14-21-21A9.88,9.88,0,0,0,97.68,127a8.11,8.11,0,0,0-5.83,2.54c-3.59,3.61-3.33,8.72.66,12.72l8.84,8.91c7.75,7.83,15.76,15.92,23.83,23.7,13.65,13.15,29.71,19.82,47.74,19.82a78.93,78.93,0,0,0,12.57-1,68.9,68.9,0,0,0,45.22-27.88A70.27,70.27,0,0,0,243.26,114c-5.13-34.4-34.72-59.39-70.36-59.42h-.7a60.88,60.88,0,0,0-9,.69,70.43,70.43,0,0,0-31.4,13.23c-.93.68-1.85,1.54-1.74,2.67s1.22,1.79,2.17,2.23a47.73,47.73,0,0,1,9,5.46A4.62,4.62,0,0,0,144.06,80m-40.34,114.5c2.6,0,5.25-.06,7.82-.12s5.21-.12,7.81-.12c1.12,0,2.15,0,3.15,0l2.68.06-2-1.81c-.75-.68-1.51-1.35-2.27-2a64.05,64.05,0,0,1-6.87-6.68c-4-4.77-8.75-6.8-15.8-6.8h-.11a38.26,38.26,0,0,1-29.32-14.15,38.94,38.94,0,0,1-8.68-32c3-16.17,12.24-26.82,27.48-31.66a43.34,43.34,0,0,1,13-2.12c10.08,0,19.38,4.09,27.63,12.14,4.21,4.11,8.44,8.36,12.53,12.47,3,3,6.14,6.18,9.24,9.24a10.27,10.27,0,0,0,7.12,3.23,8.17,8.17,0,0,0,5.89-2.53c3.64-3.66,3.29-8.73-.9-12.94l-3.37-3.38c-5.87-5.91-11.94-12-18-18C129.21,86,115.57,80.16,100.24,80.16a65.27,65.27,0,0,0-8.39.55c-26.28,3.36-46,23.89-49,51.07-2.74,24.42,11,47.77,34.13,58.08,9.14,4.07,18.66,4.62,26.78,4.62M174.39,33q-2.92,0-5.87.19c-19.43,1.25-36.84,7.72-51.85,20.06-4,3.29-7.85,6-11.88,6a8.86,8.86,0,0,1-2.65-.41c-1.48-.07-2.88-.11-4.22-.11A66.84,66.84,0,0,0,85,60a78.59,78.59,0,0,0-63,89.7C28,188.33,61.67,216,99.35,216h.84q15.07-.17,30.15-.16,18.15,0,36.31.2c1.35,0,2.69,0,4,0a117.94,117.94,0,0,0,18.76-1.22c50-8,84.19-57.71,74.46-107.5C255.61,64.85,218.29,33,174.39,33ZM144.06,79a3.7,3.7,0,0,1-2.3-.94,48.21,48.21,0,0,0-9.15-5.57c-2.17-1-2-1.9-.26-3.2a69.17,69.17,0,0,1,31-13,59.19,59.19,0,0,1,8.89-.68h.69c35.41,0,64.36,24.87,69.38,58.57,5.59,37.49-19.6,72.58-56.94,78.58a78.16,78.16,0,0,1-12.41,1c-17.65,0-33.49-6.48-47-19.54-11.07-10.67-21.8-21.7-32.66-32.59-3.59-3.61-3.81-8.14-.65-11.32A7.16,7.16,0,0,1,97.68,128a8.91,8.91,0,0,1,6.2,2.88q15.74,15.66,31.41,31.39C146,173,159,178.59,174,178.59H175c27.83-.41,50.56-22.22,52.71-50a53.86,53.86,0,0,0-48.19-57.66c-1.9-.19-3.77-.28-5.63-.28a53.28,53.28,0,0,0-27.45,7.58,4.68,4.68,0,0,1-2.34.79Zm-40.34,114.5c-8.93,0-17.78-.7-26.37-4.53C55.1,179,41.05,156.44,43.81,131.89c3-27,22.62-46.92,48.16-50.19a65.32,65.32,0,0,1,8.27-.54c15.21,0,28.48,5.72,39.85,16.94,7.16,7.07,14.25,14.21,21.34,21.34,3.8,3.82,4.13,8.28.9,11.53a7.21,7.21,0,0,1-5.18,2.23,9.24,9.24,0,0,1-6.41-2.94c-7.29-7.21-14.45-14.56-21.79-21.72-8.38-8.19-17.9-12.42-28.32-12.42a44,44,0,0,0-13.31,2.17c-15.73,5-25.16,16.23-28.16,32.43C54.74,154.62,73.9,178,98.14,178h.11c6.35,0,11,1.71,15,6.45,2.71,3.22,6,5.89,9.23,8.8-1.06,0-2.12,0-3.17,0-5.22,0-10.44.24-15.63.24Z"/></svg>
