<svg id="Lag_1" data-name="Lag 1" xmlns="http://www.w3.org/2000/svg" width="244.19" height="241.86" viewBox="0 0 244.19 241.86"><defs><style>.cls-1{fill:#112f3b;}</style></defs><title>analyse</title><path class="cls-1" d="M41.05,222.36a18.18,18.18,0,0,1-12.79-5.31,17.13,17.13,0,0,1-4.75-12.69c.14-6.35.1-12.82.06-19.07,0-2.45,0-4.91,0-7.36,0-1.52.19-2.58,1.19-3.49,9.09-8.33,17.1-15.73,24.49-22.63a2.78,2.78,0,0,1,1.93-.94,4,4,0,0,1,1.33.29,23.61,23.61,0,0,0,8.07,1.53,19.57,19.57,0,0,0,12.08-4.27,2.5,2.5,0,0,1,1.5-.62,3.14,3.14,0,0,1,1.54.53c5.76,3.39,12.48,7.32,19.21,11A4.39,4.39,0,0,1,97.47,164c-.25,10.48,6.32,18.73,16.34,20.53a23.77,23.77,0,0,0,4.28.4c6.48,0,11.81-2.84,15.84-8.45,4.86-6.76,5.3-14.16,1.29-21.41-1.16-2.08-1.09-3.34.27-5.4,9.71-14.7,20.11-30.6,32.71-50,1-1.55,1.86-2.39,3.5-2.39a6.41,6.41,0,0,1,1.1.1,18.23,18.23,0,0,0,3.11.27,17.89,17.89,0,0,0,10-3.08,3,3,0,0,1,1.68-.61,3.27,3.27,0,0,1,1.82.71c6.87,4.72,13.72,9.34,20.36,13.73a3.77,3.77,0,0,1,1.86,3.57q0,18.88,0,37.79c0,18.22,0,37.07,0,55.61,0,9.94-7.06,16.88-17.11,16.89h-77q-10.73,0-21.44,0t-21.44,0c-13,0-23.59.07-33.29.21Z"/><path d="M187.6,94.42a2.83,2.83,0,0,1,1.54.62c6.82,4.69,13.67,9.31,20.37,13.74a3.28,3.28,0,0,1,1.63,3.15q0,18.91,0,37.84c0,18.21,0,37,0,55.56,0,9.64-6.85,16.38-16.61,16.39h-77q-10.72,0-21.46,0t-21.45,0c-13,0-23.59.07-33.29.21h-.24a17.73,17.73,0,0,1-12.44-5.16A16.64,16.64,0,0,1,24,204.37c.14-6.36.1-12.83.06-19.09,0-2.45,0-4.9,0-7.35,0-1.41.16-2.33,1-3.12,9.12-8.35,17.13-15.76,24.51-22.64a2.21,2.21,0,0,1,1.58-.8,3.47,3.47,0,0,1,1.16.26,24.12,24.12,0,0,0,8.24,1.56,20,20,0,0,0,12.38-4.37,2,2,0,0,1,1.2-.52,2.69,2.69,0,0,1,1.28.46c5.77,3.39,12.48,7.32,19.22,11.05A3.93,3.93,0,0,1,97,164c-.26,10.74,6.48,19.2,16.75,21.05a25.73,25.73,0,0,0,4.37.4c6.65,0,12.12-2.91,16.25-8.66,5-6.93,5.43-14.51,1.32-21.94-1.07-1.93-1-3,.24-4.88,9.71-14.69,20.11-30.59,32.72-50,1.06-1.64,1.8-2.16,3.08-2.16a5.65,5.65,0,0,1,1,.1,19.08,19.08,0,0,0,3.19.27A18.39,18.39,0,0,0,186.19,95a2.64,2.64,0,0,1,1.41-.53m0-1a3.58,3.58,0,0,0-2,.69,17.47,17.47,0,0,1-9.73,3,17.19,17.19,0,0,1-3-.26,7.63,7.63,0,0,0-1.19-.11c-1.85,0-2.85,1-3.92,2.62q-16.26,25.06-32.71,50c-1.4,2.12-1.58,3.59-.29,5.92,3.94,7.11,3.45,14.33-1.26,20.88-3.92,5.46-9.16,8.24-15.43,8.24a23.6,23.6,0,0,1-4.19-.39c-9.7-1.74-16.17-9.8-15.93-20a4.88,4.88,0,0,0-2.85-5.06c-6.46-3.58-12.84-7.3-19.2-11a3.52,3.52,0,0,0-1.79-.6,3,3,0,0,0-1.81.73,19,19,0,0,1-11.77,4.16,23,23,0,0,1-7.9-1.5,4.31,4.31,0,0,0-1.5-.32,3.23,3.23,0,0,0-2.27,1.07Q36.7,162.82,24.39,174.07A4.69,4.69,0,0,0,23,177.93c0,8.81.16,17.62,0,26.42-.27,12,9.24,18.51,18,18.51h.25c11.1-.16,22.19-.21,33.28-.21,14.3,0,28.61.08,42.91.08h77c10.3,0,17.58-7.09,17.61-17.39.07-31.13,0-62.27,0-93.4a4.26,4.26,0,0,0-2.08-4q-10.25-6.78-20.35-13.73a3.77,3.77,0,0,0-2.11-.8Z"/><path class="cls-1" d="M23.91,156.32a.38.38,0,0,1-.17,0c-.25-.13-.27-.35-.21-1,0-.17,0-.34,0-.5l0-24.09c0-26.13,0-53.15.06-79.72,0-9.53,7.18-16.45,17-16.46H193.79c11,0,17.8,6.84,17.82,17.84,0,12.07,0,24.82,0,37.89,0,.23,0,.47,0,.71.09.88.08,1.29-.38,1.51a.68.68,0,0,1-.23.05c-.31,0-.68-.31-1-.6-.19-.16-.37-.31-.56-.44-1.56-1-3.11-2.08-4.66-3.12-2.53-1.71-5.16-3.49-7.78-5.17a3.2,3.2,0,0,1-1.69-3.45C196,69.14,190.76,61,181.23,58a19.48,19.48,0,0,0-5.89-.91,20.68,20.68,0,0,0-15.83,7.51,20.28,20.28,0,0,0-2,22.36,3.45,3.45,0,0,1-.18,4.27c-11,16.74-22.37,34.1-33.73,51.6a3.47,3.47,0,0,1-3.08,2,5.84,5.84,0,0,1-.81-.06,18.07,18.07,0,0,0-13.5,3.28,3.11,3.11,0,0,1-1.74.67,3,3,0,0,1-1.57-.52c-7.14-4.19-14.22-8.24-20.82-12a2.67,2.67,0,0,1-1.63-2.9,20.29,20.29,0,0,0-18.58-21c-.54,0-1.08-.06-1.61-.06a20.21,20.21,0,0,0-20.06,17.45,21.28,21.28,0,0,0,.7,8.88c.33,1.2.34,1.9-.47,2.64-2.86,2.6-5.71,5.23-8.55,7.85q-3.48,3.21-7,6.4a4.43,4.43,0,0,0-.36.38C24.35,156.05,24.11,156.32,23.91,156.32Z"/><path d="M74,35H193.79c10.67,0,17.3,6.65,17.32,17.34,0,12.19,0,24.59,0,37.89a6.19,6.19,0,0,0,.05.76c.08.83,0,.94-.12,1a2.7,2.7,0,0,1-.72-.49,6.8,6.8,0,0,0-.6-.46L205,87.93c-2.53-1.71-5.16-3.49-7.78-5.17a2.74,2.74,0,0,1-1.46-3c.72-10.67-4.8-19.2-14.42-22.27a19.85,19.85,0,0,0-6-.93,21.17,21.17,0,0,0-16.22,7.7,20.48,20.48,0,0,0-2,22.91,3,3,0,0,1-.17,3.76c-11,16.74-22.37,34.1-33.73,51.6a3,3,0,0,1-2.66,1.73,5,5,0,0,1-.74-.06,19.78,19.78,0,0,0-2.86-.22,19.13,19.13,0,0,0-11,3.59,2.67,2.67,0,0,1-1.46.58,2.62,2.62,0,0,1-1.32-.45c-7.09-4.17-14.2-8.23-20.83-12A2.2,2.2,0,0,1,81,133.27a20.79,20.79,0,0,0-19-21.5q-.83-.06-1.65-.06a20.72,20.72,0,0,0-20.56,17.87,21.78,21.78,0,0,0,.72,9.09c.32,1.17.25,1.61-.33,2.14-2.86,2.61-5.76,5.28-8.57,7.86q-3.47,3.21-7,6.4a3.87,3.87,0,0,0-.39.41l-.19.2c0-.12,0-.25,0-.35s0-.38,0-.55q0-11.88,0-23.75c0-26.24,0-53.38.06-80.06,0-9.24,7-15.95,16.51-16H74m0-1H40.61c-10,0-17.48,7.07-17.51,17-.12,34.61-.05,69.21,0,103.82,0,.67-.3,1.57.46,1.94a.89.89,0,0,0,.39.11c.57,0,.95-.66,1.34-1,5.19-4.74,10.33-9.52,15.53-14.25,1-1,.94-1.94.62-3.14a21,21,0,0,1-.7-8.68,19.8,19.8,0,0,1,19.57-17c.52,0,1,0,1.57.06A19.88,19.88,0,0,1,80,133.23a3.17,3.17,0,0,0,1.88,3.36c7,3.95,13.91,7.91,20.81,12a3.64,3.64,0,0,0,1.83.58,3.54,3.54,0,0,0,2-.76A18.14,18.14,0,0,1,116.93,145a17.87,17.87,0,0,1,2.71.21,5.69,5.69,0,0,0,.89.07,4,4,0,0,0,3.5-2.19q16.78-25.84,33.73-51.59a4,4,0,0,0,.2-4.8,19.65,19.65,0,0,1,1.93-21.79,20.09,20.09,0,0,1,15.45-7.33,18.84,18.84,0,0,1,5.74.89c9.19,2.92,14.42,10.91,13.72,21.24a3.69,3.69,0,0,0,1.92,3.91c4.19,2.69,8.28,5.54,12.43,8.29.59.39,1.19,1.12,1.88,1.12a1,1,0,0,0,.44-.1c1.08-.51.63-1.75.63-2.66q0-19,0-37.9c0-11.29-7.06-18.34-18.31-18.34H74Z"/></svg>
