<svg id="Lag_1" data-name="Lag 1" xmlns="http://www.w3.org/2000/svg" width="286.13" height="233.93" viewBox="0 0 286.13 233.93"><defs><style>.cls-1{fill:#112f3b;}</style></defs><title>gruppearbejde</title><path class="cls-1" d="M151.88,213.43c-1.42,0-2.84,0-4.26-.06s-2.85-.06-4.27-.06c-1.77.06-3.53.09-5.26.09a139.93,139.93,0,0,1-43.5-6.67,57.72,57.72,0,0,1-15.48-7.48c-8.1-5.67-11.39-13.36-10.06-23.5,3.6-27.44,17.14-47.74,40.25-60.33,1.92-1,2.81-1.92,3-2.94.18-1.2-.67-2.36-2.1-3.86C95.65,93.54,91.7,76.34,98.42,57.5c6.53-18.28,20.37-28.94,41.13-31.68a37.61,37.61,0,0,1,4.88-.32C166.29,25.5,187.52,44,190.77,66c2.45,16.49-2.2,30.82-13.82,42.59-1.78,1.81-2.45,3-2.29,4,.18,1.27,1.49,2.08,3.63,3.25,22.38,12.34,35.62,31.91,39.35,58.16,2,14.1-1.91,21.5-14.95,28.29-14.72,7.67-30.73,9.81-45.84,11C155.37,213.37,153.79,213.43,151.88,213.43Z"/><path d="M144.43,25v1c21.63,0,42.63,18.33,45.85,40,2.42,16.32-2.18,30.51-13.68,42.16-1.91,1.93-2.62,3.22-2.44,4.46.23,1.61,1.93,2.54,3.89,3.62,22.24,12.26,35.39,31.7,39.09,57.79,2,13.84-1.87,21.11-14.68,27.78-14.65,7.63-30.6,9.76-45.65,10.92-1.47.12-3,.17-4.94.17-1.4,0-2.84,0-4.24-.06s-2.83-.06-4.28-.06h0c-1.75.06-3.51.09-5.23.09a139.79,139.79,0,0,1-43.34-6.64,57.51,57.51,0,0,1-15.35-7.42c-8.05-5.63-11.18-13-9.86-23,1.77-13.48,5.94-25.3,12.4-35.13a75.71,75.71,0,0,1,27.6-24.83c1.46-.79,3-1.81,3.22-3.3s-.69-2.68-2.24-4.28c-14.37-14.94-18.28-32-11.63-50.61,6.46-18.09,20.16-28.64,40.73-31.36a38.22,38.22,0,0,1,4.81-.31V25m0,0a38.9,38.9,0,0,0-4.94.32C119.41,28,104.81,38.13,98,57.33,91,76.7,95.57,94.18,109.8,109c2.67,2.77,2.87,4-.74,6-24.09,13.12-37,33.72-40.51,60.7-1.35,10.27,1.88,18.09,10.28,24a58.67,58.67,0,0,0,15.61,7.55,139.72,139.72,0,0,0,43.65,6.69c1.75,0,3.5,0,5.26-.09,2.84,0,5.69.12,8.52.12,1.68,0,3.35,0,5-.17,15.91-1.23,31.62-3.53,46-11,13-6.79,17.25-14.44,15.21-28.81-3.67-25.88-16.49-45.79-39.6-58.52-3.64-2-4.81-2.88-1.22-6.51,11.74-11.89,16.44-26.33,14-43C187.93,43.4,166.2,25,144.43,25Z"/><path class="cls-1" d="M59.24,185.56a13,13,0,0,1-2.36-.25c-9.58-1.79-18.14-3.69-25.85-8.73-5-3.27-7.73-7.94-7.52-12.8,1.81-21.94,11-37.21,27.92-46.68,2.11-1.18,3.29-2,3.5-3.28s-.41-2.26-2.13-4.19C43.05,98.69,40.66,86.37,45.69,73,50.57,60,60.56,52.4,75.4,50.29A24.26,24.26,0,0,1,78.82,50a22.41,22.41,0,0,1,2.86.18c5.39.67,8,1.14,9.13,2.59s.72,4.25-.21,9.83c-2.76,16.63.3,31,9.1,42.67,1.66,2.22,2.31,3.81,2.1,5.16-.25,1.61-1.8,3-4,4.59-22.32,15.79-34,37.59-34.7,64.8C62.94,184.23,62.05,185.56,59.24,185.56Z"/><path d="M78.82,50.54a23.1,23.1,0,0,1,2.79.17c4.81.6,7.8,1.06,8.8,2.4s.58,4.15-.3,9.45c-2.79,16.76.31,31.25,9.19,43.05,1.56,2.07,2.2,3.59,2,4.78s-1.27,2.44-3.84,4.26C75,130.54,63.26,152.47,62.55,179.85c-.09,3.68-.57,5.21-3.31,5.21a13,13,0,0,1-2.27-.24c-9.53-1.79-18-3.67-25.66-8.66-4.85-3.17-7.51-7.68-7.3-12.32,1.8-21.78,10.85-36.92,27.66-46.31,1.9-1,3.49-2.06,3.75-3.63s-.72-2.89-2.25-4.6c-9.61-10.79-12-23-7-36.13C51,60.4,60.83,52.87,75.47,50.78a23.38,23.38,0,0,1,3.35-.24m0-1a25.26,25.26,0,0,0-3.49.25c-14.32,2-24.93,9.28-30.11,23S42.78,99.14,52.43,110c3.16,3.55,2.54,4.59-1.25,6.7-17.81,9.94-26.4,25.73-28.17,47.1-.22,5,2.48,9.79,7.75,13.23,7.91,5.18,16.88,7.1,26,8.81a13.3,13.3,0,0,0,2.46.26c3.42,0,4.21-2.07,4.31-6.19.7-27.19,12.35-48.74,34.49-64.41,4.65-3.28,5.83-5.43,2-10.45-9.44-12.56-11.52-27.1-9-42.29,1.83-11.06,1.74-11.62-9.36-13a23.6,23.6,0,0,0-2.92-.18Z"/><path class="cls-1" d="M227.37,185.3a3.34,3.34,0,0,1-2.51-.84c-.83-.83-1.2-2.37-1.19-4.87.1-19-6.63-36.48-20-52a73.86,73.86,0,0,0-16.76-14.2c-1.53-1-2.28-1.8-2.44-2.67s.24-1.89,1.26-3.23c11.76-15.59,14.77-32.72,8.95-50.91a4.5,4.5,0,0,1-.09-3.52c.49-.9,1.57-1.5,3.72-2.07a30.94,30.94,0,0,1,7.88-1,33.12,33.12,0,0,1,23.47,10.13c7.45,7.48,11.53,17.84,11.49,29.15a30.59,30.59,0,0,1-8.51,19.27c-2,2.12-2.83,3.61-2.65,5,.22,1.73,2.05,3,4.41,4.38,16.4,9.88,25.22,24.94,26.22,44.76.31,6.28-2.21,10.88-8,14.49-7.17,4.5-15.48,6.32-22.82,7.92A11.61,11.61,0,0,1,227.37,185.3Z"/><path d="M206.18,49.42v1h0a32.61,32.61,0,0,1,23.12,10c7.36,7.39,11.38,17.62,11.34,28.78a30,30,0,0,1-8.36,18.94c-2.17,2.24-3,3.85-2.8,5.39.26,1.94,2.17,3.24,4.66,4.74,16.24,9.79,25,24.71,26,44.36.3,6.08-2.15,10.54-7.72,14-7.09,4.45-15.36,6.26-22.65,7.85a11.34,11.34,0,0,1-2.37.3,2.89,2.89,0,0,1-2.16-.69c-.72-.73-1.05-2.16-1-4.52.1-19.09-6.67-36.71-20.13-52.36a74.34,74.34,0,0,0-16.87-14.3c-1.39-.89-2.09-1.63-2.22-2.34s.25-1.63,1.17-2.84c11.87-15.73,14.9-33,9-51.36a4.06,4.06,0,0,1-.12-3.13c.41-.76,1.43-1.3,3.4-1.83a30.44,30.44,0,0,1,7.76-1v-1m0,0a31.14,31.14,0,0,0-8,1c-3.45.91-5.29,2.14-4,6.23,5.87,18.32,2.65,35.18-8.87,50.45-2.3,3-1.68,4.72,1.32,6.62a73.91,73.91,0,0,1,16.64,14.11c12.79,14.87,20,31.93,19.89,51.7,0,4.18,1,6.22,4.2,6.22a12.56,12.56,0,0,0,2.58-.32c8-1.75,15.93-3.56,23-8,5.51-3.45,8.53-8.13,8.19-14.93-1-19.69-9.55-35-26.46-45.17-4.44-2.68-5.92-4.14-1.65-8.57,6-6.24,8.52-14.27,8.64-19.61.09-23.12-16.87-39.79-35.46-39.79Z"/></svg>
