<svg id="Lag_1" data-name="Lag 1" xmlns="http://www.w3.org/2000/svg" width="198.92" height="283.95" viewBox="0 0 198.92 283.95"><defs><style>.cls-1{fill:#112f3b;}</style></defs><title>ide</title><path class="cls-1" d="M124.05,212.55c-.57,0-1.18,0-1.82,0-2.07-.09-4.27-.13-6.94-.13-1.89,0-3.78,0-5.67,0s-3.77,0-5.66,0h-.5v0H82.62c-5.64,0-8-2.1-8.09-7.23a89.85,89.85,0,0,0-14.78-47.75c-3.16-4.87-6.28-9.89-9.3-14.74l-1.4-2.26A79.84,79.84,0,0,1,36.5,97.7c0-40.51,31.09-64.82,61.82-67.88,2.11-.21,4.25-.32,6.36-.32,33,0,62,25.91,66.13,59,2.26,18.19-1.81,35.77-12.07,52.25l-3.52,5.62c-3.37,5.37-6.86,10.93-10.14,16.49a78.51,78.51,0,0,0-11.29,38.37C133.59,209.86,132.22,212.55,124.05,212.55ZM111.58,199.5c2.06,0,3.75,0,5.32.06h.27c2.57,0,3.69-1.11,3.89-3.82a86,86,0,0,1,8.86-32.08,227.72,227.72,0,0,1,12.18-20.8q2.4-3.76,4.75-7.56c9.86-16,13.33-31.39,10.62-46.93-3.92-22.53-17-37.28-39-43.84a49.74,49.74,0,0,0-14.22-2c-16.59,0-33,7.83-42.82,20.42-13,16.75-15.42,36-7.23,58.71,3,8.4,7.95,15.92,12.72,23.19,1.05,1.61,2.11,3.22,3.14,4.84C80.57,166,85.92,180.86,86.93,196.3c.15,2.24,1.25,3.25,3.57,3.25h.13c1.84,0,3.69,0,5.54,0l7.75,0,3.83,0Z"/><path d="M104.68,30a65.66,65.66,0,0,1,43.54,16.81,66.92,66.92,0,0,1,22.1,41.74c2.24,18.07-1.8,35.54-12,51.91q-1.76,2.83-3.53,5.65c-3.37,5.36-6.85,10.92-10.13,16.47a79,79,0,0,0-11.36,38.62c-.2,8.41-1.44,10.85-9.24,10.85-.56,0-1.16,0-1.8,0-2.07-.09-4.29-.13-7-.13-1.89,0-3.78,0-5.68,0s-3.77,0-5.65,0l-1,0H82.62c-5.36,0-7.49-1.89-7.59-6.74a90.32,90.32,0,0,0-14.86-48c-3.14-4.85-6.25-9.84-9.25-14.67l-1.45-2.33A79.43,79.43,0,0,1,37,97.7c0-18.24,6.41-34.47,18.54-46.95A69.38,69.38,0,0,1,98.37,30.31c2.09-.2,4.21-.31,6.31-.31M90.5,200.05h.14c1.62,0,3.37,0,5.49,0h7.79l3.84,0h3.83c2,0,3.74,0,5.29.06h.29c2.82,0,4.18-1.32,4.38-4.28a85.59,85.59,0,0,1,8.82-31.9,229.34,229.34,0,0,1,12.15-20.75c1.57-2.47,3.2-5,4.76-7.57C157.2,119.42,160.7,104,158,88.3c-2-11.26-6.3-20.73-12.9-28.15s-15.48-12.82-26.42-16.09A50,50,0,0,0,104.29,42C87.55,42,71,49.9,61.08,62.61,47.91,79.5,45.52,98.86,53.77,121.8c3,8.46,8,16,12.77,23.3,1,1.61,2.11,3.21,3.14,4.83,10.42,16.3,15.75,31,16.76,46.4.16,2.5,1.49,3.72,4.06,3.72M104.68,29q-3.18,0-6.41.32C65.46,32.59,36,58.54,36,97.7a80.19,80.19,0,0,0,12.62,43.05c3.54,5.69,7.07,11.39,10.71,17A88.77,88.77,0,0,1,74,205.25c.12,5.62,2.87,7.72,8.59,7.72H104v0c3.78,0,7.55-.08,11.33-.08,2.31,0,4.61,0,6.92.13.65,0,1.26,0,1.84,0,8.72,0,10-3.23,10.24-11.83a77.72,77.72,0,0,1,11.22-38.13c4.4-7.45,9.07-14.75,13.65-22.1,10.06-16.14,14.49-33.71,12.15-52.57C167.14,54.7,137.9,29,104.68,29ZM90.5,199.05c-1.91,0-2.93-.67-3.07-2.79-1.13-17.24-7.72-32.5-16.91-46.87-5.77-9-12.15-17.76-15.81-27.93-7.4-20.56-6.83-40.3,7.15-58.23C71.73,50.58,88.07,43,104.29,43a48.9,48.9,0,0,1,14.07,2C140,51.48,153.1,66.21,157,88.47c2.93,16.83-1.75,32.24-10.55,46.58-5.77,9.39-12.06,18.48-17,28.4a86,86,0,0,0-8.92,32.27c-.18,2.44-1.12,3.35-3.39,3.35h-.26c-1.77-.05-3.55-.06-5.32-.06-2.56,0-5.11,0-7.67,0l-7.79,0c-1.84,0-3.67,0-5.51,0Z"/><path class="cls-1" d="M110.41,254.45l-3.33,0h-2.83l-.5,0H97.6l-3.74,0c-5.67-.1-8-2.42-8-8,0-1.73-.67-2.44-2.28-2.44H82.43a13.49,13.49,0,0,1-2.05-.13,6.87,6.87,0,0,1-5.08-3.35,6.56,6.56,0,0,1-.21-5.87,5.72,5.72,0,0,0,.07-5,6.27,6.27,0,0,1,5.2-9.12,63.89,63.89,0,0,1,8.58-.48c1.61,0,3.22,0,4.82.06s3.23.07,4.85.07l1.77,0c2.72,0,5.67-.07,9-.07,3.54,0,7.07,0,10.61.05l3.58,0a26.28,26.28,0,0,1,4.52.41,6.59,6.59,0,0,1,4.69,3.3,6.4,6.4,0,0,1,0,5.65,5.16,5.16,0,0,0-.07,5,6.37,6.37,0,0,1-.19,6.23,7.22,7.22,0,0,1-6.27,3.19c-1.59,0-2.73.18-3.44.93s-.85,1.62-.79,3.27a5.35,5.35,0,0,1-1.42,4,8.54,8.54,0,0,1-6.07,2.31C113.18,254.43,111.79,254.45,110.41,254.45Z"/><path d="M88.94,220.53c1.6,0,3.24,0,4.82.06s3.23.07,4.85.07l1.78,0c2.72,0,5.67-.07,9-.07,3.54,0,7.14,0,10.61.05l3.57,0a24.12,24.12,0,0,1,4.42.41,6,6,0,0,1,4.34,3,5.88,5.88,0,0,1,0,5.21,5.68,5.68,0,0,0-.06,5.37,5.92,5.92,0,0,1-.16,5.75,6.76,6.76,0,0,1-5.85,2.95c-1.73,0-3,.21-3.8,1.09s-1,1.83-.93,3.62a4.89,4.89,0,0,1-1.29,3.65,8,8,0,0,1-5.72,2.15c-1.22,0-2.53.06-4.12.06l-3.33,0h-2.34v0H97.6c-1.43,0-2.62,0-3.73,0-5.4-.1-7.51-2.2-7.53-7.49,0-2-.9-2.94-2.79-2.94H82.43a12.4,12.4,0,0,1-2-.13,6.43,6.43,0,0,1-4.73-3.09,6.1,6.1,0,0,1-.18-5.44,6.19,6.19,0,0,0,.07-5.38,5.79,5.79,0,0,1,4.8-8.43,64.9,64.9,0,0,1,8.52-.47m0-1a65.91,65.91,0,0,0-8.65.48c-5,.66-7.59,5.15-5.59,9.82a5.23,5.23,0,0,1-.07,4.6c-1.93,4.58.77,9.15,5.67,9.9a13.78,13.78,0,0,0,2.13.14h1.12c1.26,0,1.78.41,1.79,2,0,5.89,2.58,8.37,8.51,8.48q1.88,0,3.75,0l6.15,0v0c2.22,0,4.45,0,6.67,0,1.39,0,2.77,0,4.15-.06,4.82-.15,8.13-2.73,8-6.83-.12-3.15.91-3.65,3.74-3.68,5.89-.07,9.28-5.13,6.9-10.13a4.7,4.7,0,0,1,.07-4.53,6.72,6.72,0,0,0-5.09-9.65,26.35,26.35,0,0,0-4.61-.42c-4.72,0-9.45-.08-14.18-.08-3,0-6,0-9,.07l-1.76,0c-3.22,0-6.44-.13-9.67-.13Z"/><path class="cls-1" d="M110.06,190.64a2.09,2.09,0,0,1-1.54-.53,3.33,3.33,0,0,1-.38-2.35l1-15.57q1.57-25.51,3.17-51a3.61,3.61,0,0,0-.63-2.77,2.37,2.37,0,0,0-1.79-.65,5.42,5.42,0,0,0-.86.07,34,34,0,0,1-5.21.42,29,29,0,0,1-4.79-.4,5.39,5.39,0,0,0-.93-.09,2.37,2.37,0,0,0-1.82.67,3.13,3.13,0,0,0-.62,2.42c.8,12.09,1.51,23.28,2.17,34.22.34,5.52.64,11,.94,16.56.2,3.53.39,7.06.59,10.59.07,1.28.17,2.56.27,3.85.07.87.14,1.75.2,2.62a2,2,0,0,1-.36,1.52,1.55,1.55,0,0,1-1.18.39h0c-.29,0-.54,0-.8,0l-.71,0c-1,0-1.55-.21-1.83-1.3a14.08,14.08,0,0,1-.37-2.65l-.73-13.14c-.85-15.21-1.73-30.93-2.5-46.41V127c-.31-6.18-.58-11.51-8.49-14.16A15.86,15.86,0,0,1,72.15,98.24c0-7.42,4.2-12.2,10.83-12.46h.45c5.74,0,10.3,4.48,10.82,10.65.39,4.55.61,8.57.67,12.3,0,2.79,1.35,4.14,4,4.15h1c2.5,0,5,0,7.49,0l2.38,0c2.1,0,3.15-1.13,3.22-3.42.09-2.85.25-5.76.42-8.57.07-1.35.15-2.71.22-4.07.32-6.18,5-11,10.74-11a10.32,10.32,0,0,1,1.11.06,11.09,11.09,0,0,1,10.18,13.34c-1.19,7.38-5.73,12.38-14.31,15.74-3,1.18-4,2.69-4.23,6-.72,14-1.6,28.19-2.45,41.93q-.51,8-1,16.05c-.21,3.43-.35,6.46-.44,9.28-.06,1.82-.81,2.5-2.75,2.5ZM83.37,90.82a6.43,6.43,0,0,0-1.14.1,6,6,0,0,0-4,2.47,6.91,6.91,0,0,0-1,5.28c.9,4.68,3.76,8.15,8.75,10.62a8.78,8.78,0,0,0,3,1.18h0a1,1,0,0,0,.69-.27c.4-.41.38-1.11.35-2.38-.09-1.43-.16-2.75-.23-4-.14-2.71-.26-5-.56-7.41C88.83,93,86.52,90.82,83.37,90.82Zm41.21,0c-3.36,0-5.73,2.49-6,6.36-.18,2.18-.29,4.35-.4,6.65,0,1-.1,2.11-.16,3.2l0,.25.19.16-.14.7a2.1,2.1,0,0,0,.12,1.78,1.06,1.06,0,0,0,.88.37h0a3.73,3.73,0,0,0,1.31-.31c5.67-2.19,9.13-5.84,10.3-10.86a7.12,7.12,0,0,0-.87-5.72,6,6,0,0,0-4.2-2.51A6.39,6.39,0,0,0,124.58,90.82Z"/><path d="M124.34,86.25a9.42,9.42,0,0,1,1.06.06,10.59,10.59,0,0,1,9.74,12.76c-1.16,7.19-5.61,12.07-14,15.36-3.17,1.24-4.36,2.93-4.55,6.43-.72,14-1.6,28.19-2.45,41.93q-.51,8-1,16.05c-.21,3.44-.35,6.48-.44,9.29,0,1.55-.58,2-2.25,2h-.38a1.78,1.78,0,0,1-1.19-.36,3.15,3.15,0,0,1-.25-2l1-15.51c1-16.75,2.09-34.07,3.17-51.09A4.18,4.18,0,0,0,112,118a2.82,2.82,0,0,0-2.15-.81,5.34,5.34,0,0,0-.94.08,34.15,34.15,0,0,1-5.13.41,26.94,26.94,0,0,1-4.7-.4,6.41,6.41,0,0,0-1-.09,2.85,2.85,0,0,0-2.18.83,3.57,3.57,0,0,0-.76,2.79c.79,11.82,1.52,23.33,2.17,34.22.33,5.48.64,11.05.94,16.45q.28,5.34.59,10.7c.08,1.29.18,2.59.28,3.85.06.88.13,1.75.19,2.63a1.6,1.6,0,0,1-.22,1.14,1.21,1.21,0,0,1-.86.23l-.78,0c-.23,0-.47,0-.69,0-.88,0-1.16-.19-1.34-.92a13.12,13.12,0,0,1-.36-2.56q-.36-6.56-.73-13.12c-.85-15.22-1.73-30.95-2.5-46.42V127c-.31-6.1-.6-11.86-8.83-14.62A15.34,15.34,0,0,1,72.65,98.24c.06-7.13,4-11.72,10.35-12h.43c5.48,0,9.82,4.28,10.32,10.19.39,4.53.61,8.55.67,12.27,0,3.07,1.56,4.63,4.5,4.64h1l7.43,0,2.43,0c2.39,0,3.64-1.33,3.72-3.9.09-2.85.25-5.76.42-8.57.07-1.35.15-2.71.22-4.06.31-5.91,4.8-10.54,10.24-10.54m-6.75,21.38c0,.13-.06.29-.08.41a2.56,2.56,0,0,0,.22,2.2,1.58,1.58,0,0,0,1.27.55,4.26,4.26,0,0,0,1.49-.34c5.83-2.25,9.4-6,10.61-11.22a7.62,7.62,0,0,0-.95-6.11,6.5,6.5,0,0,0-4.54-2.73,7.33,7.33,0,0,0-1-.07c-3.58,0-6.21,2.74-6.55,6.82-.18,2.19-.29,4.37-.4,6.67,0,1-.1,2.1-.16,3.19l0,.51.15.12M89,111a1.46,1.46,0,0,0,1.06-.42c.55-.57.52-1.39.49-2.78s-.16-2.72-.23-4c-.14-2.72-.26-5.07-.57-7.46-.46-3.6-3-6-6.39-6a7.26,7.26,0,0,0-1.22.1,6.47,6.47,0,0,0-4.3,2.69,7.35,7.35,0,0,0-1.07,5.65c.93,4.84,3.88,8.43,9,11,1.78.88,2.53,1.23,3.21,1.23m35.33-25.72c-5.93,0-10.9,5-11.24,11.49-.21,4.21-.51,8.43-.64,12.65-.06,1.91-.78,2.92-2.72,2.93-3.29,0-6.58.05-9.86.05h-1c-2.41,0-3.46-1.17-3.5-3.65-.07-4.12-.32-8.24-.67-12.35-.56-6.52-5.33-11.1-11.32-11.1H83c-6.67.26-11.26,5.07-11.31,13a16.29,16.29,0,0,0,11,15.06c7.64,2.56,7.85,7.73,8.16,13.84,1,19.85,2.13,39.7,3.23,59.55a14.83,14.83,0,0,0,.39,2.74,2,2,0,0,0,2.31,1.68c.48,0,1-.06,1.47-.06h0c1.58,0,2.14-1,2-2.44-.15-2.16-.35-4.31-.47-6.47-.52-9-1-18.11-1.53-27.15q-1-17.12-2.17-34.22c-.12-1.82.59-2.56,1.94-2.56a4.41,4.41,0,0,1,.85.08,28.67,28.67,0,0,0,4.87.41,33.57,33.57,0,0,0,5.28-.43,5.79,5.79,0,0,1,.79-.06c1.6,0,2,1,1.92,2.89q-2.12,33.3-4.12,66.61c-.11,1.78,0,3.31,2.4,3.41h.42c2,0,3.18-.67,3.25-3q.15-4.63.44-9.27c1.17-19.33,2.44-38.65,3.44-58,.16-3,1-4.43,3.92-5.56,7.43-2.92,13.24-7.59,14.62-16.13,1.16-7.25-3.32-13.12-10.62-13.92q-.6-.06-1.17-.06ZM119,109.79c-1.39,0,0-2.27-.53-2.73.19-3.49.29-6.67.56-9.84.3-3.64,2.53-5.9,5.55-5.9a6.88,6.88,0,0,1,.89.06c3.59.51,5.56,3.72,4.65,7.63-1.26,5.45-5.13,8.63-10,10.51a3.35,3.35,0,0,1-1.13.27ZM89,110a9.37,9.37,0,0,1-2.77-1.13c-4.36-2.16-7.53-5.3-8.48-10.27C77.08,95,79,92,82.32,91.41a6.38,6.38,0,0,1,1.05-.09c2.78,0,5,1.92,5.4,5.15.45,3.45.5,7,.79,11.36,0,1.49,0,2.14-.55,2.14Z"/></svg>
