<svg id="Lag_1" data-name="Lag 1" xmlns="http://www.w3.org/2000/svg" width="260.67" height="265.67" viewBox="0 0 260.67 265.67"><defs><style>.cls-1{fill:#112f3b;}</style></defs><title>kodning</title><path class="cls-1" d="M24.28,141.45a4.33,4.33,0,0,1,0-6.13L96.29,63l6.14,6.11-69,69.28,70,69.69-6.12,6.14Z"/><path d="M96.29,63.67l5.43,5.41L33.46,137.65l-.7.71.7.71,69.3,69-5.41,5.44-72.72-72.4a3.83,3.83,0,0,1,0-5.42l71.67-72m0-1.41L23.91,135a4.83,4.83,0,0,0,0,6.83l73.43,73.1,6.83-6.85-70-69.69,69-69.28-6.86-6.82Z"/><path class="cls-1" d="M68.3,186,97.35,214.9ZM34.17,138.36l70,69.69h0Zm-10.64,3,0,0a4.82,4.82,0,0,1-1-2.91A4.82,4.82,0,0,0,23.53,141.36Zm-1-2.91,0,0,0,0,0,0,0-.55,0,0,0,0a4.81,4.81,0,0,1,1.1-2.6A4.81,4.81,0,0,0,22.53,137.87ZM96.28,62.26l6.86,6.82h0Z"/><path d="M96.28,61.55,23.55,134.61a5.35,5.35,0,0,0,0,7.55l73.79,73.45,7.52-7.56-70-69.69,69-69.28-7.56-7.53Zm1.07,152.64L24.28,141.45a4.33,4.33,0,0,1,0-6.13L96.29,63l6.14,6.11-69,69.28,70,69.69-6.12,6.14Z"/><path class="cls-1" d="M158.45,209.75l68.75-70.92L157,70.79l6-6.22,73.3,71.06a4.33,4.33,0,0,1,.09,6.12l-71.77,74Z"/><path d="M163.06,65.27,236,136a3.82,3.82,0,0,1,1.16,2.7,3.78,3.78,0,0,1-1.08,2.73l-71.42,73.67-5.51-5.34,68.06-70.2.7-.72-.72-.69L157.72,70.78l5.34-5.51m0-1.41-6.73,6.94,70.19,68-68.76,70.93,6.94,6.72L236.8,142.1a4.84,4.84,0,0,0-.1-6.83L163,63.86Z"/><path class="cls-1" d="M161.17,213.09l3.51,3.4Zm77-73.73a4.06,4.06,0,0,0,0-.7,4.92,4.92,0,0,0-.1-.94,4.92,4.92,0,0,1,.1.94A4.06,4.06,0,0,1,238.13,139.36Zm-.33-2.47,0,0a4.76,4.76,0,0,0-1.1-1.61L163,63.86l73.66,71.41A4.76,4.76,0,0,1,237.8,136.88Zm-78-69.65-3.46,3.57Z"/><path d="M163,63.15l-7.43,7.66,70.19,68-68.41,70.57-.35.36,7.66,7.42,72.47-74.75a5.34,5.34,0,0,0-.12-7.54L163,63.15Zm1.64,152.64-6.22-6,68.4-70.56.35-.36L157,70.79l6-6.22,73.3,71.06a4.33,4.33,0,0,1,.09,6.12l-71.77,74Z"/><rect class="cls-1" x="23.63" y="132.33" width="209.56" height="9" transform="matrix(0.15, -0.99, 0.99, 0.15, -26.17, 243.21)"/><path d="M140.12,33.14l7.91,1.2L116.69,240.53l-7.91-1.2L140.12,33.14M139.29,32,107.64,240.16l9.88,1.51L149.17,33.5,139.29,32Z"/></svg>
