<svg id="Layer_1" data-name="Layer 1" xmlns="http://www.w3.org/2000/svg" width="80.76mm" height="81.22mm" viewBox="0 0 228.93 230.22"><defs><style>.cls-1{stroke:#000;stroke-miterlimit:10;stroke-width:3px;}</style></defs><title>logo2</title><path d="M34.58,145.34H32.41L20.93,114.19V153.6H17.36v-49h3.71l12.32,34,12.46-34h3.92v49H46V114.19Z"/><path d="M81.27,143.8c0,7-3.78,10.36-11.2,10.36h-.14c-7.42,0-11.2-3.29-11.2-10.36V114.4c0-6.72,3.78-10.36,11.2-10.36h.14c7.42,0,11.2,3.64,11.2,10.36v8.4H77.49v-7.14c0-5.74-2-8.12-7.49-8.12s-7.49,2.38-7.49,8.12v26.88c0,5.74,2,8.12,7.49,8.12s7.49-2.38,7.49-8.12v-8.33h3.78Z"/><path d="M93.73,104.6v22.33h15.75V104.6h3.78v49h-3.78V130.43H93.73V153.6H90v-49Z"/><path d="M34.58,205.55H32.41L20.93,174.39v39.42H17.36v-49h3.71l12.32,34,12.46-34h3.92v49H46V174.39Z"/><path d="M76.23,205.55H74.06L62.58,174.39v39.42H59v-49h3.71l12.32,34,12.46-34h3.92v49H87.64V174.39Z"/><path d="M123.27,175.16v28.29c0,6.86-3.78,10.36-11.2,10.36H100.66v-49h11.41C119.49,164.8,123.27,168.3,123.27,175.16Zm-11.48-6.86h-7.35v42h7.35c5.53,0,7.7-2.31,7.7-8.12V176.42C119.49,170.61,117.32,168.3,111.79,168.3Z"/><path d="M132.23,213.81v-49h19.25v3.5H136v18.91h13.3v3.5H136v19.6h15.68v3.5Z"/><polygon class="cls-1" points="215.75 214.31 173.16 214.31 173.16 213.31 214.75 213.31 214.75 12.59 17.86 12.59 17.86 84.6 16.86 84.6 16.86 11.59 215.75 11.59 215.75 214.31"/></svg>
