<svg id="Layer_1" data-name="Layer 1" xmlns="http://www.w3.org/2000/svg" width="86.43mm" height="89.89mm" viewBox="0 0 245.01 254.82"><defs><style>.cls-1{stroke:#000;stroke-miterlimit:10;stroke-width:3px;}</style></defs><title>logo_done</title><path d="M43.77,160.66H41.6L30.12,129.5v39.42H26.55v-49h3.71l12.32,34,12.47-34H59v49H55.19V129.5Z"/><path d="M90.46,159.12c0,7-3.78,10.36-11.2,10.36h-.14c-7.42,0-11.2-3.29-11.2-10.36V129.71c0-6.72,3.78-10.36,11.2-10.36h.14c7.42,0,11.2,3.64,11.2,10.36v8.4H86.68V131c0-5.74-2-8.12-7.49-8.12S71.7,125.23,71.7,131v26.89c0,5.74,2,8.12,7.49,8.12s7.49-2.38,7.49-8.12v-8.33h3.78Z"/><path d="M102.92,119.91v22.33h15.75V119.91h3.78v49h-3.78V145.74H102.92v23.18H99.14v-49Z"/><path d="M43.77,220.86H41.6L30.12,189.71v39.41H26.55v-49h3.71l12.32,33.95,12.47-33.95H59v49H55.19V189.71Z"/><path d="M85.42,220.86H83.25L71.77,189.71v39.41H68.2v-49h3.71l12.32,33.95L96.7,180.12h3.92v49H96.84V189.71Z"/><path d="M132.46,190.48v28.28c0,6.86-3.78,10.36-11.2,10.36H109.85v-49h11.41C128.68,180.12,132.46,183.62,132.46,190.48ZM121,183.62h-7.35v42H121c5.53,0,7.7-2.31,7.7-8.12V191.74C128.68,185.93,126.51,183.62,121,183.62Z"/><path d="M141.42,229.12v-49h19.25v3.5H145.2v18.9h13.3V206H145.2v19.6h15.68v3.5Z"/><polygon class="cls-1" points="224.95 229.62 182.35 229.62 182.35 228.62 223.95 228.62 223.95 27.91 27.05 27.91 27.05 99.92 26.05 99.92 26.05 26.91 224.95 26.91 224.95 229.62"/></svg>
