<svg id="Lag_1" data-name="Lag 1" xmlns="http://www.w3.org/2000/svg" width="322" height="331" viewBox="0 0 322 331"><defs><style>.cls-1{fill:#112f3b;}</style></defs><title>portfolio_ikon</title><path class="cls-1" d="M60,309.5c-20.12,0-36.49-18.45-36.49-41.13V62.63C23.5,40,39.87,21.5,60,21.5H261c20.12,0,36.49,18.45,36.49,41.13V78.27c-.77,1.08-6.74,9-15.57,9h0c-5.5,0-11.08-3.05-16.55-9.06V56.43c0-6.45-4.69-11.69-10.44-11.69H52.82c-5.76,0-10.44,5.24-10.44,11.69v14c0,6.44,4.68,11.69,10.44,11.69H186.09c.1,0,5.29-.47,12.58-.47,17.48,0,47.22,2.6,49.88,20v0L249,103l.52-.28a33.84,33.84,0,0,1,15.75-3.86c17.77,0,32.22,13.57,32.22,30.26,0,.67,0,1.36-.09,2.19v.06l.11.62V268.37c0,22.68-16.37,41.13-36.49,41.13Zm9.25-49.34H268.71l-64.79-96-53.07,65.58-28.53-43.13Zm37.42-148.3c-9.87,0-17.9,9-17.9,20.08s8,20.08,17.9,20.08,17.89-9,17.89-20.08S116.53,111.86,106.66,111.86Z"/><path d="M261,22c19.85,0,36,18.23,36,40.63V78.11c-1,1.41-6.77,8.68-15.08,8.68-5.31,0-10.72-3-16.05-8.75V56.43c0-6.72-4.91-12.19-10.94-12.19H52.82c-6,0-10.94,5.47-10.94,12.19v14c0,6.72,4.91,12.19,10.94,12.19H186.18s5.23-.46,12.49-.46c8.33,0,20.38.61,30.48,3.51,11.41,3.28,17.78,8.69,18.91,16.1l0,.11,0,.09.18.5.06.19.38,1.1,1-.54a33.26,33.26,0,0,1,15.52-3.81c17.49,0,31.72,13.35,31.72,29.76,0,.65,0,1.33-.09,2.15v.12l0,.11,0,.27c0,.07,0,.15,0,.23V268.37c0,22.4-16.14,40.63-36,40.63H60c-19.85,0-36-18.23-36-40.63V62.63C24,40.23,40.14,22,60,22H261M106.66,152.52c10.14,0,18.39-9.23,18.39-20.58s-8.25-20.58-18.39-20.58-18.39,9.23-18.39,20.58,8.25,20.58,18.39,20.58m44.23,76.4L123.14,187l-.8-1.21-.85,1.17L69.4,259.07l-1.14,1.59H269.65l-1-1.56-63.89-94.63-.76-1.12-.85,1.05-52.21,64.52M261,21H60C39.64,21,23,39.73,23,62.63V268.37C23,291.27,39.64,310,60,310H261c20.35,0,37-18.73,37-41.63V131.94c0-.2-.06-.38-.09-.57,0-.74.09-1.48.09-2.23,0-17-14.65-30.76-32.72-30.76a34.19,34.19,0,0,0-16,3.92c-.09-.24-.17-.48-.25-.71-2.73-17.82-32.81-20.46-50.38-20.46-7.4,0-12.58.47-12.58.47H52.82c-5.47,0-9.94-5-9.94-11.19v-14c0-6.16,4.47-11.19,9.94-11.19H254.93c5.46,0,9.94,5,9.94,11.19v22c6.35,7,12.15,9.37,17.05,9.37,9.82,0,16.08-9.37,16.08-9.37V62.63C298,39.73,281.36,21,261,21ZM106.66,151.52c-9.61,0-17.39-8.77-17.39-19.58s7.78-19.58,17.39-19.58,17.39,8.77,17.39,19.58-7.78,19.58-17.39,19.58Zm44.15,79.09L203.88,165l63.89,94.63H70.21l52.09-72.14,28.51,43.09Z"/></svg>
